<?xml version="1.0" encoding="UTF-8" standalone="no"?>
<svg
   xmlns:dc="http://purl.org/dc/elements/1.1/"
   xmlns:cc="http://creativecommons.org/ns#"
   xmlns:rdf="http://www.w3.org/1999/02/22-rdf-syntax-ns#"
   xmlns:svg="http://www.w3.org/2000/svg"
   xmlns="http://www.w3.org/2000/svg"
   xmlns:xlink="http://www.w3.org/1999/xlink"
   xmlns:sodipodi="http://sodipodi.sourceforge.net/DTD/sodipodi-0.dtd"
   xmlns:inkscape="http://www.inkscape.org/namespaces/inkscape"
   version="1.1"
   id="svg2"
   width="577.00006"
   height="194.44383"
   viewBox="0 0 577.00006 194.44383"
   sodipodi:docname="fbneo.svg"
   inkscape:version="1.0.1 (3bc2e813f5, 2020-09-07)">
  <metadata
     id="metadata8">
    <rdf:RDF>
      <cc:Work
         rdf:about="">
        <dc:format>image/svg+xml</dc:format>
        <dc:type
           rdf:resource="http://purl.org/dc/dcmitype/StillImage" />
        <dc:title></dc:title>
      </cc:Work>
    </rdf:RDF>
  </metadata>
  <defs
     id="defs6">
    <linearGradient
       inkscape:collect="always"
       id="linearGradient194">
      <stop
         style="stop-color:#f09525;stop-opacity:1;"
         offset="0"
         id="stop190" />
      <stop
         style="stop-color:#f09525;stop-opacity:0;"
         offset="1"
         id="stop192" />
    </linearGradient>
    <radialGradient
       inkscape:collect="always"
       xlink:href="#linearGradient194"
       id="radialGradient196"
       cx="108.82162"
       cy="235.43422"
       fx="108.82162"
       fy="235.43422"
       r="285.72211"
       gradientTransform="matrix(0.79086277,-0.01501083,0.02242897,1.1826201,19.154251,-109.28284)"
       gradientUnits="userSpaceOnUse" />
    <filter
       inkscape:collect="always"
       style="color-interpolation-filters:sRGB"
       id="filter1137"
       x="-0.0027792343"
       width="1.0055585"
       y="-0.0096944665"
       height="1.0193889">
      <feGaussianBlur
         inkscape:collect="always"
         stdDeviation="0.41908861"
         id="feGaussianBlur1139" />
    </filter>
  </defs>
  <sodipodi:namedview
     pagecolor="#ffffff"
     bordercolor="#666666"
     borderopacity="1"
     objecttolerance="10"
     gridtolerance="10"
     guidetolerance="10"
     inkscape:pageopacity="0"
     inkscape:pageshadow="2"
     inkscape:window-width="1600"
     inkscape:window-height="837"
     id="namedview4"
     showgrid="false"
     inkscape:zoom="1.0164577"
     inkscape:cx="319"
     inkscape:cy="107.5"
     inkscape:window-x="-8"
     inkscape:window-y="-8"
     inkscape:window-maximized="1"
     inkscape:current-layer="g10" />
  <g
     inkscape:groupmode="layer"
     inkscape:label="Image"
     id="g10">
    <g
       id="g1144">
      <path
         id="path139-4"
         style="fill:#961010;fill-opacity:1;stroke:none;stroke-width:0.983809;stroke-opacity:1"
         d="m 64.854899,3.216228 c -0.94881,0 1.10734,6.5955 3.52735,11.314447 3.32253,6.47887 7.79468,10.58969 14.92383,13.71875 3.24554,1.42451 5.425499,2.91302 4.91796,3.35742 -0.5015,0.43913 -3.1246,1.5981 -5.83007,2.57618 -7.3079,2.64194 -17.69109,8.15769 -19.79493,10.51367 -1.81403,2.03144 -1.81218,2.05807 0.11914,1.50195 11.02954,-3.17594 27.282659,-3.42969 27.853519,-0.43555 0.22412,1.17552 -1.24008,2.69201 -4.638669,4.80469 -5.38925,3.35014 -5.5806,4.29411 -1.06836,5.28516 3.906559,0.85802 3.869209,3.66998 -0.13086,9.70898 -4.90953,7.41205 -11.0974,11.29233 -24.9668,15.65821 -11.05197,3.479 -16.25516,4.12393 -18.6914,2.31836 -2.19446,-1.62638 -2.79314,-0.14102 8.24609,-20.42188 5.8481,-10.7439 9.75524,-25.43736 8.30273,-31.22461 -0.52887,-2.10719 -0.81648,-1.68811 -1.96289,2.875 -1.76081,7.0087 -5.3018,13.79113 -10.15429,19.45117 -2.16115,2.52081 -6.20465,7.23976 -8.98633,10.48633 -5.80809,6.77876 -8.89726,12.92929 -11.25977,22.41993 -2.74663,11.03372 -3.86377,7.98103 -3.85937,-10.54297 l 0.004,-16.47462 -2.70898,8.69336 c -4.0029,12.84511 -4.99279,20.45841 -3.78711,29.12696 1.30176,9.359285 5.42058,22.410715 8.50977,26.962885 2.76418,4.07325 2.98296,5.23828 0.98437,5.23828 -5.63555,0 -14.69569,-16.52275 -17.26367,-31.482415 -0.63172,-3.68006 -0.77723,-2.85107 -0.86133,4.917965 -0.10887,10.0572 1.64635,19.4756 4.72656,25.36523 3.29596,6.30215 10.72146,14.84829 14.63672,16.84571 2.06651,1.05425 4.39253,2.68212 5.16797,3.61718 1.2319,1.48547 1.47254,-2.32424 1.90235,-30.17968 l 0.49218,-31.880855 h 33.44922 33.449221 l 0.27734,11.06836 0.2793,11.068355 H 80.950709 61.241719 v 7.8457 7.84765 l 16.97071,0.26954 16.970699,0.26953 v 10.82226 10.82227 l -16.970699,0.26758 -16.97071,0.26953 v 20.14453 20.14648 l -14.50976,0.0879 c -14.34871,0.087 -14.45772,0.10233 -9.59375,1.51368 2.70547,0.78503 8.90358,1.79021 13.77343,2.23242 4.86986,0.44222 34.11557,0.86626 64.990241,0.94336 54.29521,0.1356 56.40798,0.0723 64.43945,-1.95703 6.6005,-1.66779 9.45994,-3.00661 13.94141,-6.52539 5.15876,-4.05058 12.4834,-13.42871 11.36328,-14.54883 -0.25787,-0.25787 -2.41689,0.59623 -4.79883,1.89648 -2.38194,1.30025 -5.92381,2.86663 -7.86914,3.48242 -1.94534,0.61579 -4.06485,2.10723 -4.71094,3.31446 -1.43517,2.68164 -6.53153,6.27376 -11.03515,7.77734 -2.0764,0.69322 -14.75605,1.27432 -33.45899,1.5332 -24.54391,0.33972 -30.18549,0.17435 -30.49804,-0.89648 -0.21092,-0.72265 -0.16117,-23.44917 0.10937,-50.50391 l 0.49219,-49.191395 h 29.02148 c 33.1553,0 35.65288,0.44958 41.67774,7.48828 9.09701,10.627805 7.97623,30.271885 -2.10742,36.949215 l -3.22657,2.13672 3.71875,2.11132 c 2.04472,1.16174 5.20028,4.06389 7.01172,6.44922 3.24701,4.27575 3.33266,4.31662 6.10156,2.88477 1.54471,-0.79879 5.46095,-4.60337 8.70313,-8.45508 4.40019,-5.22743 6.41744,-8.65817 7.95703,-13.52734 2.79779,-8.8484 4.20121,-20.24685 3.16406,-25.707035 l -0.84179,-4.42773 -1.23633,5.9043 c -2.43853,11.635785 -4.33882,16.809095 -8.20313,22.343745 -3.85777,5.52528 -8.22132,9.3607 -9.35742,8.22461 -0.31765,-0.31765 1.0561,-3.83825 3.05273,-7.82422 8.52801,-17.02481 9.72526,-34.428355 3.6504,-53.085935 -1.73372,-5.32474 -3.302,-9.53004 -3.48438,-9.34571 -0.18238,0.18434 0.11088,4.3196 0.65234,9.18946 1.23139,11.07507 0.26329,25.08594 -1.73437,25.08594 -0.79931,0 -1.38867,-0.97645 -1.38867,-2.30469 0,-6.5217 -7.04702,-20.73799 -14.22071,-28.68555 -2.44204,-2.70547 -4.44607,-5.20787 -4.45507,-5.5625 -0.008,-0.35463 -1.63356,-2.56907 -3.60938,-4.91992 -4.22079,-5.02191 -6.76469,-10.37254 -8.27148,-17.39844 -0.59867,-2.79152 -1.53867,-5.07617 -2.08985,-5.07617 -1.99012,0 1.55169,22.87935 4.02735,26.01562 0.4516,0.5721 3.80601,6.73839 7.45312,13.70313 5.26543,10.05533 6.35332,12.84727 5.28906,13.56055 -1.89334,1.26894 -17.72583,-0.0429 -25.93359,-2.14844 -15.4446,-3.96191 -23.8696,-9.67548 -28.14648,-19.0918 -1.93715,-4.26498 -2.44234,-9.9201 -0.9668,-10.83203 1.13154,-0.69934 14.6415,1.11257 21.61719,2.89844 6.55941,1.67929 10.9251,5.5694 10.9707,9.77539 l 0.0332,3.01172 1.93555,-2.32227 c 1.19582,-1.43541 1.93359,-3.78623 1.93359,-6.15625 0,-3.28425 -0.78491,-4.68997 -5.47265,-9.78906 -3.54036,-3.85102 -5.41368,-6.71418 -5.30274,-8.10742 0.35811,-4.49786 -0.16906,-5.66907 -4.50976,-10.00977 -5.80894,-5.80894 -11.05963,-9.06297 -19.24805,-11.92383 -5.71519,-1.99677 -20.37902,-4.326547 -28.429692,-4.517567 -9.45559,-0.22437 -26.399749,-4.73108 -31.169919,-8.29102 -1.72245,-1.28546 -3.33627,-2.33789 -3.58594,-2.33789 z M 129.4467,34.278725 c 0.83049,0.0289 1.79533,0.17866 2.86719,0.47461 3.85803,1.06525 11.56836,7.30845 11.56836,9.36719 0,0.76947 -0.62026,1.40039 -1.37696,1.40039 -1.31123,0 -9.40427,-3.98449 -14.11914,-6.95117 -3.62037,-2.27801 -2.53825,-4.41625 1.06055,-4.29102 z m 371.45899,54.94336 c -12.5108,0.002 -24.50581,2.76485 -33.49805,8.53516 -10.36987,6.654315 -15.26324,18.352495 -14.31641,34.224605 1.00492,16.84565 4.88007,27.18903 14.38086,38.38476 10.37434,12.22512 23.35094,18.82477 43.3711,22.0586 1.35272,0.21852 8.0554,0.45755 14.89453,0.53125 10.19981,0.10989 14.04598,-0.28463 21.40234,-2.19532 13.93036,-3.61817 21.26126,-9.68893 25.20898,-20.87695 3.57255,-10.12477 3.13473,-17.71861 -1.98632,-34.3457 C 567.18269,125.21351 559.30286,113.05954 551.2924,106.12247 538.5762,95.110235 519.19069,89.218505 500.90569,89.222085 Z m -237.37696,1.55274 c -13.55979,0 -15.18678,0.1801 -15.65234,1.72265 -0.28579,0.94692 -2.79542,8.140445 -5.57617,15.986325 -2.78075,7.84588 -7.21582,20.46373 -9.85547,28.03906 -2.63966,7.57533 -6.10111,17.31383 -7.69336,21.64258 -1.59225,4.32876 -4.00402,11.19179 -5.35938,15.25 -1.35535,4.05821 -3.39794,9.70222 -4.53906,12.54297 l -2.07617,5.16601 h 17.94531 17.94336 l 3.68359,-12.54492 c 2.02583,-6.89896 4.52726,-15.87786 5.5586,-19.95508 3.1309,-12.37729 8.06828,-27.51367 8.97461,-27.51367 0.46995,0 7.62077,13.50247 15.89258,30.00586 l 15.04101,30.00781 h 18.24219 18.24414 l 2.28906,-18.93945 c 1.25942,-10.41608 3.7665,-30.00583 5.57031,-43.5332 1.80381,-13.52737 3.57277,-27.58394 3.93165,-31.236325 l 0.65234,-6.64062 h -14.36524 c -7.90046,0 -14.36328,0.25427 -14.36328,0.56445 0,0.31017 -1.50115,7.94699 -3.33398,16.970695 -1.83285,9.02371 -3.90162,20.04023 -4.59766,24.48242 -0.69604,4.44219 -1.78113,8.27545 -2.41211,8.51758 -0.63971,0.24548 -2.81338,-2.67525 -4.91406,-6.60156 -2.07199,-3.87267 -5.30942,-9.47515 -7.19336,-12.45117 -1.88395,-2.97602 -3.91622,-6.51836 -4.51562,-7.8711 -0.59941,-1.35273 -3.63157,-6.73108 -6.73829,-11.95312 -3.10669,-5.222045 -5.64843,-9.981445 -5.64843,-10.576165 0,-0.73903 -4.79124,-1.08203 -15.13477,-1.08203 z m 137.10742,0 c -39.28357,0 -42.18752,0.11811 -42.6875,1.72265 -0.29507,0.94692 -1.00148,7.918805 -1.57031,15.494135 -1.04357,13.89776 -2.1942,25.44514 -6.24609,62.71875 l -2.21875,20.41406 h 53.55859 53.56055 l -0.63672,-4.64453 c -0.35013,-2.55444 -0.91738,-8.31121 -1.26172,-12.79101 l -0.62695,-8.14453 h -32.8125 -32.8125 l 0.01,-6.14844 c 0.005,-3.38184 0.2877,-8.4737 0.62891,-11.31445 l 0.61914,-5.16407 h 27.88672 27.88672 l -0.5293,-6.14843 c -0.29119,-3.38184 -0.74754,-7.5891 -1.01367,-9.34766 l -0.48438,-3.19727 h -26.45898 c -14.5531,0 -26.68044,-0.35415 -26.94922,-0.78906 -0.26883,-0.4349 -0.23096,-4.19888 0.084,-8.36328 l 0.57227,-7.57227 h 27.95703 27.95703 l -0.60351,-4.67187 c -0.33237,-2.5702 -0.84142,-6.334175 -1.13086,-8.363275 l -0.52735,-3.68945 z m 104.94141,17.279285 c 7.36346,-0.0667 15.2972,2.53938 20.60352,7.84571 5.25664,5.25664 8.05193,10.68172 10.37109,20.125 3.15535,12.84818 2.11638,22.4563 -2.91211,26.93554 -1.1378,1.01352 -4.62941,2.44505 -7.75977,3.18164 -6.7466,1.5875 -6.92937,1.58748 -14.6875,-0.0996 -11.61583,-2.52598 -18.02168,-9.18009 -22.50586,-23.375 -3.25182,-10.29387 -3.36931,-20.94868 -0.29101,-26.42578 3.02475,-5.38182 9.81818,-8.12077 17.18164,-8.1875 z m -363.66406,1.41407 v 8.48437 8.48633 l 8.51562,-0.44727 c 7.87631,-0.41341 8.69391,-0.65593 10.92188,-3.24609 1.90207,-2.2113 2.29231,-3.51347 1.85742,-6.19336 -0.98738,-6.08456 -2.76366,-7.084 -12.5918,-7.08398 z M 3.319749,132.25333 c -0.54264,0.0778 1.62342,8.09938 3.85937,13.68164 2.36845,5.91305 4.23836,8.68861 9.0918,13.48828 3.36087,3.32364 8.10218,7.13443 10.53711,8.46875 2.43493,1.33432 4.77624,2.45785 5.20312,2.49805 0.42689,0.0402 0.64853,-3.74189 0.49219,-8.40625 l -0.2832,-8.48047 -4.89063,-1.91992 c -9.76049,-3.82856 -20.11999,-12.00988 -23.41211,-18.49023 -0.30297,-0.59639 -0.49717,-0.85426 -0.59765,-0.83985 z m 214.699221,0.0859 c -0.31009,0.0871 -0.87603,0.8666 -1.69141,2.44336 -2.07793,4.01829 -8.05993,9.18763 -15.13672,13.07812 l -6.01758,3.30664 -0.3125,8.17579 c -0.17185,4.49589 -0.1728,8.17287 -0.002,8.17187 1.2985,-0.01 5.44048,-3.0706 9.86328,-7.28906 5.74608,-5.48058 8.55732,-10.32987 11.92578,-20.56836 1.45908,-4.4349 1.93948,-7.10718 1.48828,-7.31445 -0.0338,-0.0155 -0.0729,-0.0164 -0.11718,-0.004 z M 141.9135,146.8529 v 9.3457 9.34571 h 8.70898 c 7.43494,0 9.19884,-0.32754 12.05274,-2.24414 2.50151,-1.67994 3.42186,-3.07587 3.66015,-5.54688 0.83193,-8.62687 -2.40369,-10.90039 -15.51758,-10.90039 z M 14.220139,167.97599 c -0.0608,-0.012 -0.10864,-0.0115 -0.14258,0.002 -0.0388,0.0154 -0.0586,0.0488 -0.0586,0.0996 0,2.02122 6.77438,10.87483 11.63281,15.20508 3.01714,2.68913 5.8384,4.89062 6.27148,4.89062 0.43309,0 0.78907,-2.54987 0.78907,-5.66601 v -5.66602 l -6.44727,-2.3125 c -3.54574,-1.27164 -7.75104,-3.41013 -9.3457,-4.75195 -1.22092,-1.02733 -2.27335,-1.71661 -2.69922,-1.80078 z" />
      <path
         id="path139"
         style="fill:url(#radialGradient196);fill-opacity:1;stroke:none;stroke-width:0.983809;stroke-opacity:1"
         d="m 64.854899,3.2162317 c -0.94881,0 1.10734,6.5955 3.52735,11.3144503 3.32253,6.47887 7.79468,10.58969 14.92383,13.71875 3.24554,1.42451 5.4255,2.91302 4.91796,3.35742 -0.5015,0.43913 -3.1246,1.5981 -5.83007,2.57618 -7.3079,2.64194 -17.69109,8.15769 -19.79493,10.51367 -1.81403,2.03144 -1.81218,2.05807 0.11914,1.50195 11.02954,-3.17594 27.28266,-3.42969 27.85352,-0.43555 0.22412,1.17552 -1.24008,2.69201 -4.63867,4.80469 -5.38925,3.35014 -5.5806,4.29411 -1.06836,5.28516 3.90656,0.85802 3.86921,3.66998 -0.13086,9.70898 -4.90953,7.412042 -11.0974,11.292325 -24.9668,15.658205 -11.05197,3.479 -16.25516,4.123931 -18.6914,2.31836 -2.19446,-1.62638 -2.79314,-0.14102 8.24609,-20.421875 5.8481,-10.7439 9.75524,-25.43736 8.30273,-31.22461 -0.52887,-2.10719 -0.81648,-1.68811 -1.96289,2.875 -1.76081,7.0087 -5.3018,13.79113 -10.15429,19.45117 -2.16115,2.52081 -6.20465,7.23976 -8.98633,10.48633 -5.80809,6.778761 -8.89726,12.929287 -11.25977,22.419922 -2.74663,11.033722 -3.86377,7.981033 -3.85937,-10.542969 l 0.004,-16.474613 -2.70898,8.69336 c -4.0029,12.845102 -4.99279,20.458404 -3.78711,29.126956 1.30176,9.359292 5.42058,22.410722 8.50977,26.962892 2.76418,4.07325 2.98296,5.23828 0.98437,5.23828 -5.63555,0 -14.6956896,-16.52275 -17.2636696,-31.482422 -0.63172,-3.680062 -0.77723,-2.851068 -0.86133,4.917972 -0.10887,10.0572 1.64635,19.4756 4.7265596,25.36523 3.29596,6.30215 10.72146,14.84829 14.63672,16.84571 2.06651,1.05425 4.39253,2.68212 5.16797,3.61718 1.2319,1.48547 1.47254,-2.32424 1.90235,-30.17968 l 0.49218,-31.880865 h 33.44922 33.449221 l 0.27734,11.06836 0.2793,11.068365 H 80.950709 61.241719 v 7.8457 7.84765 l 16.97071,0.26954 16.9707,0.26953 v 10.82226 10.82227 l -16.9707,0.26758 -16.97071,0.26953 v 20.14453 20.14648 l -14.50976,0.0879 c -14.34871,0.087 -14.45772,0.10233 -9.59375,1.51368 2.70547,0.78503 8.90358,1.79021 13.77343,2.23242 4.86986,0.44222 34.11557,0.86626 64.990241,0.94336 54.29521,0.1356 56.40798,0.0723 64.43945,-1.95703 6.6005,-1.66779 9.45994,-3.00661 13.94141,-6.52539 5.15876,-4.05058 12.4834,-13.42871 11.36328,-14.54883 -0.25787,-0.25787 -2.41689,0.59623 -4.79883,1.89648 -2.38194,1.30025 -5.92381,2.86663 -7.86914,3.48242 -1.94534,0.61579 -4.06485,2.10723 -4.71094,3.31446 -1.43517,2.68164 -6.53153,6.27376 -11.03515,7.77734 -2.0764,0.69322 -14.75605,1.27432 -33.45899,1.5332 -24.54391,0.33972 -30.18549,0.17435 -30.49804,-0.89648 -0.21092,-0.72265 -0.16117,-23.44917 0.10937,-50.50391 l 0.49219,-49.191405 h 29.02148 c 33.1553,0 35.65288,0.449583 41.67774,7.488282 9.09701,10.627813 7.97623,30.271893 -2.10742,36.949223 l -3.22657,2.13672 3.71875,2.11132 c 2.04472,1.16174 5.20028,4.06389 7.01172,6.44922 3.24701,4.27575 3.33266,4.31662 6.10156,2.88477 1.54471,-0.79879 5.46095,-4.60337 8.70313,-8.45508 4.40019,-5.22743 6.41744,-8.65817 7.95703,-13.52734 2.79779,-8.8484 4.20121,-20.24685 3.16406,-25.707037 l -0.84179,-4.427734 -1.23633,5.904297 c -2.43853,11.635794 -4.33882,16.809104 -8.20313,22.343754 -3.85777,5.52528 -8.22132,9.3607 -9.35742,8.22461 -0.31765,-0.31765 1.0561,-3.83825 3.05273,-7.82422 8.52801,-17.02481 9.72526,-34.428362 3.6504,-53.085938 -1.73372,-5.32474 -3.302,-9.53004 -3.48438,-9.34571 -0.18238,0.18434 0.11088,4.3196 0.65234,9.18946 1.23139,11.075064 0.26329,25.085935 -1.73437,25.085935 -0.79931,0 -1.38867,-0.976446 -1.38867,-2.304688 0,-6.5217 -7.04702,-20.737986 -14.22071,-28.685547 -2.44204,-2.70547 -4.44607,-5.20787 -4.45507,-5.5625 -0.008,-0.35463 -1.63356,-2.56907 -3.60938,-4.91992 -4.22079,-5.02191 -6.76469,-10.37254 -8.27148,-17.39844 -0.59867,-2.79152 -1.53867,-5.07617 -2.08985,-5.07617 -1.99012,0 1.55169,22.87935 4.02735,26.01562 0.4516,0.5721 3.80601,6.73839 7.45312,13.703129 5.26543,10.055328 6.35332,12.847268 5.28906,13.560547 -1.89334,1.268945 -17.72583,-0.04295 -25.93359,-2.148438 -15.4446,-3.961909 -23.8696,-9.675479 -28.14648,-19.091798 -1.93715,-4.26498 -2.44234,-9.9201 -0.9668,-10.83203 1.13154,-0.69934 14.6415,1.11257 21.61719,2.89844 6.55941,1.67929 10.9251,5.5694 10.9707,9.77539 l 0.0332,3.01172 1.93555,-2.32227 c 1.19582,-1.43541 1.93359,-3.78623 1.93359,-6.15625 0,-3.28425 -0.78491,-4.68997 -5.47265,-9.78906 -3.54036,-3.85102 -5.41368,-6.71418 -5.30274,-8.10742 0.35811,-4.49786 -0.16906,-5.66907 -4.50976,-10.00977 -5.80894,-5.80894 -11.05963,-9.06297 -19.24805,-11.92383 -5.71519,-1.99677 -20.37902,-4.32655 -28.429691,-4.51757 -9.45559,-0.22437 -26.39975,-4.7310803 -31.16992,-8.2910203 -1.72245,-1.28546 -3.33627,-2.33789 -3.58594,-2.33789 z M 129.4467,34.278732 c 0.83049,0.0289 1.79533,0.17866 2.86719,0.47461 3.85803,1.06525 11.56836,7.30845 11.56836,9.36719 0,0.76947 -0.62026,1.40039 -1.37696,1.40039 -1.31123,0 -9.40427,-3.98449 -14.11914,-6.95117 -3.62037,-2.27801 -2.53825,-4.41625 1.06055,-4.29102 z m 12.4668,75.189458 v 8.48437 8.48633 l 8.51562,-0.44727 c 7.87631,-0.41341 8.69391,-0.65593 10.92188,-3.24609 1.90207,-2.2113 2.29231,-3.51347 1.85742,-6.19336 -0.98738,-6.08456 -2.76366,-7.084 -12.5918,-7.08398 z M 3.3197494,132.25334 c -0.54264,0.0778 1.62342,8.09938 3.85937,13.68164 2.36845,5.91305 4.2383596,8.68861 9.0917996,13.48828 3.36087,3.32364 8.10218,7.13443 10.53711,8.46875 2.43493,1.33432 4.77624,2.45785 5.20312,2.49805 0.42689,0.0402 0.64853,-3.74189 0.49219,-8.40625 l -0.2832,-8.48047 -4.89063,-1.91992 c -9.76049,-3.82856 -20.1199896,-12.00988 -23.4121096,-18.49023 -0.30297,-0.59639 -0.49717,-0.85426 -0.59765,-0.83985 z m 214.6992206,0.0859 c -0.31009,0.0871 -0.87603,0.8666 -1.69141,2.44336 -2.07793,4.01829 -8.05993,9.18763 -15.13672,13.07812 l -6.01758,3.30664 -0.3125,8.17579 c -0.17185,4.49589 -0.1728,8.17287 -0.002,8.17187 1.2985,-0.01 5.44048,-3.0706 9.86328,-7.28906 5.74608,-5.48058 8.55732,-10.32987 11.92578,-20.56836 1.45908,-4.4349 1.93948,-7.10718 1.48828,-7.31445 -0.0338,-0.0155 -0.0729,-0.0164 -0.11718,-0.004 z m -76.10547,14.51367 v 9.3457 9.34571 h 8.70898 c 7.43494,0 9.19884,-0.32754 12.05274,-2.24414 2.50151,-1.67994 3.42186,-3.07587 3.66015,-5.54688 0.83193,-8.62687 -2.40369,-10.90039 -15.51758,-10.90039 z M 14.220139,167.976 c -0.0608,-0.012 -0.10864,-0.0115 -0.14258,0.002 -0.0388,0.0154 -0.0586,0.0488 -0.0586,0.0996 0,2.02122 6.77438,10.87483 11.63281,15.20508 3.01714,2.68913 5.8384,4.89062 6.27148,4.89062 0.43309,0 0.78907,-2.54987 0.78907,-5.66601 v -5.66602 l -6.44727,-2.3125 c -3.54574,-1.27164 -7.75104,-3.41013 -9.3457,-4.75195 -1.22092,-1.02733 -2.27335,-1.71661 -2.69922,-1.80078 z"
         sodipodi:nodetypes="scssssssssssssscssscccsssssssscccccccccccccccccccssssssssssssccsscccsssscccssssssssscsssscssssscccsscssssssssssssccccssscssssscccsscsccscssscccccssssccsssssccscc" />
      <path
         style="color:#000000;font-style:normal;font-variant:normal;font-weight:normal;font-stretch:normal;font-size:medium;line-height:normal;font-family:sans-serif;font-variant-ligatures:normal;font-variant-position:normal;font-variant-caps:normal;font-variant-numeric:normal;font-variant-alternates:normal;font-variant-east-asian:normal;font-feature-settings:normal;font-variation-settings:normal;text-indent:0;text-align:start;text-decoration:none;text-decoration-line:none;text-decoration-style:solid;text-decoration-color:#000000;letter-spacing:normal;word-spacing:normal;text-transform:none;writing-mode:lr-tb;direction:ltr;text-orientation:mixed;dominant-baseline:auto;baseline-shift:baseline;text-anchor:start;white-space:normal;shape-padding:0;shape-margin:0;inline-size:0;clip-rule:nonzero;display:inline;overflow:visible;visibility:visible;isolation:auto;mix-blend-mode:normal;color-interpolation:sRGB;color-interpolation-filters:linearRGB;solid-color:#000000;solid-opacity:1;vector-effect:none;fill:#f09525;fill-opacity:1;fill-rule:nonzero;stroke:none;stroke-width:3.484;stroke-linecap:butt;stroke-linejoin:miter;stroke-miterlimit:4;stroke-dasharray:none;stroke-dashoffset:0;stroke-opacity:1;color-rendering:auto;image-rendering:auto;shape-rendering:auto;text-rendering:auto;enable-background:accumulate;stop-color:#000000;stop-opacity:1;opacity:1;filter:url(#filter1137)"
         d="M 500.90625 87.480469 C 488.13916 87.48251 475.83894 90.276925 466.4668 96.291016 C 455.52556 103.31198 450.38046 115.8069 451.35156 132.08594 C 452.36981 149.15501 456.45246 160.07301 466.14453 171.49414 C 476.78244 184.02985 490.29295 190.8701 510.56445 194.14453 C 511.58928 194.31009 513.45395 194.38939 516.17188 194.48633 C 518.8898 194.58326 522.28502 194.66222 525.71875 194.69922 C 535.96819 194.80965 540.13524 194.38043 547.57812 192.44727 C 561.82345 188.74728 569.88509 182.10259 573.99219 170.46289 C 577.67054 160.03827 577.18409 151.76838 572.02734 135.02539 C 568.72223 124.29429 560.77785 112.03083 552.43359 104.80469 C 539.28753 93.42018 519.56569 87.476815 500.90625 87.480469 z M 263.5293 89.033203 C 256.74169 89.033203 252.95847 89.066636 250.60156 89.326172 C 249.42311 89.45594 248.57125 89.616136 247.7793 90.046875 C 246.98735 90.477614 246.40376 91.34879 246.20898 91.994141 C 246.12107 92.285444 245.38833 94.436323 244.37891 97.330078 C 243.36948 100.22383 242.0477 103.98188 240.6582 107.90234 C 237.87583 115.75281 233.4402 128.36894 230.79883 135.94922 C 228.16223 143.51577 224.69959 153.26247 223.11719 157.56445 C 221.51575 161.9182 219.10535 168.77586 217.74023 172.86328 C 216.39774 176.883 214.34798 182.54121 213.23633 185.30859 L 210.19922 192.86719 L 230.72266 192.86719 L 249.96875 192.86719 L 254.01953 179.07031 C 256.05126 172.15126 258.54925 163.18775 259.5957 159.05078 C 261.14917 152.90952 263.1596 146.05447 264.88477 140.76562 C 265.70452 138.25249 266.44339 136.17217 267.04492 134.63086 C 267.88568 136.11903 268.99294 138.15288 270.36328 140.74023 C 273.23455 146.16148 277.08572 153.65442 281.2168 161.89648 L 296.74023 192.86719 L 316.05859 192.86719 L 335.8457 192.86719 L 338.32031 172.39453 C 339.57791 161.99356 342.08603 142.40139 343.88867 128.88281 C 345.69366 115.34663 347.45535 101.35988 347.82617 97.585938 L 348.66797 89.033203 L 332.38086 89.033203 C 328.41194 89.033203 324.80577 89.095521 322.16797 89.199219 C 320.84907 89.251068 319.77725 89.311974 318.99023 89.384766 C 318.59673 89.421162 318.28333 89.458622 317.98438 89.515625 C 317.8349 89.544127 317.69798 89.567554 317.4668 89.65625 C 317.35121 89.700598 317.20962 89.74917 316.97461 89.929688 C 316.7396 90.110205 316.27539 90.573988 316.27539 91.339844 C 316.27539 91.007943 316.28551 91.165113 316.27734 91.21875 C 316.26918 91.272387 316.25351 91.367254 316.23242 91.488281 C 316.19025 91.730336 316.12491 92.08518 316.04102 92.53125 C 315.87323 93.423391 315.62979 94.685423 315.32812 96.220703 C 314.72479 99.291263 313.89236 103.45406 312.97656 107.96289 C 311.13956 117.00705 309.07481 127.99487 308.36523 132.52344 C 308.02678 134.68347 307.59018 136.70265 307.17969 138.15234 C 307.14694 138.26798 307.12228 138.3078 307.08984 138.41602 C 306.29011 137.32872 305.28647 135.73999 304.29492 133.88672 C 302.19654 129.96471 298.96712 124.37496 297.03711 121.32617 C 295.18448 118.39963 293.10748 114.72888 292.64258 113.67969 C 292.24854 112.79044 291.36812 111.18673 290.13867 109.00586 C 288.90922 106.82498 287.36899 104.16581 285.80859 101.54297 C 284.26741 98.952384 282.86551 96.473768 281.85938 94.589844 C 281.35631 93.647882 280.95056 92.850069 280.68555 92.285156 C 280.55304 92.0027 280.45667 91.776134 280.40625 91.644531 C 280.35583 91.512929 280.40625 91.311342 280.40625 91.857422 C 280.40625 91.340664 280.16107 90.85447 279.91992 90.578125 C 279.67878 90.30178 279.45085 90.163963 279.25195 90.058594 C 278.85415 89.847855 278.52068 89.762197 278.13281 89.675781 C 277.35707 89.502951 276.38775 89.392904 275.09961 89.300781 C 272.52333 89.116536 268.72032 89.033203 263.5293 89.033203 z M 400.63672 89.033203 C 380.99319 89.033203 370.45723 89.059621 364.67773 89.292969 C 361.78799 89.409643 360.10977 89.558608 358.88672 89.861328 C 358.27519 90.012688 357.74286 90.206197 357.25391 90.582031 C 356.76495 90.957866 356.41799 91.552213 356.28516 91.978516 C 356.08949 92.606427 356.05155 93.098537 355.93164 94.029297 C 355.81173 94.960056 355.67652 96.169727 355.5332 97.583984 C 355.24656 100.4125 354.92608 104.05976 354.64062 107.86133 C 353.59882 121.73559 352.45193 133.25108 348.40039 170.52148 L 345.97266 192.86719 L 401.47266 192.86719 L 457.0293 192.86719 L 456.12109 186.24414 C 455.78441 183.78777 455.21297 178.00244 454.87109 173.55469 L 454.12109 163.80273 L 419.69531 163.80273 L 388.62695 163.80273 L 388.63477 159.39844 C 388.63963 156.11109 388.9246 150.99822 389.25 148.28906 L 389.68555 144.66016 L 416.02734 144.66016 L 445.8125 144.66016 L 445.11914 136.61914 C 444.8252 133.20535 444.3773 129.03385 444.09375 127.16016 L 443.38477 122.48242 L 415.42773 122.48242 C 408.16531 122.48242 401.50574 122.39411 396.64648 122.25195 C 394.21686 122.18087 392.23463 122.09554 390.87305 122.00391 C 390.51263 121.97965 390.33102 121.95615 390.06445 121.93164 C 390.05221 121.55959 390.03768 121.19636 390.04297 120.66992 C 390.05768 119.20632 390.14393 117.2512 390.29883 115.20312 L 390.75 109.24219 L 417.0918 109.24219 L 447.0293 109.24219 L 446.17188 102.60352 C 445.83823 100.02349 445.33071 96.263322 445.03906 94.21875 L 444.29688 89.033203 L 400.63672 89.033203 z M 500.90625 90.964844 C 518.81681 90.961337 537.86601 96.799471 550.15234 107.43945 C 557.829 114.08745 565.64232 126.13194 568.69727 136.05078 C 573.78262 152.56197 574.17378 159.47977 570.70703 169.30469 C 566.91869 180.04103 560.31657 185.53784 546.70117 189.07422 C 539.43133 190.96244 535.90604 191.32421 525.75586 191.21484 C 522.35045 191.17815 518.9763 191.09954 516.29492 191.00391 C 513.61355 190.90827 511.44898 190.75805 511.12109 190.70508 C 491.35228 187.51185 478.91155 181.15477 468.80078 169.24023 C 459.49127 158.26991 455.82167 148.50114 454.83008 131.87891 C 453.90752 116.41372 458.54915 105.51034 468.34766 99.222656 C 476.96 93.696127 488.65174 90.966803 500.90625 90.964844 z M 263.5293 92.517578 C 268.68181 92.517578 272.44634 92.603379 274.85156 92.775391 C 275.98252 92.856272 276.75754 92.963602 277.22461 93.058594 C 277.31369 93.278043 277.40652 93.499745 277.53125 93.765625 C 277.8399 94.423555 278.26445 95.255483 278.78516 96.230469 C 279.82656 98.180441 281.24894 100.69274 282.81445 103.32422 C 284.36078 105.92341 285.89035 108.5648 287.10352 110.7168 C 288.31668 112.86879 289.25166 114.62832 289.45703 115.0918 C 290.19093 116.74808 292.17848 120.16396 294.09375 123.18945 C 295.93162 126.0927 299.17706 131.70594 301.22266 135.5293 C 302.30614 137.5544 303.40417 139.31948 304.36719 140.61328 C 304.84869 141.26018 305.28523 141.78516 305.75195 142.21484 C 305.98532 142.42969 306.21708 142.62633 306.56836 142.80664 C 306.91964 142.98695 307.52351 143.23232 308.29688 142.93555 C 309.01545 142.65979 309.19353 142.29961 309.37695 142.02539 C 309.56038 141.75117 309.68958 141.48881 309.81641 141.19727 C 310.07006 140.61417 310.29934 139.92057 310.53125 139.10156 C 310.99506 137.46355 311.44905 135.34466 311.80664 133.0625 C 312.48915 128.70667 314.56193 117.65951 316.39062 108.65625 C 317.30765 104.14136 318.14065 99.973902 318.74609 96.892578 C 319.04882 95.351916 319.29389 94.084771 319.46484 93.175781 C 319.49087 93.03737 319.50286 92.965241 319.52539 92.84375 C 320.19704 92.786302 321.11246 92.72851 322.30469 92.681641 C 324.87341 92.580658 328.44932 92.517578 332.38086 92.517578 L 344.82422 92.517578 L 344.35938 97.246094 C 344.01228 100.77805 342.23807 114.90415 340.43555 128.42188 C 338.63056 141.95803 336.12257 161.54538 334.86133 171.97656 L 332.75781 189.38281 L 316.05859 189.38281 L 298.89062 189.38281 L 284.33203 160.33594 C 280.1913 152.07461 276.33099 144.56521 273.44141 139.10938 C 271.99661 136.38146 270.79755 134.16875 269.91602 132.61719 C 269.47525 131.84141 269.11603 131.23546 268.82812 130.78516 C 268.68417 130.56 268.56407 130.37778 268.42188 130.19531 C 268.35078 130.10408 268.28109 130.01567 268.14258 129.88477 C 268.00407 129.75386 267.94022 129.36914 266.88281 129.36914 C 266.24839 129.36914 265.90003 129.63233 265.69336 129.79883 C 265.48669 129.96533 265.37813 130.10128 265.28125 130.22852 C 265.0875 130.48298 264.95988 130.7141 264.82031 130.98242 C 264.54117 131.51906 264.24946 132.19119 263.91797 133.02734 C 263.25498 134.69964 262.44868 136.99871 261.57227 139.68555 C 259.81943 145.05922 257.79619 151.96123 256.21875 158.19727 C 255.20252 162.21474 252.69766 171.20903 250.67773 178.08789 L 247.36133 189.38281 L 230.72266 189.38281 L 215.35352 189.38281 L 216.46875 186.60742 C 217.63934 183.69331 219.67672 178.0635 221.04492 173.9668 C 222.39052 169.93781 224.80366 163.07135 226.38672 158.76758 C 227.98881 154.41206 231.44712 144.67981 234.08984 137.0957 C 236.72777 129.52532 241.16228 116.9077 243.94141 109.06641 C 245.33266 105.14099 246.65594 101.37777 247.66797 98.476562 C 248.66272 95.624871 249.30352 93.78051 249.51367 93.09375 C 249.61521 93.04706 250.04569 92.892213 250.98242 92.789062 C 252.94535 92.572911 256.75711 92.517578 263.5293 92.517578 z M 400.63672 92.517578 L 441.27539 92.517578 L 441.58984 94.710938 C 441.87708 96.724566 442.3857 100.49041 442.7168 103.05078 L 443.06641 105.75781 L 417.0918 105.75781 L 387.51953 105.75781 L 386.82422 114.93945 C 386.66416 117.05577 386.57435 119.06655 386.55859 120.63477 C 386.55071 121.41887 386.56214 122.08858 386.5957 122.63672 C 386.61248 122.91079 386.63388 123.15167 386.67188 123.39258 C 386.70987 123.63349 386.66223 123.81145 386.99609 124.35156 C 387.38252 124.97684 387.67809 125.0017 387.85156 125.07617 C 388.02503 125.15064 388.13863 125.17998 388.24805 125.20703 C 388.46688 125.26113 388.65867 125.28998 388.88672 125.32031 C 389.34282 125.38097 389.91734 125.43192 390.63867 125.48047 C 392.08134 125.57756 394.08998 125.66255 396.54492 125.73438 C 401.4548 125.87802 408.13705 125.9668 415.42773 125.9668 L 440.38867 125.9668 L 440.64844 127.68164 C 440.89715 129.32509 441.36 133.56808 441.64844 136.91797 L 442.01562 141.17578 L 416.02734 141.17578 L 386.59375 141.17578 L 385.79102 147.875 C 385.43409 150.84756 385.15553 155.91683 385.15039 159.39258 L 385.13672 167.28711 L 419.69531 167.28711 L 450.89453 167.28711 L 451.39648 173.82227 C 451.74329 178.33413 452.30635 184.06429 452.66992 186.7168 L 453.03516 189.38281 L 401.47266 189.38281 L 349.85352 189.38281 L 351.86328 170.89844 C 355.91552 133.62162 357.0699 122.04235 358.11523 108.12109 C 358.39861 104.34733 358.71746 100.72159 359 97.933594 C 359.14127 96.539596 359.27341 95.35413 359.38672 94.474609 C 359.47895 93.758677 359.55362 93.409596 359.57031 93.287109 C 359.6288 93.263644 359.57161 93.280058 359.72461 93.242188 C 360.41428 93.071485 362.00917 92.888812 364.81836 92.775391 C 370.43673 92.548548 380.99668 92.517578 400.63672 92.517578 z M 505.5625 106.3125 L 503.83594 106.32812 L 503.83594 106.49023 C 496.70364 106.94882 490.06376 109.71851 486.87695 115.38867 C 483.31661 121.72345 483.6732 132.57979 487.02539 143.19141 C 489.3157 150.44151 492.14014 155.92028 496.00977 159.93945 C 499.87939 163.95863 504.76896 166.42779 510.82227 167.74414 C 518.58595 169.43243 519.52587 169.42699 526.2793 167.83789 C 527.94883 167.44504 529.67211 166.88089 531.16797 166.26758 C 532.66383 165.65426 533.87323 165.08622 534.79883 164.26172 C 537.73052 161.65025 539.37191 157.67016 539.89648 152.81836 C 540.42106 147.96656 539.85637 142.17415 538.24414 135.60938 C 535.88451 126.00131 532.87416 120.13003 527.41211 114.66797 C 521.69354 108.94939 513.34826 106.24197 505.5625 106.3125 z M 505.59375 109.79688 C 512.53491 109.734 520.05514 112.23678 524.94922 117.13086 C 530.00045 122.1821 532.58264 127.16096 534.86133 136.43945 C 536.40445 142.72286 536.89679 148.15924 536.43359 152.44336 C 535.9704 156.72748 534.57727 159.79238 532.48047 161.66016 C 532.26826 161.84919 531.16269 162.50299 529.8457 163.04297 C 528.52871 163.58295 526.9413 164.10352 525.48047 164.44727 C 518.7407 166.03315 519.31508 166.02572 511.5625 164.33984 C 505.99997 163.13022 501.87784 161.01154 498.51953 157.52344 C 495.16123 154.03534 492.54153 149.08739 490.34766 142.14258 C 487.19621 132.16645 487.31781 121.71512 489.91406 117.0957 C 492.51667 112.46498 498.6525 109.85978 505.59375 109.79688 z "
         id="path1148" />
    </g>
  </g>
</svg>
