<?xml version="1.0" encoding="UTF-8" standalone="no"?>
<!-- by Caetano Ramos) -->

<svg
   xmlns:dc="http://purl.org/dc/elements/1.1/"
   xmlns:cc="http://creativecommons.org/ns#"
   xmlns:rdf="http://www.w3.org/1999/02/22-rdf-syntax-ns#"
   xmlns:svg="http://www.w3.org/2000/svg"
   xmlns="http://www.w3.org/2000/svg"
   xmlns:xlink="http://www.w3.org/1999/xlink"
   xmlns:sodipodi="http://sodipodi.sourceforge.net/DTD/sodipodi-0.dtd"
   xmlns:inkscape="http://www.inkscape.org/namespaces/inkscape"
   width="159.5354mm"
   height="44.418697mm"
   viewBox="0 0 159.5354 44.418698"
   version="1.1"
   id="svg8"
   inkscape:version="0.92.4 (5da689c313, 2019-01-14)"
   sodipodi:docname="logo.svg">
  <defs
     id="defs2">
    <linearGradient
       inkscape:collect="always"
       id="linearGradient4653">
      <stop
         style="stop-color:#2e3192;stop-opacity:1;"
         offset="0"
         id="stop4649" />
      <stop
         style="stop-color:#2e3192;stop-opacity:0;"
         offset="1"
         id="stop4651" />
    </linearGradient>
    <linearGradient
       inkscape:collect="always"
       xlink:href="#linearGradient4653"
       id="linearGradient4655"
       x1="103.20207"
       y1="131.41185"
       x2="103.53754"
       y2="150.83623"
       gradientUnits="userSpaceOnUse" />
    <linearGradient
       inkscape:collect="always"
       xlink:href="#linearGradient4653"
       id="linearGradient4657"
       gradientUnits="userSpaceOnUse"
       x1="103.20207"
       y1="131.41185"
       x2="103.53754"
       y2="150.83623" />
    <linearGradient
       inkscape:collect="always"
       xlink:href="#linearGradient4653"
       id="linearGradient4659"
       gradientUnits="userSpaceOnUse"
       x1="103.20207"
       y1="131.41185"
       x2="103.53754"
       y2="150.83623" />
  </defs>
  <sodipodi:namedview
     id="base"
     pagecolor="#ffffff"
     bordercolor="#666666"
     borderopacity="1.0"
     inkscape:pageopacity="0.0"
     inkscape:pageshadow="2"
     inkscape:zoom="1.2713242"
     inkscape:cx="385.07789"
     inkscape:cy="225.24869"
     inkscape:document-units="mm"
     inkscape:current-layer="g911"
     showgrid="false"
     inkscape:snap-text-baseline="true"
     inkscape:window-width="1600"
     inkscape:window-height="837"
     inkscape:window-x="-8"
     inkscape:window-y="-8"
     inkscape:window-maximized="1" />
  <metadata
     id="metadata5">
    <rdf:RDF>
      <cc:Work
         rdf:about="">
        <dc:format>image/svg+xml</dc:format>
        <dc:type
           rdf:resource="http://purl.org/dc/dcmitype/StillImage" />
        <dc:title />
      </cc:Work>
    </rdf:RDF>
  </metadata>
  <g
     inkscape:label="Camada 1"
     inkscape:groupmode="layer"
     id="layer1"
     transform="translate(-4.092618,-110.34915)">
    <g
       id="g4680">
      <g
         id="g911">
        <g
           transform="matrix(0.28140377,0,0,0.26458333,4.0923479,110.34898)"
           id="g18"
           style="" />
        <path
           id="_43443024"
           d="M 510.862,48.973 488.614,0.917 h 24.031 l 11.869,27.298 17.799,-27.298 h 24.615 l -34.707,53.996 -5.635,42.128 h -22.248 z"
           style="fill:#2e3192"
           transform="matrix(0.28140377,0,0,0.26458333,4.0923479,110.34898)" />
        <path
           id="_43441624"
           d="m 322.182,22.276 3.264,-21.359 h -56.067 l -13.35,96.124 h 55.77 l 2.967,-21.37 h -33.815 l 2.076,-16.605 h 29.366 l 2.969,-21.36 H 286.29 l 2.078,-15.43 z"
           style="fill:#2e3192"
           transform="matrix(0.28140377,0,0,0.26458333,4.0923479,110.34898)" />
        <path
           transform="matrix(0.28140377,0,0,0.26458333,4.0923479,110.34898)"
           d="m 112.146,49.565 7.416,-19.874 2.375,19.874 z m -8.009,18.987 h 20.172 l 3.563,28.48 h 36.488 l 16.91,-52.213 8.309,52.213 h 19.283 l 21.359,-55.179 3.561,55.179 h 21.359 L 249.207,0.913 H 223.693 L 203.818,51.64 196.103,0.913 H 173.261 L 147.156,79.825 137.365,0.913 h -28.48 l -31.744,79.8 4.154,-31.149 H 42.729 l -2.672,18.987 h 16.912 l -1.188,6.526 c -2.967,1.778 -9.789,2.076 -12.459,2.076 -2.67,0 -22.545,-1.779 -21.656,-23.14 C 22.555,32.655 51.035,12.779 84.854,23.755 L 88.12,3.285 C 65.572,-4.427 6.354,-0.111 0.305,52.828 -3.254,83.977 25.226,98.811 44.211,98.516 55.188,99.11 67.649,94.955 72.098,92.581 l -1.482,4.451 h 22.547 z"
           id="_43775888"
           inkscape:connector-curvature="0"
           style="fill:#2e3192" />
        <path
           transform="matrix(0.28140377,0,0,0.26458333,4.0923479,110.34898)"
           d="m 464.581,0.028 c -15.428,-0.594 -37.678,8.306 -45.094,44.204 -7.416,35.894 12.459,50.431 30.852,52.804 18.396,2.373 44.205,-9.196 48.951,-43.609 C 504.038,19.013 487.125,0.919 464.581,0.028 Z m -2.373,20.47 c 6.229,0 19.578,4.154 16.314,29.071 -3.262,24.92 -18.688,27.887 -24.326,27.293 -5.637,-0.594 -17.207,-4.448 -13.943,-27.293 3.263,-22.841 15.425,-29.368 21.955,-29.071 z"
           id="_44102912"
           inkscape:connector-curvature="0"
           style="fill:#2e3192" />
        <path
           transform="matrix(0.28140377,0,0,0.26458333,4.0923479,110.34898)"
           d="m 370.833,37.706 h 12.461 c 9.197,0 10.977,-5.934 11.271,-8.305 0.297,-2.375 -2.371,-7.122 -7.117,-7.122 h -14.537 z m -5.34,37.971 h 16.912 c 9.195,0 11.271,-7.119 11.566,-9.493 0.299,-2.373 -2.371,-7.118 -7.117,-7.118 H 367.868 Z M 340.575,97.038 353.925,0.92 h 40.938 c 9.793,0 24.031,11.274 22.252,26.403 -1.779,15.13 -6.527,16.02 -9.791,18.393 5.045,4.447 10.088,11.568 8.012,24.918 -2.078,13.352 -13.055,26.403 -32.338,26.403 z"
           id="_44104296"
           inkscape:connector-curvature="0"
           style="fill:#2e3192" />
        <path
           transform="matrix(0.28140377,0,0,0.26458333,4.0923479,110.34898)"
           d="m 538.618,82.498 c -3.66,0 -6.615,2.951 -6.615,6.593 0,3.681 2.953,6.633 6.615,6.633 3.641,0 6.592,-2.952 6.592,-6.633 -0.001,-3.643 -2.954,-6.593 -6.592,-6.593 v -0.907 c 4.15,0 7.498,3.366 7.498,7.5 0,4.172 -3.348,7.538 -7.498,7.538 -4.174,-0.001 -7.539,-3.366 -7.539,-7.538 0,-4.135 3.365,-7.499 7.539,-7.499 z"
           id="_44106160"
           inkscape:connector-curvature="0"
           style="fill:#2e3192" />
        <path
           transform="matrix(0.28140377,0,0,0.26458333,4.0923479,110.34898)"
           d="m 536.84,85.638 h 2.402 c 1.045,0 2.182,0.157 2.182,1.457 0,1.711 -1.828,1.516 -3.01,1.516 L 536.84,88.61 v 0.808 h 1.891 l 2.402,3.878 h 1.219 l -2.539,-3.878 c 1.496,-0.038 2.656,-0.649 2.656,-2.302 0,-0.71 -0.313,-1.457 -0.945,-1.813 -0.627,-0.374 -1.338,-0.413 -2.047,-0.413 h -3.658 v 8.404 h 1.021 z"
           id="_42975192"
           inkscape:connector-curvature="0"
           style="fill:#2e3192" />
        <g
           id="g881">
          <g
             id="g861">
            <g
               id="g4647"
               transform="matrix(1.2575384,0,0,0.76222688,-12.131046,32.227319)"
               style="fill:url(#linearGradient4655);fill-opacity:1">
              <g
                 id="text4637"
                 style="font-style:normal;font-variant:normal;font-weight:normal;font-stretch:normal;font-size:21.16666603px;line-height:1.25;font-family:'Bauhaus 93';-inkscape-font-specification:'Bauhaus 93, Normal';font-variant-ligatures:normal;font-variant-caps:normal;font-variant-numeric:normal;font-feature-settings:normal;text-align:start;letter-spacing:0px;word-spacing:0px;writing-mode:lr-tb;text-anchor:start;fill:url(#linearGradient4657);fill-opacity:1;stroke:#2e3192;stroke-width:1.29999995;stroke-miterlimit:4;stroke-dasharray:none;stroke-opacity:1"
                 aria-label="2 Player">
                <path
                   id="path4684"
                   style="font-style:normal;font-variant:normal;font-weight:normal;font-stretch:normal;font-size:21.16666603px;font-family:'Bauhaus 93';-inkscape-font-specification:'Bauhaus 93, Normal';font-variant-ligatures:normal;font-variant-caps:normal;font-variant-numeric:normal;font-feature-settings:normal;text-align:start;writing-mode:lr-tb;text-anchor:start;fill:url(#linearGradient4657);fill-opacity:1;stroke:#2e3192;stroke-width:1.29999995;stroke-miterlimit:4;stroke-dasharray:none;stroke-opacity:1"
                   d="m 63.562339,150.91921 v 4.08244 h -9.115722 l 4.526855,-8.49561 0.15503,-0.28939 q 0.186035,-0.34106 0.186035,-0.67179 0,-0.83716 -0.981852,-0.83716 -0.382406,0 -0.671794,0.28939 -0.279053,0.27905 -0.279053,0.66146 0,0.43408 0.372071,0.78548 l -1.808675,3.22461 q -1.136882,-0.7028 -1.746664,-1.788 -0.609782,-1.08521 -0.609782,-2.39779 0,-2.03605 1.436605,-3.48299 1.436605,-1.45728 3.472656,-1.45728 2.046387,0 3.472656,1.43661 1.436605,1.4366 1.436605,3.49332 0,1.17823 -0.527099,2.19108 l -1.674317,3.25562 z" />
                <path
                   id="path4686"
                   style="font-style:normal;font-variant:normal;font-weight:normal;font-stretch:normal;font-size:21.16666603px;font-family:'Bauhaus 93';-inkscape-font-specification:'Bauhaus 93, Normal';font-variant-ligatures:normal;font-variant-caps:normal;font-variant-numeric:normal;font-feature-settings:normal;text-align:start;writing-mode:lr-tb;text-anchor:start;fill:url(#linearGradient4657);fill-opacity:1;stroke:#2e3192;stroke-width:1.29999995;stroke-miterlimit:4;stroke-dasharray:none;stroke-opacity:1"
                   d="m 75.882,150.12339 v -3.70003 q 1.271241,0 1.271241,-0.97152 0,-0.88883 -0.971517,-0.88883 -0.981852,0 -0.981852,1.21956 v 9.21908 h -4.196127 v -8.785 q 0,-1.36425 0.268718,-2.23242 0.279053,-0.8785 0.940511,-1.63297 0.74414,-0.83716 1.860351,-1.32292 1.116211,-0.48576 2.304769,-0.48576 2.14974,0 3.607015,1.44694 1.467611,1.44694 1.467611,3.58635 0,2.07739 -1.312582,3.3693 -1.198893,1.18856 -3.61735,1.18856 z" />
                <path
                   id="path4688"
                   style="font-style:normal;font-variant:normal;font-weight:normal;font-stretch:normal;font-size:21.16666603px;font-family:'Bauhaus 93';-inkscape-font-specification:'Bauhaus 93, Normal';font-variant-ligatures:normal;font-variant-caps:normal;font-variant-numeric:normal;font-feature-settings:normal;text-align:start;writing-mode:lr-tb;text-anchor:start;fill:url(#linearGradient4657);fill-opacity:1;stroke:#2e3192;stroke-width:1.29999995;stroke-miterlimit:4;stroke-dasharray:none;stroke-opacity:1"
                   d="m 86.775392,140.89398 v 14.10767 h -3.865397 v -14.10767 z" />
                <path
                   id="path4690"
                   style="font-style:normal;font-variant:normal;font-weight:normal;font-stretch:normal;font-size:21.16666603px;font-family:'Bauhaus 93';-inkscape-font-specification:'Bauhaus 93, Normal';font-variant-ligatures:normal;font-variant-caps:normal;font-variant-numeric:normal;font-feature-settings:normal;text-align:start;writing-mode:lr-tb;text-anchor:start;fill:url(#linearGradient4657);fill-opacity:1;stroke:#2e3192;stroke-width:1.29999995;stroke-miterlimit:4;stroke-dasharray:none;stroke-opacity:1"
                   d="m 94.754234,151.13625 v 3.99976 q -0.475423,0.0827 -0.868164,0.0827 -2.325439,0 -3.875732,-1.52962 -1.550293,-1.52963 -1.550293,-3.83439 0,-2.24276 1.560628,-3.80339 1.570964,-1.56063 3.813721,-1.56063 2.501139,0 3.937744,1.46761 1.44694,1.45728 1.44694,3.98942 v 5.05396 h -3.865397 v -4.7749 q 0,-0.81649 -0.403076,-1.30225 -0.392741,-0.48576 -1.064535,-0.48576 -0.609782,0 -1.054199,0.44442 -0.444417,0.44442 -0.444417,1.0542 0,0.64079 0.403076,1.0542 0.403076,0.41341 1.023193,0.41341 0.506429,0 0.940511,-0.26872 z" />
                <path
                   id="path4692"
                   style="font-style:normal;font-variant:normal;font-weight:normal;font-stretch:normal;font-size:21.16666603px;font-family:'Bauhaus 93';-inkscape-font-specification:'Bauhaus 93, Normal';font-variant-ligatures:normal;font-variant-caps:normal;font-variant-numeric:normal;font-feature-settings:normal;text-align:start;writing-mode:lr-tb;text-anchor:start;fill:url(#linearGradient4657);fill-opacity:1;stroke:#2e3192;stroke-width:1.29999995;stroke-miterlimit:4;stroke-dasharray:none;stroke-opacity:1"
                   d="m 102.80542,159.51817 v -3.35897 q 0.78548,0.33073 1.37459,0.33073 1.88103,0 2.43913,-2.11873 -1.01286,0.59944 -1.98437,0.59944 -1.43661,0 -2.36678,-1.06453 -0.93018,-1.07487 -0.93018,-2.72852 v -6.48022 h 3.8654 v 5.53971 q 0,0.91984 0.76481,0.91984 0.7338,0 0.7338,-1.01286 v -5.44669 h 3.8654 v 9.1984 q 0,2.57349 -1.44694,4.15479 -1.72599,1.88102 -4.17545,1.88102 -1.07487,0 -2.13941,-0.41341 z" />
                <path
                   id="path4694"
                   style="font-style:normal;font-variant:normal;font-weight:normal;font-stretch:normal;font-size:21.16666603px;font-family:'Bauhaus 93';-inkscape-font-specification:'Bauhaus 93, Normal';font-variant-ligatures:normal;font-variant-caps:normal;font-variant-numeric:normal;font-feature-settings:normal;text-align:start;writing-mode:lr-tb;text-anchor:start;fill:url(#linearGradient4657);fill-opacity:1;stroke:#2e3192;stroke-width:1.29999995;stroke-miterlimit:4;stroke-dasharray:none;stroke-opacity:1"
                   d="m 122.96957,150.47479 h -5.86011 q -0.13436,-0.44441 -0.13436,-0.81648 0,-0.51677 0.18604,-1.01286 h 1.9637 q -0.20671,-1.14722 -1.29191,-1.14722 -0.72347,0 -1.17822,0.62012 -0.45476,0.60978 -0.45476,1.57096 0,1.00252 0.43409,1.62264 0.44441,0.62012 1.15755,0.62012 0.57877,0 1.11621,-0.57878 l 2.20141,2.64584 q -1.53995,1.20922 -3.42098,1.20922 -2.29443,0 -3.85506,-1.53995 -1.56063,-1.53996 -1.56063,-3.81372 0,-2.26343 1.57097,-3.82406 1.5813,-1.56063 3.87573,-1.56063 2.24276,0 3.76204,1.52962 1.52963,1.51929 1.52963,3.75171 0,0.22738 -0.0413,0.72347 z" />
                <path
                   id="path4696"
                   style="font-style:normal;font-variant:normal;font-weight:normal;font-stretch:normal;font-size:21.16666603px;font-family:'Bauhaus 93';-inkscape-font-specification:'Bauhaus 93, Normal';font-variant-ligatures:normal;font-variant-caps:normal;font-variant-numeric:normal;font-feature-settings:normal;text-align:start;writing-mode:lr-tb;text-anchor:start;fill:url(#linearGradient4657);fill-opacity:1;stroke:#2e3192;stroke-width:1.29999995;stroke-miterlimit:4;stroke-dasharray:none;stroke-opacity:1"
                   d="m 130.23527,144.59401 v 4.13412 q -0.40308,-0.22738 -0.73381,-0.22738 -1.05419,0 -1.05419,1.61231 v 4.88859 h -3.8654 v -5.63273 q 0,-2.23242 1.21956,-3.55534 1.21957,-1.33325 3.25562,-1.33325 0.45475,0 1.17822,0.11368 z" />
              </g>
              <g
                 id="text4641"
                 style="font-style:normal;font-variant:normal;font-weight:normal;font-stretch:normal;font-size:21.16666603px;line-height:1.25;font-family:'Bauhaus 93';-inkscape-font-specification:'Bauhaus 93, Normal';font-variant-ligatures:normal;font-variant-caps:normal;font-variant-numeric:normal;font-feature-settings:normal;text-align:start;letter-spacing:0px;word-spacing:0px;writing-mode:lr-tb;text-anchor:start;fill:url(#linearGradient4659);fill-opacity:1;stroke:none;stroke-width:0.26458332"
                 aria-label="2 Player">
                <path
                   id="path4699"
                   style="font-style:normal;font-variant:normal;font-weight:normal;font-stretch:normal;font-size:21.16666603px;font-family:'Bauhaus 93';-inkscape-font-specification:'Bauhaus 93, Normal';font-variant-ligatures:normal;font-variant-caps:normal;font-variant-numeric:normal;font-feature-settings:normal;text-align:start;writing-mode:lr-tb;text-anchor:start;fill:url(#linearGradient4659);fill-opacity:1;stroke-width:0.26458332"
                   d="m 63.562339,150.91921 v 4.08244 h -9.115722 l 4.526855,-8.49561 0.15503,-0.28939 q 0.186035,-0.34106 0.186035,-0.67179 0,-0.83716 -0.981852,-0.83716 -0.382406,0 -0.671794,0.28939 -0.279053,0.27905 -0.279053,0.66146 0,0.43408 0.372071,0.78548 l -1.808675,3.22461 q -1.136882,-0.7028 -1.746664,-1.788 -0.609782,-1.08521 -0.609782,-2.39779 0,-2.03605 1.436605,-3.48299 1.436605,-1.45728 3.472656,-1.45728 2.046387,0 3.472656,1.43661 1.436605,1.4366 1.436605,3.49332 0,1.17823 -0.527099,2.19108 l -1.674317,3.25562 z" />
                <path
                   id="path4701"
                   style="font-style:normal;font-variant:normal;font-weight:normal;font-stretch:normal;font-size:21.16666603px;font-family:'Bauhaus 93';-inkscape-font-specification:'Bauhaus 93, Normal';font-variant-ligatures:normal;font-variant-caps:normal;font-variant-numeric:normal;font-feature-settings:normal;text-align:start;writing-mode:lr-tb;text-anchor:start;fill:url(#linearGradient4659);fill-opacity:1;stroke-width:0.26458332"
                   d="m 75.882,150.12339 v -3.70003 q 1.271241,0 1.271241,-0.97152 0,-0.88883 -0.971517,-0.88883 -0.981852,0 -0.981852,1.21956 v 9.21908 h -4.196127 v -8.785 q 0,-1.36425 0.268718,-2.23242 0.279053,-0.8785 0.940511,-1.63297 0.74414,-0.83716 1.860351,-1.32292 1.116211,-0.48576 2.304769,-0.48576 2.14974,0 3.607015,1.44694 1.467611,1.44694 1.467611,3.58635 0,2.07739 -1.312582,3.3693 -1.198893,1.18856 -3.61735,1.18856 z" />
                <path
                   id="path4703"
                   style="font-style:normal;font-variant:normal;font-weight:normal;font-stretch:normal;font-size:21.16666603px;font-family:'Bauhaus 93';-inkscape-font-specification:'Bauhaus 93, Normal';font-variant-ligatures:normal;font-variant-caps:normal;font-variant-numeric:normal;font-feature-settings:normal;text-align:start;writing-mode:lr-tb;text-anchor:start;fill:url(#linearGradient4659);fill-opacity:1;stroke-width:0.26458332"
                   d="m 86.775392,140.89398 v 14.10767 h -3.865397 v -14.10767 z" />
                <path
                   id="path4705"
                   style="font-style:normal;font-variant:normal;font-weight:normal;font-stretch:normal;font-size:21.16666603px;font-family:'Bauhaus 93';-inkscape-font-specification:'Bauhaus 93, Normal';font-variant-ligatures:normal;font-variant-caps:normal;font-variant-numeric:normal;font-feature-settings:normal;text-align:start;writing-mode:lr-tb;text-anchor:start;fill:url(#linearGradient4659);fill-opacity:1;stroke-width:0.26458332"
                   d="m 94.754234,151.13625 v 3.99976 q -0.475423,0.0827 -0.868164,0.0827 -2.325439,0 -3.875732,-1.52962 -1.550293,-1.52963 -1.550293,-3.83439 0,-2.24276 1.560628,-3.80339 1.570964,-1.56063 3.813721,-1.56063 2.501139,0 3.937744,1.46761 1.44694,1.45728 1.44694,3.98942 v 5.05396 h -3.865397 v -4.7749 q 0,-0.81649 -0.403076,-1.30225 -0.392741,-0.48576 -1.064535,-0.48576 -0.609782,0 -1.054199,0.44442 -0.444417,0.44442 -0.444417,1.0542 0,0.64079 0.403076,1.0542 0.403076,0.41341 1.023193,0.41341 0.506429,0 0.940511,-0.26872 z" />
                <path
                   id="path4707"
                   style="font-style:normal;font-variant:normal;font-weight:normal;font-stretch:normal;font-size:21.16666603px;font-family:'Bauhaus 93';-inkscape-font-specification:'Bauhaus 93, Normal';font-variant-ligatures:normal;font-variant-caps:normal;font-variant-numeric:normal;font-feature-settings:normal;text-align:start;writing-mode:lr-tb;text-anchor:start;fill:url(#linearGradient4659);fill-opacity:1;stroke-width:0.26458332"
                   d="m 102.80542,159.51817 v -3.35897 q 0.78548,0.33073 1.37459,0.33073 1.88103,0 2.43913,-2.11873 -1.01286,0.59944 -1.98437,0.59944 -1.43661,0 -2.36678,-1.06453 -0.93018,-1.07487 -0.93018,-2.72852 v -6.48022 h 3.8654 v 5.53971 q 0,0.91984 0.76481,0.91984 0.7338,0 0.7338,-1.01286 v -5.44669 h 3.8654 v 9.1984 q 0,2.57349 -1.44694,4.15479 -1.72599,1.88102 -4.17545,1.88102 -1.07487,0 -2.13941,-0.41341 z" />
                <path
                   id="path4709"
                   style="font-style:normal;font-variant:normal;font-weight:normal;font-stretch:normal;font-size:21.16666603px;font-family:'Bauhaus 93';-inkscape-font-specification:'Bauhaus 93, Normal';font-variant-ligatures:normal;font-variant-caps:normal;font-variant-numeric:normal;font-feature-settings:normal;text-align:start;writing-mode:lr-tb;text-anchor:start;fill:url(#linearGradient4659);fill-opacity:1;stroke-width:0.26458332"
                   d="m 122.96957,150.47479 h -5.86011 q -0.13436,-0.44441 -0.13436,-0.81648 0,-0.51677 0.18604,-1.01286 h 1.9637 q -0.20671,-1.14722 -1.29191,-1.14722 -0.72347,0 -1.17822,0.62012 -0.45476,0.60978 -0.45476,1.57096 0,1.00252 0.43409,1.62264 0.44441,0.62012 1.15755,0.62012 0.57877,0 1.11621,-0.57878 l 2.20141,2.64584 q -1.53995,1.20922 -3.42098,1.20922 -2.29443,0 -3.85506,-1.53995 -1.56063,-1.53996 -1.56063,-3.81372 0,-2.26343 1.57097,-3.82406 1.5813,-1.56063 3.87573,-1.56063 2.24276,0 3.76204,1.52962 1.52963,1.51929 1.52963,3.75171 0,0.22738 -0.0413,0.72347 z" />
                <path
                   id="path4711"
                   style="font-style:normal;font-variant:normal;font-weight:normal;font-stretch:normal;font-size:21.16666603px;font-family:'Bauhaus 93';-inkscape-font-specification:'Bauhaus 93, Normal';font-variant-ligatures:normal;font-variant-caps:normal;font-variant-numeric:normal;font-feature-settings:normal;text-align:start;writing-mode:lr-tb;text-anchor:start;fill:url(#linearGradient4659);fill-opacity:1;stroke-width:0.26458332"
                   d="m 130.23527,144.59401 v 4.13412 q -0.40308,-0.22738 -0.73381,-0.22738 -1.05419,0 -1.05419,1.61231 v 4.88859 h -3.8654 v -5.63273 q 0,-2.23242 1.21956,-3.55534 1.21957,-1.33325 3.25562,-1.33325 0.45475,0 1.17822,0.11368 z" />
              </g>
            </g>
          </g>
        </g>
      </g>
    </g>
  </g>
</svg>
