<?xml version="1.0" encoding="UTF-8" standalone="no"?>
<!-- Created with Inkscape (http://www.inkscape.org/) -->

<svg
   xmlns:dc="http://purl.org/dc/elements/1.1/"
   xmlns:cc="http://creativecommons.org/ns#"
   xmlns:rdf="http://www.w3.org/1999/02/22-rdf-syntax-ns#"
   xmlns:svg="http://www.w3.org/2000/svg"
   xmlns="http://www.w3.org/2000/svg"
   xmlns:xlink="http://www.w3.org/1999/xlink"
   xmlns:sodipodi="http://sodipodi.sourceforge.net/DTD/sodipodi-0.dtd"
   xmlns:inkscape="http://www.inkscape.org/namespaces/inkscape"
   version="1.1"
   id="svg2"
   width="318.0813"
   height="140.99489"
   viewBox="0 0 318.0813 140.99489"
   sodipodi:docname="logo.svg"
   inkscape:version="0.92.4 (5da689c313, 2019-01-14)">
  <metadata
     id="metadata8">
    <rdf:RDF>
      <cc:Work
         rdf:about="">
        <dc:format>image/svg+xml</dc:format>
        <dc:type
           rdf:resource="http://purl.org/dc/dcmitype/StillImage" />
        <dc:title></dc:title>
      </cc:Work>
    </rdf:RDF>
  </metadata>
  <defs
     id="defs6">
    <linearGradient
       inkscape:collect="always"
       id="linearGradient266">
      <stop
         style="stop-color:#f5cd20;stop-opacity:1;"
         offset="0"
         id="stop262" />
      <stop
         style="stop-color:#f5cd20;stop-opacity:0;"
         offset="1"
         id="stop264" />
    </linearGradient>
    <linearGradient
       inkscape:collect="always"
       id="linearGradient161">
      <stop
         style="stop-color:#bfb07b;stop-opacity:1;"
         offset="0"
         id="stop157" />
      <stop
         style="stop-color:#bfb07b;stop-opacity:0;"
         offset="1"
         id="stop159" />
    </linearGradient>
    <linearGradient
       inkscape:collect="always"
       id="linearGradient151">
      <stop
         style="stop-color:#fcfdfe;stop-opacity:1;"
         offset="0"
         id="stop147" />
      <stop
         style="stop-color:#fcfdfe;stop-opacity:0;"
         offset="1"
         id="stop149" />
    </linearGradient>
    <linearGradient
       inkscape:collect="always"
       xlink:href="#linearGradient151"
       id="linearGradient153"
       x1="309.92444"
       y1="74.206146"
       x2="116.87657"
       y2="96.372391"
       gradientUnits="userSpaceOnUse" />
    <linearGradient
       inkscape:collect="always"
       xlink:href="#linearGradient161"
       id="linearGradient163"
       x1="278.89169"
       y1="120.15073"
       x2="278.89169"
       y2="116.52353"
       gradientUnits="userSpaceOnUse" />
    <linearGradient
       inkscape:collect="always"
       xlink:href="#linearGradient266"
       id="linearGradient268"
       x1="180.55415"
       y1="50.024792"
       x2="175.7179"
       y2="87.908913"
       gradientUnits="userSpaceOnUse" />
    <linearGradient
       inkscape:collect="always"
       xlink:href="#linearGradient151"
       id="linearGradient334"
       gradientUnits="userSpaceOnUse"
       x1="309.92444"
       y1="74.206146"
       x2="116.87657"
       y2="96.372391" />
    <linearGradient
       inkscape:collect="always"
       xlink:href="#linearGradient151"
       id="linearGradient336"
       gradientUnits="userSpaceOnUse"
       x1="309.92444"
       y1="74.206146"
       x2="116.87657"
       y2="96.372391" />
    <linearGradient
       inkscape:collect="always"
       xlink:href="#linearGradient151"
       id="linearGradient338"
       gradientUnits="userSpaceOnUse"
       x1="309.92444"
       y1="74.206146"
       x2="116.87657"
       y2="96.372391" />
    <linearGradient
       inkscape:collect="always"
       xlink:href="#linearGradient151"
       id="linearGradient340"
       gradientUnits="userSpaceOnUse"
       x1="309.92444"
       y1="74.206146"
       x2="116.87657"
       y2="96.372391" />
    <linearGradient
       inkscape:collect="always"
       xlink:href="#linearGradient151"
       id="linearGradient342"
       gradientUnits="userSpaceOnUse"
       x1="309.92444"
       y1="74.206146"
       x2="116.87657"
       y2="96.372391" />
    <linearGradient
       inkscape:collect="always"
       xlink:href="#linearGradient151"
       id="linearGradient344"
       gradientUnits="userSpaceOnUse"
       x1="309.92444"
       y1="74.206146"
       x2="116.87657"
       y2="96.372391" />
    <linearGradient
       inkscape:collect="always"
       xlink:href="#linearGradient266"
       id="linearGradient346"
       gradientUnits="userSpaceOnUse"
       x1="180.55415"
       y1="50.024792"
       x2="175.7179"
       y2="87.908913" />
    <linearGradient
       inkscape:collect="always"
       xlink:href="#linearGradient266"
       id="linearGradient348"
       gradientUnits="userSpaceOnUse"
       x1="180.55415"
       y1="50.024792"
       x2="175.7179"
       y2="87.908913" />
  </defs>
  <sodipodi:namedview
     pagecolor="#ffffff"
     bordercolor="#666666"
     borderopacity="1"
     objecttolerance="10"
     gridtolerance="10"
     guidetolerance="10"
     inkscape:pageopacity="0"
     inkscape:pageshadow="2"
     inkscape:window-width="1600"
     inkscape:window-height="837"
     id="namedview4"
     showgrid="false"
     inkscape:zoom="1.240625"
     inkscape:cx="14.906832"
     inkscape:cy="143.32292"
     inkscape:window-x="-8"
     inkscape:window-y="-8"
     inkscape:window-maximized="1"
     inkscape:current-layer="layer5" />
  <g
     inkscape:groupmode="layer"
     id="layer1"
     inkscape:label="Layer 1"
     transform="translate(-2.3425695,-215.64509)">
    <g
       inkscape:groupmode="layer"
       id="layer5"
       inkscape:label="Layer 3">
      <g
         id="g471">
        <g
           transform="translate(2.8060453,215.21411)"
           id="g332"
           style="">
          <g
             inkscape:label="Layer 4"
             id="layer6"
             inkscape:groupmode="layer">
            <g
               id="g107"
               transform="matrix(0.39009236,0,0,0.39009236,1.5365242,28.992931)">
              <g
                 id="g286">
                <path
                   inkscape:connector-curvature="0"
                   d="m 147.808,90.893999 c 5.508,5.349 13.019,8.656 21.303,8.656 l 130.889,0.015 -28.268,-84.332 C 267.871,6.2739988 258.813,-1.2207031e-6 247.934,-1.2207031e-6 237.101,-1.2207031e-6 227.906,6.4789988 224.189,15.400999 l -9.423,27.471 -0.037,-41.4530002 -45.709,-0.023 c -8.262,0 -15.689,3.224 -21.159,8.557 l 0.016,-8.52 h -46.801 c -8.717,0 -16.645,3.717 -22.19,9.5590002 V 1.3959988 l -44.11,0.038 C 15.734,1.4179988 0.114,16.302999 0.091,35.982999 c 0,9.111 3.982,17.374 9.854,23.496 L 0,59.462999 v 40.087 l 44.442,-0.008 c 12.487,-0.015 24.861,-7.549 29.162,-16.576 l 0.129,-0.371 c 4.969,10.036 15.339,16.955 27.341,16.955 l 46.733,-0.008 v -8.648"
                   style="fill:#ffffff"
                   id="path63" />
                <path
                   inkscape:connector-curvature="0"
                   d="m 6.866,92.690999 37.477,-0.038 c 15.333,0 27.759,-12.388 27.759,-27.652 0,-15.294 -12.426,-27.683 -27.759,-27.683 l -9.733,0.053 c -0.767,0 -1.389,-0.629 -1.389,-1.403 0,-0.774 0.622,-1.404 1.389,-1.404 l 37.409,0.008 0.015,-11.736 H 34.602 c -7.237,0 -13.125,5.879 -13.125,13.102 0,7.23 5.887,13.086 13.125,13.086 l 9.779,0.129 c 8.785,0 15.894,7.085 15.894,15.826 0,8.747 -7.108,15.848 -15.894,15.848 h -37.5 l -0.015,11.864"
                   style="fill:#0060a8"
                   id="path65" />
                <path
                   inkscape:connector-curvature="0"
                   d="m 6.881,78.071999 h 37.5 c 7.26,0 13.132,-5.856 13.132,-13.094 0,-7.23 -5.872,-13.079 -13.132,-13.079 l -9.779,-0.106 c -8.77,0 -15.886,-7.093 -15.886,-15.856 0,-8.739 7.116,-15.833 15.886,-15.833 l 37.432,-0.008 L 72.019,8.3149988 H 34.61 c -15.317,0 -27.759,12.3740002 -27.759,27.6530002 0,15.279 12.442,27.66 27.759,27.66 l 9.68,0.015 c 0.736,0 1.358,0.6 1.358,1.358 0,0.744 -0.622,1.343 -1.358,1.343 l -37.424,0.03 0.015,11.698"
                   style="fill:#0060a8"
                   id="path67" />
                <path
                   inkscape:connector-curvature="0"
                   d="m 101.158,80.901999 c -6.502,0 -11.828,-5.182 -11.828,-11.798 v -37.438 c 0,-6.365 5.326,-11.6 11.828,-11.6 l 40.003,0.007 V 8.3149988 h -40.003 c -13.018,0 -23.563,10.5070002 -23.563,23.4800002 v 37.31 c 0,12.974 10.545,23.496 23.563,23.496 l 39.836,0.016 -0.008,-11.729 -39.828,0.014"
                   style="fill:#0060a8"
                   id="path69" />
                <path
                   inkscape:connector-curvature="0"
                   d="m 92.198,31.794999 c 0,-4.961 3.991,-8.982 8.96,-8.982 h 40.003 v 11.774 h -34.465 c -2.761,0 -2.799,2.739 -2.799,2.739 h 28.753 v 11.721 H 92.184 l 0.014,-17.252"
                   style="fill:#0060a8"
                   id="path71" />
                <path
                   inkscape:connector-curvature="0"
                   d="m 101.158,78.049999 c -4.954,0 -8.975,-3.998 -8.975,-8.945 v -17.267 h 40.466 v 11.745 h -28.753 c 0.038,2.761 2.799,2.775 2.799,2.775 h 34.298 l -0.008,11.676 -39.827,0.016"
                   style="fill:#0060a8"
                   id="path73" />
                <path
                   inkscape:connector-curvature="0"
                   d="m 169.194,80.871999 c -6.479,0 -11.774,-5.28 -11.774,-11.768 v -37.31 c 0,-6.494 5.257,-11.729 11.743,-11.729 h 38.745 V 8.3149988 h -38.835 c -13.012,0 -23.557,10.5070002 -23.557,23.4800002 v 37.31 c 0,12.974 10.636,23.496 23.647,23.496 l 38.745,0.016 v -55.291 h -33.297 v 11.721 h 21.53 v 31.825 h -26.947"
                   style="fill:#0060a8"
                   id="path75" />
                <path
                   inkscape:connector-curvature="0"
                   d="m 160.181,69.103999 c 0,4.971 4.021,9.014 8.982,9.014 h 24.201 v -26.295 H 174.64 v 11.76 h 6.949 l 0.022,2.761 h -6.918 c -1.51,0 -2.746,-1.251 -2.746,-2.761 l -0.062,-26.265 c 0,0 -0.008,-2.731 2.777,-2.799 h 33.259 l -0.015,-11.714 -38.745,0.008 c -4.961,0 -8.982,4.021 -8.982,8.982 v 37.309"
                   style="fill:#0060a8"
                   id="path77" />
                <path
                   inkscape:connector-curvature="0"
                   d="m 244.315,22.637999 c 0.522,-1.494 1.941,-2.571 3.618,-2.571 1.678,0 3.111,1.077 3.619,2.571 l 18.808,55.563 h -27.54 l 0.03,-13.071 h 9.203 l -4.143,-12.313 -13.496,39.79 h -13.883 l 23.784,-69.969"
                   style="fill:#0060a8"
                   id="path79" />
                <path
                   inkscape:connector-curvature="0"
                   d="m 274.152,80.871999 h -31.286 v 11.735 h 47.612 l -24.762,-73.262 c -2.17,-7.146 -9.323,-12.4030002 -17.791,-12.4030002 -8.481,0 -15.612,5.2340002 -17.798,12.3740002 l -24.989,73.292 h 12.465 l 24.262,-71.244 c 0.985,-2.359 3.308,-4.021 6.039,-4.021 2.716,0 5.052,1.662 6.046,4.006 l 20.202,59.523"
                   style="fill:#0060a8"
                   id="path81" />
              </g>
            </g>
          </g>
          <g
             inkscape:label="Layer 2"
             id="layer4"
             inkscape:groupmode="layer" />
        </g>
        <g
           id="g352"
           style=""
           transform="translate(0.8060453,215.21411)">
          <path
             inkscape:connector-curvature="0"
             id="path14"
             d="m 34.805917,140.45824 c -1.259161,-1.07 -7.190563,-10.28531 -9.40339,-14.60957 -2.606954,-5.09446 -4.178658,-10.16569 -4.746468,-15.31487 -0.613642,-5.5648 -0.290131,-7.09231 1.808599,-8.53954 0.877687,-0.60524 2.321236,-1.36795 3.207886,-1.69493 3.06324,-1.129657 8.473454,-2.959642 11.284635,-3.816984 C 56.695252,90.462711 65.7237,87.904525 75.445844,85.576694 l 4.63476,-1.109731 2.937326,-3.792778 c 1.615533,-2.086025 5.424097,-6.942295 8.463477,-10.79171 3.039383,-3.849418 6.16091,-7.811554 6.936729,-8.804747 1.527537,-1.955539 5.824004,-7.113532 7.577304,-9.096698 3.37729,-3.820074 10.21471,-10.335105 11.83955,-11.281301 4.56524,-2.65849 8.9256,-0.476623 9.80519,4.906377 0.1593,0.974904 0.5412,2.374622 0.84866,3.110481 1.02087,2.443301 0.95734,2.764236 -3.06233,15.46961 -2.5048,7.917155 -2.54421,8.064613 -2.14888,8.039666 0.18118,-0.01145 1.87098,-2.045409 3.75512,-4.51994 3.84705,-5.05255 10.63147,-12.279404 13.88154,-14.786817 2.82594,-2.180196 5.91927,-3.644748 7.69821,-3.644748 2.79799,0 5.418,2.240879 6.26494,5.358376 0.78467,2.888266 -0.0971,9.250382 -2.23838,16.149828 l -0.60879,1.961604 3.52139,-0.270529 c 5.5948,-0.429816 21.21867,-1.867708 21.27839,-1.958287 0.0298,-0.04526 1.31616,-1.533183 2.85849,-3.306483 5.5623,-6.395276 7.89503,-10.102811 9.3785,-14.905709 2.12254,-6.871988 0.21462,-10.59742 -5.22578,-10.203897 -3.64181,0.263424 -6.82872,2.076659 -10.86393,6.181175 -1.88413,1.91649 -3.96977,4.029134 -4.63476,4.694771 -1.38993,1.391278 -4.00466,2.725747 -5.36609,2.738664 -1.77045,0.01681 -4.81289,-1.619128 -5.86141,-3.15169 -2.27021,-3.318251 -1.68048,-5.964353 2.34951,-10.542231 2.44653,-2.779134 4.64621,-5.770945 4.6463,-6.319466 1.4e-4,-0.824144 4.25152,-6.845181 6.11471,-8.65999 3.30574,-3.219894 6.38297,-5.010444 11.41673,-6.643061 2.8259,-0.916537 3.89627,-1.045017 8.66498,-1.040098 4.50722,0.0047 5.85021,0.151772 7.82674,0.857402 5.56141,1.985452 9.0451,5.267358 10.76551,10.141954 l 1.0582,2.998272 0.4926,-1.806461 c 1.224,-4.488677 4.96931,-10.315304 8.61575,-13.403638 1.30905,-1.108696 1.85249,-1.90808 2.05488,-3.02267 0.63256,-3.48355 3.82149,-6.082858 8.496,-6.925123 2.64623,-0.476806 6.29382,-0.033495 8.31215,1.0102211 l 1.08897,0.563127 0.6248,-2.1492558 c 0.34364,-1.1820905 1.00866,-2.637247 1.47782,-3.2336806 1.34536,-1.710352 4.44312,-3.0495863 8.1405,-3.5193291 5.9934,-0.76144665 10.89766,0.3576271 12.58778,2.8723326 0.62476,0.9295746 1.15264,1.176345 2.99625,1.4006811 4.39875,0.5352532 7.66492,2.6911871 9.49249,6.2658117 0.74767,1.462408 1.40204,2.066251 3.25515,3.00384 5.18771,2.624743 8.51103,5.78568 10.44042,9.930268 0.83912,1.802556 1.00733,2.770813 1.01061,5.817301 0.004,3.352093 -0.78162,7.508823 -1.57699,8.347964 -0.46701,0.492713 -5.67348,-6.592979 -5.67348,-7.721264 0,-0.942294 -0.0304,-0.953234 -0.77539,-0.279022 -0.73991,0.669605 -0.83192,0.659939 -2.01016,-0.211175 -0.67912,-0.502094 -1.34322,-0.804438 -1.47579,-0.671876 -0.13256,0.132562 -0.0208,1.605894 0.24827,3.274071 0.73446,4.552893 0.35992,9.236859 -0.95507,11.944023 -0.59219,1.219143 -1.44181,2.670025 -1.88804,3.224181 -0.77057,0.956941 -0.83948,0.970938 -1.37178,0.278634 -0.30824,-0.400907 -0.7909,-1.888347 -1.07257,-3.305423 -0.28168,-1.417076 -0.63249,-2.502114 -0.7796,-2.411196 -0.14711,0.09092 -0.96326,-0.547248 -1.81368,-1.418152 -1.42682,-1.4612 -1.50851,-1.666191 -1.05796,-2.655035 0.62649,-1.374992 0.37519,-1.598785 -0.87528,-0.779453 -0.98175,0.643273 -1.02724,0.622452 -2.45997,-1.126001 -0.9286,-1.13323 -1.36821,-2.019861 -1.20822,-2.436792 0.27664,-0.720906 -0.43525,-0.910977 -0.85687,-0.22878 -0.15802,0.25567 -0.77271,0.314812 -1.53405,0.147596 -1.22236,-0.268476 -1.17033,-0.172968 1.37672,2.527036 5.65813,5.997922 10.08559,12.283472 13.59721,19.303651 1.79066,3.579744 4.31447,9.597263 5.07885,12.109473 0.21418,0.703919 0.68483,0.909675 2.56672,1.122088 7.33793,0.828252 20.53401,3.267441 23.64682,4.370926 2.90561,1.030025 3.9642,3.989731 1.83464,5.129434 -0.91796,0.491273 -8.74797,1.660393 -17.73621,2.648238 -3.43577,0.377608 -6.36922,0.798078 -6.51878,0.934376 -0.14956,0.136302 0.0718,2.333461 0.49189,4.882579 1.10666,6.715132 2.71483,19.693091 3.03457,24.489081 0.26951,4.04253 0.29974,4.14175 1.33178,4.37081 8.07171,1.79155 14.15838,4.4565 21.44967,9.39139 2.3049,1.56 4.82548,3.38021 5.6013,4.04492 l 1.41058,1.20857 -53.90428,0.0108 c -34.72776,0.007 -53.90429,-0.12886 -53.90429,-0.38184 0,-0.50697 1.26365,-1.13945 6.44837,-3.22757 13.48077,-5.4293 27.53823,-8.7674 43.32493,-10.28801 3.76827,-0.36297 7.93955,-0.7826 9.26952,-0.93252 l 2.41814,-0.27257 0.24651,-6.64988 c 0.34477,-9.300204 0.39732,-22.076349 0.0983,-23.885832 l -0.2509,-1.518074 -1.86053,0.218821 c -11.0527,1.299946 -24.54468,3.080806 -30.67665,4.049133 -25.10312,3.964143 -42.71224,7.686021 -47.45559,10.030247 -1.59495,0.788239 -2.99081,1.433164 -3.10193,1.433164 -0.11112,0 -1.52169,0.647126 -3.1346,1.438051 -1.61291,0.79093 -5.56229,2.57805 -8.7764,3.97138 -12.66239,5.4892 -15.20868,5.69662 -19.73473,1.60761 l -1.55057,-1.40085 -6.58656,1.44427 c -3.62262,0.79435 -7.22134,1.60394 -7.99716,1.79908 -0.77581,0.19515 -2.95214,0.7188 -4.83627,1.16368 -7.35092,1.7357 -18.82942,4.56904 -20.55415,5.07356 -0.99748,0.29179 -3.26449,0.93168 -5.03779,1.42199 -11.624694,3.21417 -43.666573,13.99059 -51.385388,17.2821 -0.554156,0.23631 -5.401127,2.15852 -10.771047,4.27157 -10.48911,4.12745 -12.801552,4.62582 -14.554018,3.13663 z m 7.273362,-1.88955 c 2.059419,-0.76217 8.845081,-3.36787 15.079249,-5.79043 28.817182,-11.1982 52.234132,-18.48662 79.949782,-24.88398 4.32242,-0.99771 10.27116,-2.3713 13.21942,-3.05242 3.52246,-0.81378 5.29391,-1.3976 5.16633,-1.7027 -0.21267,-0.5086 -1.4126,-4.347055 -1.82146,-5.826668 -0.24185,-0.875212 -0.3297,-0.825624 -1.51399,0.854541 -1.63208,2.315447 -5.8363,5.802037 -8.42858,6.989867 -1.96149,0.8988 -3.19607,1.03767 -9.13456,1.0275 -2.09926,-0.004 -3.91714,-1.19436 -5.34097,-3.4985 -1.12092,-1.81393 -1.2131,-2.24588 -1.19994,-5.622718 0.0157,-4.024201 0.74804,-6.675272 4.06647,-14.720419 0.95536,-2.316159 1.67307,-4.275143 1.59491,-4.353301 -0.0782,-0.07816 -2.28356,2.905039 -4.9009,6.629332 -5.7944,8.245009 -8.61511,11.764993 -11.76387,14.680189 -5.38324,4.983937 -9.89766,5.242047 -13.91478,0.795577 -0.81049,-0.897111 -1.57585,-2.043746 -1.70082,-2.548077 -0.19595,-0.790867 1.8873,-14.429682 2.44108,-15.98138 0.15155,-0.424661 -0.0895,-0.498056 -1.02264,-0.31142 -0.6715,0.134299 -2.3676,0.455468 -3.769113,0.713705 l -2.5482,0.469525 -4.197819,5.883648 c -4.101727,5.748965 -13.18107,19.331429 -19.397224,29.017749 -3.491381,5.44044 -2.971071,5.10507 -9.740038,6.27804 -5.464307,0.94688 -5.739039,0.90632 -6.036136,-0.89111 -0.137394,-0.83123 -0.247821,-2.78086 -0.245392,-4.33249 0.0057,-3.6284 0.958347,-5.81158 3.176529,-7.27951 0.902553,-0.59728 2.168032,-1.92414 2.812171,-2.94857 1.951105,-3.103 5.721471,-8.437806 10.694605,-15.132117 2.596345,-3.494924 4.639408,-6.435627 4.540139,-6.534896 -0.662335,-0.66234 -41.501779,11.154362 -50.553845,14.627523 -2.048846,0.78611 -4.203714,1.80571 -4.788597,2.26578 -1.061518,0.83499 -1.063035,0.84449 -0.846535,5.29949 0.266616,5.48624 1.529687,10.088 4.322339,15.74764 2.081365,4.21812 8.401687,14.14521 9.558141,15.01259 1.039368,0.77957 2.196149,0.61617 6.244244,-0.88199 z m 272.998151,-9.43984 c -0.49308,-0.79782 -7.59496,-5.20585 -11.52007,-7.15033 -4.18959,-2.07551 -9.20447,-3.86568 -12.30252,-4.39165 -3.02968,-0.51437 -2.87529,-0.30301 -3.17147,-4.34169 -0.66632,-9.0857 -3.53251,-29.938854 -4.20781,-30.614155 -0.27101,-0.271004 -6.18502,0.233709 -8.42972,0.719408 l -0.9068,0.196207 -0.0494,12.38527 c -0.0272,6.8119 -0.16318,14.28341 -0.30227,16.60337 l -0.25288,4.21809 -1.41058,0.28198 c -0.77582,0.15509 -4.40302,0.48677 -8.06045,0.73707 -14.96345,1.02403 -30.35721,4.36018 -43.69097,9.46875 -6.16539,2.36216 -9.42235,2.20095 44.82306,2.21856 27.68651,0.009 49.60135,-0.13755 49.48186,-0.33088 z m -250.311687,-8.45501 3.224181,-0.67402 1.612091,-2.42136 c 0.88665,-1.33175 2.598964,-3.96034 3.805143,-5.84131 4.218845,-6.5791 11.864209,-17.974917 15.678464,-23.369593 9.843692,-13.922378 22.467338,-29.683772 23.205038,-28.972917 0.14054,0.135424 -0.1839,1.676986 -0.72098,3.425693 -1.69769,5.527553 -2.55763,8.658047 -4.02859,14.665612 -1.44305,5.893574 -3.48064,16.906628 -3.48064,18.812671 0,1.26128 2.59647,3.986724 4.17567,4.383074 3.66147,0.91897 8.77352,-3.896436 18.11992,-17.068462 9.43299,-13.294054 16.33019,-21.720121 14.99488,-18.318719 -0.15229,0.38791 -1.1893,3.244333 -2.30449,6.347607 -1.11518,3.103275 -2.9296,7.81864 -4.03204,10.47859 -5.13307,12.384963 -5.76363,17.136991 -2.69095,20.279794 l 1.21872,1.24653 4.17808,-0.13665 c 4.67237,-0.15281 5.43624,-0.46164 9.42539,-3.810611 3.61942,-3.038581 5.14423,-6.097959 4.0543,-8.134525 -0.64068,-1.19711 -1.77186,-0.936455 -3.61303,0.83254 -1.21035,1.162906 -2.02096,1.612091 -2.90922,1.612091 h -1.23136 l 0.20546,-2.518892 c 0.13527,-1.658442 0.96782,-4.583964 2.43722,-8.564232 2.99851,-8.122224 5.97001,-18.842285 6.5415,-23.59919 0.53823,-4.480125 -1.58486,-7.974799 -4.55231,-7.493251 -2.11922,0.343903 -5.14735,2.496254 -9.71187,6.903045 -4.52821,4.37174 -7.66294,8.103685 -15.32518,18.244812 -4.24486,5.618164 -5.68094,7.227595 -5.68094,6.36669 0,-0.607827 5.11531,-18.445026 6.24668,-21.782307 0.75146,-2.216625 1.73751,-5.46421 2.19124,-7.216855 l 0.82495,-3.186623 -0.80272,-2.5989 c -0.4415,-1.429397 -0.80272,-2.928601 -0.80272,-3.331571 0,-0.40297 -0.46952,-1.290668 -1.04338,-1.972659 -2.66663,-3.169108 -6.22196,-0.703782 -17.10114,11.858245 -10.08535,11.645401 -33.068995,41.450918 -40.048836,51.935903 -1.956486,2.939 -3.771438,5.18749 -4.715381,5.84175 -0.844039,0.58501 -1.655263,1.3357 -1.802713,1.66819 -0.634014,1.42965 -0.923001,3.53661 -0.704112,5.13357 0.274426,2.00214 0.264914,2.00035 5.163675,0.97624 z M 168.77576,105.53201 c 4.13434,-1.43921 6.75205,-2.56875 18.4078,-7.942972 17.43402,-8.038456 23.03899,-10.407044 52.36833,-22.130204 15.44724,-6.17438 28.68653,-11.52935 29.42065,-11.899934 1.64112,-0.828437 3.55139,-2.574206 3.55139,-3.245565 0,-0.898298 -2.78651,-1.487803 -5.81033,-1.229216 -4.62945,0.395898 -26.01562,4.984807 -34.49194,7.401064 -13.27931,3.785395 -28.84971,9.42261 -49.29499,17.847102 -1.7319,0.713628 -3.26365,1.182758 -3.4039,1.042511 -0.14025,-0.140248 1.0247,-1.564555 2.58878,-3.165123 8.11455,-8.303875 15.87671,-18.498898 20.8311,-27.360121 3.53587,-6.324107 5.0113,-13.062154 4.30954,-19.680987 -0.65177,-6.147261 -2.62706,-9.15685 -7.59866,-11.577454 -3.01029,-1.465668 -3.24895,-1.513319 -8.30317,-1.657821 -5.93853,-0.169784 -8.74192,0.379331 -13.13374,2.572571 -5.14712,2.570437 -8.86259,6.392165 -11.63535,11.96811 -0.7238,1.455534 -2.32358,3.797566 -3.55507,5.204514 -3.66785,4.190449 -4.55769,5.572405 -4.55769,7.078304 0,1.798968 0.56176,2.788679 2.00705,3.536068 1.57412,0.814009 3.61087,0.764881 4.84434,-0.116844 0.55416,-0.396131 3.00252,-2.723144 5.44081,-5.17114 5.52423,-5.546225 8.3475,-7.12774 13.08948,-7.332348 2.57942,-0.111298 3.30184,0.01311 4.84502,0.834345 6.52239,3.471029 4.33604,14.831315 -4.98384,25.895952 -3.96882,4.711818 -5.7032,6.554881 -15.35993,16.322418 -5.54794,5.611603 -10.25388,10.724808 -10.9014,11.844836 -1.07435,1.858334 -1.11397,2.091845 -0.69433,4.092498 0.90146,4.297736 4.31164,7.841006 7.54651,7.841006 0.9254,0 2.93849,-0.43721 4.47354,-0.97157 z M 155.643,92.49854 c 0.73775,-1.052897 5.43852,-6.059333 10.44616,-11.125417 l 9.10479,-9.211063 -2.61964,0.248089 c -1.44081,0.136451 -5.15869,0.430642 -8.26197,0.653763 -6.01021,0.432125 -12.36696,1.138281 -12.63194,1.403256 -0.0882,0.08825 -0.40215,1.12096 -0.69756,2.294908 -0.29541,1.173945 -1.37072,4.377318 -2.38959,7.118602 -1.01887,2.741283 -1.78222,5.054412 -1.69635,5.140288 0.0859,0.08587 0.73816,-0.134223 1.44953,-0.489096 1.62001,-0.80817 3.005,-0.492018 4.53141,1.034394 0.93737,0.937374 1.15742,1.508123 1.15742,3.002031 0,1.014529 0.0599,1.844602 0.1332,1.844602 0.0733,0 0.7368,-0.861461 1.47454,-1.914357 z m 58.44264,-1.442165 c 21.23248,-4.182774 39.3304,-6.78379 72.14106,-10.368032 14.98938,-1.637445 22.69856,-2.755941 23.32705,-3.384431 0.52988,-0.529882 0.5131,-0.693747 -0.14553,-1.42153 -2.24112,-2.476409 -22.77479,-5.775568 -41.72056,-6.703266 l -5.03779,-0.246682 -26.59949,10.681636 c -23.92836,9.608979 -34.14471,13.910428 -31.83879,13.405276 0.44332,-0.09712 4.88665,-0.980458 9.87405,-1.962971 z M 101.95592,80.050044 c 1.16996,-0.142783 2.21379,-0.399714 2.31963,-0.570962 0.35139,-0.568569 2.64563,-9.745334 2.47824,-9.912734 -0.24304,-0.243031 -8.738677,10.432206 -8.738677,10.980619 0,0.141445 0.408061,0.14591 0.906801,0.0099 0.498741,-0.135984 1.864036,-0.364066 3.034006,-0.506849 z m 105.18643,-7.988659 c 2.94189,-1.070573 5.26538,-2.030009 5.16331,-2.132079 -0.2598,-0.259808 -16.05521,0.744931 -16.59809,1.055795 -0.49736,0.284792 -6.60933,7.523816 -6.60933,7.828091 0,0.107091 2.85642,-0.930294 6.3476,-2.305302 3.49119,-1.375009 8.75462,-3.375936 11.69651,-4.446505 z m 3.11458,-3.487891 c 7.10181,-0.42338 8.0357,-0.572691 12.87078,-2.057818 6.08814,-1.870009 8.62105,-2.558488 17.35592,-4.717586 6.85481,-1.694384 22.06006,-4.862146 23.38785,-4.872471 2.04538,-0.01592 2.02086,-0.572321 -0.19786,-4.491644 -2.63705,-4.658273 -6.90336,-11.22007 -7.29502,-11.22007 -0.16017,0 -0.4157,0.49874 -0.56784,1.108312 -1.51094,6.053844 -9.08284,7.367279 -12.98641,2.252647 -0.99991,-1.310142 -1.13165,-1.823081 -1.13165,-4.406223 v -2.923469 l -1.10832,0.03059 c -0.84584,0.02334 -1.10922,0.23081 -1.11214,0.876055 -0.006,1.368013 -3.08033,5.911685 -3.81021,5.631604 -0.77118,-0.295927 -0.7961,0.589143 -0.0445,1.580204 0.302,0.39821 0.48759,1.032971 0.41242,1.410579 -0.0752,0.377604 -0.24401,1.358408 -0.37521,2.179555 -0.17437,1.091309 -0.39721,1.432117 -0.82826,1.266704 -0.72259,-0.27728 -0.76232,0.2768 -0.0859,1.198178 0.33717,0.459281 0.46067,1.817669 0.37342,4.107257 -0.12085,3.171014 -0.19254,3.421009 -0.98107,3.421009 -1.42782,0 -4.19948,-1.572135 -5.70021,-3.233261 -4.07617,-4.511831 -5.28683,-11.942118 -3.01693,-18.515994 0.96562,-2.796541 0.95517,-3.136173 -0.068,-2.210191 -0.68244,0.617598 -0.96582,0.664159 -1.60662,0.263975 -1.11831,-0.698396 -1.31034,-0.609248 -1.03663,0.481257 0.25802,1.02806 -0.0104,1.770046 -2.10325,5.814867 -1.10781,2.140994 -1.41469,2.471343 -1.91221,2.058439 -0.84346,-0.700011 -1.16498,-0.178253 -0.4868,0.78998 0.50174,0.716325 0.45719,1.269844 -0.36447,4.529044 -0.51484,2.04214 -1.04343,3.817624 -1.17464,3.94552 -0.75558,0.736439 -6.20467,-7.189981 -6.20467,-9.025492 0,-1.51879 -0.6666,-0.363381 -1.32971,2.304754 -1.16339,4.681165 -3.70222,9.920101 -7.90319,16.308433 -2.1555,3.277836 -4.05931,6.195442 -4.23068,6.483567 -0.24864,0.418027 0.28605,0.479855 2.64652,0.306031 1.62696,-0.119806 6.40396,-0.423258 10.61555,-0.674337 z m 70.10451,-0.860849 c -0.83933,-2.745104 -3.68561,-9.413364 -5.2898,-12.392947 -4.05431,-7.530365 -7.59231,-12.298494 -13.97694,-18.836591 -2.21618,-2.269445 -3.90136,-4.254315 -3.74485,-4.410824 0.15651,-0.156508 1.39004,-0.05623 2.74119,0.222848 l 2.45663,0.507409 1.14769,-1.335879 c 0.9612,-1.118808 1.21408,-1.237647 1.55626,-0.731346 0.22472,0.332494 0.41136,1.355223 0.41475,2.272732 0.004,1.021631 0.29841,2.029097 0.76017,2.599346 0.82787,1.022374 0.53983,1.110087 3.5785,-1.089738 0.89099,-0.645028 0.9068,-0.632734 0.9068,0.705169 0,0.748903 -0.17851,1.984073 -0.39669,2.744822 -0.31912,1.112714 -0.2664,1.527154 0.26963,2.119464 0.64419,0.711815 0.69506,0.709288 1.53098,-0.07602 0.47556,-0.446766 0.99213,-0.8123 1.14794,-0.8123 0.15581,0 0.25768,1.245501 0.22639,2.767778 -0.0313,1.522277 0.12443,3.091784 0.34605,3.487794 0.37266,0.665911 0.45091,0.646799 1.04139,-0.254384 0.35115,-0.535915 0.93756,-2.141924 1.30313,-3.568902 0.74263,-2.898763 0.61716,-5.378239 -0.58707,-11.601052 -0.39679,-2.050378 -0.61468,-3.723318 -0.48421,-3.717644 0.13047,0.0057 1.22538,0.639856 2.43313,1.409295 l 2.19592,1.398979 1.12482,-1.077647 c 0.61865,-0.592706 1.22469,-0.977769 1.34677,-0.855696 0.12207,0.122073 0.3633,1.11614 0.53606,2.209039 0.2246,1.420794 0.82212,2.65993 2.09665,4.348039 l 1.78254,2.36095 0.47579,-1.5767 c 0.26168,-0.867185 0.48972,-2.689376 0.50676,-4.049311 0.0782,-6.244153 -3.44684,-10.980104 -11.13326,-14.957644 -2.10688,-1.090263 -2.97021,-1.772607 -3.15022,-2.489807 -0.27176,-1.082797 -1.62287,-3.1534196 -2.5977,-3.9810855 -1.57817,-1.3399125 -4.72523,-2.4896286 -6.86619,-2.5084256 -2.05035,-0.018002 -2.27708,-0.1165465 -3.02267,-1.3137608 -1.37336,-2.2052561 -3.77648,-3.1079012 -8.27421,-3.1079012 -4.18474,0 -7.46283,0.7392746 -9.40499,2.1210148 -1.52408,1.0842934 -2.65362,3.659015 -2.66459,6.0737793 -0.005,1.071369 -0.14487,1.88645 -0.31112,1.811293 -0.16625,-0.07516 -1.29975,-0.679375 -2.51889,-1.342706 -1.99963,-1.0879881 -2.57171,-1.2054386 -5.84383,-1.1997527 -3.19656,0.00555 -3.86645,0.1382255 -5.64232,1.1174557 -2.35693,1.299637 -3.82871,3.238101 -3.82871,5.042761 0,0.949788 -0.33925,1.569201 -1.30983,2.391501 -7.87989,6.676103 -11.61214,15.531375 -9.93063,23.561794 0.48774,2.32931 2.81636,7.122487 3.96545,8.162402 0.68002,0.615416 0.75252,0.521621 1.29846,-1.679887 0.5244,-2.114668 0.51263,-2.500501 -0.12639,-4.145297 C 215.71417,42.150949 215.47532,39.998243 216,40.0138 c 0.16625,0.0049 0.75567,0.363615 1.30982,0.797082 0.55416,0.433467 1.12627,0.792153 1.27135,0.797082 0.14509,0.0049 0.82971,-0.993765 1.52137,-2.219326 1.16871,-2.070841 1.23869,-2.412567 0.99037,-4.836272 -0.14696,-1.434391 -0.14184,-2.607983 0.0114,-2.607983 0.1532,0 0.93948,0.449116 1.74728,0.998035 1.25425,0.852281 1.56013,0.918237 2.09449,0.451623 0.73981,-0.646009 2.66696,-1.63421 3.97355,-2.037552 0.91794,-0.283364 0.91456,-0.25985 -0.26807,1.863301 -4.02764,7.230701 -3.82136,16.262371 0.4831,21.152499 1.478,1.679097 3.3305,2.962523 4.2761,2.962523 0.7275,0 0.49162,-4.328218 -0.32484,-5.960641 -0.41132,-0.822404 -0.86402,-2.103831 -1.00598,-2.847617 -0.27131,-1.421481 -0.3367,-1.397417 1.61669,-0.594962 0.78042,0.320592 1.03583,-1.365397 0.36251,-2.393004 -0.7144,-1.090321 -1.32023,-4.734142 -0.7839,-4.71489 0.19637,0.0071 0.70909,0.279094 1.13936,0.604534 1.14253,0.864166 1.31673,0.778245 2.59898,-1.28187 1.03932,-1.669812 1.14289,-2.130068 0.95232,-4.231738 -0.12455,-1.373574 -0.0537,-2.35815 0.16977,-2.35815 0.21097,0 0.8966,0.535462 1.5236,1.189915 1.04872,1.094624 1.2242,1.147565 2.19127,0.661094 0.5782,-0.290851 1.55583,-0.649871 2.17252,-0.797821 l 1.12127,-0.269 -1.12127,1.694343 c -1.51378,2.287484 -1.58006,5.543164 -0.15357,7.543244 1.08019,1.514531 3.64182,2.853421 5.48068,2.864593 3.01751,0.01834 5.41518,-3.134735 5.43195,-7.143295 0.005,-1.163728 0.15978,-2.115869 0.34424,-2.115869 0.67287,0 7.71564,10.791351 10.98131,16.826197 l 1.36306,2.518891 h 1.89585 c 3.63056,0 5.57553,1.410979 5.57553,4.044768 0,1.399005 -0.24733,1.860329 -1.76739,3.296613 -1.61496,1.525948 -1.73314,1.768217 -1.37031,2.809044 0.48516,1.391738 1.27561,1.594321 7.29584,1.869843 1.42098,0.06504 1.51731,0.0012 1.26123,-0.836389 z m -9.90361,-0.857749 c -0.42695,-0.937072 -0.47181,-0.944717 -2.00647,-0.341888 -2.12899,0.836292 -1.97312,1.300393 0.43672,1.300393 1.9666,0 1.9978,-0.01906 1.56975,-0.958505 z"
             style="fill:#000000;stroke:#000000;stroke-width:0.40302268" />
          <path
             inkscape:connector-curvature="0"
             id="path28"
             d="m 230.48743,55.305367 c -1.04736,-0.921927 -2.33471,-2.621816 -2.97202,-3.924417 -0.95404,-1.950005 -1.14719,-2.916417 -1.27547,-6.381816 -0.1691,-4.568042 0.38261,-7.13331 2.38894,-11.10783 0.64606,-1.279827 1.17465,-2.422809 1.17465,-2.539962 0,-0.53265 -1.59023,-0.09935 -3.49996,0.953665 l -2.08937,1.152066 -1.53067,-0.923796 c -0.84187,-0.508089 -1.66252,-0.842312 -1.82366,-0.742718 -0.16115,0.09959 -0.18697,1.316442 -0.0574,2.704109 0.19443,2.082136 0.0887,2.801635 -0.60538,4.117355 -1.51009,2.862807 -1.43578,2.817449 -3.01588,1.840896 -0.85232,-0.526763 -1.51861,-0.71731 -1.66725,-0.476805 -0.13617,0.220328 0.0549,1.653865 0.42463,3.185636 0.7265,3.009995 0.51509,6.682494 -0.36994,6.426277 -0.2615,-0.07571 -1.28168,-1.731587 -2.26705,-3.679734 -1.62743,-3.217516 -1.8066,-3.862622 -1.95529,-7.040151 -0.32938,-7.038961 2.36702,-13.117968 8.43308,-19.012291 2.13784,-2.077314 2.75859,-2.956586 2.98904,-4.233886 0.38172,-2.115637 3.10389,-4.815665 5.51104,-5.466212 0.94906,-0.2564875 3.09866,-0.3875674 4.7769,-0.2912889 2.50337,0.1436159 3.45753,0.4074499 5.31322,1.4691699 l 2.26188,1.294118 0.25035,-1.928586 c 0.38088,-2.9342578 0.52552,-3.4319046 1.41779,-4.8779177 1.33549,-2.1642876 3.81322,-3.0332566 9.19359,-3.224291 5.37582,-0.1908733 7.53953,0.4102415 9.1697,2.5474986 0.84967,1.1139789 1.37475,1.3851689 3.11649,1.6095852 3.46459,0.4463988 5.07658,1.0730112 6.90838,2.6854239 0.95885,0.84401 2.03024,2.251543 2.38086,3.127852 0.54918,1.372524 1.12619,1.862056 4.16436,3.533036 4.66911,2.567991 8.16966,6.013364 9.38465,9.236719 0.74289,1.97085 0.86779,2.974542 0.73317,5.891289 -0.0892,1.933644 -0.30041,3.653856 -0.46925,3.822694 -0.64009,0.640096 -3.22119,-3.555067 -3.67475,-5.972714 -0.46424,-2.474623 -0.81681,-2.709473 -2.15005,-1.432153 l -1.17785,1.128453 -2.00922,-1.236288 c -1.98305,-1.220181 -2.93346,-1.524031 -2.92151,-0.93402 0.003,0.166247 0.36608,2.282614 0.80604,4.703039 0.43996,2.420425 0.79199,5.503548 0.78229,6.851386 -0.0185,2.572183 -1.07324,6.325974 -1.84652,6.571838 -0.62036,0.197243 -0.93596,-1.709038 -0.66561,-4.020469 0.24931,-2.131534 -0.0474,-2.337764 -1.60307,-1.1141 -1.54506,1.215342 -2.02647,0.367336 -1.47747,-2.602537 0.57423,-3.106289 0.13033,-3.53541 -2.07575,-2.006601 -1.55242,1.07583 -1.70741,1.108594 -2.18091,0.461035 -0.28035,-0.383403 -0.62628,-1.555246 -0.76872,-2.604097 -0.14244,-1.04885 -0.44169,-2.179041 -0.665,-2.511534 -0.34148,-0.508435 -0.56071,-0.416251 -1.37914,0.579901 l -0.97311,1.184434 -6.97706,0.03902 c -5.86409,0.0328 -7.20207,0.154319 -8.38764,0.761811 -0.77581,0.397533 -2.57735,1.151409 -4.00342,1.675279 l -2.59284,0.952491 -1.41293,-1.24057 c -1.29856,-1.140153 -1.43446,-1.179181 -1.67896,-0.482161 -0.14632,0.417124 -0.18011,1.520799 -0.0751,2.452611 0.15035,1.333879 -0.0376,2.08422 -0.88372,3.528011 -1.18824,2.027587 -1.42794,2.126801 -2.86438,1.185611 -1.36635,-0.895267 -1.58095,-0.160565 -0.77794,2.663309 1.2489,4.391899 1.25909,4.153475 -0.16411,3.840891 -1.09523,-0.240553 -1.2645,-0.167541 -1.2645,0.545414 0,0.452732 0.36272,1.74338 0.80605,2.868103 0.94617,2.400463 1.10188,6.04534 0.25825,6.04534 -0.30129,0 -1.37927,-0.731889 -2.39551,-1.626422 z"
             style="fill:#16a252;fill-opacity:1;stroke:#16a252;stroke-width:0.40302268;stroke-opacity:1" />
          <path
             inkscape:connector-curvature="0"
             id="path30"
             d="m 246.93199,45.451885 c -3.81519,-1.806942 -4.80354,-4.99584 -2.75566,-8.891097 1.39301,-2.649618 3.35792,-3.837732 6.3768,-3.855814 1.99267,-0.01194 2.03397,0.01326 2.92798,1.786137 0.65803,1.304927 0.9068,2.5044 0.9068,4.372341 0,5.569946 -3.35213,8.532062 -7.45592,6.588433 z"
             style="fill:#eb1758;fill-opacity:1;stroke:#eb1758;stroke-width:0.40302268;stroke-opacity:1" />
          <path
             inkscape:connector-curvature="0"
             id="path32"
             d="m 256.26758,32.101562 -1.64453,0.25 c -0.90461,0.138308 -1.68814,0.284529 -1.74024,0.324219 -0.25117,0.191471 1.56262,3.200884 2.73242,4.533203 1.74731,1.990083 6.02413,8.506542 9.41602,14.347657 l 2.73633,4.71289 h 1.875 c 2.26108,7.55e-4 4.50168,1.045412 5.1875,2.417969 0.91083,1.822863 0.62421,3.124175 -1.09766,4.992188 -1.61313,1.750033 -2.0386,3.159971 -1.125,3.724609 0.26744,0.165286 1.6726,0.421493 3.12305,0.570312 3.76928,0.386737 4.45117,0.414117 4.45117,0.169922 0,-0.683157 -3.01671,-7.847455 -4.80664,-11.414062 -4.02054,-8.011257 -7.84551,-13.248399 -14.82617,-20.302735 z m 27.45312,50.658204 -3.17382,0.265625 c -1.74609,0.145619 -3.7226,0.374206 -4.39063,0.507812 l -1.21484,0.242188 -0.0312,9.11914 c -0.0379,11.143909 -0.49726,23.686709 -0.88282,24.072269 -0.15645,0.15645 -4.10791,0.6077 -8.78125,1.0039 -9.72778,0.82471 -12.34908,1.18077 -20.73242,2.8086 -6.67714,1.29653 -13.98972,3.28376 -20.15039,5.47656 -4.47343,1.59225 -5.13609,1.99457 -4.22851,2.56836 0.75806,0.47923 92.67469,0.51962 93.42968,0.041 0.38062,-0.24129 -0.49862,-0.99248 -3.02343,-2.58203 -6.99537,-4.40412 -15.04423,-7.85169 -20.01172,-8.57226 -2.34128,-0.33963 -2.47638,-0.60494 -2.87305,-5.62305 -0.56261,-7.11758 -2.63867,-22.914078 -3.70117,-28.164062 z"
             style="fill:#a28f48;fill-opacity:1;stroke:#a28f48;stroke-width:0.40302268;stroke-opacity:1" />
          <g
             id="g131">
            <path
               inkscape:connector-curvature="0"
               style="fill:#367bc2;fill-opacity:1;stroke:#367bc2;stroke-width:0.40302268;stroke-opacity:1"
               d="m 264.97461,69.335938 c -2.46722,-0.03513 -6.60739,1.604991 -48.64453,18.666015 -2.64428,1.073199 -4.88111,2.170802 -4.9707,2.439453 -0.20001,0.600026 1.07948,0.616398 3.5332,0.04687 10.78559,-2.503406 38.90338,-6.550642 68.31054,-9.832031 25.95726,-2.896431 27.86803,-3.254914 25.51172,-4.798828 -3.1471,-2.062058 -19.44919,-4.827926 -34.57812,-5.867188 -3.43577,-0.236015 -7.34314,-0.51909 -8.68164,-0.628906 -0.16036,-0.01316 -0.31599,-0.02305 -0.48047,-0.02539 z m -56.66797,1.146484 c -0.62177,-0.02317 -1.68259,0.0316 -3.08789,0.09961 -9.60251,0.46473 -9.13437,0.324646 -11.88867,3.539063 -1.32997,1.552156 -2.58018,3.096449 -2.77735,3.43164 -0.28547,0.485296 -0.2021,0.548858 0.4043,0.310547 0.41884,-0.1646 4.29672,-1.646326 8.61914,-3.292969 8.51756,-3.244799 10.59579,-4.018395 8.73047,-4.087891 z m -35.69336,2.363281 c -4.1947,0.0588 -19.82319,1.506356 -20.33203,1.972656 -0.33065,0.303013 -4.69236,12.759694 -4.69336,13.404297 -3.1e-4,0.174046 0.381,0.11303 0.84766,-0.136718 1.36084,-0.728297 3.38777,-0.10808 4.76367,1.458984 0.68192,0.776664 1.23828,1.769466 1.23828,2.205078 0,1.094459 0.5926,0.990984 1.5918,-0.279297 0.46375,-0.589562 4.66324,-4.957964 9.33203,-9.707031 4.66879,-4.749066 8.39071,-8.732326 8.27148,-8.851563 -0.0552,-0.0552 -0.42029,-0.07481 -1.01953,-0.06641 z m -69.53906,8.761719 c -0.44874,-0.0033 -1.31255,0.134712 -2.88086,0.408203 l -1.011719,0.175781 -2.439453,0.404297 -0.01563,0.02344 h -0.002 l -3.867187,5.445312 c -3.087401,4.348321 -10.581917,15.525125 -17.376953,25.876955 -4.173457,6.26618 -5.664333,8.17649 -7.634766,8.96289 -0.02082,0.006 -0.03542,0.01 -0.05664,0.0156 -1.018371,0.27897 -2.006714,0.50787 -2.964843,0.70899 -0.214637,0.0391 -0.379602,0.0686 -0.615235,0.11328 -1.549246,0.29389 -2.879749,0.48386 -3.955078,0.56836 -0.08217,0.006 -0.1568,0.009 -0.236328,0.0137 -0.260269,0.0171 -0.517373,0.0314 -0.74414,0.0352 -0.377747,0.003 -0.712612,-0.0131 -0.998047,-0.0469 -0.03692,-0.004 -0.06839,-0.009 -0.103516,-0.0137 -0.204014,-0.0288 -0.37693,-0.0694 -0.521484,-0.11914 -0.05617,-0.0202 -0.114059,-0.0408 -0.160157,-0.0645 -0.06424,-0.0314 -0.124901,-0.0639 -0.169922,-0.10156 -0.0035,-0.003 -0.0083,-0.005 -0.01172,-0.008 -0.05504,-0.0483 -0.09473,-0.10162 -0.117188,-0.16016 -0.07081,-0.18452 -0.135609,-0.41652 -0.193359,-0.68554 -0.05775,-0.26903 -0.108409,-0.57403 -0.152344,-0.90625 -0.02152,-0.16277 -0.03661,-0.34736 -0.05469,-0.52149 -0.01918,-0.18482 -0.0415,-0.35988 -0.05664,-0.55469 -0.02883,-0.37082 -0.05079,-0.75685 -0.06445,-1.14843 -1.62e-4,-0.005 1.59e-4,-0.009 0,-0.0137 -0.0134,-0.3892 -0.01984,-0.78423 -0.01758,-1.17382 1.4e-5,-0.003 -1.5e-5,-0.005 0,-0.008 8.36e-4,-0.1372 0.0089,-0.26677 0.01172,-0.40234 0.0054,-0.25887 0.0086,-0.51927 0.02148,-0.76758 0.0023,-0.0444 0.0072,-0.083 0.0098,-0.12695 0.01891,-0.32664 0.04361,-0.64579 0.07617,-0.93945 3.37e-4,-0.003 -3.37e-4,-0.007 0,-0.01 0.03557,-0.31061 0.07863,-0.60194 0.13086,-0.85351 0.415328,-2.00062 0.792487,-2.62142 2.78125,-4.5918 0.325946,-0.32294 0.696445,-0.71772 1.083984,-1.14844 1.297856,-1.3934 2.849967,-3.31312 3.808594,-4.75781 0.357812,-0.53924 1.189839,-1.71607 1.882812,-2.70703 1.540647,-2.16751 2.9551,-4.165516 4.966797,-6.964845 0.302701,-0.421216 0.408688,-0.571006 0.683594,-0.953125 3.070135,-4.267482 4.583597,-6.36345 4.970703,-7.144531 0.15117,-0.252819 0.247816,-0.431872 0.226563,-0.453125 -0.01094,-0.01094 -0.06029,-0.01001 -0.08789,-0.01563 -0.07949,-0.160775 -0.481383,-0.01466 -1.017578,0.0957 -0.182299,0.03752 -0.449547,0.102232 -0.658203,0.148438 -7.755194,1.627352 -39.76845,11.150503 -48.705078,14.558588 -0.595101,0.2232 -1.083511,0.41789 -1.441407,0.57617 -0.0025,0.001 -0.0073,0.003 -0.0098,0.004 -0.398616,0.17633 -0.751001,0.335 -1.058594,0.48437 -0.0028,0.001 -0.007,0.003 -0.0098,0.004 -0.305851,0.14883 -0.569041,0.29112 -0.794921,0.43555 -0.164699,0.10545 -0.289013,0.21805 -0.416016,0.33203 -0.05029,0.0448 -0.11925,0.0838 -0.164063,0.13086 -0.02285,0.0242 -0.04102,0.0513 -0.0625,0.0762 -0.05376,0.0617 -0.106825,0.12469 -0.152343,0.19141 -0.06339,0.0929 -0.117397,0.19172 -0.166016,0.29687 v 0.002 c -0.08272,0.18076 -0.14145,0.3877 -0.1875,0.61719 -0.0072,0.0364 -0.019,0.0695 -0.02539,0.10742 -0.0032,0.0186 -0.0029,0.0455 -0.0059,0.0645 -0.03928,0.25392 -0.06645,0.53166 -0.07422,0.85937 -0.02238,0.75 0.02347,1.70855 0.09375,2.99414 0.285059,5.21441 1.589276,10.00875 4.070313,14.95508 2.91378,5.80906 8.523366,14.56953 9.816406,15.33203 0.01506,0.009 0.03188,0.0129 0.04687,0.0215 0.373329,0.21354 0.75518,0.39073 0.861328,0.39648 0.253786,0.0126 1.144645,-0.25057 2.388672,-0.66016 2.439366,-0.73737 7.242027,-2.54852 16.429687,-6.06836 17.909476,-6.78243 32.291352,-11.81744 45.691405,-15.92968 2.95182,-0.89494 5.8615,-1.75615 8.69531,-2.55078 1.4875,-0.41712 2.73284,-0.78749 3.89258,-1.13477 5.5106,-1.52602 11.0065,-2.94984 16.68945,-4.31445 5.18657,-1.24541 8.74476,-2.28221 8.46289,-2.4668 -0.26751,-0.17522 -1.41982,-0.20758 -2.56054,-0.0723 -2.7839,0.33011 -4.3584,-0.0751 -6.03907,-1.55079 -2.39341,-2.10144 -3.14884,-4.02632 -3.11914,-7.958977 0.0223,-2.94973 0.26179,-4.097393 1.72071,-8.261718 2.26676,-6.470232 2.20493,-6.246094 1.75,-6.246094 -0.22029,0 -1.72184,1.858819 -3.33594,4.130859 -4.91491,6.918319 -8.62328,11.366797 -11.77734,13.93945 -0.32605,0.26592 -0.64606,0.50788 -0.96094,0.73437 -0.001,0.001 -0.002,0.003 -0.004,0.004 -1.97602,1.40107 -3.90306,2.10289 -5.82031,2.13281 -2.3818,-0.0161 -3.95458,-0.8231 -6.10742,-3.13476 -1.42392,-1.528968 -1.97486,-2.223448 -1.83594,-4.656248 v -0.002 c 0.17507,-1.587346 0.61231,-4.577233 1.05664,-7.40625 0.45115,-2.872459 0.9102,-5.575431 1.09375,-6.169922 0.0878,-0.2843 0.0542,-0.428363 -0.39453,-0.43164 z m 50.27734,16.173828 c -0.1052,0 -1.25289,1.07829 -2.55078,2.39648 -1.2979,1.3182 -3.0964,2.88313 -3.99609,3.47852 -0.89969,0.59538 -1.63672,1.24139 -1.63672,1.43359 0,0.19221 0.22683,0.34485 0.50391,0.33985 0.8499,-0.0147 7.28642,-1.50808 8.47656,-1.9668 1.07813,-0.41555 1.09957,-0.47664 0.53906,-1.56055 -0.32062,-0.62 -0.70877,-1.79947 -0.86328,-2.623043 -0.1545,-0.823575 -0.36745,-1.498047 -0.47266,-1.498047 z"
               id="path97" />
            <path
               style="fill:#367bc2;fill-opacity:1;stroke:#367bc2;stroke-width:0.40302268;stroke-opacity:1"
               d=""
               id="path115"
               inkscape:connector-curvature="0" />
            <path
               style="fill:#367bc2;fill-opacity:1;stroke:#367bc2;stroke-width:0.40302268;stroke-opacity:1"
               d=""
               id="path117"
               inkscape:connector-curvature="0" />
            <path
               style="fill:#367bc2;fill-opacity:1;stroke:#367bc2;stroke-width:0.14249003;stroke-opacity:1"
               d="m 207.07954,91.935864 c 0.0524,-0.157255 3.19704,-1.61396 4.14821,-1.921605 0.2298,-0.07433 0.23782,-0.0507 0.0726,0.213876 -0.15276,0.244606 -0.1526,0.350514 8.8e-4,0.596289 0.10265,0.164371 0.15414,0.331359 0.11441,0.371086 -0.0397,0.03973 -0.5411,0.167986 -1.11417,0.285023 -0.57306,0.117036 -1.33048,0.274209 -1.68314,0.349273 -1.37552,0.29278 -1.60632,0.308688 -1.53878,0.106058 z"
               id="path119"
               inkscape:connector-curvature="0" />
            <path
               style="fill:#367bc2;fill-opacity:1;stroke:#367bc2;stroke-width:0.14249003;stroke-opacity:1"
               d="m 206.7079,92.038694 c 0.0739,-0.192619 4.76924,-2.264051 4.88027,-2.153024 0.031,0.031 -0.0474,0.160182 -0.17433,0.287066 -0.30218,0.302173 -0.29117,0.427885 0.0666,0.761229 0.36384,0.338968 0.52991,0.278793 -2.39041,0.866167 -2.48931,0.500684 -2.48248,0.5 -2.38216,0.238562 z"
               id="path121"
               inkscape:connector-curvature="0" />
            <path
               style="fill:#367bc2;fill-opacity:1;stroke:#367bc2;stroke-width:0.14249003;stroke-opacity:1"
               d="m 209.08141,70.668581 c 0,-0.401686 0.26515,-0.514117 1.21958,-0.517141 0.73498,-0.0023 0.67665,0.178514 -0.15107,0.46836 -0.33298,0.1166 -0.70961,0.254628 -0.83696,0.306728 -0.17689,0.07236 -0.23155,0.01147 -0.23155,-0.257947 z"
               id="path123"
               inkscape:connector-curvature="0" />
          </g>
          <g
             style="fill:url(#linearGradient153);fill-opacity:1"
             id="g145">
            <path
               inkscape:connector-curvature="0"
               id="path133"
               d="m 264.97461,69.335938 c -2.46722,-0.03513 -6.60739,1.604991 -48.64453,18.666015 -2.64428,1.073199 -4.88111,2.170802 -4.9707,2.439453 -0.20001,0.600026 1.07948,0.616398 3.5332,0.04687 10.78559,-2.503406 38.90338,-6.550642 68.31054,-9.832031 25.95726,-2.896431 27.86803,-3.254914 25.51172,-4.798828 -3.1471,-2.062058 -19.44919,-4.827926 -34.57812,-5.867188 -3.43577,-0.236015 -7.34314,-0.51909 -8.68164,-0.628906 -0.16036,-0.01316 -0.31599,-0.02305 -0.48047,-0.02539 z m -56.66797,1.146484 c -0.62177,-0.02317 -1.68259,0.0316 -3.08789,0.09961 -9.60251,0.46473 -9.13437,0.324646 -11.88867,3.539063 -1.32997,1.552156 -2.58018,3.096449 -2.77735,3.43164 -0.28547,0.485296 -0.2021,0.548858 0.4043,0.310547 0.41884,-0.1646 4.29672,-1.646326 8.61914,-3.292969 8.51756,-3.244799 10.59579,-4.018395 8.73047,-4.087891 z m -35.69336,2.363281 c -4.1947,0.0588 -19.82319,1.506356 -20.33203,1.972656 -0.33065,0.303013 -4.69236,12.759694 -4.69336,13.404297 -3.1e-4,0.174046 0.381,0.11303 0.84766,-0.136718 1.36084,-0.728297 3.38777,-0.10808 4.76367,1.458984 0.68192,0.776664 1.23828,1.769466 1.23828,2.205078 0,1.094459 0.5926,0.990984 1.5918,-0.279297 0.46375,-0.589562 4.66324,-4.957964 9.33203,-9.707031 4.66879,-4.749066 8.39071,-8.732326 8.27148,-8.851563 -0.0552,-0.0552 -0.42029,-0.07481 -1.01953,-0.06641 z m -69.53906,8.761719 c -0.44874,-0.0033 -1.31255,0.134712 -2.88086,0.408203 l -1.011719,0.175781 -2.439453,0.404297 -0.01563,0.02344 h -0.002 l -3.867187,5.445312 c -3.087401,4.348321 -10.581917,15.525125 -17.376953,25.876955 -4.173457,6.26618 -5.664333,8.17649 -7.634766,8.96289 -0.02082,0.006 -0.03542,0.01 -0.05664,0.0156 -1.018371,0.27897 -2.006714,0.50787 -2.964843,0.70899 -0.214637,0.0391 -0.379602,0.0686 -0.615235,0.11328 -1.549246,0.29389 -2.879749,0.48386 -3.955078,0.56836 -0.08217,0.006 -0.1568,0.009 -0.236328,0.0137 -0.260269,0.0171 -0.517373,0.0314 -0.74414,0.0352 -0.377747,0.003 -0.712612,-0.0131 -0.998047,-0.0469 -0.03692,-0.004 -0.06839,-0.009 -0.103516,-0.0137 -0.204014,-0.0288 -0.37693,-0.0694 -0.521484,-0.11914 -0.05617,-0.0202 -0.114059,-0.0408 -0.160157,-0.0645 -0.06424,-0.0314 -0.124901,-0.0639 -0.169922,-0.10156 -0.0035,-0.003 -0.0083,-0.005 -0.01172,-0.008 -0.05504,-0.0483 -0.09473,-0.10162 -0.117188,-0.16016 -0.07081,-0.18452 -0.135609,-0.41652 -0.193359,-0.68554 -0.05775,-0.26903 -0.108409,-0.57403 -0.152344,-0.90625 -0.02152,-0.16277 -0.03661,-0.34736 -0.05469,-0.52149 -0.01918,-0.18482 -0.0415,-0.35988 -0.05664,-0.55469 -0.02883,-0.37082 -0.05079,-0.75685 -0.06445,-1.14843 -1.62e-4,-0.005 1.59e-4,-0.009 0,-0.0137 -0.0134,-0.3892 -0.01984,-0.78423 -0.01758,-1.17382 1.4e-5,-0.003 -1.5e-5,-0.005 0,-0.008 8.36e-4,-0.1372 0.0089,-0.26677 0.01172,-0.40234 0.0054,-0.25887 0.0086,-0.51927 0.02148,-0.76758 0.0023,-0.0444 0.0072,-0.083 0.0098,-0.12695 0.01891,-0.32664 0.04361,-0.64579 0.07617,-0.93945 3.37e-4,-0.003 -3.37e-4,-0.007 0,-0.01 0.03557,-0.31061 0.07863,-0.60194 0.13086,-0.85351 0.415328,-2.00062 0.792487,-2.62142 2.78125,-4.5918 0.325946,-0.32294 0.696445,-0.71772 1.083984,-1.14844 1.297856,-1.3934 2.849967,-3.31312 3.808594,-4.75781 0.357812,-0.53924 1.189839,-1.71607 1.882812,-2.70703 1.540647,-2.16751 2.9551,-4.165516 4.966797,-6.964845 0.302701,-0.421216 0.408688,-0.571006 0.683594,-0.953125 3.070135,-4.267482 4.583597,-6.36345 4.970703,-7.144531 0.15117,-0.252819 0.247816,-0.431872 0.226563,-0.453125 -0.01094,-0.01094 -0.06029,-0.01001 -0.08789,-0.01563 -0.07949,-0.160775 -0.481383,-0.01466 -1.017578,0.0957 -0.182299,0.03752 -0.449547,0.102232 -0.658203,0.148438 -7.755194,1.627352 -39.76845,11.150503 -48.705078,14.558588 -0.595101,0.2232 -1.083511,0.41789 -1.441407,0.57617 -0.0025,0.001 -0.0073,0.003 -0.0098,0.004 -0.398616,0.17633 -0.751001,0.335 -1.058594,0.48437 -0.0028,0.001 -0.007,0.003 -0.0098,0.004 -0.305851,0.14883 -0.569041,0.29112 -0.794921,0.43555 -0.164699,0.10545 -0.289013,0.21805 -0.416016,0.33203 -0.05029,0.0448 -0.11925,0.0838 -0.164063,0.13086 -0.02285,0.0242 -0.04102,0.0513 -0.0625,0.0762 -0.05376,0.0617 -0.106825,0.12469 -0.152343,0.19141 -0.06339,0.0929 -0.117397,0.19172 -0.166016,0.29687 v 0.002 c -0.08272,0.18076 -0.14145,0.3877 -0.1875,0.61719 -0.0072,0.0364 -0.019,0.0695 -0.02539,0.10742 -0.0032,0.0186 -0.0029,0.0455 -0.0059,0.0645 -0.03928,0.25392 -0.06645,0.53166 -0.07422,0.85937 -0.02238,0.75 0.02347,1.70855 0.09375,2.99414 0.285059,5.21441 1.589276,10.00875 4.070313,14.95508 2.91378,5.80906 8.523366,14.56953 9.816406,15.33203 0.01506,0.009 0.03188,0.0129 0.04687,0.0215 0.373329,0.21354 0.75518,0.39073 0.861328,0.39648 0.253786,0.0126 1.144645,-0.25057 2.388672,-0.66016 2.439366,-0.73737 7.242027,-2.54852 16.429687,-6.06836 17.909476,-6.78243 32.291352,-11.81744 45.691405,-15.92968 2.95182,-0.89494 5.8615,-1.75615 8.69531,-2.55078 1.4875,-0.41712 2.73284,-0.78749 3.89258,-1.13477 5.5106,-1.52602 11.0065,-2.94984 16.68945,-4.31445 5.18657,-1.24541 8.74476,-2.28221 8.46289,-2.4668 -0.26751,-0.17522 -1.41982,-0.20758 -2.56054,-0.0723 -2.7839,0.33011 -4.3584,-0.0751 -6.03907,-1.55079 -2.39341,-2.10144 -3.14884,-4.02632 -3.11914,-7.958977 0.0223,-2.94973 0.26179,-4.097393 1.72071,-8.261718 2.26676,-6.470232 2.20493,-6.246094 1.75,-6.246094 -0.22029,0 -1.72184,1.858819 -3.33594,4.130859 -4.91491,6.918319 -8.62328,11.366797 -11.77734,13.93945 -0.32605,0.26592 -0.64606,0.50788 -0.96094,0.73437 -0.001,0.001 -0.002,0.003 -0.004,0.004 -1.97602,1.40107 -3.90306,2.10289 -5.82031,2.13281 -2.3818,-0.0161 -3.95458,-0.8231 -6.10742,-3.13476 -1.42392,-1.528968 -1.97486,-2.223448 -1.83594,-4.656248 v -0.002 c 0.17507,-1.587346 0.61231,-4.577233 1.05664,-7.40625 0.45115,-2.872459 0.9102,-5.575431 1.09375,-6.169922 0.0878,-0.2843 0.0542,-0.428363 -0.39453,-0.43164 z m 50.27734,16.173828 c -0.1052,0 -1.25289,1.07829 -2.55078,2.39648 -1.2979,1.3182 -3.0964,2.88313 -3.99609,3.47852 -0.89969,0.59538 -1.63672,1.24139 -1.63672,1.43359 0,0.19221 0.22683,0.34485 0.50391,0.33985 0.8499,-0.0147 7.28642,-1.50808 8.47656,-1.9668 1.07813,-0.41555 1.09957,-0.47664 0.53906,-1.56055 -0.32062,-0.62 -0.70877,-1.79947 -0.86328,-2.623043 -0.1545,-0.823575 -0.36745,-1.498047 -0.47266,-1.498047 z"
               style="fill:url(#linearGradient334);fill-opacity:1;stroke:#367bc2;stroke-width:0.40302268;stroke-opacity:1" />
            <path
               inkscape:connector-curvature="0"
               id="path135"
               d=""
               style="fill:url(#linearGradient336);fill-opacity:1;stroke:#367bc2;stroke-width:0.40302268;stroke-opacity:1" />
            <path
               inkscape:connector-curvature="0"
               id="path137"
               d=""
               style="fill:url(#linearGradient338);fill-opacity:1;stroke:#367bc2;stroke-width:0.40302268;stroke-opacity:1" />
            <path
               inkscape:connector-curvature="0"
               id="path139"
               d="m 207.07954,91.935864 c 0.0524,-0.157255 3.19704,-1.61396 4.14821,-1.921605 0.2298,-0.07433 0.23782,-0.0507 0.0726,0.213876 -0.15276,0.244606 -0.1526,0.350514 8.8e-4,0.596289 0.10265,0.164371 0.15414,0.331359 0.11441,0.371086 -0.0397,0.03973 -0.5411,0.167986 -1.11417,0.285023 -0.57306,0.117036 -1.33048,0.274209 -1.68314,0.349273 -1.37552,0.29278 -1.60632,0.308688 -1.53878,0.106058 z"
               style="fill:url(#linearGradient340);fill-opacity:1;stroke:#367bc2;stroke-width:0.14249003;stroke-opacity:1" />
            <path
               inkscape:connector-curvature="0"
               id="path141"
               d="m 206.7079,92.038694 c 0.0739,-0.192619 4.76924,-2.264051 4.88027,-2.153024 0.031,0.031 -0.0474,0.160182 -0.17433,0.287066 -0.30218,0.302173 -0.29117,0.427885 0.0666,0.761229 0.36384,0.338968 0.52991,0.278793 -2.39041,0.866167 -2.48931,0.500684 -2.48248,0.5 -2.38216,0.238562 z"
               style="fill:url(#linearGradient342);fill-opacity:1;stroke:#367bc2;stroke-width:0.14249003;stroke-opacity:1" />
            <path
               inkscape:connector-curvature="0"
               id="path143"
               d="m 209.08141,70.668581 c 0,-0.401686 0.26515,-0.514117 1.21958,-0.517141 0.73498,-0.0023 0.67665,0.178514 -0.15107,0.46836 -0.33298,0.1166 -0.70961,0.254628 -0.83696,0.306728 -0.17689,0.07236 -0.23155,0.01147 -0.23155,-0.257947 z"
               style="fill:url(#linearGradient344);fill-opacity:1;stroke:#367bc2;stroke-width:0.14249003;stroke-opacity:1" />
          </g>
          <path
             inkscape:connector-curvature="0"
             id="path155"
             d="m 219.77708,128.85266 c -0.30547,-0.19348 -0.44094,-0.537 -0.30104,-0.76337 0.46016,-0.74455 14.83148,-5.22603 21.41061,-6.67658 8.07392,-1.78012 12.97995,-2.5137 24.18136,-3.61576 l 8.8665,-0.87234 0.25944,-3.4257 c 0.1427,-1.88413 0.2911,-9.34868 0.32977,-16.587892 l 0.0703,-13.162202 0.8793,-0.218673 c 0.48362,-0.120271 2.14883,-0.329371 3.70046,-0.464669 1.55164,-0.135297 3.21689,-0.325849 3.70055,-0.423449 0.59179,-0.119418 0.9479,0.05347 1.08889,0.528634 0.45002,1.516787 2.27865,14.382491 3.05039,21.461751 0.44705,4.10076 0.91385,8.36429 1.03734,9.47451 0.12349,1.11022 0.36742,2.24979 0.54207,2.53237 0.17465,0.28258 1.77014,0.86073 3.54556,1.28478 3.97972,0.95053 8.56796,2.74067 12.88872,5.02866 4.75101,2.51582 9.08782,5.40575 8.80323,5.86623 -0.31178,0.50448 -93.25762,0.53778 -94.05347,0.0337 z"
             style="fill:url(#linearGradient163);fill-opacity:1;stroke:none;stroke-width:0.40302268" />
          <path
             inkscape:connector-curvature="0"
             id="path212"
             d="m 60.001399,119.70848 c -0.467304,-2.67524 0.252778,-4.59404 2.592215,-6.90745 1.194671,-1.18138 3.79449,-4.49648 5.777374,-7.36689 4.114664,-5.956347 15.695853,-21.400998 23.40577,-31.213882 17.641292,-22.45316 26.459322,-31.838791 29.913332,-31.838791 1.56388,0 2.65352,1.648341 3.63229,5.494716 l 0.90929,3.573294 -0.83698,3.02267 c -0.46033,1.662468 -1.65404,5.652393 -2.65268,8.866499 -3.40544,10.960395 -5.78946,19.904693 -5.40727,20.286879 0.48932,0.489318 1.45018,-0.581034 6.93801,-7.728639 6.95934,-9.064148 9.80837,-12.427801 14.01041,-16.541108 3.84355,-3.762381 7.79722,-6.70758 9.6177,-7.164491 1.54955,-0.388913 2.88586,0.511232 3.7886,2.552022 0.68471,1.547892 0.78431,2.336556 0.5652,4.475212 -0.39439,3.849425 -2.67203,12.320814 -5.87015,21.833255 -1.55914,4.637499 -2.94975,9.531573 -3.09025,10.875718 l -0.25543,2.443897 h 1.22601 c 0.80408,0 1.96438,-0.554797 3.3715,-1.61209 2.49205,-1.872488 3.06749,-1.978213 3.4069,-0.625939 0.44558,1.775339 -0.62374,3.858402 -3.34228,6.510859 -3.58656,3.499379 -5.33363,4.273529 -10.16982,4.506409 l -3.89402,0.18751 -1.07496,-1.27752 c -2.65137,-3.150964 -2.21599,-7.320584 1.81061,-17.340356 3.23203,-8.042569 7.52043,-19.929637 7.3117,-20.267372 -0.56466,-0.913635 -5.32179,4.779167 -14.05569,16.820262 -10.35823,14.2805 -14.9501,19.070316 -18.33623,19.126686 -1.29135,0.0215 -3.6613,-1.576834 -4.40864,-2.973251 -0.50295,-0.939764 -0.48902,-1.610744 0.11086,-5.340062 1.11027,-6.902271 3.33563,-16.744376 5.52905,-24.453351 1.12542,-3.955389 1.98136,-7.582593 1.90209,-8.060454 -0.12933,-0.779665 -0.34928,-0.662019 -2.14306,1.146276 -6.93685,6.993005 -23.419955,29.600109 -38.14249,52.313642 l -4.31304,6.65404 -2.135322,0.46006 c -1.174428,0.25303 -2.881917,0.56331 -3.794422,0.68951 -1.627623,0.22511 -1.663596,0.20372 -1.896177,-1.12777 z"
             style="fill:#a0a0a0;stroke:none;stroke-width:0.40302268" />
          <path
             inkscape:connector-curvature="0"
             id="path214"
             d="m 60.231738,120.71113 c -0.296377,-0.1238 -0.503778,-0.95122 -0.503778,-2.00981 0,-1.35158 0.334441,-2.32113 1.343864,-3.89589 0.739125,-1.15308 1.667436,-2.36327 2.062914,-2.68931 0.395477,-0.32603 2.266781,-2.7744 4.158453,-5.4408 1.891672,-2.66641 3.593084,-4.90846 3.780915,-4.98235 0.187831,-0.0739 0.341511,-0.31983 0.341511,-0.54654 0,-0.44612 2.418483,-3.666481 2.918916,-3.886708 0.167896,-0.07389 0.305265,-0.396962 0.305265,-0.717941 0,-0.320979 0.272041,-0.687988 0.604534,-0.815577 0.332494,-0.127593 0.604534,-0.490313 0.604534,-0.806045 0,-0.315736 0.272041,-0.678456 0.604534,-0.806045 0.332494,-0.127593 0.604534,-0.39865 0.604534,-0.602354 0,-0.5147 2.921193,-4.379664 3.310209,-4.379664 0.174348,0 0.316996,-0.182089 0.316996,-0.404642 0,-0.985951 23.064791,-30.065958 28.574331,-36.026415 3.05464,-3.304638 7.91375,-8.079284 8.23397,-8.090853 0.18412,-0.0067 0.59218,-0.364138 0.90681,-0.794414 0.31462,-0.430275 0.57204,-0.628867 0.57204,-0.441315 0,0.187553 0.31738,0.07908 0.70529,-0.241042 1.56613,-1.292463 4.02605,-0.58023 4.46557,1.292936 0.0732,0.311924 0.26048,0.659531 0.41621,0.77246 0.29721,0.21552 1.18967,3.51728 1.52384,5.637588 0.12875,0.816941 -0.58931,3.827794 -2.09558,8.786874 -3.05444,10.05602 -6.62742,22.624338 -6.62742,23.312568 0,1.564941 0.73117,0.757267 9.16704,-10.126163 2.23357,-2.881612 4.66658,-5.93782 5.4067,-6.791573 2.67484,-3.08555 9.55066,-9.933867 9.97376,-9.933867 0.23819,0 0.6596,-0.362721 0.93646,-0.806046 0.27686,-0.443325 0.73749,-0.806045 1.02362,-0.806045 0.28613,0 0.62423,-0.270999 0.75133,-0.602219 0.1271,-0.331221 0.39345,-0.501878 0.59188,-0.379238 0.19844,0.12264 0.3608,0.06003 0.3608,-0.139135 0,-0.502589 1.85227,-1.297544 3.02331,-1.297544 0.96485,0 3.14201,1.760787 2.7106,2.192199 -0.12426,0.124265 -0.0144,0.225937 0.24426,0.225937 0.2586,0 0.4414,0.13602 0.40621,0.302267 -0.0352,0.166247 0.074,0.617348 0.24267,1.002446 0.46155,1.053861 -0.10972,6.407531 -1.02996,9.65234 -0.27112,0.955989 -0.55533,2.100881 -0.63158,2.544206 -0.0762,0.443325 -0.25458,1.078086 -0.39631,1.41058 -0.14174,0.332493 -0.32764,0.876574 -0.41312,1.209068 -0.0855,0.332493 -0.22558,0.876574 -0.31132,1.209068 -0.0857,0.332493 -0.18324,0.604534 -0.21667,0.604534 -0.0334,0 -0.1401,0.4534 -0.23704,1.007556 -0.0969,0.554157 -0.2945,1.279597 -0.43902,1.612091 -0.14452,0.332494 -0.3011,0.740554 -0.34795,0.906801 -0.0469,0.166247 -0.13053,0.392947 -0.18595,0.503778 -0.0554,0.110832 -0.14609,0.382872 -0.20151,0.604534 -0.0554,0.221663 -0.14609,0.493703 -0.20151,0.604534 -0.0554,0.110832 -0.14609,0.382872 -0.20151,0.604534 -0.0554,0.221663 -0.1373,0.448363 -0.18197,0.503779 -0.0447,0.05542 -0.13736,0.372796 -0.20598,0.705289 -0.0686,0.332494 -0.77339,2.536561 -1.56615,4.897923 -1.59607,4.754116 -2.46177,9.184951 -1.90361,9.743105 0.49336,0.493364 2.98857,-0.380889 3.87144,-1.356453 0.39365,-0.434979 0.95966,-0.790872 1.2578,-0.790872 0.29814,0 0.54207,-0.156598 0.54207,-0.347994 0,-0.191399 0.40806,-0.327419 0.9068,-0.302267 0.76454,0.03857 0.91332,0.284845 0.94834,1.569874 0.0229,0.838279 -0.11613,1.621594 -0.30884,1.740695 -0.19271,0.119102 -0.24604,0.385375 -0.11851,0.591722 0.12753,0.206344 0.0398,0.375174 -0.19493,0.375174 -0.23475,0 -0.42681,0.160798 -0.42681,0.357332 0,0.576411 -5.3045,5.688009 -5.90266,5.688009 -0.30014,0 -0.5457,0.19206 -0.5457,0.42681 0,0.23474 -0.18137,0.31472 -0.40303,0.17772 -0.22166,-0.13699 -0.40302,-0.0463 -0.40302,0.20151 0,0.24783 -0.1893,0.3336 -0.42068,0.19061 -0.23137,-0.143 -0.68246,-0.0427 -1.00242,0.22281 -0.31996,0.26554 -0.81196,0.39447 -1.09333,0.28649 -0.28137,-0.10797 -1.82554,-0.0759 -3.43148,0.0713 -1.60594,0.1472 -3.19106,0.11588 -3.5225,-0.0696 -0.33143,-0.18548 -0.99201,-1.19001 -1.46794,-2.23228 -1.41987,-3.109436 -0.99247,-7.91638 1.14196,-12.84355 0.36816,-0.849862 0.70837,-1.726561 0.75603,-1.948224 0.0477,-0.221662 0.66974,-1.853904 1.38242,-3.627204 1.9036,-4.736573 6.44887,-17.107304 6.44887,-17.551703 0,-0.969219 -1.00961,-0.11655 -3.72226,3.143643 -1.61379,1.939547 -5.19154,6.609572 -7.95055,10.377834 -5.75985,7.866833 -5.63638,7.705249 -6.54332,8.563728 -0.37655,0.356433 -0.59817,0.787973 -0.49249,0.958976 0.10568,0.170998 -0.17565,0.507748 -0.62518,0.748332 -0.44953,0.240585 -0.81733,0.637752 -0.81733,0.882592 0,0.244844 -0.31738,0.677243 -0.70529,0.960891 -0.38791,0.283643 -0.70724,0.666357 -0.70962,0.850474 -0.01,0.745588 -6.81638,7.649906 -8.29626,8.415182 -1.26148,0.652329 -3.9916,0.674219 -3.9916,0.032 0,-0.213304 -0.10114,-0.286686 -0.22475,-0.163079 -0.12361,0.123611 -0.79507,-0.296173 -1.49215,-0.932852 -1.07542,-0.982247 -1.2772,-1.466564 -1.33212,-3.197304 -0.0356,-1.121842 0.10386,-2.893493 0.3099,-3.937008 0.20604,-1.04351 0.44377,-2.260014 0.52829,-2.703339 0.21183,-1.11119 0.51642,-2.62934 0.76816,-3.828715 0.53787,-2.562596 0.69059,-3.476114 0.6893,-4.123047 -8e-4,-0.383545 0.17139,-0.804137 0.38256,-0.934649 0.21118,-0.130513 0.2747,-0.414068 0.14117,-0.630124 -0.13353,-0.216056 -0.0705,-0.611585 0.14001,-0.878953 0.21053,-0.267368 0.39294,-0.758164 0.40535,-1.090658 0.0124,-0.332494 0.12782,-1.012594 0.25645,-1.511335 0.31021,-1.202785 0.58004,-2.436346 0.88255,-4.034678 0.13681,-0.722851 0.4125,-1.415484 0.61265,-1.539183 0.20015,-0.1237 0.25957,-0.393737 0.13204,-0.600083 -0.12753,-0.206346 -0.0902,-0.601875 0.0829,-0.878953 0.1731,-0.277078 0.35337,-0.759518 0.40062,-1.07209 0.0472,-0.312572 0.56974,-2.273769 1.16109,-4.358216 0.59136,-2.084448 0.96254,-3.902565 0.82484,-4.040262 -0.64693,-0.646929 -7.46895,7.364512 -16.215248,19.042353 -6.714947,8.965634 -10.073956,13.808399 -19.707728,28.413094 -4.605814,6.98237 -8.420786,12.75642 -8.477715,12.83121 -0.402358,0.52866 -6.857544,1.37677 -7.724041,1.01483 z"
             style="fill:#a0a0a0;stroke:none;stroke-width:0.40302268" />
          <path
             inkscape:connector-curvature="0"
             id="path218"
             d="m 161.04787,104.91966 c -2.97467,-2.15632 -4.89803,-7.2068 -3.65786,-9.605035 0.71778,-1.388026 5.18559,-6.226647 15.38429,-16.661118 13.04633,-13.347937 16.77917,-18.417223 19.09883,-25.936659 2.59353,-8.407216 -1.24042,-14.245954 -8.75364,-13.330969 -4.73513,0.576661 -6.84066,1.870644 -13.70027,8.41967 -4.36277,4.16523 -5.02337,4.651484 -6.31932,4.651484 -1.67992,0 -3.61749,-0.892144 -3.97801,-1.831658 -0.79105,-2.061442 -0.0918,-3.689258 3.35861,-7.819051 1.34461,-1.609343 3.57636,-4.832036 4.95945,-7.161538 3.81597,-6.427138 8.15023,-10.129069 14.40388,-12.302496 2.27378,-0.790241 3.4178,-0.909432 8.66499,-0.902771 l 6.04534,0.0077 2.75649,1.383837 c 3.69872,1.856852 5.96291,4.394444 6.91244,7.747076 1.02834,3.630958 0.95124,10.381075 -0.16713,14.632076 -2.16795,8.240476 -10.25362,20.515317 -22.10891,33.563498 -4.25082,4.678545 -4.89152,5.549643 -4.16245,5.659245 0.47394,0.07125 5.89185,-1.867708 12.03981,-4.308792 25.20803,-10.008992 37.35042,-13.909691 56.55548,-18.168234 13.16508,-2.919238 19.22213,-3.876736 21.60849,-3.415872 2.4,0.463499 2.4824,1.156132 0.31847,2.677002 -0.8869,0.623339 -13.67279,5.995156 -28.4131,11.937371 -32.33604,13.035538 -35.70638,14.455492 -54.20609,22.837477 -21.06438,9.544007 -23.4364,10.249897 -26.63979,7.927787 z"
             style="fill:#a0a0a0;stroke:none;stroke-width:0.40302268" />
          <path
             inkscape:connector-curvature="0"
             id="path220"
             d="m 162.41178,105.70686 c -1.52154,-0.72078 -3.54024,-2.60009 -3.54024,-3.29578 0,-0.21024 -0.16914,-0.38226 -0.37587,-0.38226 -0.37748,0 -0.90703,-1.20149 -0.72763,-1.6509 0.0528,-0.13218 -0.10554,-0.4949 -0.3518,-0.806049 -0.69767,-0.881499 -0.39068,-4.264323 0.48126,-5.303158 1.73151,-2.062936 3.71175,-4.163063 12.06367,-12.794047 13.11968,-13.558046 16.99795,-18.245304 19.8411,-23.979849 1.91259,-3.857637 2.67597,-6.606236 2.68639,-9.672544 0.012,-3.52162 -1.17549,-5.954533 -3.59308,-7.361583 -1.41545,-0.8238 -2.03063,-0.920657 -5.06922,-0.79812 -4.88429,0.196969 -6.98319,1.309272 -12.46593,6.606285 -2.37566,2.295185 -4.51212,4.173065 -4.74768,4.173065 -0.23557,0 -0.76325,0.408061 -1.17263,0.906801 -1.02158,1.244577 -1.98868,1.468387 -4.13195,0.956232 -1.37111,-0.327638 -2.42859,-1.48816 -2.43942,-2.677114 -0.0157,-1.72661 0.12515,-2.4101 0.49676,-2.4101 0.19781,0 0.24756,-0.18136 0.11056,-0.403023 -0.13699,-0.221662 -0.057,-0.403023 0.17773,-0.403023 0.23474,0 0.4268,-0.189014 0.4268,-0.420032 0,-0.231018 0.17898,-0.639079 0.39772,-0.906801 0.21875,-0.267723 1.23086,-1.48425 2.24914,-2.703393 1.01827,-1.219144 2.60416,-3.486146 3.52418,-5.037784 0.92002,-1.551637 1.81219,-2.881612 1.9826,-2.955499 0.17041,-0.07389 0.30984,-0.371865 0.30984,-0.662171 0,-0.290306 0.298,-0.642183 0.66222,-0.781947 0.36422,-0.139764 0.55173,-0.364604 0.41669,-0.499644 -0.13504,-0.135041 0.21127,-0.604848 0.76958,-1.044017 0.55832,-0.439168 0.91235,-0.901258 0.78674,-1.026867 -0.31607,-0.316072 1.83121,-2.500887 2.45793,-2.500887 0.28001,0 0.65414,-0.245649 0.8314,-0.545887 0.51667,-0.875116 3.63174,-2.670646 6.51941,-3.757795 2.43823,-0.917942 3.24522,-1.006985 9.31925,-1.028279 6.48987,-0.02275 6.70321,0.0036 8.8665,1.095087 1.21915,0.615121 2.34603,1.321317 2.5042,1.569325 0.15816,0.248008 0.4302,0.450924 0.60453,0.450924 0.41317,0 2.22465,1.809612 1.8283,1.826419 -0.16625,0.007 0.0498,0.27909 0.48005,0.604534 0.43028,0.325445 0.62887,0.591717 0.44132,0.591717 -0.18755,0 -0.0623,0.31738 0.27832,0.70529 1.15619,1.316663 1.63204,3.989493 1.59646,8.967254 -0.036,5.041225 -0.53656,8.488594 -1.38973,9.571788 -0.21824,0.277079 -0.26171,0.503779 -0.0966,0.503779 0.16512,0 0.0982,0.243387 -0.14866,0.54086 -0.24688,0.297473 -0.32954,0.660193 -0.18369,0.806045 0.14585,0.145852 0.0429,0.265185 -0.22879,0.265185 -0.27169,0 -0.38964,0.168829 -0.26211,0.375175 0.12753,0.206346 0.0446,0.490918 -0.1843,0.632382 -0.22889,0.141464 -0.31183,0.426036 -0.1843,0.632382 0.12753,0.206346 0.0291,0.375175 -0.21872,0.375175 -0.24783,0 -0.33851,0.18136 -0.20152,0.403022 0.137,0.221663 0.0463,0.403023 -0.20151,0.403023 -0.24782,0 -0.3385,0.18136 -0.20151,0.403023 0.137,0.221662 0.0463,0.403022 -0.20151,0.403022 -0.24783,0 -0.33851,0.181361 -0.20151,0.403023 0.13699,0.221663 0.0605,0.403023 -0.17005,0.403023 -0.23052,0 -0.53292,0.4534 -0.67201,1.007557 -0.13908,0.554156 -0.42528,1.007556 -0.636,1.007556 -0.21071,0 -0.27103,0.18136 -0.13403,0.403023 0.13699,0.221662 0.057,0.403023 -0.17773,0.403023 -0.23474,0 -0.42681,0.211212 -0.42681,0.46936 0,0.511864 -4.65135,7.538374 -6.1341,9.266414 -0.50534,0.588933 -1.19083,1.48424 -1.52333,1.98957 -0.33249,0.50533 -1.01259,1.313793 -1.51133,1.796586 -0.49874,0.482793 -0.9068,1.017572 -0.9068,1.188397 0,0.170825 -0.40806,0.731663 -0.9068,1.246307 -0.49874,0.514644 -1.40869,1.532921 -2.02209,2.26284 -0.61341,0.729918 -2.7444,3.124481 -4.73552,5.321249 -1.99113,2.196768 -3.62023,4.14639 -3.62023,4.332494 0,0.605751 0.80772,0.370676 6.59077,-1.918159 3.13578,-1.241088 5.88278,-2.29263 6.10445,-2.336761 0.22166,-0.04413 0.81108,-0.304597 1.30982,-0.578813 0.49874,-0.274217 0.9068,-0.397332 0.9068,-0.273592 0,0.12374 0.4534,-0.0721 1.00756,-0.435196 0.55415,-0.363095 1.00755,-0.544456 1.00755,-0.403023 0,0.141437 0.44384,-0.03365 0.98631,-0.389098 0.54247,-0.355442 1.13189,-0.653389 1.30983,-0.66211 0.17793,-0.0087 0.77691,-0.193491 1.33107,-0.410612 0.55416,-0.217116 1.18892,-0.430811 1.41058,-0.474877 0.22166,-0.04407 0.81108,-0.30448 1.30982,-0.578696 0.49874,-0.274217 0.9068,-0.379305 0.9068,-0.233536 0,0.145773 0.27204,0.03925 0.60454,-0.236679 0.33249,-0.275946 0.60453,-0.384653 0.60453,-0.241568 0,0.143081 0.40806,0.0045 0.9068,-0.308014 0.73883,-0.462916 4.4052,-1.830033 5.64232,-2.103907 0.16625,-0.0368 0.39295,-0.112254 0.50378,-0.16767 0.11083,-0.05542 0.33753,-0.138623 0.50378,-0.184902 0.16624,-0.04628 0.84634,-0.308611 1.51133,-0.582953 2.41634,-0.996856 9.0937,-3.239077 10.17534,-3.416822 0.61011,-0.10026 1.15464,-0.219873 1.21005,-0.265809 0.0554,-0.04594 0.28212,-0.128859 0.50378,-0.184274 0.22166,-0.05542 0.4937,-0.146096 0.60453,-0.201512 0.11084,-0.05541 0.33754,-0.139087 0.50378,-0.185942 0.16625,-0.04685 0.57431,-0.20343 0.9068,-0.347954 0.3325,-0.144524 1.05794,-0.342082 1.61209,-0.439021 0.55416,-0.09694 1.0529,-0.212401 1.10832,-0.25658 0.0554,-0.04418 0.267,-0.102996 0.47019,-0.130704 0.20319,-0.02769 0.49296,-0.1739 0.64393,-0.324877 0.15098,-0.150972 0.51047,-0.183951 0.79887,-0.07328 0.2884,0.11067 0.64592,0.0046 0.79449,-0.235853 0.14857,-0.240391 0.43895,-0.332732 0.6453,-0.205199 0.20635,0.127528 0.60188,0.09024 0.87895,-0.08285 0.27708,-0.173098 0.68514,-0.354559 0.90681,-0.403248 0.62313,-0.136879 3.32973,-0.81093 4.73551,-1.179333 0.49874,-0.130704 1.26952,-0.296951 1.71285,-0.369439 0.44332,-0.07249 0.80604,-0.170055 0.80604,-0.216818 0,-0.04676 0.36272,-0.145217 0.80605,-0.218785 0.44332,-0.07357 1.89421,-0.41228 3.22418,-0.752681 1.32997,-0.340401 2.96222,-0.710392 3.6272,-0.822207 0.66499,-0.111814 3.38539,-0.665508 6.04534,-1.230431 6.09985,-1.295491 7.32459,-1.462688 11.24043,-1.534494 2.60848,-0.04783 3.25846,0.06605 3.61674,0.633657 0.34855,0.552203 0.23694,0.877819 -0.55254,1.612091 -0.54412,0.506067 -1.12883,0.874781 -1.29936,0.819365 -0.17053,-0.05542 -0.31005,0.09131 -0.31005,0.326053 0,0.234745 -0.18136,0.314721 -0.40302,0.177725 -0.22167,-0.136995 -0.40303,-0.06271 -0.40303,0.165078 0,0.227789 -0.30179,0.29835 -0.67064,0.156808 -0.44789,-0.171869 -0.57481,-0.102267 -0.3821,0.209544 0.18853,0.305044 0.0717,0.383694 -0.3369,0.226882 -0.34489,-0.132349 -0.62547,-0.02922 -0.62547,0.229912 0,0.258458 -0.18136,0.35784 -0.40302,0.220844 -0.22167,-0.136995 -0.40303,-0.06271 -0.40303,0.165078 0,0.227789 -0.24865,0.318739 -0.55256,0.202116 -0.30392,-0.116618 -0.80266,0.02511 -1.10832,0.314918 -0.30566,0.289826 -0.91846,0.588909 -1.36179,0.664629 -0.44332,0.07572 -0.86687,0.303552 -0.94122,0.506289 -0.0743,0.202741 -0.30105,0.266104 -0.50378,0.140808 -0.20273,-0.125292 -0.3686,-0.02504 -0.3686,0.222787 0,0.247827 -0.16883,0.346253 -0.37517,0.218724 -0.20635,-0.127532 -0.49092,-0.04459 -0.63238,0.184299 -0.14147,0.228892 -0.42604,0.31183 -0.63239,0.184298 -0.20634,-0.127529 -0.37517,-0.0291 -0.37517,0.218724 0,0.247827 -0.16883,0.346253 -0.37518,0.218725 -0.20634,-0.127533 -0.49091,-0.0446 -0.63238,0.184298 -0.14146,0.228893 -0.42603,0.311831 -0.63238,0.184298 -0.20634,-0.127528 -0.37517,-0.03982 -0.37517,0.194938 0,0.234745 -0.13602,0.38828 -0.30227,0.341187 -0.16625,-0.04709 -0.71033,0.140647 -1.20907,0.417201 -0.49874,0.276554 -0.9068,0.401584 -0.9068,0.277844 0,-0.12374 -0.4534,0.0721 -1.00756,0.435196 -0.55415,0.363095 -1.00755,0.526432 -1.00755,0.362966 0,-0.163466 -0.2267,-0.110303 -0.50378,0.118138 -0.27708,0.228446 -5.03779,2.227091 -10.57935,4.441435 -26.27616,10.499655 -38.60252,15.711508 -55.31486,23.38832 -3.38035,1.552766 -6.14609,2.731941 -6.14609,2.620391 0,-0.11155 -0.60694,0.17229 -1.34876,0.63076 -0.74181,0.45846 -1.46725,0.71507 -1.61209,0.57023 -0.14483,-0.14484 -0.26334,-0.0215 -0.26334,0.27402 0,0.29555 -0.11452,0.42284 -0.2545,0.28286 -0.13997,-0.13997 -0.63871,-0.041 -1.10831,0.21997 -0.4696,0.26095 -0.98983,0.43593 -1.15608,0.38884 -0.16624,-0.0471 -0.30226,0.0571 -0.30226,0.23164 0,0.17449 -0.39175,0.34676 -0.87054,0.38283 -0.4788,0.0361 -0.99782,0.27151 -1.15337,0.52321 -0.15556,0.2517 -0.39858,0.44214 -0.54005,0.42321 -0.14146,-0.0189 -0.30254,-0.021 -0.35796,-0.004 -0.0554,0.0165 -0.55416,0.11239 -1.10831,0.21316 -0.55416,0.10077 -1.06839,0.36047 -1.14274,0.5771 -0.0743,0.21663 -0.30104,0.29136 -0.50377,0.16607 -0.20273,-0.12529 -0.59212,-0.0897 -0.8653,0.0792 -0.27318,0.16884 -0.77192,0.34605 -1.10831,0.39381 -0.33639,0.0477 -0.97434,0.18206 -1.41766,0.29845 -0.44333,0.11639 -1.47994,-0.10762 -2.30359,-0.4978 z"
             style="fill:#a0a0a0;stroke:none;stroke-width:0.40302268" />
          <path
             inkscape:connector-curvature="0"
             id="path222"
             d="m 162.41178,105.70686 c -1.52154,-0.72078 -3.54024,-2.60009 -3.54024,-3.29578 0,-0.21024 -0.16914,-0.38226 -0.37587,-0.38226 -0.37748,0 -0.90703,-1.20149 -0.72763,-1.6509 0.0528,-0.13218 -0.10554,-0.4949 -0.3518,-0.806049 -0.69767,-0.881499 -0.39068,-4.264323 0.48126,-5.303158 1.73151,-2.062936 3.71175,-4.163063 12.06367,-12.794047 13.11968,-13.558046 16.99795,-18.245304 19.8411,-23.979849 1.91259,-3.857637 2.67597,-6.606236 2.68639,-9.672544 0.012,-3.52162 -1.17549,-5.954533 -3.59308,-7.361583 -1.41545,-0.8238 -2.03063,-0.920657 -5.06922,-0.79812 -4.88429,0.196969 -6.98319,1.309272 -12.46593,6.606285 -2.37566,2.295185 -4.51212,4.173065 -4.74768,4.173065 -0.23557,0 -0.76325,0.408061 -1.17263,0.906801 -1.02158,1.244577 -1.98868,1.468387 -4.13195,0.956232 -1.37111,-0.327638 -2.42859,-1.48816 -2.43942,-2.677114 -0.0157,-1.72661 0.12515,-2.4101 0.49676,-2.4101 0.19781,0 0.24756,-0.18136 0.11056,-0.403023 -0.13699,-0.221662 -0.057,-0.403023 0.17773,-0.403023 0.23474,0 0.4268,-0.189014 0.4268,-0.420032 0,-0.231018 0.17898,-0.639079 0.39772,-0.906801 0.21875,-0.267723 1.23086,-1.48425 2.24914,-2.703393 1.01827,-1.219144 2.60416,-3.486146 3.52418,-5.037784 0.92002,-1.551637 1.81219,-2.881612 1.9826,-2.955499 0.17041,-0.07389 0.30984,-0.371865 0.30984,-0.662171 0,-0.290306 0.298,-0.642183 0.66222,-0.781947 0.36422,-0.139764 0.55173,-0.364604 0.41669,-0.499644 -0.13504,-0.135041 0.21127,-0.604848 0.76958,-1.044017 0.55832,-0.439168 0.91235,-0.901258 0.78674,-1.026867 -0.31607,-0.316072 1.83121,-2.500887 2.45793,-2.500887 0.28001,0 0.65414,-0.245649 0.8314,-0.545887 0.51667,-0.875116 3.63174,-2.670646 6.51941,-3.757795 2.43823,-0.917942 3.24522,-1.006985 9.31925,-1.028279 6.48987,-0.02275 6.70321,0.0036 8.8665,1.095087 1.21915,0.615121 2.34603,1.321317 2.5042,1.569325 0.15816,0.248008 0.4302,0.450924 0.60453,0.450924 0.41317,0 2.22465,1.809612 1.8283,1.826419 -0.16625,0.007 0.0498,0.27909 0.48005,0.604534 0.43028,0.325445 0.62887,0.591717 0.44132,0.591717 -0.18755,0 -0.0623,0.31738 0.27832,0.70529 1.15619,1.316663 1.63204,3.989493 1.59646,8.967254 -0.036,5.041225 -0.53656,8.488594 -1.38973,9.571788 -0.21824,0.277079 -0.26171,0.503779 -0.0966,0.503779 0.16512,0 0.0982,0.243387 -0.14866,0.54086 -0.24688,0.297473 -0.32954,0.660193 -0.18369,0.806045 0.14585,0.145852 0.0429,0.265185 -0.22879,0.265185 -0.27169,0 -0.38964,0.168829 -0.26211,0.375175 0.12753,0.206346 0.0446,0.490918 -0.1843,0.632382 -0.22889,0.141464 -0.31183,0.426036 -0.1843,0.632382 0.12753,0.206346 0.0291,0.375175 -0.21872,0.375175 -0.24783,0 -0.33851,0.18136 -0.20152,0.403022 0.137,0.221663 0.0463,0.403023 -0.20151,0.403023 -0.24782,0 -0.3385,0.18136 -0.20151,0.403023 0.137,0.221662 0.0463,0.403022 -0.20151,0.403022 -0.24783,0 -0.33851,0.181361 -0.20151,0.403023 0.13699,0.221663 0.0605,0.403023 -0.17005,0.403023 -0.23052,0 -0.53292,0.4534 -0.67201,1.007557 -0.13908,0.554156 -0.42528,1.007556 -0.636,1.007556 -0.21071,0 -0.27103,0.18136 -0.13403,0.403023 0.13699,0.221662 0.057,0.403023 -0.17773,0.403023 -0.23474,0 -0.42681,0.211212 -0.42681,0.46936 0,0.511864 -4.65135,7.538374 -6.1341,9.266414 -0.50534,0.588933 -1.19083,1.48424 -1.52333,1.98957 -0.33249,0.50533 -1.01259,1.313793 -1.51133,1.796586 -0.49874,0.482793 -0.9068,1.017572 -0.9068,1.188397 0,0.170825 -0.40806,0.731663 -0.9068,1.246307 -0.49874,0.514644 -1.40869,1.532921 -2.02209,2.26284 -0.61341,0.729918 -2.7444,3.124481 -4.73552,5.321249 -1.99113,2.196768 -3.62023,4.14639 -3.62023,4.332494 0,0.605751 0.80772,0.370676 6.59077,-1.918159 3.13578,-1.241088 5.88278,-2.29263 6.10445,-2.336761 0.22166,-0.04413 0.81108,-0.304597 1.30982,-0.578813 0.49874,-0.274217 0.9068,-0.397332 0.9068,-0.273592 0,0.12374 0.4534,-0.0721 1.00756,-0.435196 0.55415,-0.363095 1.00755,-0.544456 1.00755,-0.403023 0,0.141437 0.44384,-0.03365 0.98631,-0.389098 0.54247,-0.355442 1.13189,-0.653389 1.30983,-0.66211 0.17793,-0.0087 0.77691,-0.193491 1.33107,-0.410612 0.55416,-0.217116 1.18892,-0.430811 1.41058,-0.474877 0.22166,-0.04407 0.81108,-0.30448 1.30982,-0.578696 0.49874,-0.274217 0.9068,-0.379305 0.9068,-0.233536 0,0.145773 0.27204,0.03925 0.60454,-0.236679 0.33249,-0.275946 0.60453,-0.384653 0.60453,-0.241568 0,0.143081 0.40806,0.0045 0.9068,-0.308014 0.73883,-0.462916 4.4052,-1.830033 5.64232,-2.103907 0.16625,-0.0368 0.39295,-0.112254 0.50378,-0.16767 0.11083,-0.05542 0.33753,-0.138623 0.50378,-0.184902 0.16624,-0.04628 0.84634,-0.308611 1.51133,-0.582953 2.41634,-0.996856 9.0937,-3.239077 10.17534,-3.416822 0.61011,-0.10026 1.15464,-0.219873 1.21005,-0.265809 0.0554,-0.04594 0.28212,-0.128859 0.50378,-0.184274 0.22166,-0.05542 0.4937,-0.146096 0.60453,-0.201512 0.11084,-0.05541 0.33754,-0.139087 0.50378,-0.185942 0.16625,-0.04685 0.57431,-0.20343 0.9068,-0.347954 0.3325,-0.144524 1.05794,-0.342082 1.61209,-0.439021 0.55416,-0.09694 1.0529,-0.212401 1.10832,-0.25658 0.0554,-0.04418 0.267,-0.102996 0.47019,-0.130704 0.20319,-0.02769 0.49296,-0.1739 0.64393,-0.324877 0.15098,-0.150972 0.51047,-0.183951 0.79887,-0.07328 0.2884,0.11067 0.64592,0.0046 0.79449,-0.235853 0.14857,-0.240391 0.43895,-0.332732 0.6453,-0.205199 0.20635,0.127528 0.60188,0.09024 0.87895,-0.08285 0.27708,-0.173098 0.68514,-0.354559 0.90681,-0.403248 0.62313,-0.136879 3.32973,-0.81093 4.73551,-1.179333 0.49874,-0.130704 1.26952,-0.296951 1.71285,-0.369439 0.44332,-0.07249 0.80604,-0.170055 0.80604,-0.216818 0,-0.04676 0.36272,-0.145217 0.80605,-0.218785 0.44332,-0.07357 1.89421,-0.41228 3.22418,-0.752681 1.32997,-0.340401 2.96222,-0.710392 3.6272,-0.822207 0.66499,-0.111814 3.38539,-0.665508 6.04534,-1.230431 6.09985,-1.295491 7.32459,-1.462688 11.24043,-1.534494 2.60848,-0.04783 3.25846,0.06605 3.61674,0.633657 0.34855,0.552203 0.23694,0.877819 -0.55254,1.612091 -0.54412,0.506067 -1.12883,0.874781 -1.29936,0.819365 -0.17053,-0.05542 -0.31005,0.09131 -0.31005,0.326053 0,0.234745 -0.18136,0.314721 -0.40302,0.177725 -0.22167,-0.136995 -0.40303,-0.06271 -0.40303,0.165078 0,0.227789 -0.30179,0.29835 -0.67064,0.156808 -0.44789,-0.171869 -0.57481,-0.102267 -0.3821,0.209544 0.18853,0.305044 0.0717,0.383694 -0.3369,0.226882 -0.34489,-0.132349 -0.62547,-0.02922 -0.62547,0.229912 0,0.258458 -0.18136,0.35784 -0.40302,0.220844 -0.22167,-0.136995 -0.40303,-0.06271 -0.40303,0.165078 0,0.227789 -0.24865,0.318739 -0.55256,0.202116 -0.30392,-0.116618 -0.80266,0.02511 -1.10832,0.314918 -0.30566,0.289826 -0.91846,0.588909 -1.36179,0.664629 -0.44332,0.07572 -0.86687,0.303552 -0.94122,0.506289 -0.0743,0.202741 -0.30105,0.266104 -0.50378,0.140808 -0.20273,-0.125292 -0.3686,-0.02504 -0.3686,0.222787 0,0.247827 -0.16883,0.346253 -0.37517,0.218724 -0.20635,-0.127532 -0.49092,-0.04459 -0.63238,0.184299 -0.14147,0.228892 -0.42604,0.31183 -0.63239,0.184298 -0.20634,-0.127529 -0.37517,-0.0291 -0.37517,0.218724 0,0.247827 -0.16883,0.346253 -0.37518,0.218725 -0.20634,-0.127533 -0.49091,-0.0446 -0.63238,0.184298 -0.14146,0.228893 -0.42603,0.311831 -0.63238,0.184298 -0.20634,-0.127528 -0.37517,-0.03982 -0.37517,0.194938 0,0.234745 -0.13602,0.38828 -0.30227,0.341187 -0.16625,-0.04709 -0.71033,0.140647 -1.20907,0.417201 -0.49874,0.276554 -0.9068,0.401584 -0.9068,0.277844 0,-0.12374 -0.4534,0.0721 -1.00756,0.435196 -0.55415,0.363095 -1.00755,0.526432 -1.00755,0.362966 0,-0.163466 -0.2267,-0.110303 -0.50378,0.118138 -0.27708,0.228446 -5.03779,2.227091 -10.57935,4.441435 -26.27616,10.499655 -38.60252,15.711508 -55.31486,23.38832 -3.38035,1.552766 -6.14609,2.731941 -6.14609,2.620391 0,-0.11155 -0.60694,0.17229 -1.34876,0.63076 -0.74181,0.45846 -1.46725,0.71507 -1.61209,0.57023 -0.14483,-0.14484 -0.26334,-0.0215 -0.26334,0.27402 0,0.29555 -0.11452,0.42284 -0.2545,0.28286 -0.13997,-0.13997 -0.63871,-0.041 -1.10831,0.21997 -0.4696,0.26095 -0.98983,0.43593 -1.15608,0.38884 -0.16624,-0.0471 -0.30226,0.0571 -0.30226,0.23164 0,0.17449 -0.39175,0.34676 -0.87054,0.38283 -0.4788,0.0361 -0.99782,0.27151 -1.15337,0.52321 -0.15556,0.2517 -0.39858,0.44214 -0.54005,0.42321 -0.14146,-0.0189 -0.30254,-0.021 -0.35796,-0.004 -0.0554,0.0165 -0.55416,0.11239 -1.10831,0.21316 -0.55416,0.10077 -1.06839,0.36047 -1.14274,0.5771 -0.0743,0.21663 -0.30104,0.29136 -0.50377,0.16607 -0.20273,-0.12529 -0.59212,-0.0897 -0.8653,0.0792 -0.27318,0.16884 -0.77192,0.34605 -1.10831,0.39381 -0.33639,0.0477 -0.97434,0.18206 -1.41766,0.29845 -0.44333,0.11639 -1.47994,-0.10762 -2.30359,-0.4978 z"
             style="fill:#a0a0a0;stroke:none;stroke-width:0.40302268" />
          <g
             style="fill:#ec3d45;fill-opacity:1"
             id="g254">
            <path
               style="fill:#ec3d45;fill-opacity:1;stroke:none;stroke-width:0.40302268"
               d="m 59.875805,120.37183 c -0.228479,-0.59541 -0.04492,-3.54636 0.284419,-4.5724 0.09475,-0.29518 0.943447,-1.38334 1.885997,-2.41814 0.942551,-1.03479 3.927521,-4.96456 6.633267,-8.73282 C 74.858086,96.043609 85.620932,81.766891 92.504898,73.044505 104.45803,57.899193 116.28737,44.39658 117.6027,44.39658 c 0.30995,0 0.56355,-0.176703 0.56355,-0.392673 0,-0.600067 2.23369,-1.62244 3.54472,-1.62244 1.84255,0 2.84846,1.572174 3.92348,6.13219 0.83738,3.551979 0.99445,2.72085 -2.96501,15.689246 -2.84202,9.30843 -5.43235,18.895086 -5.17501,19.152424 0.40107,0.401072 0.94633,-0.23173 7.76494,-9.011652 4.37324,-5.631167 8.61433,-10.568403 11.84894,-13.793867 5.72636,-5.710167 6.13659,-6.077661 6.78444,-6.077661 0.25848,0 0.46997,-0.177674 0.46997,-0.394832 0,-0.612832 3.05431,-2.023304 4.38137,-2.023304 1.47846,0 3.12781,1.822586 3.51445,3.883576 0.64004,3.411676 -0.98838,10.690938 -5.48858,24.534727 -2.64961,8.150866 -3.85473,13.301133 -3.20616,13.701971 0.57581,0.355869 2.82984,-0.583662 4.37039,-1.821679 2.48035,-1.993265 3.68675,-1.283756 3.1035,1.825225 -0.28826,1.536561 -4.2167,5.833379 -7.00155,7.658089 -1.54265,1.01079 -2.21432,1.16428 -5.99876,1.37086 -4.89838,0.26738 -5.32227,0.10249 -6.36783,-2.47695 -1.6371,-4.038793 -1.12723,-6.535483 4.15561,-20.348886 2.18599,-5.715834 4.39076,-11.531832 4.89951,-12.92444 0.88815,-2.431175 0.91155,-3.263942 0.0772,-2.748303 -0.75075,0.463993 -6.47258,7.766221 -12.34825,15.758908 -3.25902,4.433249 -6.43862,8.650531 -7.06578,9.371736 -0.62717,0.721209 -1.20054,1.478573 -1.27416,1.683035 -0.34954,0.970797 -5.76099,6.524183 -7.4432,7.638424 -1.9008,1.259036 -4.98284,1.772186 -4.98284,0.829618 0,-0.234744 -0.16309,-0.326013 -0.36242,-0.202817 -0.19934,0.123192 -0.92478,-0.416496 -1.6121,-1.199307 -0.98235,-1.118839 -1.24966,-1.793306 -1.24966,-3.153052 0,-3.549231 3.0037,-17.433739 6.63114,-30.652264 0.78576,-2.863321 1.31922,-5.311684 1.18546,-5.440807 -0.36186,-0.349332 -4.73883,4.484984 -9.4753,10.465368 -7.550306,9.533214 -14.801505,19.700683 -24.848082,34.841427 -5.442078,8.20151 -9.946458,14.97762 -10.009734,15.05801 -0.220408,0.28004 -5.205787,1.23619 -6.518807,1.25025 -0.808645,0.009 -1.411789,-0.2186 -1.552352,-0.5849 z"
               id="path216"
               inkscape:connector-curvature="0" />
            <path
               style="fill:#ec3d45;fill-opacity:1;stroke:none;stroke-width:0.40302268"
               d="m 162.28056,105.70401 c -2.89771,-1.31533 -5.39826,-5.17112 -5.41529,-8.350235 -0.0121,-2.253324 0.73695,-3.199371 10.65744,-13.460973 17.61952,-18.225358 21.52693,-23.201016 23.96458,-30.516254 0.97354,-2.921551 1.11452,-7.531141 0.29063,-9.502987 -0.73849,-1.767437 -3.157,-3.812035 -4.89481,-4.138051 -2.43086,-0.456033 -6.46611,0.199576 -8.98949,1.460527 -1.39403,0.696606 -4.20207,2.877242 -6.95237,5.399002 -2.53759,2.326721 -5.05267,4.622242 -5.58907,5.101156 -1.94143,1.733371 -5.86585,0.714911 -6.49122,-1.684593 -0.43726,-1.677731 0.29634,-3.275429 3.16128,-6.884929 1.52203,-1.917592 3.89287,-5.318096 5.26852,-7.556675 1.37566,-2.238579 2.62849,-4.07129 2.78406,-4.072692 0.15557,-0.0014 0.58658,-0.536377 0.9578,-1.188835 0.96722,-1.700024 5.67475,-5.03825 9.1722,-6.504231 2.79896,-1.173204 3.40301,-1.269075 9.19527,-1.459433 5.28278,-0.173615 6.47866,-0.09844 8.08737,0.508384 4.75178,1.792436 7.93157,4.917484 8.99686,8.841978 0.63768,2.349172 0.78729,8.429919 0.28773,11.693854 -1.38166,9.027022 -8.86087,21.103529 -22.36381,36.110296 -2.40791,2.676078 -4.53331,5.140429 -4.72311,5.476336 -0.4587,0.811776 -0.23219,0.737983 9.81613,-3.197965 31.38301,-12.292783 44.59175,-16.349956 68.71536,-21.106469 6.81825,-1.34437 12.55123,-1.549704 13.23741,-0.474114 0.65703,1.029884 -0.91799,2.474592 -4.11467,3.77426 -1.4709,0.598021 -3.39981,1.405018 -4.28646,1.793322 -0.88665,0.388304 -9.13854,3.737749 -18.33753,7.443204 -30.38978,12.241342 -35.82714,14.537922 -62.26701,26.299732 -15.27411,6.794705 -17.40642,7.449845 -20.1678,6.196385 z"
               id="path224"
               inkscape:connector-curvature="0" />
          </g>
          <g
             id="g260"
             style="fill:url(#linearGradient268);fill-opacity:1">
            <path
               inkscape:connector-curvature="0"
               id="path256"
               d="m 59.875805,120.37183 c -0.228479,-0.59541 -0.04492,-3.54636 0.284419,-4.5724 0.09475,-0.29518 0.943447,-1.38334 1.885997,-2.41814 0.942551,-1.03479 3.927521,-4.96456 6.633267,-8.73282 C 74.858086,96.043609 85.620932,81.766891 92.504898,73.044505 104.45803,57.899193 116.28737,44.39658 117.6027,44.39658 c 0.30995,0 0.56355,-0.176703 0.56355,-0.392673 0,-0.600067 2.23369,-1.62244 3.54472,-1.62244 1.84255,0 2.84846,1.572174 3.92348,6.13219 0.83738,3.551979 0.99445,2.72085 -2.96501,15.689246 -2.84202,9.30843 -5.43235,18.895086 -5.17501,19.152424 0.40107,0.401072 0.94633,-0.23173 7.76494,-9.011652 4.37324,-5.631167 8.61433,-10.568403 11.84894,-13.793867 5.72636,-5.710167 6.13659,-6.077661 6.78444,-6.077661 0.25848,0 0.46997,-0.177674 0.46997,-0.394832 0,-0.612832 3.05431,-2.023304 4.38137,-2.023304 1.47846,0 3.12781,1.822586 3.51445,3.883576 0.64004,3.411676 -0.98838,10.690938 -5.48858,24.534727 -2.64961,8.150866 -3.85473,13.301133 -3.20616,13.701971 0.57581,0.355869 2.82984,-0.583662 4.37039,-1.821679 2.48035,-1.993265 3.68675,-1.283756 3.1035,1.825225 -0.28826,1.536561 -4.2167,5.833379 -7.00155,7.658089 -1.54265,1.01079 -2.21432,1.16428 -5.99876,1.37086 -4.89838,0.26738 -5.32227,0.10249 -6.36783,-2.47695 -1.6371,-4.038793 -1.12723,-6.535483 4.15561,-20.348886 2.18599,-5.715834 4.39076,-11.531832 4.89951,-12.92444 0.88815,-2.431175 0.91155,-3.263942 0.0772,-2.748303 -0.75075,0.463993 -6.47258,7.766221 -12.34825,15.758908 -3.25902,4.433249 -6.43862,8.650531 -7.06578,9.371736 -0.62717,0.721209 -1.20054,1.478573 -1.27416,1.683035 -0.34954,0.970797 -5.76099,6.524183 -7.4432,7.638424 -1.9008,1.259036 -4.98284,1.772186 -4.98284,0.829618 0,-0.234744 -0.16309,-0.326013 -0.36242,-0.202817 -0.19934,0.123192 -0.92478,-0.416496 -1.6121,-1.199307 -0.98235,-1.118839 -1.24966,-1.793306 -1.24966,-3.153052 0,-3.549231 3.0037,-17.433739 6.63114,-30.652264 0.78576,-2.863321 1.31922,-5.311684 1.18546,-5.440807 -0.36186,-0.349332 -4.73883,4.484984 -9.4753,10.465368 -7.550306,9.533214 -14.801505,19.700683 -24.848082,34.841427 -5.442078,8.20151 -9.946458,14.97762 -10.009734,15.05801 -0.220408,0.28004 -5.205787,1.23619 -6.518807,1.25025 -0.808645,0.009 -1.411789,-0.2186 -1.552352,-0.5849 z"
               style="fill:url(#linearGradient346);fill-opacity:1;stroke:none;stroke-width:0.40302268" />
            <path
               inkscape:connector-curvature="0"
               id="path258"
               d="m 162.28056,105.70401 c -2.89771,-1.31533 -5.39826,-5.17112 -5.41529,-8.350235 -0.0121,-2.253324 0.73695,-3.199371 10.65744,-13.460973 17.61952,-18.225358 21.52693,-23.201016 23.96458,-30.516254 0.97354,-2.921551 1.11452,-7.531141 0.29063,-9.502987 -0.73849,-1.767437 -3.157,-3.812035 -4.89481,-4.138051 -2.43086,-0.456033 -6.46611,0.199576 -8.98949,1.460527 -1.39403,0.696606 -4.20207,2.877242 -6.95237,5.399002 -2.53759,2.326721 -5.05267,4.622242 -5.58907,5.101156 -1.94143,1.733371 -5.86585,0.714911 -6.49122,-1.684593 -0.43726,-1.677731 0.29634,-3.275429 3.16128,-6.884929 1.52203,-1.917592 3.89287,-5.318096 5.26852,-7.556675 1.37566,-2.238579 2.62849,-4.07129 2.78406,-4.072692 0.15557,-0.0014 0.58658,-0.536377 0.9578,-1.188835 0.96722,-1.700024 5.67475,-5.03825 9.1722,-6.504231 2.79896,-1.173204 3.40301,-1.269075 9.19527,-1.459433 5.28278,-0.173615 6.47866,-0.09844 8.08737,0.508384 4.75178,1.792436 7.93157,4.917484 8.99686,8.841978 0.63768,2.349172 0.78729,8.429919 0.28773,11.693854 -1.38166,9.027022 -8.86087,21.103529 -22.36381,36.110296 -2.40791,2.676078 -4.53331,5.140429 -4.72311,5.476336 -0.4587,0.811776 -0.23219,0.737983 9.81613,-3.197965 31.38301,-12.292783 44.59175,-16.349956 68.71536,-21.106469 6.81825,-1.34437 12.55123,-1.549704 13.23741,-0.474114 0.65703,1.029884 -0.91799,2.474592 -4.11467,3.77426 -1.4709,0.598021 -3.39981,1.405018 -4.28646,1.793322 -0.88665,0.388304 -9.13854,3.737749 -18.33753,7.443204 -30.38978,12.241342 -35.82714,14.537922 -62.26701,26.299732 -15.27411,6.794705 -17.40642,7.449845 -20.1678,6.196385 z"
               style="fill:url(#linearGradient348);fill-opacity:1;stroke:none;stroke-width:0.40302268" />
          </g>
          <path
             inkscape:connector-curvature="0"
             id="path273"
             d="m 132.44336,80.230469 c -0.17529,0 -1.41992,1.654013 -1.41992,1.886719 0,0.05503 0.15761,0.135154 0.35156,0.177734 0.25394,0.05575 0.47733,-0.179975 0.79492,-0.841797 0.5034,-1.049028 0.54155,-1.222656 0.27344,-1.222656 z m 22.27344,12.49414 c -0.17548,0 -0.31836,0.14483 -0.31836,0.320313 0,0.355859 0.43404,0.293569 0.55859,-0.08008 0.0439,-0.131612 -0.0647,-0.240235 -0.24023,-0.240235 z m -9.88086,12.130861 -0.96289,0.48633 c -0.52895,0.26804 -0.96094,0.58801 -0.96094,0.70898 0,0.12602 0.19336,0.17178 0.45312,0.10938 0.24937,-0.0599 0.78096,-0.16774 1.18165,-0.24024 0.67778,-0.12267 0.71268,-0.16353 0.50781,-0.59765 z m -2.97852,1.23242 c -0.29187,0.0301 -0.75976,0.22398 -0.75976,0.36328 0,0.25218 0.75618,0.2215 0.91601,-0.0371 0.0731,-0.1182 0.0964,-0.25132 0.0527,-0.29492 -0.0346,-0.0346 -0.1117,-0.0413 -0.20899,-0.0312 z m -1.24804,0.13867 c -0.43125,0 -1.12305,0.45179 -1.12305,0.73438 0,0.10679 1.19755,-0.1106 1.46094,-0.26563 0.32574,-0.19171 0.12635,-0.46875 -0.33789,-0.46875 z"
             style="fill:#5b93cc;fill-opacity:1;stroke:#5b93cc;stroke-width:0.20151134;stroke-opacity:1" />
        </g>
      </g>
    </g>
  </g>
</svg>
