<?xml version="1.0" encoding="UTF-8" standalone="no"?>
<!-- Created with Inkscape (http://www.inkscape.org/) -->

<svg
   xmlns:dc="http://purl.org/dc/elements/1.1/"
   xmlns:cc="http://creativecommons.org/ns#"
   xmlns:rdf="http://www.w3.org/1999/02/22-rdf-syntax-ns#"
   xmlns:svg="http://www.w3.org/2000/svg"
   xmlns="http://www.w3.org/2000/svg"
   xmlns:xlink="http://www.w3.org/1999/xlink"
   xmlns:sodipodi="http://sodipodi.sourceforge.net/DTD/sodipodi-0.dtd"
   xmlns:inkscape="http://www.inkscape.org/namespaces/inkscape"
   version="1.1"
   id="svg2"
   width="614.13043"
   height="144.77872"
   viewBox="0 0 614.13043 144.77872"
   sodipodi:docname="mrboom.svg"
   inkscape:version="0.92.4 (5da689c313, 2019-01-14)">
  <metadata
     id="metadata8">
    <rdf:RDF>
      <cc:Work
         rdf:about="">
        <dc:format>image/svg+xml</dc:format>
        <dc:type
           rdf:resource="http://purl.org/dc/dcmitype/StillImage" />
        <dc:title></dc:title>
      </cc:Work>
    </rdf:RDF>
  </metadata>
  <defs
     id="defs6">
    <linearGradient
       inkscape:collect="always"
       id="linearGradient939">
      <stop
         style="stop-color:#ff7e00;stop-opacity:1;"
         offset="0"
         id="stop935" />
      <stop
         style="stop-color:#ff7e00;stop-opacity:0;"
         offset="1"
         id="stop937" />
    </linearGradient>
    <linearGradient
       inkscape:collect="always"
       id="linearGradient925">
      <stop
         style="stop-color:#fff400;stop-opacity:1;"
         offset="0"
         id="stop921" />
      <stop
         style="stop-color:#fff400;stop-opacity:0;"
         offset="1"
         id="stop923" />
    </linearGradient>
    <linearGradient
       inkscape:collect="always"
       xlink:href="#linearGradient925"
       id="linearGradient927"
       x1="340.8924"
       y1="262.49869"
       x2="340.8924"
       y2="320.50394"
       gradientUnits="userSpaceOnUse" />
    <linearGradient
       inkscape:collect="always"
       xlink:href="#linearGradient939"
       id="linearGradient941"
       x1="350.70868"
       y1="220.55641"
       x2="350.70865"
       y2="268.74539"
       gradientUnits="userSpaceOnUse" />
  </defs>
  <sodipodi:namedview
     pagecolor="#ffffff"
     bordercolor="#666666"
     borderopacity="1"
     objecttolerance="10"
     gridtolerance="10"
     guidetolerance="10"
     inkscape:pageopacity="0"
     inkscape:pageshadow="2"
     inkscape:window-width="1600"
     inkscape:window-height="837"
     id="namedview4"
     showgrid="false"
     inkscape:zoom="1.1205882"
     inkscape:cx="264.68224"
     inkscape:cy="93.945023"
     inkscape:window-x="-8"
     inkscape:window-y="-8"
     inkscape:window-maximized="1"
     inkscape:current-layer="svg2" />
  <g
     id="g947"
     transform="matrix(0.94609284,0,0,0.83847006,-62.771545,-160.0207)">
    <path
       inkscape:connector-curvature="0"
       id="path838"
       d="m 533.67354,205.43939 c -6.15013,-0.003 -12.30817,0.31688 -15.375,0.96289 -6.93396,1.4606 -15.28571,6.46344 -20.09765,12.03711 -2.28646,2.64838 -4.44669,4.81445 -4.79883,4.81445 -0.35214,0 -1.73655,-1.73212 -3.07617,-3.84961 -2.60542,-4.11827 -10.32686,-9.68513 -16.71094,-12.04687 -4.96802,-1.83788 -26.58805,-2.52168 -33.94531,-1.07422 -3.28308,0.6459 -7.80392,2.52178 -11.68555,4.84961 -5.06417,3.037 -7.12381,4.97588 -10.29297,9.69336 l -3.96094,5.89648 -3.62304,-5.20898 c -3.63495,-5.22684 -7.68963,-8.38658 -16.07617,-12.53125 -4.45629,-2.20233 -4.79101,-2.2302 -31.72071,-2.5254 -24.10311,-0.26421 -27.53826,-0.12661 -30.01367,1.19532 -1.5374,0.82101 -3.24441,2.47771 -3.79297,3.68164 -0.69658,1.52883 -0.99805,17.11187 -0.99805,51.67383 0,27.21707 -0.29985,49.48347 -0.66796,49.48047 -0.36811,-0.003 -2.82693,-2.1886 -5.4629,-4.85742 -10.06076,-10.18618 -13.56955,-9.89388 -25.7539,2.14062 -6.1384,6.0629 -8.33323,7.73793 -9.0332,6.89453 -1.00348,-1.20914 -5.48438,-18.9683 -5.48438,-21.73633 0,-0.93311 1.8116,-3.47583 4.02734,-5.65039 2.25227,-2.21043 4.41534,-5.34157 4.9043,-7.10156 1.17919,-4.24456 1.12132,-34.76572 -0.082,-43.46485 -1.77972,-12.86571 -9.07294,-22.93099 -20.89844,-28.84375 l -6.24609,-3.12304 -25.87891,0.10547 c -14.2336,0.0581 -26.8843,0.13124 -28.11133,0.16406 -1.22703,0.0328 -11.06538,-0.1393 -21.86328,-0.38281 l -19.63281,-0.44336 -9.80664,10.2832 -9.80859,10.28125 -9.82422,-10.24414 -9.82422,-10.24609 -18.01368,0.0176 c -9.90702,0.01 -19.061019,0.41661 -20.343745,0.9043 -4.947727,1.88112 -4.923828,1.53311 -4.923828,69.52539 0,37.52074 0.339234,63.33217 0.851562,64.67969 1.613832,4.2447 4.688688,5.33654 16.175781,5.7461 14.06526,0.50148 19.67578,-0.25266 22.69922,-3.05469 l 2.38672,-2.21289 2.15039,2.15234 c 2.65467,2.65467 6.09994,3.25586 18.65039,3.25586 12.55045,0 15.99377,-0.60119 18.64844,-3.25586 l 2.15039,-2.15234 2.38867,2.21289 c 1.64882,1.52808 3.89487,2.40086 7.26758,2.82226 6.98651,0.8729 25.39327,0.0391 27.77734,-1.25781 1.6284,-0.88584 2.78373,-0.83318 6.05469,0.27734 2.77138,0.94091 7.4701,1.37119 14.94336,1.36719 11.69043,-0.005 16.74151,-0.92705 19.34766,-3.5332 1.58974,-1.58973 1.73689,-1.56876 4.96289,0.72656 3.27634,2.33123 3.54267,2.36524 18.16015,2.36524 17.45484,0 19.84815,-0.74057 21.63282,-6.69727 0.58735,-1.9604 1.30528,-3.55361 1.5957,-3.54102 0.29042,0.0126 2.53616,2.07905 4.99023,4.59376 2.45407,2.5147 5.66627,5.31414 7.13867,6.2207 5.02559,3.09416 7.60119,2.3051 14.98633,-4.5918 3.6789,-3.4357 6.88815,-6.24609 7.13086,-6.24609 0.24269,0 0.69428,1.34954 1.00391,3 1.33084,7.09405 5.68441,8.03205 34.63476,7.46093 25.73223,-0.5076 30.96258,-1.39963 38.8379,-6.62695 2.72777,-1.8106 6.65931,-5.60837 8.75781,-8.45898 l 3.80859,-5.17188 2.2461,3.83399 c 2.97395,5.07465 9.49897,10.99273 14.46874,13.12304 11.34862,4.86458 30.06854,5.66459 42.45313,1.81446 8.24456,-2.56307 15.41728,-8.12497 19.50586,-15.12696 0.54641,-0.93576 2.11888,0.24377 6.33789,4.75391 6.54598,6.99767 11.27153,9.64492 20.6875,11.58984 18.37195,3.79483 38.44838,-0.48853 47.31641,-10.0957 1.86032,-2.0154 3.76724,-3.66605 4.23828,-3.66601 0.47103,0 0.85742,1.754 0.85742,3.89648 0,4.87487 2.44896,8.20303 6.95703,9.45508 4.32754,1.20191 23.76843,1.18295 28.12695,-0.0274 1.87243,-0.51995 4.15193,-1.6949 5.06641,-2.60937 1.62199,-1.62199 1.72201,-1.61161 4.08398,0.41797 3.2033,2.75251 5.65423,3.15382 19.01368,3.10742 11.71778,-0.0407 17.55775,-1.25228 19.07031,-3.95508 0.69479,-1.24151 1.12034,-1.14457 3.41601,0.78711 3.3603,2.82751 7.91227,3.47458 21.52149,3.05469 11.96274,-0.3691 15.50703,-1.429 17.41601,-5.20313 0.87766,-1.73515 1.13033,-16.27101 1.14063,-65.41015 0.0143,-68.58566 0.13492,-66.88602 -4.86914,-69.16602 -2.81162,-1.28107 -36.81194,-1.478 -38.79297,-0.22461 -0.70832,0.44815 -5.43475,4.95551 -10.50391,10.01562 l -9.21679,9.20118 -9.61328,-10.0293 -9.61524,-10.0293 h -17.97266 c -9.88535,0 -18.98523,0.38574 -20.2207,0.85547 -2.76188,1.05006 -5.00781,5.18368 -5.00781,9.21484 0,1.66042 -0.26759,3.28517 -0.59375,3.61133 -0.32617,0.32616 -2.33752,-1.17806 -4.4707,-3.34179 -4.87675,-4.94664 -11.84215,-8.90894 -17.95899,-10.21875 -3.03217,-0.64929 -9.17408,-0.97717 -15.32422,-0.98047 z m -0.0254,8.4707 c 13.72424,0.012 13.87461,0.0337 19.21289,2.79102 2.9591,1.52844 6.92759,4.53153 8.82032,6.67382 6.53302,7.39437 6.29475,5.537 6.58984,51.04102 0.31675,48.84511 0.45261,47.90427 -8.1582,56.50391 -4.31406,4.30844 -6.53318,5.79286 -10.33985,6.91601 -5.11023,1.50774 -25.50522,1.89866 -30.84961,0.5918 -8.24626,-2.01646 -17.09457,-10.10973 -19.27929,-17.63281 -0.98447,-3.39004 -1.2461,-12.86734 -1.2461,-45.33594 0,-45.81454 -0.25244,-43.76789 6.43555,-51.92969 2.28932,-2.79382 5.23696,-5.00069 9.17773,-6.87305 5.71781,-2.71668 6.01305,-2.75801 19.63672,-2.74609 z m -79.7832,0.004 c 8.36504,-0.0178 14.28463,0.35933 15.61719,0.99609 1.18028,0.56398 3.45379,1.51768 5.05273,2.11914 4.29834,1.61688 9.88272,7.48945 12.57227,13.22266 l 2.36718,5.05078 v 41.49609 41.4961 l -2.41992,4.91601 c -2.92137,5.93217 -8.02317,10.95838 -13.8164,13.61524 -3.70988,1.7014 -6.094,1.99936 -17.67383,2.21289 -11.05493,0.20385 -14.17383,-0.0308 -17.91016,-1.35547 -6.97233,-2.47203 -12.71192,-7.68926 -15.92969,-14.48047 l -2.74804,-5.80078 v -40.60352 c 0,-43.42021 -0.23707,-40.62128 4.20898,-49.71875 1.70172,-3.48205 6.33555,-7.54035 11.84571,-10.37695 5.28851,-2.72252 5.55141,-2.76083 18.83398,-2.78906 z m 204.27148,0.36132 15.61719,0.25 15.61719,0.25196 0.22851,61.79688 0.22852,61.79882 H 676.4372 663.04463 l -0.0176,-47.07422 -0.0176,-47.07226 -4.66797,4.90234 c -2.56718,2.69723 -5.97126,6.45061 -7.5664,8.33984 l -2.9004,3.43555 v 38.73438 38.73437 h -12.93945 -12.9414 V 299.91205 261.45111 L 616.863,255.4804 c -2.82218,-3.28379 -6.23426,-6.88928 -7.58399,-8.01172 l -2.45508,-2.04101 v 46.47266 46.47265 H 593.43917 580.05245 V 276.3515 214.33001 h 15.69141 15.6914 l 3.13086,3.34766 c 1.722,1.84055 7.00069,7.29558 11.73047,12.12304 l 8.59961,8.77735 11.61914,-12.15235 z m -533.82031,0.0117 11.69922,12.19727 11.69922,12.19531 11.67383,-12.17383 11.67578,-12.17578 h 15.7539 15.75391 v 62.02149 62.02148 H 189.18721 175.8005 v -46.40429 c 0,-25.52233 -0.32778,-46.4043 -0.72852,-46.4043 -0.40075,0 -3.81476,3.47238 -7.58594,7.71679 l -6.85547,7.7168 v 38.6875 38.6875 h -12.93945 -12.94141 v -38.6875 -38.6875 l -6.85547,-7.7168 c -3.77117,-4.24441 -7.18519,-7.71679 -7.58593,-7.71679 -0.40074,0 -0.72852,20.88197 -0.72852,46.4043 v 46.40429 H 106.18721 92.796588 l 0.228516,-61.79882 0.228515,-61.79688 15.531251,-0.2461 z m 89.85742,0.043 20.74805,0.008 c 17.95181,0.006 21.51231,0.23831 26.42578,1.73243 9.98987,3.03778 15.01789,7.8217 18.80274,17.89257 1.67114,4.44668 1.84334,6.86254 1.84375,25.69141 v 20.78321 l -3.3711,3.31054 c -1.8547,1.82139 -4.48564,4.11603 -5.8457,5.09766 l -2.47266,1.78516 1.76953,5.35351 c 0.97316,2.94488 3.23207,11.17617 5.01954,18.29297 1.78746,7.1168 4.02378,15.23627 4.96874,18.04297 0.94497,2.8067 1.7168,5.31723 1.7168,5.57812 0,0.26089 -6.14987,0.47461 -13.66797,0.47461 h -13.66992 l -1.92187,-6.02343 c -1.64993,-5.17047 -3.72046,-13.14317 -5.91602,-22.7793 l -0.56445,-2.47852 -3.52344,2.83203 -3.52344,2.83008 -0.24609,12.58594 -0.24805,12.58594 -13.16211,0.24804 -13.16211,0.2461 v -62.04492 z m 158.20899,0.12695 c 10.00007,0.0205 12.11096,0.41011 16.01367,1.71875 7.66312,2.56958 10.77143,4.6543 14.48047,9.70704 5.35558,7.29575 5.83789,9.27062 5.83789,23.9707 v 13.27148 l -4.68555,4.26172 -4.68554,4.26172 4.73437,4.25196 4.73437,4.25 -0.27148,19.55664 -0.27344,19.55664 -3.12304,5.17187 c -3.58271,5.93242 -9.7229,10.86889 -15.78516,12.69336 -3.10423,0.93424 -10.30998,1.24414 -28.98242,1.24414 H 335.5251 l 0.23046,-61.79882 0.22852,-61.79688 23.41016,-0.23828 c 5.44476,-0.0553 9.65492,-0.0889 12.98828,-0.082 z m 83.57226,21.35547 c -0.61991,-0.001 -1.35698,0.0644 -2.29297,0.16993 -2.51853,0.28387 -4.83313,1.19701 -6.00585,2.36914 -1.87278,1.87179 -1.91262,2.53398 -2.16993,36.04882 -0.28465,37.07678 0.0251,40.14665 4.27735,42.29493 4.57157,2.30963 9.88096,0.88255 12.00586,-3.22656 1.17747,-2.27697 1.38086,-7.79965 1.38086,-37.42383 v -34.75391 l -2.69532,-2.88477 c -1.84724,-1.97748 -2.64027,-2.58939 -4.5,-2.59375 z m 77.18164,0.0664 c -1.08208,-0.009 -2.18021,0.12493 -3.22656,0.42383 -4.85885,1.38796 -5.08006,3.10205 -5.13086,40.04883 -0.0479,34.8582 0.35504,39.17551 3.79297,40.64453 1.07378,0.45884 3.70135,0.68203 5.83789,0.49609 7.13493,-0.62096 6.79492,1.28547 7.04883,-39.60937 0.17441,-28.09187 -0.0326,-36.83956 -0.91406,-38.56446 -1.06759,-2.08901 -4.16196,-3.41254 -7.40821,-3.43945 z m -170.82617,0.5 v 16.19336 c 0,8.90676 0.21919,16.19336 0.48828,16.19336 0.39573,0 14.86477,-10.88015 19.71094,-14.82227 1.50594,-1.22501 1.64307,-10.03928 0.20508,-13.19531 -1.33413,-2.9281 -2.40144,-3.2686 -12.15039,-3.86523 z m -121.36523,0.26172 v 23.20117 c 0,12.76116 0.3018,23.19174 0.66992,23.17774 0.36811,-0.014 4.23087,-2.86675 8.58594,-6.33985 l 7.91992,-6.31445 -0.65039,-14.40821 c -0.35699,-7.92432 -1.01353,-15.09419 -1.45899,-15.93164 -0.97785,-1.83831 -6.09761,-3.37406 -11.27343,-3.38086 z m 132.09765,8.28515 c 0.23858,0.0206 0.49083,0.0721 0.75586,0.15625 2.32798,0.73888 2.45666,3.2691 0.26563,5.25196 -2.45388,2.22074 -3.73289,1.67853 -3.70899,-1.57227 0.019,-2.59086 1.0175,-3.97998 2.6875,-3.83594 z m 6.29297,42.2129 c -0.86213,0.0625 -1.92678,0.83266 -4.28515,2.57226 -2.34436,1.72926 -6.16399,4.25014 -8.48829,5.60157 l -4.22656,2.45703 -0.0137,9.72461 -0.0117,9.72265 8.69531,-0.51757 c 7.95837,-0.47481 8.86769,-0.71874 10.70899,-2.85938 1.854,-2.15539 2.01017,-3.19375 1.98437,-13.2207 -0.027,-10.49571 -0.1051,-10.93756 -2.20703,-12.4668 -0.93783,-0.6823 -1.4857,-1.06226 -2.15625,-1.01367 z m -4.36328,12.86133 c 0.39827,0 0.72266,1.80696 0.72266,4.01562 0,3.61205 -0.20912,4.01563 -2.08203,4.01563 -2.49958,0 -3.27149,-0.65885 -3.27149,-2.79102 0,-1.58373 3.23153,-5.24023 4.63086,-5.24023 z m -65.31445,7.62109 8.03125,7.99609 c 4.41759,4.39713 8.0332,8.28371 8.0332,8.63672 0,0.35302 -3.498,4.07424 -7.77148,8.27149 -4.27348,4.19725 -8.19657,7.63281 -8.71875,7.63281 -0.52219,0 -4.4539,-3.52184 -8.73828,-7.82617 l -7.79102,-7.82617 8.47852,-8.44141 z"
       style="opacity:1;fill:#000080;fill-opacity:1;stroke:#040184;stroke-width:1.07086623;stroke-miterlimit:4;stroke-dasharray:none;stroke-opacity:1" />
    <path
       id="path875"
       d="m 215.06641,215.03906 v 61.22071 61.2207 h 10.76562 c 5.92203,0 11.54478,-0.41575 12.49414,-0.92383 1.57057,-0.84054 1.72881,-1.98674 1.75391,-12.7168 l 0.0273,-11.79296 4.01367,-3.02344 c 2.20734,-1.6631 4.17296,-2.86416 4.36719,-2.66992 0.19424,0.19424 1.60484,5.36841 3.13477,11.5 1.52992,6.1316 3.39879,13.05731 4.15429,15.38867 l 1.37305,4.23828 h 12.84766 12.8457 l -0.83984,-2.20703 c -0.46165,-1.21422 -2.47328,-8.34214 -4.47071,-15.83985 -1.99742,-7.49772 -4.68954,-17.16163 -5.98242,-21.47461 l -2.35156,-7.84179 2.1582,-1.50391 c 1.18732,-0.82682 3.89622,-3.09955 6.01953,-5.05078 l 3.86133,-3.54688 -0.29101,-21.48828 -0.29102,-21.48632 -2.94141,-5.96875 c -3.3848,-6.87121 -7.39951,-10.57845 -14.46093,-13.35157 -4.43064,-1.73998 -7.01372,-1.96446 -26.54883,-2.30468 z m -91.29493,0.0645 -14.07031,0.2832 c -7.73896,0.15545 -14.404833,0.61664 -14.812498,1.02539 -0.407664,0.40876 -0.876879,27.81697 -1.041016,60.90625 l -0.296875,60.16211 h 12.537109 12.53906 l 0.25196,-45.88477 c 0.13966,-25.23637 0.60178,-46.2183 1.02539,-46.62695 0.42361,-0.40865 4.138,2.87174 8.2539,7.28906 l 7.48242,8.03125 0.002,38.59571 v 38.5957 h 12.04687 12.04883 v -38.5957 l 0.002,-38.59571 7.48243,-8.03125 c 4.11589,-4.41732 7.83029,-7.69771 8.2539,-7.28906 0.42361,0.40865 0.88378,21.39058 1.02344,46.62695 l 0.25391,45.88477 h 12.46289 12.46289 V 276.3516 215.2227 h -15.10547 -15.10547 l -11.43359,12.04687 c -6.28814,6.62599 -11.80468,12.04883 -12.25977,12.04883 -0.45508,0 -6.04231,-5.44869 -12.41601,-12.10742 z m 535.15235,0.002 -11.75391,12.10547 c -6.30544,6.49451 -11.78926,11.79936 -12.45508,12.05859 -0.29375,-0.11537 -1.28373,-0.96936 -2.55468,-2.13086 -2.25078,-2.16233 -5.7233,-5.68621 -9.66993,-9.86914 l -11.36718,-12.04687 h -0.69532 -14.39453 -0.3457 -14.74219 v 61.1289 61.12891 h 12.48438 0.008 12.47852 0.0156 v -3.19141 l 0.21484,-43.88281 0.22852,-46.35156 2.30664,1.70508 c 0.15591,0.11526 0.35114,0.27622 0.55274,0.44726 l 5.39843,5.43359 0.41602,0.41797 c 0.71341,0.78172 1.43016,1.57835 2.11133,2.36719 l 5.72656,6.63281 v 37.65625 0.55469 38.21094 h 12.04687 12.04883 v -38.6582 -0.25586 -38.4043 l 7.75391,-8.41406 c 4.25183,-4.61317 8.05295,-8.52002 8.4707,-8.70703 0.13791,0.52687 0.2648,3.147 0.37305,7.32031 0.0172,0.67589 0.0326,1.41458 0.0488,2.17969 0.18705,8.55267 0.30819,22.00392 0.30859,37.56836 0,0.0265 0,0.0477 0,0.0742 v 47.29688 h 12.5332 0.0352 12.5 0.0684 l -0.29883,-60.16211 c -0.16413,-33.08928 -0.6314,-60.49749 -1.03906,-60.90625 -0.40766,-0.40875 -7.0575,-0.8702 -14.77735,-1.02539 z m -204.66602,0.11719 c -13.19012,0 -14.21288,0.1264 -18.54492,2.28515 -6.56965,3.2738 -11.28984,8.21971 -13.51172,14.15821 -1.81833,4.85978 -1.88672,6.49921 -1.88672,45.64062 v 40.59961 l 2.18164,4.30664 c 4.16802,8.22519 9.37307,12.71293 17.40821,15.01172 2.84823,0.81488 7.84753,1.03464 16.75195,0.73633 11.21137,-0.3756 13.19609,-0.68171 17.01172,-2.61524 4.87885,-2.4723 9.94141,-7.66237 12.64453,-12.96093 1.75993,-3.44966 1.82422,-5.03681 1.82422,-45.58594 0,-41.11787 -0.0413,-42.09447 -1.9043,-45.77149 -3.30237,-6.51807 -6.87056,-10.23674 -12.54883,-13.07422 -5.39604,-2.69641 -5.63912,-2.73046 -19.42578,-2.73046 z m 78.99219,0.0254 -14.32617,0.0254 -5.28906,2.875 c -6.21531,3.3791 -11.93735,9.78348 -13.0586,14.61523 -1.12745,4.85867 -1.05564,83.82307 0.0801,87.91211 1.79676,6.46899 11.22619,14.79653 19.16016,16.92188 1.47244,0.39443 8.34296,0.57428 15.26757,0.39843 10.09574,-0.25637 13.3653,-0.66776 16.50782,-2.07226 4.8988,-2.18946 12.6175,-10.29095 14.27148,-14.98047 1.71213,-4.85309 1.72027,-82.67823 0.01,-88.64648 -1.43205,-4.99667 -7.77754,-11.83142 -13.74805,-14.80665 -4.31085,-2.14821 -5.29673,-2.26598 -18.875,-2.24218 z m -171.53516,0.42968 c -12.8427,-0.005 -23.68448,0.32563 -24.09375,0.73438 -0.40927,0.40876 -0.87883,27.81697 -1.04297,60.90625 l -0.29882,60.16211 22.16211,-0.006 c 12.18907,-0.003 24.55796,-0.39743 27.48632,-0.87695 6.96801,-1.14102 13.59451,-5.67677 18.07422,-12.3711 l 3.37305,-5.04101 0.29688,-19.27149 0.29687,-19.27148 -4.99805,-4.45508 -4.99804,-4.45508 5.01757,-4.74414 5.01563,-4.74414 -0.33203,-13.4707 c -0.31862,-12.9059 -0.4422,-13.67087 -2.9375,-18.20508 -3.38438,-6.14975 -7.91359,-10.16215 -14.42188,-12.77539 -5.04663,-2.02637 -6.14514,-2.10724 -28.59961,-2.11524 z m 171.21094,19.31055 c 2.61903,-0.10783 4.90675,0.69394 7.08008,2.45313 l 2.12109,1.71679 0.3125,25.73633 c 0.39661,32.5808 -0.37429,48.70906 -2.44922,51.27149 -1.71994,2.12404 -8.22293,3.08533 -11.48632,1.69726 -4.02747,-1.71308 -4.22657,-3.6405 -4.22657,-41.06445 0,-39.66168 0.0407,-39.94784 5.91016,-41.40235 0.95493,-0.23664 1.86527,-0.37225 2.73828,-0.4082 z m -77.21094,0.004 c 1.89391,-0.0334 2.82706,0.57364 5.05664,2.53125 l 3.27149,2.87109 -0.0215,33.5957 c -0.0117,18.47737 -0.38594,35.16154 -0.83007,37.07618 -0.44412,1.91464 -1.58081,4.25465 -2.52539,5.19921 -1.96918,1.96752 -7.744,2.84773 -10.62696,1.61915 -1.07572,-0.45842 -2.68278,-1.94317 -3.57031,-3.29883 -1.48916,-2.27458 -1.61328,-5.2379 -1.61328,-38.40039 V 240.25 l 2.23828,-2.23828 c 1.44517,-1.4449 3.68757,-2.43744 6.32422,-2.79883 0.92842,-0.12725 1.66557,-0.20958 2.29687,-0.2207 z m -94.29687,0.48633 8.91015,0.54296 c 9.83657,0.59927 12.17885,1.42532 13.44141,4.7461 0.9395,2.47108 1.1445,10.12843 0.32813,12.25586 -0.28683,0.74747 -5.0293,4.79723 -10.53907,8.99804 -5.50978,4.20081 -10.25106,7.63672 -10.53711,7.63672 -1.2715,0 -1.60351,-3.83033 -1.60351,-18.50195 z m -121.36524,0.0293 6.21875,0.44531 c 7.16157,0.51241 10.27324,2.16109 11.00782,5.83399 0.28503,1.42511 0.79855,8.60141 1.14062,15.94727 l 0.6211,13.35742 -8.4336,6.42187 c -4.63861,3.53263 -8.66784,6.42383 -8.95312,6.42383 -1.32717,0 -1.60157,-4.39778 -1.60157,-25.62695 z m 139.86133,51.12305 c 3.88569,-0.0328 4.88743,3.28406 4.5586,15.0957 -0.28181,10.12266 -0.42961,10.85965 -2.57813,13.00586 -2.0469,2.0447 -3.19951,2.3319 -11.37695,2.83008 l -9.09961,0.55469 v -10.34571 -10.3457 l 8.25391,-5.38867 c 4.54,-2.96418 9.14916,-5.39725 10.24218,-5.40625 z m -70.25586,22.7793 -7.58593,7.54687 -7.58594,7.54492 7.33203,7.3711 7.33203,7.36914 3.1543,-2.87696 c 8.41378,-7.67713 11.63281,-10.94616 11.63281,-11.8125 0,-0.52078 -3.2138,-4.1411 -7.14062,-8.04492 z"
       style="opacity:1;fill:#ff7e00;fill-opacity:1;stroke:#ff7e00;stroke-width:1.07086623;stroke-miterlimit:4;stroke-dasharray:none;stroke-opacity:1"
       inkscape:connector-curvature="0" />
    <path
       id="path875-7"
       d="m 215.06641,215.03886 v 61.22071 61.2207 h 10.76562 c 5.92203,0 11.54478,-0.41575 12.49414,-0.92383 1.57057,-0.84054 1.72881,-1.98674 1.75391,-12.7168 l 0.0273,-11.79296 4.01367,-3.02344 c 2.20734,-1.6631 4.17296,-2.86416 4.36719,-2.66992 0.19424,0.19424 1.60484,5.36841 3.13477,11.5 1.52992,6.1316 3.39879,13.05731 4.15429,15.38867 l 1.37305,4.23828 h 12.84766 12.8457 l -0.83984,-2.20703 c -0.46165,-1.21422 -2.47328,-8.34214 -4.47071,-15.83985 -1.99742,-7.49772 -4.68954,-17.16163 -5.98242,-21.47461 l -2.35156,-7.84179 2.1582,-1.50391 c 1.18732,-0.82682 3.89622,-3.09955 6.01953,-5.05078 l 3.86133,-3.54688 -0.29101,-21.48828 -0.29102,-21.48632 -2.94141,-5.96875 c -3.3848,-6.87121 -7.39951,-10.57845 -14.46093,-13.35157 -4.43064,-1.73998 -7.01372,-1.96446 -26.54883,-2.30468 z m -91.29493,0.0645 -14.07031,0.2832 c -7.73896,0.15545 -14.404836,0.61664 -14.812496,1.02539 -0.40767,0.40876 -0.87688,27.81697 -1.04102,60.90625 l -0.29687,60.16211 h 12.537106 12.53906 l 0.25196,-45.88477 c 0.13966,-25.23637 0.60178,-46.2183 1.02539,-46.62695 0.42361,-0.40865 4.138,2.87174 8.2539,7.28906 l 7.48242,8.03125 0.002,38.59571 v 38.5957 h 12.04687 12.04883 v -38.5957 l 0.002,-38.59571 7.48243,-8.03125 c 4.11589,-4.41732 7.83029,-7.69771 8.2539,-7.28906 0.42361,0.40865 0.88378,21.39058 1.02344,46.62695 l 0.25391,45.88477 h 12.46289 12.46289 V 276.3514 215.2225 h -15.10547 -15.10547 l -11.43359,12.04687 c -6.28814,6.62599 -11.80468,12.04883 -12.25977,12.04883 -0.45508,0 -6.04231,-5.44869 -12.41601,-12.10742 z m 535.15235,0.002 -11.75391,12.10547 c -6.30544,6.49451 -11.78926,11.79936 -12.45508,12.05859 -0.29375,-0.11537 -1.28373,-0.96936 -2.55468,-2.13086 -2.25078,-2.16233 -5.7233,-5.68621 -9.66993,-9.86914 l -11.36718,-12.04687 h -0.69532 -14.39453 -0.3457 -14.74219 v 61.1289 61.12891 h 12.48438 0.008 12.47852 0.0156 v -3.19141 l 0.21484,-43.88281 0.22852,-46.35156 2.30664,1.70508 c 0.15591,0.11526 0.35114,0.27622 0.55274,0.44726 l 5.39843,5.43359 0.41602,0.41797 c 0.71341,0.78172 1.43016,1.57835 2.11133,2.36719 l 5.72656,6.63281 v 37.65625 0.55469 38.21094 h 12.04687 12.04883 v -38.6582 -0.25586 -38.4043 l 7.75391,-8.41406 c 4.25183,-4.61317 8.05295,-8.52002 8.4707,-8.70703 0.13791,0.52687 0.2648,3.147 0.37305,7.32031 0.0172,0.67589 0.0326,1.41458 0.0488,2.17969 0.18705,8.55267 0.30819,22.00392 0.30859,37.56836 0,0.0265 0,0.0477 0,0.0742 v 47.29688 h 12.5332 0.0352 12.5 0.0684 l -0.29883,-60.16211 c -0.16413,-33.08928 -0.6314,-60.49749 -1.03906,-60.90625 -0.40766,-0.40875 -7.0575,-0.8702 -14.77735,-1.02539 z m -204.66602,0.11719 c -13.19012,0 -14.21288,0.1264 -18.54492,2.28515 -6.56965,3.2738 -11.28984,8.21971 -13.51172,14.15821 -1.81833,4.85978 -1.88672,6.49921 -1.88672,45.64062 v 40.59961 l 2.18164,4.30664 c 4.16802,8.22519 9.37307,12.71293 17.40821,15.01172 2.84823,0.81488 7.84753,1.03464 16.75195,0.73633 11.21137,-0.3756 13.19609,-0.68171 17.01172,-2.61524 4.87885,-2.4723 9.94141,-7.66237 12.64453,-12.96093 1.75993,-3.44966 1.82422,-5.03681 1.82422,-45.58594 0,-41.11787 -0.0413,-42.09447 -1.9043,-45.77149 -3.30237,-6.51807 -6.87056,-10.23674 -12.54883,-13.07422 -5.39604,-2.69641 -5.63912,-2.73046 -19.42578,-2.73046 z m 78.99219,0.0254 -14.32617,0.0254 -5.28906,2.875 c -6.21531,3.3791 -11.93735,9.78348 -13.0586,14.61523 -1.12745,4.85867 -1.05564,83.82307 0.0801,87.91211 1.79676,6.46899 11.22619,14.79653 19.16016,16.92188 1.47244,0.39443 8.34296,0.57428 15.26757,0.39843 10.09574,-0.25637 13.3653,-0.66776 16.50782,-2.07226 4.8988,-2.18946 12.6175,-10.29095 14.27148,-14.98047 1.71213,-4.85309 1.72027,-82.67823 0.01,-88.64648 -1.43205,-4.99667 -7.77754,-11.83142 -13.74805,-14.80665 -4.31085,-2.14821 -5.29673,-2.26598 -18.875,-2.24218 z m -171.53516,0.42968 c -12.8427,-0.005 -23.68448,0.32563 -24.09375,0.73438 -0.40927,0.40876 -0.87883,27.81697 -1.04297,60.90625 l -0.29882,60.16211 22.16211,-0.006 c 12.18907,-0.003 24.55796,-0.39743 27.48632,-0.87695 6.96801,-1.14102 13.59451,-5.67677 18.07422,-12.3711 l 3.37305,-5.04101 0.29688,-19.27149 0.29687,-19.27148 -4.99805,-4.45508 -4.99804,-4.45508 5.01757,-4.74414 5.01563,-4.74414 -0.33203,-13.4707 c -0.31862,-12.9059 -0.4422,-13.67087 -2.9375,-18.20508 -3.38438,-6.14975 -7.91359,-10.16215 -14.42188,-12.77539 -5.04663,-2.02637 -6.14514,-2.10724 -28.59961,-2.11524 z m 171.21094,19.31055 c 2.61903,-0.10783 4.90675,0.69394 7.08008,2.45313 l 2.12109,1.71679 0.3125,25.73633 c 0.39661,32.5808 -0.37429,48.70906 -2.44922,51.27149 -1.71994,2.12404 -8.22293,3.08533 -11.48632,1.69726 -4.02747,-1.71308 -4.22657,-3.6405 -4.22657,-41.06445 0,-39.66168 0.0407,-39.94784 5.91016,-41.40235 0.95493,-0.23664 1.86527,-0.37225 2.73828,-0.4082 z m -77.21094,0.004 c 1.89391,-0.0334 2.82706,0.57364 5.05664,2.53125 l 3.27149,2.87109 -0.0215,33.5957 c -0.0117,18.47737 -0.38594,35.16154 -0.83007,37.07618 -0.44412,1.91464 -1.58081,4.25465 -2.52539,5.19921 -1.96918,1.96752 -7.744,2.84773 -10.62696,1.61915 -1.07572,-0.45842 -2.68278,-1.94317 -3.57031,-3.29883 -1.48916,-2.27458 -1.61328,-5.2379 -1.61328,-38.40039 V 240.2498 l 2.23828,-2.23828 c 1.44517,-1.4449 3.68757,-2.43744 6.32422,-2.79883 0.92842,-0.12725 1.66557,-0.20958 2.29687,-0.2207 z m -94.29687,0.48633 8.91015,0.54296 c 9.83657,0.59927 12.17885,1.42532 13.44141,4.7461 0.9395,2.47108 1.1445,10.12843 0.32813,12.25586 -0.28683,0.74747 -5.0293,4.79723 -10.53907,8.99804 -5.50978,4.20081 -10.25106,7.63672 -10.53711,7.63672 -1.2715,0 -1.60351,-3.83033 -1.60351,-18.50195 z m -121.36524,0.0293 6.21875,0.44531 c 7.16157,0.51241 10.27324,2.16109 11.00782,5.83399 0.28503,1.42511 0.79855,8.60141 1.14062,15.94727 l 0.6211,13.35742 -8.4336,6.42187 c -4.63861,3.53263 -8.66784,6.42383 -8.95312,6.42383 -1.32717,0 -1.60157,-4.39778 -1.60157,-25.62695 z m 139.86133,51.12305 c 3.88569,-0.0328 4.88743,3.28406 4.5586,15.0957 -0.28181,10.12266 -0.42961,10.85965 -2.57813,13.00586 -2.0469,2.0447 -3.19951,2.3319 -11.37695,2.83008 l -9.09961,0.55469 v -10.34571 -10.3457 l 8.25391,-5.38867 c 4.54,-2.96418 9.14916,-5.39725 10.24218,-5.40625 z m -70.25586,22.7793 -7.58593,7.54687 -7.58594,7.54492 7.33203,7.3711 7.33203,7.36914 3.1543,-2.87696 c 8.41378,-7.67713 11.63281,-10.94616 11.63281,-11.8125 0,-0.52078 -3.2138,-4.1411 -7.14062,-8.04492 z"
       style="opacity:1;fill:url(#linearGradient927);fill-opacity:1;stroke:#fff400;stroke-width:1.07086623;stroke-miterlimit:4;stroke-dasharray:none;stroke-opacity:1"
       inkscape:connector-curvature="0" />
    <path
       id="path875-5"
       d="m 215.06641,215.03886 v 61.22071 61.2207 h 10.76562 c 5.92203,0 11.54478,-0.41575 12.49414,-0.92383 1.57057,-0.84054 1.72881,-1.98674 1.75391,-12.7168 l 0.0273,-11.79296 4.01367,-3.02344 c 2.20734,-1.6631 4.17296,-2.86416 4.36719,-2.66992 0.19424,0.19424 1.60484,5.36841 3.13477,11.5 1.52992,6.1316 3.39879,13.05731 4.15429,15.38867 l 1.37305,4.23828 h 12.84766 12.8457 l -0.83984,-2.20703 c -0.46165,-1.21422 -2.47328,-8.34214 -4.47071,-15.83985 -1.99742,-7.49772 -4.68954,-17.16163 -5.98242,-21.47461 l -2.35156,-7.84179 2.1582,-1.50391 c 1.18732,-0.82682 3.89622,-3.09955 6.01953,-5.05078 l 3.86133,-3.54688 -0.29101,-21.48828 -0.29102,-21.48632 -2.94141,-5.96875 c -3.3848,-6.87121 -7.39951,-10.57845 -14.46093,-13.35157 -4.43064,-1.73998 -7.01372,-1.96446 -26.54883,-2.30468 z m -91.29493,0.0645 -14.07031,0.2832 c -7.73896,0.15545 -14.404833,0.61664 -14.812498,1.02539 -0.407664,0.40876 -0.876879,27.81697 -1.041016,60.90625 l -0.296875,60.16211 h 12.537109 12.53906 l 0.25196,-45.88477 c 0.13966,-25.23637 0.60178,-46.2183 1.02539,-46.62695 0.42361,-0.40865 4.138,2.87174 8.2539,7.28906 l 7.48242,8.03125 0.002,38.59571 v 38.5957 h 12.04687 12.04883 v -38.5957 l 0.002,-38.59571 7.48243,-8.03125 c 4.11589,-4.41732 7.83029,-7.69771 8.2539,-7.28906 0.42361,0.40865 0.88378,21.39058 1.02344,46.62695 l 0.25391,45.88477 h 12.46289 12.46289 V 276.3514 215.2225 h -15.10547 -15.10547 l -11.43359,12.04687 c -6.28814,6.62599 -11.80468,12.04883 -12.25977,12.04883 -0.45508,0 -6.04231,-5.44869 -12.41601,-12.10742 z m 535.15235,0.002 -11.75391,12.10547 c -6.30544,6.49451 -11.78926,11.79936 -12.45508,12.05859 -0.29375,-0.11537 -1.28373,-0.96936 -2.55468,-2.13086 -2.25078,-2.16233 -5.7233,-5.68621 -9.66993,-9.86914 l -11.36718,-12.04687 h -0.69532 -14.39453 -0.3457 -14.74219 v 61.1289 61.12891 h 12.48438 0.008 12.47852 0.0156 v -3.19141 l 0.21484,-43.88281 0.22852,-46.35156 2.30664,1.70508 c 0.15591,0.11526 0.35114,0.27622 0.55274,0.44726 l 5.39843,5.43359 0.41602,0.41797 c 0.71341,0.78172 1.43016,1.57835 2.11133,2.36719 l 5.72656,6.63281 v 37.65625 0.55469 38.21094 h 12.04687 12.04883 v -38.6582 -0.25586 -38.4043 l 7.75391,-8.41406 c 4.25183,-4.61317 8.05295,-8.52002 8.4707,-8.70703 0.13791,0.52687 0.2648,3.147 0.37305,7.32031 0.0172,0.67589 0.0326,1.41458 0.0488,2.17969 0.18705,8.55267 0.30819,22.00392 0.30859,37.56836 0,0.0265 0,0.0477 0,0.0742 v 47.29688 h 12.5332 0.0352 12.5 0.0684 l -0.29883,-60.16211 c -0.16413,-33.08928 -0.6314,-60.49749 -1.03906,-60.90625 -0.40766,-0.40875 -7.0575,-0.8702 -14.77735,-1.02539 z m -204.66602,0.11719 c -13.19012,0 -14.21288,0.1264 -18.54492,2.28515 -6.56965,3.2738 -11.28984,8.21971 -13.51172,14.15821 -1.81833,4.85978 -1.88672,6.49921 -1.88672,45.64062 v 40.59961 l 2.18164,4.30664 c 4.16802,8.22519 9.37307,12.71293 17.40821,15.01172 2.84823,0.81488 7.84753,1.03464 16.75195,0.73633 11.21137,-0.3756 13.19609,-0.68171 17.01172,-2.61524 4.87885,-2.4723 9.94141,-7.66237 12.64453,-12.96093 1.75993,-3.44966 1.82422,-5.03681 1.82422,-45.58594 0,-41.11787 -0.0413,-42.09447 -1.9043,-45.77149 -3.30237,-6.51807 -6.87056,-10.23674 -12.54883,-13.07422 -5.39604,-2.69641 -5.63912,-2.73046 -19.42578,-2.73046 z m 78.99219,0.0254 -14.32617,0.0254 -5.28906,2.875 c -6.21531,3.3791 -11.93735,9.78348 -13.0586,14.61523 -1.12745,4.85867 -1.05564,83.82307 0.0801,87.91211 1.79676,6.46899 11.22619,14.79653 19.16016,16.92188 1.47244,0.39443 8.34296,0.57428 15.26757,0.39843 10.09574,-0.25637 13.3653,-0.66776 16.50782,-2.07226 4.8988,-2.18946 12.6175,-10.29095 14.27148,-14.98047 1.71213,-4.85309 1.72027,-82.67823 0.01,-88.64648 -1.43205,-4.99667 -7.77754,-11.83142 -13.74805,-14.80665 -4.31085,-2.14821 -5.29673,-2.26598 -18.875,-2.24218 z m -171.53516,0.42968 c -12.8427,-0.005 -23.68448,0.32563 -24.09375,0.73438 -0.40927,0.40876 -0.87883,27.81697 -1.04297,60.90625 l -0.29882,60.16211 22.16211,-0.006 c 12.18907,-0.003 24.55796,-0.39743 27.48632,-0.87695 6.96801,-1.14102 13.59451,-5.67677 18.07422,-12.3711 l 3.37305,-5.04101 0.29688,-19.27149 0.29687,-19.27148 -4.99805,-4.45508 -4.99804,-4.45508 5.01757,-4.74414 5.01563,-4.74414 -0.33203,-13.4707 c -0.31862,-12.9059 -0.4422,-13.67087 -2.9375,-18.20508 -3.38438,-6.14975 -7.91359,-10.16215 -14.42188,-12.77539 -5.04663,-2.02637 -6.14514,-2.10724 -28.59961,-2.11524 z m 171.21094,19.31055 c 2.61903,-0.10783 4.90675,0.69394 7.08008,2.45313 l 2.12109,1.71679 0.3125,25.73633 c 0.39661,32.5808 -0.37429,48.70906 -2.44922,51.27149 -1.71994,2.12404 -8.22293,3.08533 -11.48632,1.69726 -4.02747,-1.71308 -4.22657,-3.6405 -4.22657,-41.06445 0,-39.66168 0.0407,-39.94784 5.91016,-41.40235 0.95493,-0.23664 1.86527,-0.37225 2.73828,-0.4082 z m -77.21094,0.004 c 1.89391,-0.0334 2.82706,0.57364 5.05664,2.53125 l 3.27149,2.87109 -0.0215,33.5957 c -0.0117,18.47737 -0.38594,35.16154 -0.83007,37.07618 -0.44412,1.91464 -1.58081,4.25465 -2.52539,5.19921 -1.96918,1.96752 -7.744,2.84773 -10.62696,1.61915 -1.07572,-0.45842 -2.68278,-1.94317 -3.57031,-3.29883 -1.48916,-2.27458 -1.61328,-5.2379 -1.61328,-38.40039 V 240.2498 l 2.23828,-2.23828 c 1.44517,-1.4449 3.68757,-2.43744 6.32422,-2.79883 0.92842,-0.12725 1.66557,-0.20958 2.29687,-0.2207 z m -94.29687,0.48633 8.91015,0.54296 c 9.83657,0.59927 12.17885,1.42532 13.44141,4.7461 0.9395,2.47108 1.1445,10.12843 0.32813,12.25586 -0.28683,0.74747 -5.0293,4.79723 -10.53907,8.99804 -5.50978,4.20081 -10.25106,7.63672 -10.53711,7.63672 -1.2715,0 -1.60351,-3.83033 -1.60351,-18.50195 z m -121.36524,0.0293 6.21875,0.44531 c 7.16157,0.51241 10.27324,2.16109 11.00782,5.83399 0.28503,1.42511 0.79855,8.60141 1.14062,15.94727 l 0.6211,13.35742 -8.4336,6.42187 c -4.63861,3.53263 -8.66784,6.42383 -8.95312,6.42383 -1.32717,0 -1.60157,-4.39778 -1.60157,-25.62695 z m 139.86133,51.12305 c 3.88569,-0.0328 4.88743,3.28406 4.5586,15.0957 -0.28181,10.12266 -0.42961,10.85965 -2.57813,13.00586 -2.0469,2.0447 -3.19951,2.3319 -11.37695,2.83008 l -9.09961,0.55469 v -10.34571 -10.3457 l 8.25391,-5.38867 c 4.54,-2.96418 9.14916,-5.39725 10.24218,-5.40625 z m -70.25586,22.7793 -7.58593,7.54687 -7.58594,7.54492 7.33203,7.3711 7.33203,7.36914 3.1543,-2.87696 c 8.41378,-7.67713 11.63281,-10.94616 11.63281,-11.8125 0,-0.52078 -3.2138,-4.1411 -7.14062,-8.04492 z"
       style="opacity:1;fill:url(#linearGradient941);fill-opacity:1;stroke:#ff7e00;stroke-width:1.07086623;stroke-miterlimit:4;stroke-dasharray:none;stroke-opacity:1"
       inkscape:connector-curvature="0" />
  </g>
</svg>
