<?xml version="1.0" encoding="UTF-8" standalone="no"?>
<!-- by Caetano Ramos -->

<svg
   xmlns:dc="http://purl.org/dc/elements/1.1/"
   xmlns:cc="http://creativecommons.org/ns#"
   xmlns:rdf="http://www.w3.org/1999/02/22-rdf-syntax-ns#"
   xmlns:svg="http://www.w3.org/2000/svg"
   xmlns="http://www.w3.org/2000/svg"
   xmlns:sodipodi="http://sodipodi.sourceforge.net/DTD/sodipodi-0.dtd"
   xmlns:inkscape="http://www.inkscape.org/namespaces/inkscape"
   width="159.26927mm"
   height="66.001274mm"
   viewBox="0 0 159.26927 66.001274"
   version="1.1"
   id="svg8"
   inkscape:version="0.92.4 (5da689c313, 2019-01-14)"
   sodipodi:docname="logo3.svg">
  <defs
     id="defs2" />
  <sodipodi:namedview
     id="base"
     pagecolor="#ffffff"
     bordercolor="#666666"
     borderopacity="1.0"
     inkscape:pageopacity="0.0"
     inkscape:pageshadow="2"
     inkscape:zoom="0.7"
     inkscape:cx="411.69559"
     inkscape:cy="167.58397"
     inkscape:document-units="mm"
     inkscape:current-layer="g3287"
     showgrid="false"
     inkscape:window-width="1600"
     inkscape:window-height="838"
     inkscape:window-x="-8"
     inkscape:window-y="-8"
     inkscape:window-maximized="1" />
  <metadata
     id="metadata5">
    <rdf:RDF>
      <cc:Work
         rdf:about="">
        <dc:format>image/svg+xml</dc:format>
        <dc:type
           rdf:resource="http://purl.org/dc/dcmitype/StillImage" />
        <dc:title></dc:title>
      </cc:Work>
    </rdf:RDF>
  </metadata>
  <g
     inkscape:label="Camada 1"
     inkscape:groupmode="layer"
     id="layer1"
     transform="translate(3.0944571,-127.17198)">
    <g
       transform="translate(103.38337,24.455174)"
       id="g3287">
      <g
         id="g127"
         transform="matrix(1.0120084,0,0,1,1.2786326,0)">
        <path
           id="path3528"
           d="m 43.011416,117.92066 c -5.270313,0 -7.8912,3.76197 -7.8912,9.22514 0,5.46429 2.621907,9.22767 7.8912,9.22767 5.267938,0 7.890149,-3.76338 7.890149,-9.22767 0,-5.46317 -2.621529,-9.22514 -7.890149,-9.22514 z m -117.197022,0.44783 v 0.0121 h -0.08458 v 17.53149 h 4.907242 v -3.12363 l 0.01627,-2.00841 0.03941,-4.95065 3.225613,10.08269 h 7.256586 v -17.53149 h -0.02311 v -0.005 h -2.40135 -2.40135 v 0.005 h -0.08406 v 9.9432 c -0.0045,0.0462 -0.0095,0.091 -0.01418,0.10942 h -0.01839 c -0.0068,-0.0109 -0.04346,-0.11487 -0.06146,-0.16075 l -3.185158,-9.89192 h -6.311492 z m 60.033226,0.007 v 17.53025 h 12.1606788 v -4.59789 h -6.2043224 v -1.96775 h 5.5360828 v -4.49467 h -5.5360828 v -1.83327 h 6.0125718 v -4.63667 z m -41.708683,0.005 v 17.53149 h 6.052495 v -17.53149 z m 8.966582,0 v 17.53149 h 4.90882 v -10.11959 h 0.04256 l 3.236123,10.11959 h 7.255534 v -17.53149 h -4.905667 v 10.05266 h -0.04465 l -3.237173,-10.05266 z m 17.19873,0 v 4.76237 h 3.846049 v 12.76912 h 6.05092 v -12.76912 h 3.858655 v -4.76237 z m 29.93834017,0 v 17.53149 H 5.1498329 v -10.11959 h 0.043079 l 3.2376989,10.11959 h 7.2571102 v -17.5316 h -4.908295 v 10.05267 h -0.0436 L 7.4986507,118.38038 Z m 18.04978783,0 v 17.53211 h 7.531865 c 4.69664,0 7.699977,-3.27877 7.699977,-8.57216 0,-5.19633 -1.946394,-8.95995 -8.061938,-8.95995 z m 5.924311,3.98178 h 0.589963 c 0.973886,0 1.625612,0.32396 2.006817,1.02891 0.401567,0.73005 0.447592,2.05548 0.447592,3.75473 0,1.69779 -0.04568,3.02518 -0.447592,3.75411 -0.381205,0.70422 -1.032931,1.02892 -2.006817,1.02892 h -0.589963 z m 18.794728,0 c 0.971512,0 1.629619,0.59197 1.629619,4.78364 0,4.28838 -0.7002,4.7849 -1.629619,4.7849 -0.931113,0 -1.629618,-0.49614 -1.629618,-4.7849 0,-4.19167 0.657094,-4.78364 1.629618,-4.78364 z"
           style="fill:#011da9;fill-opacity:1;stroke-width:0.29349297"
           inkscape:connector-curvature="0" />
        <g
           id="g3172"
           transform="matrix(1.610964,0,0,1.71328,65.922542,-101.55032)">
          <g
             id="g18"
             transform="matrix(0.28886165,0,0,0.28054956,-107.0169,119.22577)">
            <g
               id="layer2">
              <path
                 id="polygon3542"
                 d="m 51.491,11.127 -11.878,21.197 11.878,-4.552 11.338,4.341 3.036,-3.406 V 5.553 Z"
                 style="fill:#0222a9"
                 inkscape:connector-curvature="0" />
              <path
                 id="polygon3558"
                 d="M 88.391,64.354 V 25.369 L 102.98,19.742 V 81.161 L 88.391,87.288 66.938,59.29 v 37.017 l -15.447,6.535 V 39.606 L 66.938,33.69 Z"
                 style="fill:#011da9"
                 inkscape:connector-curvature="0" />
              <path
                 id="polygon3560"
                 d="M 14.589,87.288 28.277,81.227 14.589,54.653 Z"
                 style="fill:#0222a9"
                 inkscape:connector-curvature="0" />
            </g>
            <g
               id="layer3">
              <path
                 id="polygon3538"
                 d="M 36.044,33.689 39.613,32.324 51.491,11.127 37.117,5.535 29.178,19.742 Z"
                 style="fill:#069330"
                 inkscape:connector-curvature="0" />
              <path
                 id="polygon3540"
                 d="m 73.807,19.742 14.584,5.627 V 64.354 L 66.938,33.69 62.829,32.113 Z"
                 style="fill:#069330"
                 inkscape:connector-curvature="0" />
              <path
                 id="polygon3552"
                 d="M 51.491,102.842 V 39.606 L 36.044,33.689 V 65.792 L 14.589,25.369 0,19.742 v 61.419 l 14.589,6.127 V 54.653 l 21.455,41.654 z"
                 style="fill:#069330"
                 inkscape:connector-curvature="0" />
            </g>
            <g
               id="layer4">
              <path
                 id="polygon3554"
                 d="m 14.589,25.369 14.589,-5.627 6.866,13.947 v 32.103 z"
                 style="fill:#fe2015"
                 inkscape:connector-curvature="0" />
              <path
                 id="polygon3556"
                 d="m 66.938,74.586 4.383,6.145 17.07,6.557 L 66.938,59.29 Z"
                 style="fill:#fe2015"
                 inkscape:connector-curvature="0" />
            </g>
            <g
               id="layer5">
              <path
                 id="polygon3544"
                 d="m 36.044,33.689 15.447,-5.917 15.447,5.917 -15.447,5.917 z"
                 style="fill:#ffc001"
                 inkscape:connector-curvature="0" />
              <path
                 id="polygon3546"
                 d="M 102.98,19.742 88.391,25.369 73.802,19.742 88.391,14.129 Z"
                 style="fill:#ffc001"
                 inkscape:connector-curvature="0" />
              <path
                 id="polygon3548"
                 d="M 29.178,19.742 14.589,25.369 0,19.742 14.589,14.129 Z"
                 style="fill:#ffc001"
                 inkscape:connector-curvature="0" />
              <path
                 id="polygon3550"
                 d="M 37.117,5.535 51.491,11.127 65.865,5.553 51.491,0 Z"
                 style="fill:#ffc001"
                 inkscape:connector-curvature="0" />
            </g>
          </g>
          <path
             style="fill:#069330;fill-opacity:1;stroke-width:0.15463474"
             d="m -94.603415,147.02968 -1.966623,-0.8269 -3.054456,-5.78189 c -1.679946,-3.18004 -3.106366,-5.78416 -3.169806,-5.78694 -0.0634,-0.003 -0.13405,2.00835 -0.1569,4.46918 l -0.0416,4.47424 -1.96136,-0.80135 -1.96136,-0.80136 -0.0405,-8.54948 c -0.0223,-4.70222 -0.01,-8.54948 0.0274,-8.54948 0.0374,0 0.97545,0.34266 2.08459,0.76146 l 2.01661,0.76147 3.035076,5.56518 c 1.6693,3.06084 3.09722,5.60247 3.173165,5.64806 0.0783,0.047 0.138082,-1.83895 0.138082,-4.3558 v -4.43868 l 0.353045,0.10801 c 0.194174,0.0594 1.129743,0.39896 2.079041,0.75455 l 1.725997,0.64654 0.0405,8.78032 c 0.0322,6.98016 2.8e-5,8.77719 -0.156908,8.76505 -0.108576,-0.008 -1.082391,-0.38739 -2.164034,-0.84218 z"
             id="path124"
             inkscape:connector-curvature="0" />
          <path
             style="fill:#069330;fill-opacity:1;stroke-width:0.15463474"
             d="m -97.590817,126.62982 -0.930427,-1.90332 1.110087,-1.90652 c 0.610546,-1.04859 1.16393,-1.90652 1.229742,-1.90652 0.112058,0 3.802308,1.37255 3.906282,1.4529 0.02631,0.0203 -0.709637,1.35381 -1.635445,2.96327 -1.61965,2.81568 -1.933442,3.20351 -2.591907,3.20351 -0.08685,0 -0.576599,-0.85649 -1.088332,-1.90332 z"
             id="path126"
             inkscape:connector-curvature="0" />
          <path
             style="fill:#069330;fill-opacity:1;stroke-width:0.15463474"
             d="m -84.768219,132.64777 c -1.620699,-2.26304 -3.034468,-4.11463 -3.141709,-4.11463 -0.107241,0 -0.326798,-0.0936 -0.487904,-0.20802 -0.273834,-0.19447 -0.196608,-0.31363 1.185226,-1.82873 0.81298,-0.89138 1.549127,-1.61652 1.635881,-1.61141 0.08676,0.005 1.005044,0.33339 2.040642,0.72951 l 1.882905,0.72023 0.04129,5.21384 c 0.02271,2.86761 -0.01516,5.21384 -0.08416,5.21384 -0.06899,0 -1.451471,-1.85158 -3.072171,-4.11463 z"
             id="path128"
             inkscape:connector-curvature="0" />
          <path
             style="fill:#ffc001;fill-opacity:1;stroke-width:0.15463474"
             d="m -104.7845,125.58352 c -0.89916,-0.34855 -1.66056,-0.70869 -1.692,-0.8003 -0.0316,-0.0919 0.78336,-0.4803 1.81888,-0.8668 l 1.87606,-0.70023 2.00793,0.75356 c 1.104366,0.41445 2.045376,0.75753 2.091126,0.76239 0.23342,0.0248 -3.885676,1.51214 -4.153356,1.49969 -0.1726,-0.008 -1.04949,-0.29976 -1.94864,-0.64831 z"
             id="path130"
             inkscape:connector-curvature="0" />
          <path
             style="fill:#ffc001;fill-opacity:1;stroke-width:0.15463474"
             d="m -94.044993,121.60137 c -0.947111,-0.3656 -1.743814,-0.72824 -1.770452,-0.80585 -0.02664,-0.0776 0.793612,-0.4554 1.822778,-0.83953 l 1.871211,-0.69842 1.625237,0.61487 c 0.893881,0.33818 1.80176,0.68225 2.01751,0.76459 0.353754,0.13501 0.199683,0.22314 -1.569088,0.89751 -1.078748,0.41129 -2.031969,0.74415 -2.118268,0.73968 -0.0863,-0.004 -0.931818,-0.30724 -1.878928,-0.67285 z"
             id="path132"
             inkscape:connector-curvature="0" />
          <path
             style="fill:#ffc001;fill-opacity:1;stroke-width:0.15463474"
             d="m -83.444636,125.58735 c -0.899002,-0.3495 -1.6604,-0.71089 -1.691997,-0.80308 -0.03197,-0.0933 0.773331,-0.47771 1.815563,-0.86672 l 1.873011,-0.69909 1.858801,0.69708 c 1.022338,0.38339 1.914418,0.74514 1.982396,0.80388 0.135514,0.1171 -3.587628,1.5414 -3.967861,1.51792 -0.12945,-0.008 -0.970911,-0.30049 -1.869913,-0.64999 z"
             id="path134"
             inkscape:connector-curvature="0" />
          <path
             style="fill:#ffc001;fill-opacity:1;stroke-width:0.15463474"
             d="m -94.048971,129.59502 c -1.105353,-0.421 -1.882905,-0.80172 -1.882905,-0.92193 0,-0.1205 0.774793,-0.49764 1.882905,-0.91652 l 1.882906,-0.71177 1.019906,0.37563 c 0.560949,0.2066 1.496518,0.54942 2.079042,0.76183 0.582523,0.21241 1.059134,0.43504 1.059134,0.49474 0,0.0597 -0.617828,0.33516 -1.372952,0.61212 -0.755123,0.27697 -1.690692,0.62047 -2.079041,0.76332 l -0.706089,0.25975 z"
             id="path138"
             inkscape:connector-curvature="0" />
          <path
             style="fill:#011da9;fill-opacity:1;stroke-width:0.15463474"
             d="m -92.087611,139.20001 v -8.80644 l 1.608315,-0.60356 c 2.304652,-0.86488 2.769122,-1.01906 2.841399,-0.94321 0.03529,0.037 1.246905,1.71318 2.692488,3.72478 1.445582,2.01159 2.813013,3.89746 3.038735,4.19082 l 0.410405,0.53338 0.07845,-5.46718 0.07846,-5.46718 1.96136,-0.74245 c 1.078746,-0.40836 1.979598,-0.74264 2.001893,-0.74287 0.02228,-2.2e-4 0.02228,3.85528 0,8.56779 l -0.04053,8.5682 -1.961359,0.79935 c -1.078748,0.43964 -1.996664,0.80077 -2.039815,0.80252 -0.04315,0.002 -1.455328,-1.74599 -3.138175,-3.88387 l -3.059721,-3.88706 -0.07845,5.19524 -0.07846,5.19523 -2.157495,0.88648 -2.157496,0.88648 z"
             id="path140"
             inkscape:connector-curvature="0" />
          <path
             style="fill:#011da9;fill-opacity:1;stroke-width:0.15463474"
             d="m -94.841911,127.1235 c 0.307427,-0.52385 1.035257,-1.7934 1.617401,-2.82122 l 1.058445,-1.86877 2.002411,-0.76002 c 1.101326,-0.41802 2.036894,-0.76003 2.079041,-0.76003 0.04215,0 0.07663,1.42729 0.07663,3.17176 v 3.17175 l -0.468504,0.43594 -0.468505,0.43594 -1.532082,-0.56155 c -0.842646,-0.30885 -1.603177,-0.56077 -1.690071,-0.55982 -0.08689,9.6e-4 -0.787488,0.24175 -1.556877,0.5351 -0.769388,0.29336 -1.461429,0.53338 -1.537867,0.53338 -0.07644,0 0.112551,-0.4286 0.419978,-0.95246 z"
             id="path142"
             inkscape:connector-curvature="0" />
          <path
             style="fill:#011da9;fill-opacity:1;stroke-width:0.15463474"
             d="m -102.7574,139.50549 c 0,-3.24394 0.0425,-4.12643 0.19613,-4.07719 0.16883,0.0541 3.569676,6.26708 3.569676,6.52142 0,0.0696 -2.548436,1.22292 -3.635036,1.645 -0.0719,0.0279 -0.13077,-1.81222 -0.13077,-4.08923 z"
             id="path144"
             inkscape:connector-curvature="0" />
          <path
             style="fill:#fe2015;fill-opacity:1;stroke-width:0.15463474"
             d="m -97.306822,136.26712 c -0.815922,-1.37311 -5.293678,-9.66243 -5.293678,-9.79978 0,-0.1419 3.897046,-1.67187 3.994376,-1.56819 0.0272,0.029 0.4812,0.89176 1.008833,1.91722 l 0.959325,1.86448 v 4.11697 c 0,2.35487 -0.06078,4.11697 -0.141999,4.11697 -0.0781,0 -0.315185,-0.29145 -0.526857,-0.64767 z"
             id="path148"
             inkscape:connector-curvature="0" />
          <path
             style="fill:#fe2015;fill-opacity:1;stroke-width:0.15463474"
             d="m -84.237777,142.64932 c -2.102048,-0.79197 -2.117699,-0.80147 -2.797832,-1.69891 -0.555006,-0.73233 -0.666773,-0.98594 -0.592804,-1.34514 0.05014,-0.24347 0.09116,-1.05129 0.09116,-1.79516 0,-0.74387 0.0626,-1.3525 0.13911,-1.3525 0.07651,0 1.044218,1.14867 2.150461,2.5526 1.106243,1.40392 2.356354,2.9812 2.778025,3.50505 0.421671,0.52386 0.671968,0.94752 0.556216,0.94147 -0.115752,-0.006 -1.161702,-0.36938 -2.324332,-0.80741 z"
             id="path150"
             inkscape:connector-curvature="0" />
        </g>
        <g
           id="g3141"
           transform="matrix(1.4853068,0,0,2.2712351,20.10912,-321.92499)">
          <g
             transform="translate(20.312484,68.153729)"
             id="g3132">
            <path
               inkscape:connector-curvature="0"
               id="path154"
               d="m -70.708683,147.65167 c -2.637586,-0.6898 -4.097034,-2.33578 -4.243039,-4.78534 -0.120198,-2.0166 0.531235,-3.59609 2.063692,-5.00372 1.642568,-1.50877 3.911193,-2.28238 7.121865,-2.42857 l 1.922133,-0.0875 v 1.22764 1.22764 l -1.372951,0.10123 c -2.631353,0.19403 -4.327157,0.83625 -4.952024,1.87538 l -0.299245,0.49763 0.82881,-0.31728 c 2.1331,-0.8166 5.020818,-0.41668 6.476643,0.89694 1.104902,0.99697 1.477965,2.90818 0.819327,4.19744 -0.616862,1.20748 -1.973572,2.18297 -3.612566,2.59748 -1.160285,0.29345 -3.632535,0.29399 -4.752645,10e-4 z m 3.625917,-2.65173 c 1.005072,-0.95974 0.575225,-2.6048 -0.791177,-3.0279 -1.260224,-0.39023 -2.717166,0.36368 -2.717166,1.40602 0,0.76154 0.494627,1.49826 1.266882,1.88694 0.861955,0.43383 1.60108,0.34643 2.241461,-0.26506 z"
               style="fill:#fe2015;fill-opacity:1;stroke-width:0.15463474" />
            <path
               inkscape:connector-curvature="0"
               id="path158"
               d="m -53.488053,146.3632 v -1.37154 h -3.530447 -3.530447 v -1.12432 -1.12433 l 2.785129,-3.59954 2.785132,-3.59954 2.863585,-3.4e-4 2.863586,-3.4e-4 v 3.50505 3.50505 h 0.862996 0.862999 v 1.21915 1.21915 h -0.862999 -0.862996 v 1.37155 1.37154 h -2.118269 -2.118269 z m -2.2e-5,-6.13384 -1.9e-5,-2.32401 -0.757209,1.14296 c -0.416465,0.62862 -1.082361,1.63344 -1.479771,2.23293 -0.39741,0.5995 -0.680367,1.13097 -0.628797,1.18105 0.05157,0.0501 0.717476,0.0911 1.47979,0.0911 h 1.386028 z"
               style="fill:#fe2015;fill-opacity:1;stroke-width:0.15463474" />
            <path
               inkscape:connector-curvature="0"
               id="path160"
               d="m -44.858069,141.41041 v -6.32434 l 4.981854,0.002 c 9.053731,0.003 11.87974,0.42063 14.265019,2.1094 1.413049,1.00043 2.185258,2.75175 2.058589,4.66875 -0.208285,3.15214 -3.226415,5.1898 -8.459507,5.71137 -0.869976,0.0867 -4.116215,0.15765 -7.213865,0.15765 h -5.63209 z m 11.403971,3.12766 c 0.404883,-0.17392 0.75196,-0.46241 0.907292,-0.75415 0.337483,-0.63384 0.474887,-2.61823 0.258772,-3.73714 -0.298769,-1.54684 -1.097086,-2.0627 -3.194736,-2.06438 l -1.059134,-8.5e-4 v 3.52608 3.52607 l 1.216041,-0.10698 c 0.668824,-0.0588 1.511119,-0.23374 1.871765,-0.38865 z"
               style="fill:#000000;fill-opacity:1;stroke-width:0.15463474" />
            <path
               inkscape:connector-curvature="0"
               id="path162"
               d="m -21.321753,141.39046 v -6.34429 l 6.472486,0.0823 c 4.823314,0.0614 6.8323072,0.14277 7.8846665,0.31951 4.2166162,0.70819 6.35273462,2.32599 6.81969382,5.16493 0.616451,3.74779 -2.47319482,6.34286 -8.27725412,6.95228 -0.887958,0.0932 -4.1536222,0.16952 -7.2570302,0.16952 h -5.642562 z m 11.244969,3.14678 c 1.0888182,-0.46483 1.2292792,-0.82211 1.2292792,-3.12683 0,-1.6753 -0.04591,-2.06257 -0.286823,-2.41967 -0.44635,-0.66162 -1.3978482,-1.00195 -2.8121262,-1.00584 l -1.216045,-0.003 v 3.40346 c 0,1.8719 0.05296,3.45586 0.117684,3.5199 0.192167,0.19016 2.261994,-0.0662 2.968031,-0.36767 z"
               style="fill:#000000;fill-opacity:1;stroke-width:0.15463474" />
          </g>
        </g>
      </g>
    </g>
  </g>
</svg>
