<?xml version="1.0" encoding="UTF-8" standalone="no"?>
<!-- Created with Inkscape (http://www.inkscape.org/) -->

<svg
   xmlns:dc="http://purl.org/dc/elements/1.1/"
   xmlns:cc="http://creativecommons.org/ns#"
   xmlns:rdf="http://www.w3.org/1999/02/22-rdf-syntax-ns#"
   xmlns:svg="http://www.w3.org/2000/svg"
   xmlns="http://www.w3.org/2000/svg"
   xmlns:sodipodi="http://sodipodi.sourceforge.net/DTD/sodipodi-0.dtd"
   xmlns:inkscape="http://www.inkscape.org/namespaces/inkscape"
   version="1.1"
   id="svg2"
   width="560.22528"
   height="209.0639"
   viewBox="0 0 560.22527 209.0639"
   sodipodi:docname="logo.svg"
   inkscape:version="0.92.4 (5da689c313, 2019-01-14)">
  <metadata
     id="metadata8">
    <rdf:RDF>
      <cc:Work
         rdf:about="">
        <dc:format>image/svg+xml</dc:format>
        <dc:type
           rdf:resource="http://purl.org/dc/dcmitype/StillImage" />
        <dc:title />
      </cc:Work>
    </rdf:RDF>
  </metadata>
  <defs
     id="defs6" />
  <sodipodi:namedview
     pagecolor="#ffffff"
     bordercolor="#666666"
     borderopacity="1"
     objecttolerance="10"
     gridtolerance="10"
     guidetolerance="10"
     inkscape:pageopacity="0"
     inkscape:pageshadow="2"
     inkscape:window-width="1600"
     inkscape:window-height="837"
     id="namedview4"
     showgrid="false"
     inkscape:zoom="1.105141"
     inkscape:cx="348.21358"
     inkscape:cy="4.5324671"
     inkscape:window-x="-8"
     inkscape:window-y="-8"
     inkscape:window-maximized="1"
     inkscape:current-layer="g1097" />
  <g
     id="g26"
     transform="translate(0.07963169,0.04699521)">
    <g
       transform="matrix(2.1475586,0,0,1.7434356,-26.266278,-17.759751)"
       id="g1097">
      <g
         id="g1048" />
      <g
         id="g39"
         transform="matrix(1.1882544,0,0,1.2489388,-2.3395749,-2.5628053)">
        <path
           style="fill:#a0a0a0;stroke:none;stroke-width:0.21556908"
           d="M 44.803587,50.019831 C 43.050253,47.77364 35.032427,37.531874 32.610713,34.444965 24.66713,24.319441 22.857492,22.074464 21.261378,20.365361 c -0.851069,-0.911316 -1.634822,-1.656939 -1.741674,-1.656939 -0.279412,0 -0.247931,25.405565 0.03366,27.161705 0.397687,2.480193 1.570755,3.590225 4.079251,3.860046 0.997076,0.107248 1.200353,0.201717 1.254799,0.583143 0.08864,0.620996 -0.414102,0.667413 -6.963182,0.642876 l -5.389227,-0.0202 V 50.4392 c 0,-0.419866 0.219149,-0.57054 1.415284,-0.973077 1.873094,-0.630354 2.470129,-1.049364 3.055002,-2.144065 l 0.487803,-0.913011 0.05912,-16.320107 0.05912,-16.320107 -0.598041,-0.630819 c -0.682092,-0.719475 -2.111315,-1.32625 -3.135341,-1.331105 -0.382931,-0.0018 -0.83492,-0.09106 -1.004421,-0.198331 -0.334321,-0.211571 -0.498303,-0.818635 -0.260784,-0.96543 0.08092,-0.05001 2.779691,-0.143718 5.997271,-0.208239 l 5.850147,-0.117312 1.485798,1.878044 c 0.817189,1.032924 3.947034,5.079245 6.95521,8.991824 3.008178,3.912579 5.864798,7.611796 6.348045,8.220482 0.483248,0.608686 1.507281,1.918268 2.275627,2.910182 1.532955,1.978999 3.848249,4.498094 4.134186,4.498094 0.09977,0 0.1814,-4.393397 0.1814,-9.763102 0,-10.45178 -0.08864,-11.482436 -1.110972,-12.918173 -0.495305,-0.69559 -1.88322,-1.384623 -3.219436,-1.598293 -0.754839,-0.120704 -0.84325,-0.200115 -0.84325,-0.757407 v -0.622566 l 5.982042,0.0573 5.982042,0.0573 v 0.525219 c 0,0.421759 -0.148624,0.561189 -0.754492,0.707815 -1.403616,0.339691 -2.967925,1.258256 -3.527124,2.071131 -1.152021,1.674632 -1.103169,0.856935 -1.170967,19.60005 l -0.06335,17.514988 h -0.503621 c -0.372281,0 -0.843718,-0.435695 -1.807708,-1.670661 z"
           id="path97"
           inkscape:connector-curvature="0" />
        <path
           sodipodi:nodetypes="cccsscccccscccssccccsccscsscccsccccccsssccssscccccsscscccccscsccccscccccccccscccccsssccsccccccccccccsscsscccccccccccccscsccccccccccccscssccccccccccssccccscsccccssccccsccccssccsccc"
           style="fill:#a0915f;fill-opacity:1;stroke:#a0915f;stroke-width:0.21556908;stroke-opacity:1"
           d="m 24.615234,10.294922 -6.041015,0.05664 -6.039063,0.05664 v 0.634766 c 0,0.613087 0.04692,0.643446 1.400391,0.873047 1.636426,0.277602 2.58445,0.731984 3.228515,1.550781 l 0.460938,0.587891 -0.06641,15.96289 c -0.06157,14.815942 -0.0934,16.022634 -0.453125,16.820313 -0.681342,1.510835 -1.558031,2.139303 -3.761719,2.697265 -0.820698,0.207793 -0.916016,0.29826 -0.916016,0.873047 v 0.642578 l 6.304688,-0.05859 6.304687,-0.05664 v -0.525391 c 0,-0.478553 -0.128478,-0.55086 -1.429687,-0.791015 C 21.19289,49.17351 20.285811,48.437961 19.751953,46.488281 19.617367,45.996753 19.55892,40.692485 19.59375,32.259766 l 0.05469,-13.44336 1.154296,1.185547 c 1.440815,1.47923 5.516507,6.561814 15.550782,19.400391 4.308946,5.513179 8.278731,10.582376 8.822265,11.263672 0.96584,1.210633 1.790587,1.610236 2.001953,0.970703 0.04898,-0.148204 0.112075,-7.836072 0.140625,-17.083985 0.03149,-10.197616 0.137649,-17.252869 0.269532,-17.929687 0.398212,-2.043622 2.03645,-3.536395 4.449218,-4.050781 0.5964,-0.127149 0.701172,-0.243354 0.701172,-0.779297 v -0.628907 h -6.142578 -6.144531 v 0.542969 c 0,0.593055 0.261938,0.747029 2.033203,1.201172 1.481891,0.379945 2.587551,1.518498 2.902344,2.986328 0.289153,1.348249 0.33478,20.707031 0.04883,20.707031 -0.442596,10e-7 -2.181723,-2.175916 -14.789063,-18.498046 z m 84.136716,0.0957 c -1.85631,-0.01974 -3.68441,0.120022 -4.8164,0.425781 C 95.024035,13.223471 89.601562,21.0961 89.601562,31.625 c 10e-7,7.464814 2.477711,13.20715 7.302735,16.919922 2.478079,1.906838 5.935313,3.267527 9.080083,3.574219 2.35142,0.229346 2.30046,0.229314 4.49609,-0.002 4.41383,-0.464912 7.87094,-2.080684 10.96289,-5.125 6.66268,-6.560044 8.2783,-18.4304 3.70508,-27.220704 -2.26838,-4.360106 -6.32087,-7.504323 -11.4043,-8.849609 -1.25115,-0.331106 -3.13587,-0.511507 -4.99219,-0.53125 z m -42.775388,0.660156 c -2.950544,-9.5e-5 -5.521588,0.0174 -7,0.05274 l -5.375,0.126953 V 11.8125 c 0,0.561604 0.04968,0.587587 1.460938,0.71875 1.956785,0.181864 3.379624,0.694111 4.011719,1.445312 0.750006,0.89129 0.821624,2.71204 0.740234,18.744141 -0.06798,13.390131 -0.0796,13.709296 -0.523437,14.658203 -0.249554,0.533534 -0.642463,1.137433 -0.873047,1.341797 -0.588934,0.521962 -2.115467,1.025059 -3.576172,1.177735 -0.971051,0.101492 -1.240229,0.209063 -1.240235,0.49414 10e-7,0.200475 0.06354,0.428773 0.142579,0.507813 0.07904,0.07904 7.402926,0.142578 16.27539,0.142578 H 86.152344 V 46 c 0,-4.358643 -0.04678,-5.05896 -0.335938,-5.169922 -0.227269,-0.08721 -0.282763,-0.0427 -0.173828,0.138672 0.09743,0.162213 0.01088,0.145065 -0.220703,-0.04297 -0.525402,-0.426609 -0.689067,-0.105817 -0.853516,1.675781 -0.262453,2.843407 -1.798139,4.721617 -4.527343,5.535157 -1.683599,0.501858 -4.967201,0.794883 -8.009766,0.714843 -2.69047,-0.07077 -2.739268,-0.0808 -3.253906,-0.679687 l -0.523438,-0.607422 0.05664,-7.691406 0.05664,-7.691406 1.458984,0.0332 c 2.952152,0.06779 4.985382,1.338685 5.638672,3.523437 0.194993,0.652096 0.413708,1.936606 0.486328,2.855469 l 0.132812,1.671875 h 0.9375 c 0.60364,0 0.941513,-0.09614 0.945313,-0.269531 0.0033,-0.148204 0.0054,-4.246339 0.0059,-9.107422 v -8.839844 l -0.976562,-0.06445 -0.976563,-0.06641 v 1.533203 c 0,2.287863 -0.345381,3.376631 -1.416015,4.447266 -1.084634,1.084633 -2.532418,1.58789 -4.556641,1.58789 -1.269471,0 -1.380996,-0.03938 -1.576172,-0.552734 -0.267794,-0.70435 -0.280176,-13.24826 -0.01367,-13.949219 0.337117,-0.886684 1.329335,-1.129029 4.544922,-1.105469 7.302002,0.0535 11.009233,2.618205 11.748047,8.128906 0.129938,0.969199 0.176792,1.033104 0.716797,0.970704 l 0.578125,-0.06641 0.05664,-5.839843 0.05664,-5.839844 -10.902344,-0.128906 c -2.998277,-0.03548 -6.328746,-0.05264 -9.279297,-0.05274 z m 66.630858,0.435547 -0.0644,1.208984 -0.0625,1.208985 2.30273,0.259765 c 3.68913,0.41512 7.3068,1.774 10.51758,3.953126 3.35717,2.278475 7.43668,7.219541 14.72852,17.835937 13.96164,20.327151 15.37343,22.518934 15.01367,23.292969 -0.18453,0.397016 -3.82018,5.013705 -14.41211,18.298828 -11.59696,14.545716 -13.8906,17.013057 -18.75391,20.179687 -3.00214,1.954774 -6.53913,3.519554 -8.73047,3.861334 -0.53353,0.0832 -1.30963,0.2383 -1.7246,0.34375 l -0.75586,0.1914 0.0742,1.19336 0.0742,1.19336 16.41797,-0.0547 16.41602,-0.0566 v -1.17578 -1.17578 l -2.11524,-0.26562 c -1.16319,-0.14608 -2.5795,-0.42041 -3.14843,-0.60938 -1.1969,-0.39754 -2.67844,-1.587063 -3.17579,-2.548829 -0.49019,-0.947957 -0.44915,-3.074963 0.082,-4.263672 0.57113,-1.278098 3.52282,-5.355414 8.54492,-11.802734 11.79225,-15.138764 14.41456,-18.47375 14.57031,-18.53125 0.32039,-0.118275 3.41836,4.393095 12.4043,18.0625 5.26897,8.015162 5.97609,9.131096 6.85937,10.859374 1.48834,2.912144 1.36175,5.181227 -0.38281,6.925782 -1.15668,1.156689 -2.2461,1.553569 -5.18359,1.890629 l -2.3711,0.27344 -0.0644,1.23437 -0.0644,1.23633 h 21.02929 21.02735 v -1.27344 -1.27148 l -1.34571,-0.14844 c -2.81722,-0.31028 -5.23125,-1.11583 -7.16797,-2.390628 -2.47639,-1.630017 -6.55353,-6.316266 -11.27539,-12.958984 -3.27062,-4.601115 -21.1802,-31.58101 -23.18359,-34.925782 -0.17791,-0.297037 2.29915,-3.614922 11.06641,-14.828125 10.71574,-13.705271 13.4156,-16.734934 17.0332,-19.117187 3.41653,-2.249847 5.1491,-2.942427 8.5918,-3.429688 l 1.99023,-0.28125 -0.0644,-1.197265 -0.0625,-1.197266 h -16.38281 -16.38477 v 1.185547 1.185547 l 2.95703,0.255859 c 3.26409,0.28192 4.00785,0.532241 5.23438,1.753907 1.10502,1.100645 1.61718,2.192059 1.61718,3.447265 0,1.351134 -0.29468,2.188341 -1.38086,3.921875 -0.74065,1.182071 -6.75204,9.041095 -9.39843,12.28711 -0.72307,0.8869 -7.74083,9.765565 -8.33789,10.548828 -0.33599,0.440777 0.0511,0.967266 -6.27735,-8.501954 -5.83086,-8.7247 -8.56356,-13.012832 -9.71875,-15.251953 -1.40488,-2.723129 -1.08772,-4.742191 0.99414,-6.330078 1.2617,-0.962332 2.93624,-1.539804 5.28125,-1.820312 1.09971,-0.131548 2.07773,-0.31442 2.17383,-0.40625 0.0961,-0.09183 0.14618,-0.640987 0.10938,-1.220703 l -0.0684,-1.054688 h -22.52539 z m -23.82031,1.078125 c 1.88977,0 2.17387,0.05806 3.49609,0.708985 3.09204,1.522204 4.91988,4.947699 5.79883,10.865234 0.34099,2.297104 0.33628,11.208662 -0.008,14.154297 -0.30399,2.602425 -1.09613,5.50233 -1.91797,7.021484 -0.83913,1.551098 -2.60985,3.27216 -4.07031,3.957031 -1.08178,0.50669 -1.55901,0.592412 -3.51563,0.63086 -3.1643,0.06218 -4.00974,-0.261196 -5.79883,-2.21875 -1.74045,-1.904325 -2.64686,-4.008617 -3.406246,-7.910156 -0.568936,-2.922889 -0.563729,-13.794613 0.0078,-16.734376 0.994436,-5.11493 2.918006,-8.289736 5.919926,-9.767578 1.31919,-0.649431 1.60515,-0.707031 3.49414,-0.707031 z M 56.507812,50.5 c 0.03617,0.01511 0.03971,0.05414 0.002,0.115234 -0.07244,0.117202 -0.222419,0.212891 -0.333985,0.212891 -0.310081,0 -0.242595,-0.153567 0.13086,-0.296875 0.09592,-0.03681 0.164999,-0.04636 0.201171,-0.03125 z"
           id="path99"
           inkscape:connector-curvature="0" />
        <path
           style="fill:#4169e1;stroke:#4169e1;stroke-width:0.10778454"
           d="m 103.23438,55.705078 c -0.62432,-0.01212 -1.26204,0.280271 -1.50391,0.884766 -0.21538,0.539063 -0.2157,0.745079 -0.002,1.279297 0.17901,0.447379 0.59565,0.715836 1.5039,0.970703 0.73344,0.205814 1.08244,0.61926 0.88672,1.048828 -0.26051,0.571765 -1.21847,0.5549 -1.66406,-0.0293 -0.29877,-0.391706 -0.74652,-0.49255 -0.86133,-0.193359 -0.0971,0.25318 0.29998,0.92545 0.71094,1.203125 h 0.002 c 0.71551,0.480773 1.94163,0.248089 2.375,-0.453125 0.32007,-0.517822 0.30579,-1.556548 -0.0254,-1.859375 -0.29888,-0.27328 -0.87351,-0.570313 -1.10352,-0.570313 -0.2812,0 -1.00903,-0.41519 -1.13281,-0.646484 -0.081,-0.151667 -0.0824,-0.277561 -0.002,-0.427735 0.29423,-0.549749 1.17863,-0.547241 1.49219,0.0039 0.12879,0.226356 0.26303,0.315918 0.4707,0.316406 0.38024,8.94e-4 0.4271,-0.09797 0.27734,-0.585938 -0.18808,-0.612839 -0.79952,-0.929289 -1.42382,-0.941406 z m 7.73632,0.01953 c -1.05203,0 -1.54492,0.497177 -1.54492,1.5625 0,0.55022 0.0376,0.648827 0.35156,0.957032 0.19267,0.189135 0.56723,0.408548 0.83399,0.486328 0.83788,0.244294 1.38844,0.611361 1.39844,0.933593 0.002,0.06292 -0.0959,0.221822 -0.2168,0.351563 -0.37943,0.407275 -1.50391,0.258273 -1.50391,-0.199219 0,-0.166843 -0.44048,-0.34033 -0.69922,-0.27539 -0.2229,0.05594 -0.24126,0.10121 -0.16406,0.443359 0.10152,0.450107 0.2625,0.661485 0.70117,0.929687 0.21891,0.133843 0.53353,0.198946 0.97266,0.199219 1.16741,7.25e-4 1.75652,-0.663831 1.64258,-1.849609 -0.0677,-0.704612 -0.34554,-0.978331 -1.29297,-1.277344 -0.70416,-0.222239 -1.26953,-0.596907 -1.26953,-0.84375 0,-0.162778 0.36344,-0.542 0.53906,-0.5625 0.53731,-0.06273 0.77295,0.01848 0.94922,0.332031 0.15697,0.279197 0.23805,0.322685 0.56055,0.296875 0.33462,-0.02676 0.37314,-0.05996 0.33984,-0.298828 -0.10449,-0.748175 -0.69363,-1.185547 -1.59766,-1.185547 z m -96.316403,0.04492 c -0.10318,-0.0089 -0.217469,0.01253 -0.34375,0.06055 -0.250561,0.09526 -0.331568,0.267651 -0.646485,1.34961 -0.103524,0.355688 -0.250971,0.839045 -0.326171,1.076171 -0.0752,0.237126 -0.219895,0.747484 -0.322266,1.132813 -0.10237,0.38533 -0.229893,0.811093 -0.283203,0.947266 -0.05331,0.136172 -0.09766,0.34321 -0.09766,0.458984 0,0.166298 0.07628,0.210937 0.357422,0.210937 0.324809,0 0.374206,-0.04715 0.582031,-0.539062 l 0.228515,-0.539063 h 0.773438 0.773437 l 0.226563,0.539063 c 0.209999,0.497053 0.256213,0.539062 0.595703,0.539062 0.342819,0 0.364863,-0.02082 0.314453,-0.296875 -0.02977,-0.163024 -0.127787,-0.53953 -0.216797,-0.835937 -0.08901,-0.296408 -0.239327,-0.804811 -0.335937,-1.130859 -0.09661,-0.326049 -0.249644,-0.836406 -0.339844,-1.132813 -0.0902,-0.296408 -0.211951,-0.721004 -0.269531,-0.945313 -0.148358,-0.577978 -0.360382,-0.867681 -0.669922,-0.894531 z m 20.832031,0.0293 c -0.193304,0.01948 -0.377143,0.06896 -0.537109,0.152344 -0.518124,0.270062 -0.927712,0.718606 -1.019531,1.11914 -0.307317,1.340568 -0.311264,1.415156 -0.113282,2.25586 0.161349,0.685143 0.266349,0.897207 0.615235,1.246094 0.307315,0.307315 0.527796,0.430621 0.818359,0.457031 0.575689,0.05232 1.126666,-0.03209 1.322266,-0.201172 0.09359,-0.08091 0.215534,-0.146484 0.271484,-0.146484 0.203436,0 0.611542,-0.985199 0.513672,-1.240235 -0.111172,-0.28971 -0.408683,-0.162397 -0.769531,0.328125 -0.332521,0.452016 -0.385194,0.480116 -0.863282,0.478516 -0.586981,-0.0019 -0.646244,-0.03131 -0.990234,-0.523438 -0.220656,-0.315683 -0.253906,-0.491707 -0.253906,-1.296875 0,-0.731697 0.04397,-1.000571 0.205078,-1.251953 0.31111,-0.485437 0.483968,-0.582237 1.048828,-0.585937 0.448262,-0.003 0.561402,0.04317 0.835937,0.34375 0.174504,0.191056 0.316407,0.38557 0.316407,0.43164 0,0.04607 0.09442,0.08398 0.208984,0.08398 0.386769,0 0.378024,-0.616059 -0.01563,-1.080078 -0.350241,-0.412851 -1.013838,-0.628746 -1.59375,-0.570313 z m -8.707031,0.02148 c -0.09889,-0.0047 -0.201912,0.02506 -0.302735,0.09375 C 26.308734,56.028408 26,56.691748 26,56.9375 c 0,0.115316 -0.06438,0.362024 -0.144531,0.548828 -0.08015,0.186803 -0.203918,0.557452 -0.273438,0.824219 -0.06952,0.266767 -0.199182,0.72703 -0.289062,1.023437 -0.303477,1.000874 -0.362718,1.293139 -0.304688,1.482422 0.1178,0.384238 0.44007,0.204909 0.728516,-0.404297 l 0.28125,-0.591797 h 0.738281 c 0.824217,0 1.018108,0.119377 1.144531,0.714844 0.04545,0.214088 0.154293,0.362168 0.292969,0.398438 0.452864,0.118428 0.644835,-0.13156 0.421875,-0.548828 -0.055,-0.102938 -0.171212,-0.430156 -0.257812,-0.726563 -0.0866,-0.296408 -0.263236,-0.903045 -0.392579,-1.347656 -0.129341,-0.444611 -0.276475,-0.904875 -0.328124,-1.023438 -0.05165,-0.118563 -0.129052,-0.385181 -0.169922,-0.591797 -0.105762,-0.534703 -0.371312,-0.860971 -0.667969,-0.875 z m -5.417969,0.01172 c -0.128382,0 -0.137283,0.720018 -0.0098,0.798828 0.05147,0.03181 0.125763,0.293331 0.164063,0.582032 0.0383,0.288701 0.104859,0.561888 0.148437,0.605468 0.07217,0.07217 0.145129,0.326158 0.462891,1.623047 0.0581,0.237126 0.149515,0.529875 0.203125,0.648438 0.05361,0.118563 0.127773,0.350949 0.164063,0.517578 h -0.002 c 0.05733,0.263261 0.110902,0.298641 0.402343,0.269531 0.363716,-0.03633 0.478079,-0.263926 0.886719,-1.757812 0.281909,-1.030589 0.502595,-1.793811 0.677734,-2.345703 0.184263,-0.580645 0.134,-0.833985 -0.166015,-0.833985 -0.28449,0 -0.469402,0.254207 -0.570313,0.787109 -0.325346,1.718132 -0.612857,2.607422 -0.84375,2.607422 -0.16421,0 -0.725639,-1.91734 -0.839844,-2.86914 -0.04417,-0.368126 -0.326959,-0.632813 -0.677734,-0.632813 z m 31.488281,0 c -0.183678,0 -0.338243,0.06906 -0.376953,0.169922 -0.08533,0.222363 -0.08533,4.609668 0,4.832031 0.03598,0.09377 0.176981,0.171875 0.3125,0.171875 0.135519,0 0.27652,-0.07811 0.3125,-0.171875 0.03598,-0.09377 0.06445,-0.794328 0.06445,-1.55664 0,-0.762313 0.04239,-1.41162 0.09375,-1.44336 0.139654,-0.08631 0.379954,0.238417 0.710938,0.960938 0.514499,1.123127 0.923672,1.906094 1.078125,2.060547 0.171308,0.171304 0.659769,0.200396 0.755859,0.04492 0.106314,-0.17202 0.07313,-4.879995 -0.03516,-4.988282 -0.05486,-0.05488 -0.213295,-0.08234 -0.353516,-0.0625 -0.250897,0.0355 -0.25529,0.0569 -0.28125,1.382813 -0.01451,0.741018 -0.0529,1.45646 -0.08398,1.589844 -0.108507,0.465656 -0.152608,0.405266 -1.035156,-1.427735 -0.637377,-1.323792 -0.814576,-1.5625 -1.16211,-1.5625 z m 65.974611,0 c -0.92934,0 -1.42071,0.04178 -1.50781,0.128907 -0.0926,0.09267 -0.12891,0.792987 -0.12891,2.472656 0,2.119002 0.017,2.355778 0.1875,2.455078 0.10374,0.06042 0.77828,0.111481 1.49805,0.113281 l 1.30859,0.0039 0.0723,-0.292968 c 0.11044,-0.440033 -0.13937,-0.554594 -1.21094,-0.558594 -1.05044,-0.0039 -1.09761,-0.03819 -1.09961,-0.779297 -0.002,-0.68219 0.16142,-0.793228 1.17383,-0.798828 0.80846,-0.0045 0.81786,-0.0087 0.85156,-0.296875 l 0.0352,-0.292969 h -0.90235 c -0.55766,0 -0.95125,-0.04892 -1.03125,-0.128906 -0.16753,-0.167532 -0.16753,-0.975046 0,-1.142578 0.0821,-0.08205 0.49689,-0.128906 1.13281,-0.128906 h 1.00196 v -0.376954 -0.376953 z m -37.572267,0.0059 c -0.08755,-0.0035 -0.171329,0.05067 -0.214844,0.164062 -0.03598,0.09377 -0.06641,0.768678 -0.06641,1.5 0,1.617436 -0.02806,1.72719 -0.386719,1.492188 -0.142717,-0.09351 -0.259765,-0.221347 -0.259765,-0.285157 0,-0.06381 -0.242655,-0.61139 -0.539063,-1.216796 -0.296407,-0.605407 -0.539062,-1.143103 -0.539062,-1.195313 0,-0.174643 -0.642961,-0.480086 -0.863282,-0.410156 -0.205579,0.06526 -0.214843,0.166971 -0.214843,2.53125 0,2.259292 0.01649,2.466836 0.189453,2.503906 0.53784,0.115283 0.564606,0.0437 0.566406,-1.464844 0.0016,-1.364639 0.07685,-1.78396 0.292969,-1.65039 0.08841,0.05464 0.437458,0.732463 1.091797,2.117187 0.451842,0.956199 0.956947,1.32183 1.199218,0.869141 0.137074,-0.256124 0.119648,-4.495084 -0.01953,-4.773438 -0.05875,-0.117493 -0.148783,-0.178132 -0.236328,-0.18164 z m 13.751953,0 c -0.269852,3.81e-4 -0.350285,0.46626 -0.333984,1.748047 0.0097,0.75887 -0.0113,1.407779 -0.04687,1.443359 -0.09268,0.09268 -0.610336,-0.267948 -0.611328,-0.425781 -9.44e-4,-0.150124 -0.955791,-2.081952 -1.191407,-2.410157 -0.184899,-0.257573 -0.471459,-0.378118 -0.693359,-0.292968 -0.137196,0.05265 -0.162109,0.435378 -0.162109,2.529297 v 2.466796 h 0.263672 c 0.144705,0 0.301649,-0.06067 0.349609,-0.134765 0.04796,-0.0741 0.08789,-0.763602 0.08789,-1.533203 0,-1.949282 0.108467,-1.93815 1.130859,0.107422 0.775771,1.552137 0.791441,1.573145 1.121094,1.541015 l 0.333984,-0.0332 0.0293,-2.455078 c 0.02604,-2.206168 0.01075,-2.461598 -0.150391,-2.523438 -0.04659,-0.01788 -0.0884,-0.0274 -0.126953,-0.02734 z m 26.775394,0 c -0.18492,0.0013 -0.37465,0.03629 -0.50391,0.105468 -0.19629,0.105027 -0.20898,0.24751 -0.20898,2.439453 0,2.091349 0.02,2.344062 0.18945,2.472657 0.10374,0.07875 0.27321,0.144584 0.37695,0.146484 0.17042,0.0031 0.18946,-0.136744 0.18946,-1.445312 0,-1.299455 0.11742,-2.132571 0.27929,-1.970703 0.0708,0.07083 0.31995,1.156381 0.48633,2.125 0.14532,0.846027 0.35861,1.294921 0.61719,1.294921 0.46797,0 0.59797,-0.309694 0.88476,-2.085937 0.10536,-0.652485 0.39912,-1.284393 0.55274,-1.189453 0.0484,0.02992 0.0889,0.717675 0.0898,1.529297 9e-4,0.811622 0.043,1.541153 0.0937,1.621093 0.0507,0.07994 0.18346,0.128882 0.29492,0.107422 0.19145,-0.03688 0.20313,-0.180277 0.20313,-2.572265 v -2.53125 l -0.50586,-0.03125 c -0.60716,-0.03915 -0.67422,0.05012 -0.89844,1.195312 -0.25828,1.319154 -0.46592,2.251045 -0.51172,2.296875 -0.13872,0.138717 -0.45249,-0.493024 -0.58008,-1.167969 -0.35014,-1.852156 -0.42639,-2.146247 -0.57812,-2.242187 -0.10674,-0.06748 -0.28579,-0.09898 -0.4707,-0.09766 z m -38.230472,0.0078 c -0.08551,-0.01976 -0.197001,-9.63e-4 -0.382812,0.04492 L 82.75,55.992188 82.7207,58.382812 c -0.02853,2.352919 -0.02567,2.391511 0.199219,2.462891 0.125653,0.03988 0.276507,0.02428 0.335937,-0.03516 0.06354,-0.06354 0.101197,-0.727769 0.0918,-1.613281 -0.01338,-1.255405 0.01244,-1.51617 0.148438,-1.56836 0.08973,-0.03443 0.18733,-0.02153 0.21875,0.0293 0.05945,0.09619 0.328147,1.354543 0.505859,2.375 0.05653,0.324608 0.177941,0.672232 0.269531,0.773438 0.336102,0.371388 0.894838,-0.127084 0.898438,-0.800782 8.73e-4,-0.163919 0.07328,-0.576042 0.160156,-0.916015 0.08688,-0.339974 0.185643,-0.803295 0.220703,-1.029297 0.04809,-0.309977 0.108438,-0.40141 0.246094,-0.375 0.159308,0.03056 0.186571,0.226737 0.212891,1.541015 0.01658,0.828002 0.07345,1.546107 0.125,1.597657 0.05155,0.05155 0.194659,0.06136 0.320312,0.02148 0.224883,-0.07138 0.229702,-0.109972 0.201172,-2.462891 l -0.0293,-2.390624 -0.505859,-0.03125 c -0.589921,-0.03804 -0.699628,0.08869 -0.798828,0.917968 -0.03397,0.283977 -0.131054,0.698369 -0.214844,0.921875 -0.08379,0.223505 -0.152344,0.578881 -0.152344,0.789063 0,0.451695 -0.161263,0.798828 -0.373047,0.798828 -0.216652,0 -0.310872,-0.194747 -0.388672,-0.808594 -0.03757,-0.296407 -0.124136,-0.75667 -0.191406,-1.023437 -0.06727,-0.266766 -0.147477,-0.664738 -0.179687,-0.882813 -0.03221,-0.218076 -0.148466,-0.505587 -0.257813,-0.640625 -0.08848,-0.10927 -0.148868,-0.167741 -0.234375,-0.1875 z M 76.875,55.865234 c -0.04906,-0.0035 -0.111754,0.01855 -0.201172,0.06641 -0.223076,0.119389 -0.230469,0.186643 -0.230469,2.472656 0,1.292227 0.03275,2.382355 0.07227,2.421875 0.133236,0.133231 0.443836,0.07219 0.509766,-0.09961 0.10144,-0.264337 0.07291,-4.607111 -0.03125,-4.771484 -0.03605,-0.05689 -0.07008,-0.08631 -0.119141,-0.08984 z m -47.193359,0.0078 c -0.06235,0.01217 -0.110152,0.04292 -0.138672,0.08789 -0.10582,0.166851 -0.126141,4.760578 -0.02148,4.865234 0.03952,0.03952 0.16085,0.07031 0.269532,0.07031 0.181535,0 0.197265,-0.11445 0.197265,-1.408203 0,-0.801946 0.05093,-1.501188 0.117188,-1.625 0.109165,-0.203973 0.128052,-0.205799 0.314453,-0.03711 0.183105,0.165708 0.547483,0.864195 1.191406,2.283203 0.262892,0.57933 0.573455,0.837011 0.923828,0.769531 0.19136,-0.03685 0.203125,-0.175819 0.203125,-2.46289 v -2.421875 l -0.296875,-0.03516 -0.296875,-0.0332 v 1.441407 c 0,1.074403 -0.03842,1.494591 -0.152343,1.65039 -0.08407,0.114982 -0.175382,0.183847 -0.201172,0.154297 -0.02579,-0.02955 -0.397329,-0.763535 -0.826172,-1.632813 -0.643991,-1.305382 -0.828045,-1.59302 -1.056641,-1.65039 -0.08829,-0.02216 -0.164218,-0.0278 -0.226562,-0.01563 z m 44.0625,0.0293 c -0.387769,0.01953 -0.51252,0.168729 -0.716797,0.845703 -0.548538,1.817863 -0.792514,2.652243 -0.910156,3.125 -0.05901,0.237126 -0.158424,0.524461 -0.220704,0.638672 -0.08852,0.162321 -0.07185,0.237466 0.07617,0.345703 0.254582,0.186155 0.544685,0.02307 0.640625,-0.361328 0.138614,-0.55538 0.344379,-0.675782 1.150391,-0.675782 H 74.5 l 0.277344,0.544922 c 0.221878,0.437856 0.323319,0.538799 0.513672,0.511719 0.192355,-0.02737 0.230761,-0.09525 0.207031,-0.357422 -0.0161,-0.177844 -0.09338,-0.51678 -0.171875,-0.753906 -0.0785,-0.237126 -0.228848,-0.722436 -0.333984,-1.078125 -0.829596,-2.806617 -0.828846,-2.806276 -1.248047,-2.785156 z m -14.736329,0.0059 c -0.239632,0.0029 -0.557602,0.01451 -0.980468,0.03125 l -1.361328,0.05469 v 0.267578 c 0,0.241901 0.05318,0.276498 0.519531,0.330078 0.285717,0.03282 0.562947,0.129104 0.617187,0.214844 0.05425,0.08574 0.100655,1.010367 0.101563,2.052734 9.1e-4,1.042366 0.03274,1.927277 0.07227,1.966797 0.03952,0.03952 0.155728,0.07031 0.257813,0.07031 0.252459,0 0.298313,-0.354151 0.314453,-2.421875 0.0094,-1.20887 0.05172,-1.744984 0.142578,-1.802734 0.07116,-0.04523 0.335945,-0.08308 0.587891,-0.08398 0.434205,-0.0016 0.458984,-0.0174 0.458984,-0.316407 0,-0.29591 -0.01156,-0.372002 -0.730469,-0.363281 z m 39.275391,0.002 c -0.257506,-1.95e-4 -0.579117,0.01096 -0.982422,0.0293 l -1.185547,0.05469 -0.03516,0.294921 c -0.03307,0.287408 -0.01839,0.296876 0.490234,0.296876 0.288489,-1e-6 0.583157,0.05777 0.654297,0.128906 0.09109,0.09109 0.128907,0.707536 0.128907,2.083984 0,1.074971 0.03275,1.987824 0.07227,2.027344 0.117193,0.117195 0.449337,0.08026 0.535157,-0.05859 0.04379,-0.07086 0.08174,-0.986749 0.08594,-2.037109 0.0042,-1.050361 0.0468,-1.948944 0.09375,-1.996094 0.04695,-0.04714 0.312701,-0.112441 0.591797,-0.144531 0.452826,-0.05206 0.507812,-0.08734 0.507812,-0.326172 0,-0.257792 -0.184513,-0.35293 -0.957031,-0.353516 z m 10.236327,0.01172 c -0.1187,0.0073 -0.2607,0.06892 -0.37695,0.181641 -0.16739,0.162293 -0.43108,0.802627 -0.51758,1.259765 -0.1133,0.598727 -0.59047,0.669124 -0.78711,0.115235 -0.0584,-0.164543 -0.15554,-0.383393 -0.21484,-0.486328 -0.0592,-0.102939 -0.10742,-0.254208 -0.10743,-0.335938 3e-5,-0.304304 -0.43799,-0.716797 -0.76171,-0.716797 -0.38207,0 -0.386,0.05207 -0.0566,0.716797 0.14223,0.287058 0.28706,0.594674 0.32226,0.683594 0.0352,0.08892 0.10686,0.235298 0.16016,0.324218 0.59002,0.983906 0.76758,1.532964 0.76758,2.38086 0,0.838654 0.008,0.865301 0.24218,0.832031 0.22471,-0.03192 0.24698,-0.100261 0.29688,-0.949219 0.0412,-0.700159 0.12426,-1.06827 0.35547,-1.5625 0.16641,-0.355689 0.34573,-0.744718 0.39843,-0.863281 0.45717,-1.02929 0.54608,-1.27827 0.51368,-1.435547 -0.0215,-0.104251 -0.11567,-0.151827 -0.23438,-0.144531 z m -46.578124,0.002 c -0.926078,-0.0035 -1.285979,0.03377 -1.349609,0.136719 -0.09327,0.150909 -0.12013,4.05177 -0.03125,4.533203 0.03591,0.194517 0.131088,0.301729 0.289062,0.324219 0.129466,0.01843 0.792873,0.0082 1.47461,-0.02148 l 1.240234,-0.05273 0.0332,-0.296875 0.03516,-0.29701 H 62.625 c -1.274404,0 -1.486328,-0.117796 -1.486328,-0.832031 0,-0.767389 0.174638,-0.892578 1.255859,-0.892578 0.887574,0 0.900391,-0.0036 0.900391,-0.269532 0,-0.265462 -0.01326,-0.269531 -0.88086,-0.269531 -1.040796,0 -1.27539,-0.136085 -1.27539,-0.748047 0,-0.572989 0.138053,-0.652343 1.144531,-0.652343 0.963796,-10e-7 1.226563,-0.05719 1.226563,-0.267579 0,-0.309462 -0.319236,-0.389831 -1.56836,-0.394531 z m 53.773434,0 c -0.27838,-0.0056 -0.6373,-0.0016 -1.00781,0.01367 l -1.34765,0.05664 -0.0332,0.294921 c -0.0325,0.282628 -0.012,0.297229 0.43164,0.298829 0.79607,0.0028 0.78446,-0.02588 0.81836,2.123047 0.0167,1.054513 0.0521,1.976681 0.0781,2.050781 0.0259,0.0741 0.1452,0.134765 0.26562,0.134765 0.21195,0 0.21875,-0.06164 0.21875,-1.986328 0,-2.274307 0.0181,-2.32422 0.81641,-2.324218 0.43553,-10e-7 0.47656,-0.02325 0.47656,-0.265626 0,-0.148302 -0.0822,-0.303412 -0.1875,-0.351562 -0.0519,-0.02372 -0.25091,-0.03935 -0.5293,-0.04492 z m -96.988278,0.0098 c -0.221165,-0.01434 -0.456908,-0.01293 -0.701171,0.0059 l -0.701172,0.05469 -0.0293,2.314453 c -0.01604,1.273086 -0.0056,2.375602 0.02344,2.451172 0.0365,0.09513 0.3119,0.137134 0.892579,0.136718 1.484371,-0.0011 1.940595,-0.262349 2.304687,-1.316406 0.364926,-1.056473 0.207027,-2.322942 -0.390625,-3.136719 -0.206808,-0.281594 -0.734941,-0.466733 -1.398438,-0.509765 z m 69.357422,0 v 2.478515 2.478516 l 1.267578,0.0332 c 0.696558,0.01877 1.282062,0.04584 1.300782,0.05859 0.12473,0.08495 0.451172,-0.246018 0.451172,-0.457031 0,-0.250775 -0.02345,-0.254986 -1.136719,-0.291016 -1.292352,-0.04182 -1.339197,-0.07312 -1.341797,-0.867187 -0.0023,-0.698794 0.221435,-0.841797 1.316406,-0.841797 0.822324,0 0.837891,-0.0052 0.837891,-0.269532 0,-0.266062 -0.01103,-0.269531 -0.908203,-0.269531 -0.682169,0 -0.950941,-0.04078 -1.078125,-0.167969 -0.205356,-0.205359 -0.225004,-0.944999 -0.0293,-1.107421 0.07719,-0.06406 0.575022,-0.129185 1.105469,-0.146485 0.948498,-0.03093 0.964843,-0.03773 0.964843,-0.302734 v -0.267578 l -1.375,-0.03125 z m -37.984375,0.0059 c -0.73617,0 -1.415995,0.02847 -1.509765,0.06445 -0.148162,0.05685 -0.169922,0.369792 -0.169922,2.386719 0,2.02946 0.02271,2.337813 0.177734,2.451172 0.232843,0.17026 2.749857,0.09127 2.865235,-0.08984 0.04356,-0.06837 0.08113,-0.208758 0.08203,-0.3125 C 51.546383,60.27253 51.424996,60.25 50.490234,60.25 c -0.677845,0 -1.102547,-0.04591 -1.185546,-0.128906 -0.170311,-0.17032 -0.167939,-1.181762 0.0039,-1.410156 0.101966,-0.135523 0.345466,-0.186165 0.998047,-0.208985 0.780367,-0.02729 0.861328,-0.051 0.861328,-0.246094 0,-0.194823 -0.08273,-0.217283 -0.857422,-0.246093 -0.471443,-0.01753 -0.919184,-0.08461 -0.996094,-0.148438 -0.07691,-0.06383 -0.140625,-0.300371 -0.140625,-0.52539 0,-0.741611 0.01359,-0.75 1.197266,-0.75 H 51.4375 v -0.324219 -0.322266 z m 19.992188,0 c -1.404808,0 -1.506593,0.01409 -1.570313,0.214844 -0.102089,0.321652 0.02246,0.431641 0.484375,0.431641 0.723619,0 0.75586,0.09464 0.75586,2.208984 0,1.028343 0.02708,1.940124 0.06055,2.027344 0.05776,0.150513 0.461104,0.136257 0.490234,-0.01758 0.0071,-0.03755 0.02412,-0.927061 0.03711,-1.976563 0.0169,-1.364652 0.06319,-1.95698 0.16211,-2.076172 0.08624,-0.103916 0.315182,-0.166021 0.609375,-0.166015 0.452402,0 0.472656,-0.01418 0.472656,-0.324219 v -0.322266 z m -4.386719,0.0039 c -0.490612,-6.71e-4 -0.944347,0.01821 -1.054687,0.06055 -0.148252,0.05689 -0.169922,0.371873 -0.169922,2.416016 0,1.779746 0.03276,2.36509 0.134765,2.40625 0.513406,0.207164 0.602335,0.04702 0.646485,-1.167969 l 0.02734,-0.753906 0.578126,-0.0332 c 0.478732,-0.02731 0.624442,0.0083 0.835937,0.207031 0.215396,0.202352 0.255859,0.344771 0.255859,0.900391 0,0.711378 0.113695,0.917968 0.50586,0.917968 0.236285,0 0.24774,-0.03659 0.24414,-0.78125 -0.0023,-0.473188 -0.06298,-0.887613 -0.15625,-1.050781 -0.210173,-0.36766 -0.202348,-0.82809 0.01758,-0.951172 0.138403,-0.07746 0.1832,-0.261685 0.1875,-0.787109 0.007,-0.864028 -0.205021,-1.224069 -0.77539,-1.31836 -0.259177,-0.04285 -0.786732,-0.06378 -1.277344,-0.06445 z m -22.335937,0.0098 c -0.520381,-0.0029 -0.985428,0.01855 -0.986329,0.06641 -0.0038,0.203655 -0.0057,4.623267 -0.002,4.738281 0.0027,0.08412 0.259003,0.143539 0.730469,0.167969 0.40015,0.02074 0.755163,0.04698 0.789063,0.05859 0.0339,0.01161 0.296972,-0.05845 0.583984,-0.15625 0.564314,-0.192281 0.917969,-0.44183 0.917969,-0.646484 0,-0.0708 0.05322,-0.145999 0.11914,-0.167969 0.165932,-0.05531 0.298048,-1.560784 0.210938,-2.402344 -0.05701,-0.55079 -0.139094,-0.780414 -0.400391,-1.103516 -0.186699,-0.230859 -0.466075,-0.436059 -0.642578,-0.474609 -0.224854,-0.04911 -0.799932,-0.0772 -1.320312,-0.08008 z m -3.455079,0.0098 c -0.865935,-0.01967 -1.364086,0.0094 -1.410156,0.08398 -0.05307,0.08592 -0.05989,4.244904 -0.0078,4.773437 0.0045,0.04609 0.675113,0.06922 1.490234,0.05273 l 1.482422,-0.0293 0.0332,-0.296875 0.0332,-0.296875 h -1.037109 c -1.367265,0 -1.455078,-0.05114 -1.455078,-0.861328 0,-0.795786 0.09802,-0.863281 1.285156,-0.863281 0.855462,0 0.871094,-0.0044 0.871094,-0.269532 0,-0.265162 -0.01563,-0.269531 -0.871094,-0.269531 -1.123233,0 -1.285156,-0.0859 -1.285156,-0.689453 0,-0.257422 0.06343,-0.52188 0.140625,-0.585937 0.07719,-0.06406 0.573068,-0.129185 1.103515,-0.146485 0.948498,-0.03093 0.964844,-0.03773 0.964844,-0.302734 v -0.267578 z m -21.30664,0.623047 c 0.510394,0 0.629354,0.04342 0.914062,0.328124 0.386725,0.386722 0.490132,0.831251 0.419922,1.8125 -0.05724,0.800039 -0.193647,1.091342 -0.630859,1.34961 -0.323461,0.19107 -1.032296,0.230184 -1.285156,0.07031 -0.125606,-0.07941 -0.166763,-0.412959 -0.195313,-1.535156 -0.02129,-0.836775 0.01,-1.555419 0.07617,-1.728516 0.104462,-0.273206 0.15993,-0.296874 0.701172,-0.296874 z m 25.193359,0.0039 c 0.280508,0.0082 0.574536,0.06442 0.716797,0.164062 0.927903,0.649928 0.887013,2.753473 -0.06445,3.308594 -0.449507,0.262259 -1.165366,0.251742 -1.310547,-0.01953 -0.161334,-0.301448 -0.146236,-3.164311 0.01758,-3.328125 0.09281,-0.09281 0.360117,-0.133156 0.640625,-0.125 z m 21.488281,0.05078 h 0.748047 c 0.731956,0 0.753197,0.0078 0.955079,0.353516 0.178252,0.305211 0.186654,0.396859 0.07031,0.677734 -0.0741,0.178902 -0.270949,0.396292 -0.4375,0.482422 -0.373881,0.193342 -0.963861,0.203053 -1.214844,0.01953 -0.152131,-0.11122 -0.180757,-0.271504 -0.154297,-0.835937 z m 8.47461,0.507813 c 0.160894,0.05363 0.517384,1.153095 0.521484,1.609374 0.002,0.223318 -0.05423,0.408561 -0.130859,0.431641 -0.205358,0.06185 -0.877862,-0.02108 -0.980469,-0.121094 -0.111025,-0.108221 0.109907,-1.23683 0.324219,-1.654297 0.08563,-0.166805 0.205205,-0.285766 0.265625,-0.265624 z M 26.712891,57.1875 c 0.224287,0.02043 0.588913,0.965309 0.558593,1.447266 -0.03042,0.483658 -0.03298,0.483695 -0.466796,0.515625 -0.51812,0.03813 -0.589938,-0.01643 -0.585938,-0.453125 0.0038,-0.418844 0.364978,-1.521526 0.494141,-1.509766 z m -12.13086,0.04492 c 0.170054,0 0.576356,1.52413 0.457031,1.714844 -0.23634,0.377743 -1.001953,0.219372 -1.001953,-0.207032 0,-0.283539 0.442339,-1.507812 0.544922,-1.507812 z"
           id="path151"
           inkscape:connector-curvature="0" />
        <path
           id="path232"
           d="m 103.23438,55.705078 c -0.62432,-0.01212 -1.26204,0.280271 -1.50391,0.884766 -0.21538,0.539063 -0.2157,0.745079 -0.002,1.279297 0.17901,0.447379 0.59565,0.715836 1.5039,0.970703 0.73344,0.205814 1.08244,0.61926 0.88672,1.048828 -0.26051,0.571765 -1.21847,0.5549 -1.66406,-0.0293 -0.29877,-0.391706 -0.74652,-0.49255 -0.86133,-0.193359 -0.0971,0.25318 0.29998,0.92545 0.71094,1.203125 h 0.002 c 0.71551,0.480773 1.94163,0.248089 2.375,-0.453125 0.32007,-0.517822 0.30579,-1.556548 -0.0254,-1.859375 -0.29888,-0.27328 -0.87351,-0.570313 -1.10352,-0.570313 -0.2812,0 -1.00903,-0.41519 -1.13281,-0.646484 -0.081,-0.151667 -0.0824,-0.277561 -0.002,-0.427735 0.29423,-0.549749 1.17863,-0.547241 1.49219,0.0039 0.12879,0.226356 0.26303,0.315918 0.4707,0.316406 0.38024,8.94e-4 0.4271,-0.09797 0.27734,-0.585938 -0.18808,-0.612839 -0.79952,-0.929289 -1.42382,-0.941406 z m 7.73632,0.01953 c -1.05203,0 -1.54492,0.497177 -1.54492,1.5625 0,0.55022 0.0376,0.648827 0.35156,0.957032 0.19267,0.189135 0.56723,0.408548 0.83399,0.486328 0.83788,0.244294 1.38844,0.611361 1.39844,0.933593 0.002,0.06292 -0.0959,0.221822 -0.2168,0.351563 -0.37943,0.407275 -1.50391,0.258273 -1.50391,-0.199219 0,-0.166843 -0.44048,-0.34033 -0.69922,-0.27539 -0.2229,0.05594 -0.24126,0.10121 -0.16406,0.443359 0.10152,0.450107 0.2625,0.661485 0.70117,0.929687 0.21891,0.133843 0.53353,0.198946 0.97266,0.199219 1.16741,7.25e-4 1.75652,-0.663831 1.64258,-1.849609 -0.0677,-0.704612 -0.34554,-0.978331 -1.29297,-1.277344 -0.70416,-0.222239 -1.26953,-0.596907 -1.26953,-0.84375 0,-0.162778 0.36344,-0.542 0.53906,-0.5625 0.53731,-0.06273 0.77295,0.01848 0.94922,0.332031 0.15697,0.279197 0.23805,0.322685 0.56055,0.296875 0.33462,-0.02676 0.37314,-0.05996 0.33984,-0.298828 -0.10449,-0.748175 -0.69363,-1.185547 -1.59766,-1.185547 z m -96.316403,0.04492 c -0.10318,-0.0089 -0.217469,0.01253 -0.34375,0.06055 -0.250561,0.09526 -0.331568,0.267651 -0.646485,1.34961 -0.103524,0.355688 -0.250971,0.839045 -0.326171,1.076171 -0.0752,0.237126 -0.219895,0.747484 -0.322266,1.132813 -0.10237,0.38533 -0.229893,0.811093 -0.283203,0.947266 -0.05331,0.136172 -0.09766,0.34321 -0.09766,0.458984 0,0.166298 0.07628,0.210937 0.357422,0.210937 0.324809,0 0.374206,-0.04715 0.582031,-0.539062 l 0.228515,-0.539063 h 0.773438 0.773437 l 0.226563,0.539063 c 0.209999,0.497053 0.256213,0.539062 0.595703,0.539062 0.342819,0 0.364863,-0.02082 0.314453,-0.296875 -0.02977,-0.163024 -0.127787,-0.53953 -0.216797,-0.835937 -0.08901,-0.296408 -0.239327,-0.804811 -0.335937,-1.130859 -0.09661,-0.326049 -0.249644,-0.836406 -0.339844,-1.132813 -0.0902,-0.296408 -0.211951,-0.721004 -0.269531,-0.945313 -0.148358,-0.577978 -0.360382,-0.867681 -0.669922,-0.894531 z m 20.832031,0.0293 c -0.193304,0.01948 -0.377143,0.06896 -0.537109,0.152344 -0.518124,0.270062 -0.927712,0.718606 -1.019531,1.11914 -0.307317,1.340568 -0.311264,1.415156 -0.113282,2.25586 0.161349,0.685143 0.266349,0.897207 0.615235,1.246094 0.307315,0.307315 0.527796,0.430621 0.818359,0.457031 0.575689,0.05232 1.126666,-0.03209 1.322266,-0.201172 0.09359,-0.08091 0.215534,-0.146484 0.271484,-0.146484 0.203436,0 0.611542,-0.985199 0.513672,-1.240235 -0.111172,-0.28971 -0.408683,-0.162397 -0.769531,0.328125 -0.332521,0.452016 -0.385194,0.480116 -0.863282,0.478516 -0.586981,-0.0019 -0.646244,-0.03131 -0.990234,-0.523438 -0.220656,-0.315683 -0.253906,-0.491707 -0.253906,-1.296875 0,-0.731697 0.04397,-1.000571 0.205078,-1.251953 0.31111,-0.485437 0.483968,-0.582237 1.048828,-0.585937 0.448262,-0.003 0.561402,0.04317 0.835937,0.34375 0.174504,0.191056 0.316407,0.38557 0.316407,0.43164 0,0.04607 0.09442,0.08398 0.208984,0.08398 0.386769,0 0.378024,-0.616059 -0.01563,-1.080078 -0.350241,-0.412851 -1.013838,-0.628746 -1.59375,-0.570313 z m -8.707031,0.02148 c -0.09889,-0.0047 -0.201912,0.02506 -0.302735,0.09375 C 26.308734,56.028408 26,56.691748 26,56.9375 c 0,0.115316 -0.06438,0.362024 -0.144531,0.548828 -0.08015,0.186803 -0.203918,0.557452 -0.273438,0.824219 -0.06952,0.266767 -0.199182,0.72703 -0.289062,1.023437 -0.303477,1.000874 -0.362718,1.293139 -0.304688,1.482422 0.1178,0.384238 0.44007,0.204909 0.728516,-0.404297 l 0.28125,-0.591797 h 0.738281 c 0.824217,0 1.018108,0.119377 1.144531,0.714844 0.04545,0.214088 0.154293,0.362168 0.292969,0.398438 0.452864,0.118428 0.644835,-0.13156 0.421875,-0.548828 -0.055,-0.102938 -0.171212,-0.430156 -0.257812,-0.726563 -0.0866,-0.296408 -0.263236,-0.903045 -0.392579,-1.347656 -0.129341,-0.444611 -0.276475,-0.904875 -0.328124,-1.023438 -0.05165,-0.118563 -0.129052,-0.385181 -0.169922,-0.591797 -0.105762,-0.534703 -0.371312,-0.860971 -0.667969,-0.875 z m -5.417969,0.01172 c -0.128382,0 -0.137283,0.720018 -0.0098,0.798828 0.05147,0.03181 0.125763,0.293331 0.164063,0.582032 0.0383,0.288701 0.104859,0.561888 0.148437,0.605468 0.07217,0.07217 0.145129,0.326158 0.462891,1.623047 0.0581,0.237126 0.149515,0.529875 0.203125,0.648438 0.05361,0.118563 0.127773,0.350949 0.164063,0.517578 h -0.002 c 0.05733,0.263261 0.110902,0.298641 0.402343,0.269531 0.363716,-0.03633 0.478079,-0.263926 0.886719,-1.757812 0.281909,-1.030589 0.502595,-1.793811 0.677734,-2.345703 0.184263,-0.580645 0.134,-0.833985 -0.166015,-0.833985 -0.28449,0 -0.469402,0.254207 -0.570313,0.787109 -0.325346,1.718132 -0.612857,2.607422 -0.84375,2.607422 -0.16421,0 -0.725639,-1.91734 -0.839844,-2.86914 -0.04417,-0.368126 -0.326959,-0.632813 -0.677734,-0.632813 z m 31.488281,0 c -0.183678,0 -0.338243,0.06906 -0.376953,0.169922 -0.08533,0.222363 -0.08533,4.609668 0,4.832031 0.03598,0.09377 0.176981,0.171875 0.3125,0.171875 0.135519,0 0.27652,-0.07811 0.3125,-0.171875 0.03598,-0.09377 0.06445,-0.794328 0.06445,-1.55664 0,-0.762313 0.04239,-1.41162 0.09375,-1.44336 0.139654,-0.08631 0.379954,0.238417 0.710938,0.960938 0.514499,1.123127 0.923672,1.906094 1.078125,2.060547 0.171308,0.171304 0.659769,0.200396 0.755859,0.04492 0.106314,-0.17202 0.07313,-4.879995 -0.03516,-4.988282 -0.05486,-0.05488 -0.213295,-0.08234 -0.353516,-0.0625 -0.250897,0.0355 -0.25529,0.0569 -0.28125,1.382813 -0.01451,0.741018 -0.0529,1.45646 -0.08398,1.589844 -0.108507,0.465656 -0.152608,0.405266 -1.035156,-1.427735 -0.637377,-1.323792 -0.814576,-1.5625 -1.16211,-1.5625 z m 65.974611,0 c -0.92934,0 -1.42071,0.04178 -1.50781,0.128907 -0.0926,0.09267 -0.12891,0.792987 -0.12891,2.472656 0,2.119002 0.017,2.355778 0.1875,2.455078 0.10374,0.06042 0.77828,0.111481 1.49805,0.113281 l 1.30859,0.0039 0.0723,-0.292968 c 0.11044,-0.440033 -0.13937,-0.554594 -1.21094,-0.558594 -1.05044,-0.0039 -1.09761,-0.03819 -1.09961,-0.779297 -0.002,-0.68219 0.16142,-0.793228 1.17383,-0.798828 0.80846,-0.0045 0.81786,-0.0087 0.85156,-0.296875 l 0.0352,-0.292969 h -0.90235 c -0.55766,0 -0.95125,-0.04892 -1.03125,-0.128906 -0.16753,-0.167532 -0.16753,-0.975046 0,-1.142578 0.0821,-0.08205 0.49689,-0.128906 1.13281,-0.128906 h 1.00196 v -0.376954 -0.376953 z m -37.572267,0.0059 c -0.08755,-0.0035 -0.171329,0.05067 -0.214844,0.164062 -0.03598,0.09377 -0.06641,0.768678 -0.06641,1.5 0,1.617436 -0.02806,1.72719 -0.386719,1.492188 -0.142717,-0.09351 -0.259765,-0.221347 -0.259765,-0.285157 0,-0.06381 -0.242655,-0.61139 -0.539063,-1.216796 -0.296407,-0.605407 -0.539062,-1.143103 -0.539062,-1.195313 0,-0.174643 -0.642961,-0.480086 -0.863282,-0.410156 -0.205579,0.06526 -0.214843,0.166971 -0.214843,2.53125 0,2.259292 0.01649,2.466836 0.189453,2.503906 0.53784,0.115283 0.564606,0.0437 0.566406,-1.464844 0.0016,-1.364639 0.07685,-1.78396 0.292969,-1.65039 0.08841,0.05464 0.437458,0.732463 1.091797,2.117187 0.451842,0.956199 0.956947,1.32183 1.199218,0.869141 0.137074,-0.256124 0.119648,-4.495084 -0.01953,-4.773438 -0.05875,-0.117493 -0.148783,-0.178132 -0.236328,-0.18164 z m 13.751953,0 c -0.269852,3.81e-4 -0.350285,0.46626 -0.333984,1.748047 0.0097,0.75887 -0.0113,1.407779 -0.04687,1.443359 -0.09268,0.09268 -0.610336,-0.267948 -0.611328,-0.425781 -9.44e-4,-0.150124 -0.955791,-2.081952 -1.191407,-2.410157 -0.184899,-0.257573 -0.471459,-0.378118 -0.693359,-0.292968 -0.137196,0.05265 -0.162109,0.435378 -0.162109,2.529297 v 2.466796 h 0.263672 c 0.144705,0 0.301649,-0.06067 0.349609,-0.134765 0.04796,-0.0741 0.08789,-0.763602 0.08789,-1.533203 0,-1.949282 0.108467,-1.93815 1.130859,0.107422 0.775771,1.552137 0.791441,1.573145 1.121094,1.541015 l 0.333984,-0.0332 0.0293,-2.455078 c 0.02604,-2.206168 0.01075,-2.461598 -0.150391,-2.523438 -0.04659,-0.01788 -0.0884,-0.0274 -0.126953,-0.02734 z m 26.775394,0 c -0.18492,0.0013 -0.37465,0.03629 -0.50391,0.105468 -0.19629,0.105027 -0.20898,0.24751 -0.20898,2.439453 0,2.091349 0.02,2.344062 0.18945,2.472657 0.10374,0.07875 0.27321,0.144584 0.37695,0.146484 0.17042,0.0031 0.18946,-0.136744 0.18946,-1.445312 0,-1.299455 0.11742,-2.132571 0.27929,-1.970703 0.0708,0.07083 0.31995,1.156381 0.48633,2.125 0.14532,0.846027 0.35861,1.294921 0.61719,1.294921 0.46797,0 0.59797,-0.309694 0.88476,-2.085937 0.10536,-0.652485 0.39912,-1.284393 0.55274,-1.189453 0.0484,0.02992 0.0889,0.717675 0.0898,1.529297 9e-4,0.811622 0.043,1.541153 0.0937,1.621093 0.0507,0.07994 0.18346,0.128882 0.29492,0.107422 0.19145,-0.03688 0.20313,-0.180277 0.20313,-2.572265 v -2.53125 l -0.50586,-0.03125 c -0.60716,-0.03915 -0.67422,0.05012 -0.89844,1.195312 -0.25828,1.319154 -0.46592,2.251045 -0.51172,2.296875 -0.13872,0.138717 -0.45249,-0.493024 -0.58008,-1.167969 -0.35014,-1.852156 -0.42639,-2.146247 -0.57812,-2.242187 -0.10674,-0.06748 -0.28579,-0.09898 -0.4707,-0.09766 z m -38.230472,0.0078 c -0.08551,-0.01976 -0.197001,-9.63e-4 -0.382812,0.04492 L 82.75,55.992188 82.7207,58.382812 c -0.02853,2.352919 -0.02567,2.391511 0.199219,2.462891 0.125653,0.03988 0.276507,0.02428 0.335937,-0.03516 0.06354,-0.06354 0.101197,-0.727769 0.0918,-1.613281 -0.01338,-1.255405 0.01244,-1.51617 0.148438,-1.56836 0.08973,-0.03443 0.18733,-0.02153 0.21875,0.0293 0.05945,0.09619 0.328147,1.354543 0.505859,2.375 0.05653,0.324608 0.177941,0.672232 0.269531,0.773438 0.336102,0.371388 0.894838,-0.127084 0.898438,-0.800782 8.73e-4,-0.163919 0.07328,-0.576042 0.160156,-0.916015 0.08688,-0.339974 0.185643,-0.803295 0.220703,-1.029297 0.04809,-0.309977 0.108438,-0.40141 0.246094,-0.375 0.159308,0.03056 0.186571,0.226737 0.212891,1.541015 0.01658,0.828002 0.07345,1.546107 0.125,1.597657 0.05155,0.05155 0.194659,0.06136 0.320312,0.02148 0.224883,-0.07138 0.229702,-0.109972 0.201172,-2.462891 l -0.0293,-2.390624 -0.505859,-0.03125 c -0.589921,-0.03804 -0.699628,0.08869 -0.798828,0.917968 -0.03397,0.283977 -0.131054,0.698369 -0.214844,0.921875 -0.08379,0.223505 -0.152344,0.578881 -0.152344,0.789063 0,0.451695 -0.161263,0.798828 -0.373047,0.798828 -0.216652,0 -0.310872,-0.194747 -0.388672,-0.808594 -0.03757,-0.296407 -0.124136,-0.75667 -0.191406,-1.023437 -0.06727,-0.266766 -0.147477,-0.664738 -0.179687,-0.882813 -0.03221,-0.218076 -0.148466,-0.505587 -0.257813,-0.640625 -0.08848,-0.10927 -0.148868,-0.167741 -0.234375,-0.1875 z M 76.875,55.865234 c -0.04906,-0.0035 -0.111754,0.01855 -0.201172,0.06641 -0.223076,0.119389 -0.230469,0.186643 -0.230469,2.472656 0,1.292227 0.03275,2.382355 0.07227,2.421875 0.133236,0.133231 0.443836,0.07219 0.509766,-0.09961 0.10144,-0.264337 0.07291,-4.607111 -0.03125,-4.771484 -0.03605,-0.05689 -0.07008,-0.08631 -0.119141,-0.08984 z m -47.193359,0.0078 c -0.06235,0.01217 -0.110152,0.04292 -0.138672,0.08789 -0.10582,0.166851 -0.126141,4.760578 -0.02148,4.865234 0.03952,0.03952 0.16085,0.07031 0.269532,0.07031 0.181535,0 0.197265,-0.11445 0.197265,-1.408203 0,-0.801946 0.05093,-1.501188 0.117188,-1.625 0.109165,-0.203973 0.128052,-0.205799 0.314453,-0.03711 0.183105,0.165708 0.547483,0.864195 1.191406,2.283203 0.262892,0.57933 0.573455,0.837011 0.923828,0.769531 0.19136,-0.03685 0.203125,-0.175819 0.203125,-2.46289 v -2.421875 l -0.296875,-0.03516 -0.296875,-0.0332 v 1.441407 c 0,1.074403 -0.03842,1.494591 -0.152343,1.65039 -0.08407,0.114982 -0.175382,0.183847 -0.201172,0.154297 -0.02579,-0.02955 -0.397329,-0.763535 -0.826172,-1.632813 -0.643991,-1.305382 -0.828045,-1.59302 -1.056641,-1.65039 -0.08829,-0.02216 -0.164218,-0.0278 -0.226562,-0.01563 z m 44.0625,0.0293 c -0.387769,0.01953 -0.51252,0.168729 -0.716797,0.845703 -0.548538,1.817863 -0.792514,2.652243 -0.910156,3.125 -0.05901,0.237126 -0.158424,0.524461 -0.220704,0.638672 -0.08852,0.162321 -0.07185,0.237466 0.07617,0.345703 0.254582,0.186155 0.544685,0.02307 0.640625,-0.361328 0.138614,-0.55538 0.344379,-0.675782 1.150391,-0.675782 H 74.5 l 0.277344,0.544922 c 0.221878,0.437856 0.323319,0.538799 0.513672,0.511719 0.192355,-0.02737 0.230761,-0.09525 0.207031,-0.357422 -0.0161,-0.177844 -0.09338,-0.51678 -0.171875,-0.753906 -0.0785,-0.237126 -0.228848,-0.722436 -0.333984,-1.078125 -0.829596,-2.806617 -0.828846,-2.806276 -1.248047,-2.785156 z m -14.736329,0.0059 c -0.239632,0.0029 -0.557602,0.01451 -0.980468,0.03125 l -1.361328,0.05469 v 0.267578 c 0,0.241901 0.05318,0.276498 0.519531,0.330078 0.285717,0.03282 0.562947,0.129104 0.617187,0.214844 0.05425,0.08574 0.100655,1.010367 0.101563,2.052734 9.1e-4,1.042366 0.03274,1.927277 0.07227,1.966797 0.03952,0.03952 0.155728,0.07031 0.257813,0.07031 0.252459,0 0.298313,-0.354151 0.314453,-2.421875 0.0094,-1.20887 0.05172,-1.744984 0.142578,-1.802734 0.07116,-0.04523 0.335945,-0.08308 0.587891,-0.08398 0.434205,-0.0016 0.458984,-0.0174 0.458984,-0.316407 0,-0.29591 -0.01156,-0.372002 -0.730469,-0.363281 z m 39.275391,0.002 c -0.257506,-1.95e-4 -0.579117,0.01096 -0.982422,0.0293 l -1.185547,0.05469 -0.03516,0.294921 c -0.03307,0.287408 -0.01839,0.296876 0.490234,0.296876 0.288489,-1e-6 0.583157,0.05777 0.654297,0.128906 0.09109,0.09109 0.128907,0.707536 0.128907,2.083984 0,1.074971 0.03275,1.987824 0.07227,2.027344 0.117193,0.117195 0.449337,0.08026 0.535157,-0.05859 0.04379,-0.07086 0.08174,-0.986749 0.08594,-2.037109 0.0042,-1.050361 0.0468,-1.948944 0.09375,-1.996094 0.04695,-0.04714 0.312701,-0.112441 0.591797,-0.144531 0.452826,-0.05206 0.507812,-0.08734 0.507812,-0.326172 0,-0.257792 -0.184513,-0.35293 -0.957031,-0.353516 z m 10.236327,0.01172 c -0.1187,0.0073 -0.2607,0.06892 -0.37695,0.181641 -0.16739,0.162293 -0.43108,0.802627 -0.51758,1.259765 -0.1133,0.598727 -0.59047,0.669124 -0.78711,0.115235 -0.0584,-0.164543 -0.15554,-0.383393 -0.21484,-0.486328 -0.0592,-0.102939 -0.10742,-0.254208 -0.10743,-0.335938 3e-5,-0.304304 -0.43799,-0.716797 -0.76171,-0.716797 -0.38207,0 -0.386,0.05207 -0.0566,0.716797 0.14223,0.287058 0.28706,0.594674 0.32226,0.683594 0.0352,0.08892 0.10686,0.235298 0.16016,0.324218 0.59002,0.983906 0.76758,1.532964 0.76758,2.38086 0,0.838654 0.008,0.865301 0.24218,0.832031 0.22471,-0.03192 0.24698,-0.100261 0.29688,-0.949219 0.0412,-0.700159 0.12426,-1.06827 0.35547,-1.5625 0.16641,-0.355689 0.34573,-0.744718 0.39843,-0.863281 0.45717,-1.02929 0.54608,-1.27827 0.51368,-1.435547 -0.0215,-0.104251 -0.11567,-0.151827 -0.23438,-0.144531 z m -46.578124,0.002 c -0.926078,-0.0035 -1.285979,0.03377 -1.349609,0.136719 -0.09327,0.150909 -0.12013,4.05177 -0.03125,4.533203 0.03591,0.194517 0.131088,0.301729 0.289062,0.324219 0.129466,0.01843 0.792873,0.0082 1.47461,-0.02148 l 1.240234,-0.05273 0.0332,-0.296875 0.03516,-0.29701 H 62.625 c -1.274404,0 -1.486328,-0.117796 -1.486328,-0.832031 0,-0.767389 0.174638,-0.892578 1.255859,-0.892578 0.887574,0 0.900391,-0.0036 0.900391,-0.269532 0,-0.265462 -0.01326,-0.269531 -0.88086,-0.269531 -1.040796,0 -1.27539,-0.136085 -1.27539,-0.748047 0,-0.572989 0.138053,-0.652343 1.144531,-0.652343 0.963796,-10e-7 1.226563,-0.05719 1.226563,-0.267579 0,-0.309462 -0.319236,-0.389831 -1.56836,-0.394531 z m 53.773434,0 c -0.27838,-0.0056 -0.6373,-0.0016 -1.00781,0.01367 l -1.34765,0.05664 -0.0332,0.294921 c -0.0325,0.282628 -0.012,0.297229 0.43164,0.298829 0.79607,0.0028 0.78446,-0.02588 0.81836,2.123047 0.0167,1.054513 0.0521,1.976681 0.0781,2.050781 0.0259,0.0741 0.1452,0.134765 0.26562,0.134765 0.21195,0 0.21875,-0.06164 0.21875,-1.986328 0,-2.274307 0.0181,-2.32422 0.81641,-2.324218 0.43553,-10e-7 0.47656,-0.02325 0.47656,-0.265626 0,-0.148302 -0.0822,-0.303412 -0.1875,-0.351562 -0.0519,-0.02372 -0.25091,-0.03935 -0.5293,-0.04492 z m -96.988278,0.0098 c -0.221165,-0.01434 -0.456908,-0.01293 -0.701171,0.0059 l -0.701172,0.05469 -0.0293,2.314453 c -0.01604,1.273086 -0.0056,2.375602 0.02344,2.451172 0.0365,0.09513 0.3119,0.137134 0.892579,0.136718 1.484371,-0.0011 1.940595,-0.262349 2.304687,-1.316406 0.364926,-1.056473 0.207027,-2.322942 -0.390625,-3.136719 -0.206808,-0.281594 -0.734941,-0.466733 -1.398438,-0.509765 z m 69.357422,0 v 2.478515 2.478516 l 1.267578,0.0332 c 0.696558,0.01877 1.282062,0.04584 1.300782,0.05859 0.12473,0.08495 0.451172,-0.246018 0.451172,-0.457031 0,-0.250775 -0.02345,-0.254986 -1.136719,-0.291016 -1.292352,-0.04182 -1.339197,-0.07312 -1.341797,-0.867187 -0.0023,-0.698794 0.221435,-0.841797 1.316406,-0.841797 0.822324,0 0.837891,-0.0052 0.837891,-0.269532 0,-0.266062 -0.01103,-0.269531 -0.908203,-0.269531 -0.682169,0 -0.950941,-0.04078 -1.078125,-0.167969 -0.205356,-0.205359 -0.225004,-0.944999 -0.0293,-1.107421 0.07719,-0.06406 0.575022,-0.129185 1.105469,-0.146485 0.948498,-0.03093 0.964843,-0.03773 0.964843,-0.302734 v -0.267578 l -1.375,-0.03125 z m -37.984375,0.0059 c -0.73617,0 -1.415995,0.02847 -1.509765,0.06445 -0.148162,0.05685 -0.169922,0.369792 -0.169922,2.386719 0,2.02946 0.02271,2.337813 0.177734,2.451172 0.232843,0.17026 2.749857,0.09127 2.865235,-0.08984 0.04356,-0.06837 0.08113,-0.208758 0.08203,-0.3125 C 51.546383,60.27253 51.424996,60.25 50.490234,60.25 c -0.677845,0 -1.102547,-0.04591 -1.185546,-0.128906 -0.170311,-0.17032 -0.167939,-1.181762 0.0039,-1.410156 0.101966,-0.135523 0.345466,-0.186165 0.998047,-0.208985 0.780367,-0.02729 0.861328,-0.051 0.861328,-0.246094 0,-0.194823 -0.08273,-0.217283 -0.857422,-0.246093 -0.471443,-0.01753 -0.919184,-0.08461 -0.996094,-0.148438 -0.07691,-0.06383 -0.140625,-0.300371 -0.140625,-0.52539 0,-0.741611 0.01359,-0.75 1.197266,-0.75 H 51.4375 v -0.324219 -0.322266 z m 19.992188,0 c -1.404808,0 -1.506593,0.01409 -1.570313,0.214844 -0.102089,0.321652 0.02246,0.431641 0.484375,0.431641 0.723619,0 0.75586,0.09464 0.75586,2.208984 0,1.028343 0.02708,1.940124 0.06055,2.027344 0.05776,0.150513 0.461104,0.136257 0.490234,-0.01758 0.0071,-0.03755 0.02412,-0.927061 0.03711,-1.976563 0.0169,-1.364652 0.06319,-1.95698 0.16211,-2.076172 0.08624,-0.103916 0.315182,-0.166021 0.609375,-0.166015 0.452402,0 0.472656,-0.01418 0.472656,-0.324219 v -0.322266 z m -4.386719,0.0039 c -0.490612,-6.71e-4 -0.944347,0.01821 -1.054687,0.06055 -0.148252,0.05689 -0.169922,0.371873 -0.169922,2.416016 0,1.779746 0.03276,2.36509 0.134765,2.40625 0.513406,0.207164 0.602335,0.04702 0.646485,-1.167969 l 0.02734,-0.753906 0.578126,-0.0332 c 0.478732,-0.02731 0.624442,0.0083 0.835937,0.207031 0.215396,0.202352 0.255859,0.344771 0.255859,0.900391 0,0.711378 0.113695,0.917968 0.50586,0.917968 0.236285,0 0.24774,-0.03659 0.24414,-0.78125 -0.0023,-0.473188 -0.06298,-0.887613 -0.15625,-1.050781 -0.210173,-0.36766 -0.202348,-0.82809 0.01758,-0.951172 0.138403,-0.07746 0.1832,-0.261685 0.1875,-0.787109 0.007,-0.864028 -0.205021,-1.224069 -0.77539,-1.31836 -0.259177,-0.04285 -0.786732,-0.06378 -1.277344,-0.06445 z m -22.335937,0.0098 c -0.520381,-0.0029 -0.985428,0.01855 -0.986329,0.06641 -0.0038,0.203655 -0.0057,4.623267 -0.002,4.738281 0.0027,0.08412 0.259003,0.143539 0.730469,0.167969 0.40015,0.02074 0.755163,0.04698 0.789063,0.05859 0.0339,0.01161 0.296972,-0.05845 0.583984,-0.15625 0.564314,-0.192281 0.917969,-0.44183 0.917969,-0.646484 0,-0.0708 0.05322,-0.145999 0.11914,-0.167969 0.165932,-0.05531 0.298048,-1.560784 0.210938,-2.402344 -0.05701,-0.55079 -0.139094,-0.780414 -0.400391,-1.103516 -0.186699,-0.230859 -0.466075,-0.436059 -0.642578,-0.474609 -0.224854,-0.04911 -0.799932,-0.0772 -1.320312,-0.08008 z m -3.455079,0.0098 c -0.865935,-0.01967 -1.364086,0.0094 -1.410156,0.08398 -0.05307,0.08592 -0.05989,4.244904 -0.0078,4.773437 0.0045,0.04609 0.675113,0.06922 1.490234,0.05273 l 1.482422,-0.0293 0.0332,-0.296875 0.0332,-0.296875 h -1.037109 c -1.367265,0 -1.455078,-0.05114 -1.455078,-0.861328 0,-0.795786 0.09802,-0.863281 1.285156,-0.863281 0.855462,0 0.871094,-0.0044 0.871094,-0.269532 0,-0.265162 -0.01563,-0.269531 -0.871094,-0.269531 -1.123233,0 -1.285156,-0.0859 -1.285156,-0.689453 0,-0.257422 0.06343,-0.52188 0.140625,-0.585937 0.07719,-0.06406 0.573068,-0.129185 1.103515,-0.146485 0.948498,-0.03093 0.964844,-0.03773 0.964844,-0.302734 v -0.267578 z m -21.30664,0.623047 c 0.510394,0 0.629354,0.04342 0.914062,0.328124 0.386725,0.386722 0.490132,0.831251 0.419922,1.8125 -0.05724,0.800039 -0.193647,1.091342 -0.630859,1.34961 -0.323461,0.19107 -1.032296,0.230184 -1.285156,0.07031 -0.125606,-0.07941 -0.166763,-0.412959 -0.195313,-1.535156 -0.02129,-0.836775 0.01,-1.555419 0.07617,-1.728516 0.104462,-0.273206 0.15993,-0.296874 0.701172,-0.296874 z m 25.193359,0.0039 c 0.280508,0.0082 0.574536,0.06442 0.716797,0.164062 0.927903,0.649928 0.887013,2.753473 -0.06445,3.308594 -0.449507,0.262259 -1.165366,0.251742 -1.310547,-0.01953 -0.161334,-0.301448 -0.146236,-3.164311 0.01758,-3.328125 0.09281,-0.09281 0.360117,-0.133156 0.640625,-0.125 z m 21.488281,0.05078 h 0.748047 c 0.731956,0 0.753197,0.0078 0.955079,0.353516 0.178252,0.305211 0.186654,0.396859 0.07031,0.677734 -0.0741,0.178902 -0.270949,0.396292 -0.4375,0.482422 -0.373881,0.193342 -0.963861,0.203053 -1.214844,0.01953 -0.152131,-0.11122 -0.180757,-0.271504 -0.154297,-0.835937 z m 8.47461,0.507813 c 0.160894,0.05363 0.517384,1.153095 0.521484,1.609374 0.002,0.223318 -0.05423,0.408561 -0.130859,0.431641 -0.205358,0.06185 -0.877862,-0.02108 -0.980469,-0.121094 -0.111025,-0.108221 0.109907,-1.23683 0.324219,-1.654297 0.08563,-0.166805 0.205205,-0.285766 0.265625,-0.265624 z M 26.712891,57.1875 c 0.224287,0.02043 0.588913,0.965309 0.558593,1.447266 -0.03042,0.483658 -0.03298,0.483695 -0.466796,0.515625 -0.51812,0.03813 -0.589938,-0.01643 -0.585938,-0.453125 0.0038,-0.418844 0.364978,-1.521526 0.494141,-1.509766 z m -12.13086,0.04492 c 0.170054,0 0.576356,1.52413 0.457031,1.714844 -0.23634,0.377743 -1.001953,0.219372 -1.001953,-0.207032 0,-0.283539 0.442339,-1.507812 0.544922,-1.507812 z"
           style="fill:#4169e1;stroke:#418ae1;stroke-width:0.80800003;stroke-miterlimit:4;stroke-dasharray:none;stroke-opacity:0.44221114"
           inkscape:connector-curvature="0" />
        <path
           style="fill:#4169e1;stroke:#4169e1;stroke-width:0.10778454"
           d="m 103.23446,55.705081 c -0.62432,-0.01212 -1.26204,0.280271 -1.50391,0.884766 -0.21538,0.539063 -0.2157,0.745079 -0.002,1.279297 0.17901,0.447379 0.59565,0.715836 1.5039,0.970703 0.73344,0.205814 1.08244,0.61926 0.88672,1.048828 -0.26051,0.571765 -1.21847,0.5549 -1.66406,-0.0293 -0.29877,-0.391706 -0.74652,-0.49255 -0.86133,-0.193359 -0.0971,0.25318 0.29998,0.92545 0.71094,1.203125 h 0.002 c 0.71551,0.480773 1.94163,0.248089 2.375,-0.453125 0.32007,-0.517822 0.30579,-1.556548 -0.0254,-1.859375 -0.29888,-0.27328 -0.87351,-0.570313 -1.10352,-0.570313 -0.2812,0 -1.00903,-0.41519 -1.13281,-0.646484 -0.081,-0.151667 -0.0824,-0.277561 -0.002,-0.427735 0.29423,-0.549749 1.17863,-0.547241 1.49219,0.0039 0.12879,0.226356 0.26303,0.315918 0.4707,0.316406 0.38024,8.94e-4 0.4271,-0.09797 0.27734,-0.585938 -0.18808,-0.612839 -0.79952,-0.929289 -1.42382,-0.941406 z m 7.73632,0.01953 c -1.05203,0 -1.54492,0.497177 -1.54492,1.5625 0,0.55022 0.0376,0.648827 0.35156,0.957032 0.19267,0.189135 0.56723,0.408548 0.83399,0.486328 0.83788,0.244294 1.38844,0.611361 1.39844,0.933593 0.002,0.06292 -0.0959,0.221822 -0.2168,0.351563 -0.37943,0.407275 -1.50391,0.258273 -1.50391,-0.199219 0,-0.166843 -0.44048,-0.34033 -0.69922,-0.27539 -0.2229,0.05594 -0.24126,0.10121 -0.16406,0.443359 0.10152,0.450107 0.2625,0.661485 0.70117,0.929687 0.21891,0.133843 0.53353,0.198946 0.97266,0.199219 1.16741,7.25e-4 1.75652,-0.663831 1.64258,-1.849609 -0.0677,-0.704612 -0.34554,-0.978331 -1.29297,-1.277344 -0.70416,-0.222239 -1.26953,-0.596907 -1.26953,-0.84375 0,-0.162778 0.36344,-0.542 0.53906,-0.5625 0.53731,-0.06273 0.77295,0.01848 0.94922,0.332031 0.15697,0.279197 0.23805,0.322685 0.56055,0.296875 0.33462,-0.02676 0.37314,-0.05996 0.33984,-0.298828 -0.10449,-0.748175 -0.69363,-1.185547 -1.59766,-1.185547 z m -96.316402,0.04492 c -0.10318,-0.0089 -0.217469,0.01253 -0.34375,0.06055 -0.250561,0.09526 -0.331568,0.267651 -0.646485,1.34961 -0.103524,0.355688 -0.250971,0.839045 -0.326171,1.076171 -0.0752,0.237126 -0.219895,0.747484 -0.322266,1.132813 -0.10237,0.38533 -0.229893,0.811093 -0.283203,0.947266 -0.05331,0.136172 -0.09766,0.34321 -0.09766,0.458984 0,0.166298 0.07628,0.210937 0.357422,0.210937 0.324809,0 0.374206,-0.04715 0.582031,-0.539062 l 0.228515,-0.539063 h 0.773438 0.773437 l 0.226563,0.539063 c 0.209999,0.497053 0.256213,0.539062 0.595703,0.539062 0.342819,0 0.364863,-0.02082 0.314453,-0.296875 -0.02977,-0.163024 -0.127787,-0.53953 -0.216797,-0.835937 -0.08901,-0.296408 -0.239327,-0.804811 -0.335937,-1.130859 -0.09661,-0.326049 -0.249644,-0.836406 -0.339844,-1.132813 C 15.503633,57.31297 15.38188,56.888374 15.3243,56.664065 15.175942,56.086087 14.963918,55.796384 14.654378,55.769534 Z m 20.832031,0.0293 c -0.193304,0.01948 -0.377143,0.06897 -0.537109,0.152344 -0.518124,0.270062 -0.927712,0.718606 -1.019531,1.11914 -0.307317,1.340568 -0.311264,1.415156 -0.113282,2.25586 0.161349,0.685143 0.266349,0.897207 0.615235,1.246094 0.307315,0.307315 0.527796,0.430621 0.818359,0.457031 0.575689,0.05232 1.126666,-0.03209 1.322266,-0.201172 0.09359,-0.08091 0.215534,-0.146484 0.271484,-0.146484 0.203436,0 0.611542,-0.985199 0.513672,-1.240235 -0.111172,-0.28971 -0.408683,-0.162397 -0.769531,0.328125 -0.332521,0.452016 -0.385194,0.480116 -0.863282,0.478516 -0.586981,-0.0019 -0.646244,-0.03131 -0.990234,-0.523438 -0.220656,-0.315683 -0.253906,-0.491707 -0.253906,-1.296875 0,-0.731697 0.04397,-1.000571 0.205078,-1.251953 0.31111,-0.485437 0.483968,-0.582237 1.048828,-0.585937 0.448262,-0.003 0.561402,0.04317 0.835937,0.34375 0.174504,0.191056 0.316407,0.38557 0.316407,0.43164 0,0.04607 0.09442,0.08398 0.208984,0.08398 0.386769,0 0.378024,-0.616059 -0.01563,-1.080078 -0.350241,-0.412851 -1.013838,-0.628746 -1.59375,-0.570313 z m -8.707031,0.02148 c -0.09889,-0.0047 -0.201912,0.02506 -0.302735,0.09375 -0.167828,0.114346 -0.476562,0.777686 -0.476562,1.023438 0,0.115316 -0.06438,0.362024 -0.144531,0.548828 -0.08015,0.186803 -0.203918,0.557452 -0.273438,0.824219 -0.06952,0.266767 -0.199182,0.72703 -0.289062,1.023437 -0.303477,1.000874 -0.362718,1.293139 -0.304688,1.482422 0.1178,0.384238 0.44007,0.204909 0.728516,-0.404297 l 0.28125,-0.591797 h 0.738281 c 0.824217,0 1.018108,0.119377 1.144531,0.714844 0.04545,0.214088 0.154293,0.362168 0.292969,0.398438 0.452864,0.118428 0.644835,-0.13156 0.421875,-0.548828 -0.055,-0.102938 -0.171212,-0.430156 -0.257812,-0.726563 -0.0866,-0.296408 -0.263236,-0.903045 -0.392579,-1.347656 -0.129341,-0.444611 -0.276475,-0.904875 -0.328124,-1.023438 -0.05165,-0.118563 -0.129052,-0.385181 -0.169922,-0.591797 -0.105762,-0.534703 -0.371312,-0.860971 -0.667969,-0.875 z m -5.417969,0.01172 c -0.128382,0 -0.137283,0.720018 -0.0098,0.798828 0.05147,0.03181 0.125763,0.293331 0.164063,0.582032 0.0383,0.288701 0.104859,0.561888 0.148437,0.605468 0.07217,0.07217 0.145129,0.326158 0.462891,1.623047 0.0581,0.237126 0.149515,0.529875 0.203125,0.648438 0.05361,0.118563 0.127773,0.350949 0.164063,0.517578 h -0.002 c 0.05733,0.263261 0.110902,0.298641 0.402343,0.269531 0.363716,-0.03633 0.478079,-0.263926 0.886719,-1.757812 0.281909,-1.030589 0.502595,-1.793811 0.677734,-2.345703 0.184263,-0.580645 0.134,-0.833985 -0.166015,-0.833985 -0.28449,0 -0.469402,0.254207 -0.570313,0.787109 -0.325346,1.718132 -0.612857,2.607422 -0.84375,2.607422 -0.16421,0 -0.725639,-1.91734 -0.839844,-2.86914 -0.04417,-0.368126 -0.326959,-0.632813 -0.677734,-0.632813 z m 31.488281,0 c -0.183678,0 -0.338243,0.06906 -0.376953,0.169922 -0.08533,0.222363 -0.08533,4.609668 0,4.832031 0.03598,0.09377 0.176981,0.171875 0.3125,0.171875 0.135519,0 0.27652,-0.0781 0.3125,-0.171875 0.03598,-0.09377 0.06445,-0.794328 0.06445,-1.55664 0,-0.762313 0.04239,-1.41162 0.09375,-1.44336 0.139654,-0.08631 0.379954,0.238417 0.710938,0.960938 0.514499,1.123127 0.923672,1.906094 1.078125,2.060547 0.171308,0.171304 0.659769,0.200396 0.755859,0.04492 0.106314,-0.17202 0.07313,-4.879995 -0.03516,-4.988282 -0.05486,-0.05488 -0.213295,-0.08234 -0.353516,-0.0625 -0.250897,0.0355 -0.25529,0.0569 -0.28125,1.382813 -0.01451,0.741018 -0.0529,1.45646 -0.08398,1.589844 -0.108507,0.465656 -0.152608,0.405266 -1.035156,-1.427735 -0.637377,-1.323792 -0.814576,-1.5625 -1.16211,-1.5625 z m 65.97461,0 c -0.92934,0 -1.42071,0.04178 -1.50781,0.128907 -0.0926,0.09267 -0.12891,0.792987 -0.12891,2.472656 0,2.119002 0.017,2.355778 0.1875,2.455078 0.10374,0.06042 0.77828,0.111481 1.49805,0.113281 l 1.30859,0.0039 0.0723,-0.292968 c 0.11044,-0.440033 -0.13937,-0.554594 -1.21094,-0.558594 -1.05044,-0.0039 -1.09761,-0.03819 -1.09961,-0.779297 -0.002,-0.68219 0.16142,-0.793228 1.17383,-0.798828 0.80846,-0.0045 0.81786,-0.0087 0.85156,-0.296875 l 0.0352,-0.292969 h -0.90235 c -0.55766,0 -0.95125,-0.04892 -1.03125,-0.128906 -0.16753,-0.167532 -0.16753,-0.975046 0,-1.142578 0.0821,-0.08205 0.49689,-0.128906 1.13281,-0.128906 h 1.00196 v -0.376945 -0.376953 z m -37.572266,0.0059 c -0.08755,-0.0035 -0.171329,0.05067 -0.214844,0.164062 -0.03598,0.09377 -0.06641,0.768678 -0.06641,1.5 0,1.617436 -0.02806,1.72719 -0.386719,1.492188 -0.142717,-0.09351 -0.259765,-0.221347 -0.259765,-0.285157 0,-0.06381 -0.242655,-0.61139 -0.539063,-1.216796 -0.296407,-0.605407 -0.539062,-1.143103 -0.539062,-1.195313 0,-0.174643 -0.642961,-0.480086 -0.863282,-0.410156 -0.205579,0.06526 -0.214843,0.166971 -0.214843,2.53125 0,2.259292 0.01649,2.466836 0.189453,2.503906 0.53784,0.115283 0.564606,0.0437 0.566406,-1.464844 0.0016,-1.364639 0.07685,-1.78396 0.292969,-1.65039 0.08841,0.05464 0.437458,0.732463 1.091797,2.117187 0.451842,0.956199 0.956947,1.32183 1.199218,0.869141 0.137074,-0.256124 0.119648,-4.495084 -0.01953,-4.773438 -0.05875,-0.117493 -0.148783,-0.178132 -0.236328,-0.18164 z m 13.751953,0 c -0.269852,3.81e-4 -0.350285,0.46626 -0.333984,1.748047 0.0097,0.75887 -0.0113,1.407779 -0.04687,1.443359 -0.09268,0.09268 -0.610336,-0.267948 -0.611328,-0.425781 -9.44e-4,-0.150124 -0.955791,-2.081952 -1.191407,-2.410157 -0.184899,-0.257573 -0.471459,-0.378118 -0.693359,-0.292968 -0.137196,0.05265 -0.162109,0.435378 -0.162109,2.529297 v 2.466796 h 0.263672 c 0.144705,0 0.301649,-0.06067 0.349609,-0.134765 0.04796,-0.0741 0.08789,-0.763602 0.08789,-1.533203 0,-1.949282 0.108467,-1.93815 1.130859,0.107422 0.775771,1.552137 0.791441,1.573145 1.121094,1.541015 l 0.333984,-0.0332 0.0293,-2.455078 c 0.02604,-2.206168 0.01075,-2.461598 -0.150391,-2.523438 -0.04659,-0.01788 -0.0884,-0.0274 -0.126953,-0.02734 z m 26.775393,0 c -0.18492,0.0013 -0.37465,0.03629 -0.50391,0.105468 -0.19629,0.105027 -0.20898,0.24751 -0.20898,2.439453 0,2.091349 0.02,2.344062 0.18945,2.472657 0.10374,0.07875 0.27321,0.144584 0.37695,0.146484 0.17042,0.0031 0.18946,-0.136744 0.18946,-1.445312 0,-1.299455 0.11742,-2.132571 0.27929,-1.970703 0.0708,0.07083 0.31995,1.156381 0.48633,2.125 0.14532,0.846027 0.35861,1.294921 0.61719,1.294921 0.46797,0 0.59797,-0.309694 0.88476,-2.085937 0.10536,-0.652485 0.39912,-1.284393 0.55274,-1.189453 0.0484,0.02992 0.0889,0.717675 0.0898,1.529297 9e-4,0.811622 0.043,1.541153 0.0937,1.621093 0.0507,0.07994 0.18346,0.128882 0.29492,0.107422 0.19145,-0.03688 0.20313,-0.180277 0.20313,-2.572265 v -2.53125 l -0.50586,-0.03125 c -0.60716,-0.03915 -0.67422,0.05012 -0.89844,1.195312 -0.25828,1.319154 -0.46592,2.251045 -0.51172,2.296875 -0.13872,0.138717 -0.45249,-0.493024 -0.58008,-1.167969 -0.35014,-1.852156 -0.42639,-2.146247 -0.57812,-2.242187 -0.10674,-0.06748 -0.28579,-0.09898 -0.4707,-0.09766 z m -38.230471,0.0078 c -0.08551,-0.01976 -0.197001,-9.63e-4 -0.382812,0.04492 l -0.416016,0.101563 -0.0293,2.390624 c -0.02853,2.352919 -0.02567,2.391511 0.199219,2.462891 0.125653,0.03988 0.276507,0.02428 0.335937,-0.03516 0.06354,-0.06354 0.101197,-0.727769 0.0918,-1.613281 -0.01338,-1.255405 0.01244,-1.51617 0.148438,-1.56836 0.08973,-0.03443 0.18733,-0.02153 0.21875,0.0293 0.05945,0.09619 0.328147,1.354543 0.505859,2.375 0.05653,0.324608 0.177941,0.672232 0.269531,0.773438 0.336102,0.371388 0.894838,-0.127084 0.898438,-0.800782 8.73e-4,-0.163919 0.07328,-0.576042 0.160156,-0.916015 0.08688,-0.339974 0.185643,-0.803295 0.220703,-1.029297 0.04809,-0.309977 0.108438,-0.40141 0.246094,-0.375 0.159308,0.03056 0.186571,0.226737 0.212891,1.541015 0.01658,0.828002 0.07345,1.546107 0.125,1.597657 0.05155,0.05155 0.194659,0.06136 0.320312,0.02148 0.224883,-0.07138 0.229702,-0.109972 0.201172,-2.462891 l -0.0293,-2.390624 -0.505859,-0.03125 c -0.589921,-0.03804 -0.699628,0.08869 -0.798828,0.917968 -0.03397,0.283977 -0.131054,0.698369 -0.214844,0.921875 -0.08379,0.223505 -0.152344,0.578881 -0.152344,0.789063 0,0.451695 -0.161263,0.798828 -0.373047,0.798828 -0.216652,0 -0.310872,-0.194747 -0.388672,-0.808594 -0.03757,-0.296407 -0.124136,-0.75667 -0.191406,-1.023437 -0.06727,-0.266766 -0.147477,-0.664738 -0.179687,-0.882813 -0.03221,-0.218076 -0.148466,-0.505587 -0.257813,-0.640625 -0.08848,-0.10927 -0.148868,-0.167741 -0.234375,-0.1875 z m -6.673828,0.01953 c -0.04906,-0.0035 -0.111754,0.01855 -0.201172,0.06641 -0.223076,0.119389 -0.230469,0.186643 -0.230469,2.472656 0,1.292227 0.03275,2.382355 0.07227,2.421875 0.133236,0.133231 0.443836,0.07219 0.509766,-0.09961 0.10144,-0.264337 0.07291,-4.607111 -0.03125,-4.771484 -0.03605,-0.05688 -0.07008,-0.08631 -0.119141,-0.08984 z m -47.193359,0.0078 c -0.06235,0.01217 -0.110152,0.04292 -0.138672,0.08789 -0.10582,0.166851 -0.126141,4.760578 -0.02149,4.865234 0.03952,0.03952 0.16085,0.07031 0.269532,0.07031 0.181535,0 0.197265,-0.11445 0.197265,-1.408203 0,-0.801946 0.05093,-1.501188 0.117188,-1.625 0.109165,-0.203973 0.128052,-0.205799 0.314453,-0.03711 0.183105,0.165708 0.547483,0.864195 1.191406,2.283203 0.262892,0.57933 0.573455,0.837011 0.923828,0.769531 0.19136,-0.03685 0.203125,-0.175819 0.203125,-2.46289 v -2.421882 l -0.296875,-0.03516 -0.296875,-0.0332 v 1.441407 c 0,1.074403 -0.03842,1.494591 -0.152343,1.65039 -0.08408,0.114982 -0.175382,0.183847 -0.201172,0.154297 -0.02579,-0.02955 -0.397329,-0.763535 -0.826172,-1.632813 -0.643991,-1.305382 -0.828045,-1.59302 -1.056641,-1.65039 -0.08829,-0.02216 -0.164218,-0.0278 -0.226562,-0.01563 z m 44.0625,0.0293 c -0.387769,0.01953 -0.51252,0.168729 -0.716797,0.845703 -0.548538,1.817863 -0.792514,2.652243 -0.910156,3.125 -0.05901,0.237126 -0.158424,0.524461 -0.220704,0.638672 -0.08852,0.162321 -0.07185,0.237466 0.07617,0.345703 0.254582,0.186155 0.544685,0.02307 0.640625,-0.361328 0.138614,-0.55538 0.344379,-0.675782 1.150391,-0.675782 h 0.736328 l 0.277344,0.544922 c 0.221878,0.437856 0.323319,0.538799 0.513672,0.511719 0.192355,-0.02737 0.230761,-0.09525 0.207031,-0.357422 -0.0161,-0.177844 -0.09338,-0.51678 -0.171875,-0.753906 -0.0785,-0.237126 -0.228848,-0.722436 -0.333984,-1.078125 C 74.162671,55.8809 74.163421,55.881241 73.74422,55.902361 Z m -14.736329,0.0059 c -0.239632,0.0029 -0.557602,0.01451 -0.980468,0.03125 l -1.361328,0.05469 v 0.267578 c 0,0.241901 0.05318,0.276498 0.519531,0.330078 0.285717,0.03282 0.562947,0.129104 0.617187,0.214844 0.05425,0.08574 0.100655,1.010367 0.101563,2.052734 9.1e-4,1.042366 0.03274,1.927277 0.07227,1.966797 0.03952,0.03952 0.155728,0.07031 0.257813,0.07031 0.252459,0 0.298313,-0.354151 0.314453,-2.421875 0.0094,-1.20887 0.05172,-1.744984 0.142578,-1.802734 0.07116,-0.04523 0.335945,-0.08308 0.587891,-0.08398 0.434205,-0.0016 0.458984,-0.0174 0.458984,-0.316407 0,-0.29591 -0.01156,-0.372002 -0.730469,-0.363281 z m 39.275391,0.002 c -0.257506,-1.95e-4 -0.579117,0.01096 -0.982422,0.0293 l -1.185547,0.05469 -0.03516,0.294921 c -0.03307,0.287408 -0.01839,0.296876 0.490234,0.296876 0.288489,-10e-7 0.583157,0.05777 0.654297,0.128906 0.09109,0.09109 0.128907,0.707536 0.128907,2.083984 0,1.074971 0.03275,1.987824 0.07227,2.027344 0.117193,0.117195 0.449337,0.08026 0.535157,-0.05859 0.04379,-0.07085 0.08174,-0.986749 0.08594,-2.037109 0.0042,-1.050361 0.0468,-1.948944 0.09375,-1.996094 0.04695,-0.04714 0.312701,-0.112441 0.591797,-0.144531 0.452826,-0.05206 0.507812,-0.08734 0.507812,-0.326172 0,-0.257792 -0.184513,-0.35293 -0.957031,-0.353516 z m 10.236326,0.01172 c -0.1187,0.0073 -0.2607,0.06892 -0.37695,0.181641 -0.16739,0.162293 -0.43108,0.802627 -0.51758,1.259765 -0.1133,0.598727 -0.59047,0.669124 -0.78711,0.115235 -0.0584,-0.164543 -0.15554,-0.383393 -0.21484,-0.486328 -0.0592,-0.102939 -0.10742,-0.254208 -0.10743,-0.335938 3e-5,-0.304304 -0.43799,-0.716797 -0.76171,-0.716797 -0.38207,0 -0.386,0.05207 -0.0566,0.716797 0.14223,0.287058 0.28706,0.594674 0.32226,0.683594 0.0352,0.08892 0.10686,0.235298 0.16016,0.324218 0.59002,0.983906 0.76758,1.532964 0.76758,2.38086 0,0.838654 0.008,0.865301 0.24218,0.832031 0.22471,-0.03192 0.24698,-0.100261 0.29688,-0.949219 0.0412,-0.700159 0.12426,-1.06827 0.35547,-1.5625 0.16641,-0.355689 0.34573,-0.744718 0.39843,-0.863281 0.45717,-1.02929 0.54608,-1.27827 0.51368,-1.435547 -0.0215,-0.104251 -0.11567,-0.151827 -0.23438,-0.144531 z m -46.578123,0.002 c -0.926078,-0.0035 -1.285979,0.03377 -1.349609,0.136719 -0.09327,0.150909 -0.12013,4.05177 -0.03125,4.533203 0.03591,0.194517 0.131088,0.301729 0.289062,0.324219 0.129466,0.01843 0.792873,0.0082 1.47461,-0.02148 l 1.240234,-0.05273 0.0332,-0.296875 0.03516,-0.296875 h -1.007812 c -1.274404,0 -1.486328,-0.117796 -1.486328,-0.832031 0,-0.767389 0.174638,-0.892578 1.255859,-0.892578 0.887574,0 0.900391,-0.0036 0.900391,-0.269532 0,-0.265462 -0.01326,-0.269531 -0.88086,-0.269531 -1.040796,0 -1.27539,-0.136085 -1.27539,-0.748047 0,-0.572989 0.138053,-0.652343 1.144531,-0.652343 0.963796,-1e-6 1.226563,-0.05719 1.226563,-0.267579 0,-0.309462 -0.319236,-0.389831 -1.56836,-0.394531 z m 53.773433,0 c -0.27838,-0.0056 -0.6373,-0.0016 -1.00781,0.01367 l -1.34765,0.05664 -0.0332,0.294921 c -0.0325,0.282628 -0.012,0.297229 0.43164,0.298829 0.79607,0.0028 0.78446,-0.02588 0.81836,2.123047 0.0167,1.054513 0.0521,1.976681 0.0781,2.050781 0.0259,0.0741 0.1452,0.134765 0.26562,0.134765 0.21195,0 0.21875,-0.06164 0.21875,-1.986328 0,-2.274307 0.0181,-2.32422 0.81641,-2.324218 0.43553,-10e-7 0.47656,-0.02325 0.47656,-0.265626 0,-0.148302 -0.0822,-0.303412 -0.1875,-0.351562 -0.0519,-0.02372 -0.25091,-0.03935 -0.5293,-0.04492 z m -96.988277,0.0098 c -0.221165,-0.01434 -0.456908,-0.01293 -0.701171,0.0059 l -0.701172,0.05469 -0.0293,2.314453 c -0.01604,1.273086 -0.0056,2.375602 0.02344,2.451172 0.0365,0.09513 0.3119,0.137134 0.892579,0.136718 1.484371,-0.0011 1.940595,-0.262349 2.304687,-1.316406 0.364926,-1.056473 0.207027,-2.322942 -0.390625,-3.136719 -0.206808,-0.281594 -0.734941,-0.466733 -1.398438,-0.509765 z m 69.357422,0 v 2.478515 2.478516 l 1.267578,0.0332 c 0.696558,0.01877 1.282062,0.04584 1.300782,0.05859 0.12473,0.08495 0.451172,-0.246018 0.451172,-0.457031 0,-0.250775 -0.02345,-0.254986 -1.136719,-0.291016 -1.292352,-0.04182 -1.339197,-0.07312 -1.341797,-0.867187 -0.0023,-0.698794 0.221435,-0.841797 1.316406,-0.841797 0.822324,0 0.837891,-0.0052 0.837891,-0.269532 0,-0.266062 -0.01103,-0.269531 -0.908203,-0.269531 -0.682169,0 -0.950941,-0.04078 -1.078125,-0.167969 -0.205356,-0.205359 -0.225004,-0.944999 -0.0293,-1.107421 0.07719,-0.06406 0.575022,-0.129185 1.105469,-0.146485 0.948498,-0.03093 0.964843,-0.03773 0.964843,-0.302734 v -0.267755 l -1.375,-0.03125 z m -37.984375,0.0059 c -0.73617,0 -1.415995,0.02847 -1.509765,0.06445 -0.148162,0.05685 -0.169922,0.369792 -0.169922,2.386719 0,2.02946 0.02271,2.337813 0.177734,2.451172 0.232843,0.17026 2.749857,0.09127 2.865235,-0.08984 0.04356,-0.06837 0.08113,-0.208758 0.08203,-0.3125 0.0015,-0.166923 -0.119926,-0.189453 -1.054688,-0.189453 -0.677845,0 -1.102547,-0.04591 -1.185546,-0.128906 -0.170311,-0.17032 -0.167939,-1.181762 0.0039,-1.410156 0.101966,-0.135523 0.345466,-0.186165 0.998047,-0.208985 0.780367,-0.02729 0.861328,-0.051 0.861328,-0.246094 0,-0.194823 -0.08273,-0.217283 -0.857422,-0.246093 -0.471443,-0.01753 -0.919184,-0.08461 -0.996094,-0.148438 -0.07691,-0.06383 -0.140625,-0.300371 -0.140625,-0.52539 0,-0.741611 0.01359,-0.75 1.197266,-0.75 h 1.066406 v -0.324219 -0.322266 z m 19.992188,0 c -1.404808,0 -1.506593,0.01409 -1.570313,0.214844 -0.102089,0.321652 0.02246,0.431641 0.484375,0.431641 0.723619,0 0.75586,0.09464 0.75586,2.208984 0,1.028343 0.02708,1.940124 0.06055,2.027344 0.05776,0.150513 0.461104,0.136257 0.490234,-0.01758 0.0071,-0.03755 0.02412,-0.927061 0.03711,-1.976563 0.0169,-1.364652 0.06319,-1.95698 0.16211,-2.076172 0.08624,-0.103916 0.315182,-0.166021 0.609375,-0.166015 0.452402,0 0.472656,-0.01418 0.472656,-0.324219 v -0.322266 z m -4.386719,0.0039 c -0.490612,-6.71e-4 -0.944347,0.01821 -1.054687,0.06055 -0.148252,0.05689 -0.169922,0.371873 -0.169922,2.416016 0,1.779746 0.03276,2.36509 0.134765,2.40625 0.513406,0.207164 0.602335,0.04702 0.646485,-1.167969 l 0.02734,-0.753906 0.578126,-0.0332 c 0.478732,-0.02731 0.624442,0.0083 0.835937,0.207031 0.215396,0.202352 0.255859,0.344771 0.255859,0.900391 0,0.711378 0.113695,0.917968 0.50586,0.917968 0.236285,0 0.24774,-0.03659 0.24414,-0.78125 -0.0023,-0.473188 -0.06298,-0.887613 -0.15625,-1.050781 -0.210173,-0.36766 -0.202348,-0.82809 0.01758,-0.951172 0.138403,-0.07746 0.1832,-0.261685 0.1875,-0.787109 0.0071,-0.864028 -0.205021,-1.224069 -0.77539,-1.31836 -0.259177,-0.04285 -0.786732,-0.06378 -1.277344,-0.06445 z m -22.335937,0.0098 c -0.520381,-0.0029 -0.985428,0.01855 -0.986329,0.06641 -0.0038,0.203655 -0.0057,4.623267 -0.002,4.738281 0.0027,0.08412 0.259003,0.143539 0.730469,0.167969 0.40015,0.02074 0.755163,0.04698 0.789063,0.05859 0.0339,0.01161 0.296972,-0.05845 0.583984,-0.15625 0.564314,-0.192281 0.917969,-0.44183 0.917969,-0.646484 0,-0.0708 0.05322,-0.145999 0.11914,-0.167969 0.165932,-0.05531 0.298048,-1.560784 0.210938,-2.402344 -0.05701,-0.55079 -0.139094,-0.780414 -0.400391,-1.103516 -0.186699,-0.230859 -0.466075,-0.436059 -0.642578,-0.474609 -0.224854,-0.04911 -0.799932,-0.0772 -1.320312,-0.08008 z m -3.455079,0.0098 c -0.865935,-0.01967 -1.364086,0.0094 -1.410156,0.08398 -0.05307,0.08592 -0.05989,4.244904 -0.0078,4.773437 0.0045,0.04609 0.675113,0.06923 1.490234,0.05273 l 1.482422,-0.0293 0.0332,-0.296875 0.0332,-0.296875 h -1.037109 c -1.367265,0 -1.455078,-0.05114 -1.455078,-0.861328 0,-0.795786 0.09802,-0.863281 1.285156,-0.863281 0.855462,0 0.871094,-0.0044 0.871094,-0.269532 0,-0.265162 -0.01563,-0.269531 -0.871094,-0.269531 -1.123233,0 -1.285156,-0.0859 -1.285156,-0.689453 0,-0.257422 0.06343,-0.52188 0.140625,-0.585937 0.07719,-0.06406 0.573068,-0.129185 1.103515,-0.146485 0.948498,-0.03093 0.964844,-0.03773 0.964844,-0.302734 v -0.267853 z m -21.30664,0.623047 c 0.510394,0 0.629354,0.04342 0.914062,0.328124 0.386725,0.386722 0.490132,0.831251 0.419922,1.8125 -0.05724,0.800039 -0.193647,1.091342 -0.630859,1.34961 -0.323461,0.19107 -1.032296,0.230184 -1.285156,0.07031 -0.125606,-0.07941 -0.166763,-0.412959 -0.195313,-1.535156 -0.02129,-0.836775 0.01,-1.555419 0.07617,-1.728516 0.104462,-0.273206 0.15993,-0.296874 0.701172,-0.296874 z m 25.193359,0.0039 c 0.280508,0.0082 0.574536,0.06442 0.716797,0.164062 0.927903,0.649928 0.887013,2.753473 -0.06445,3.308594 -0.449507,0.262259 -1.165366,0.251742 -1.310547,-0.01953 -0.161334,-0.301448 -0.146236,-3.164311 0.01758,-3.328125 0.09281,-0.09281 0.360117,-0.133156 0.640625,-0.125 z m 21.488281,0.05078 h 0.748047 c 0.731956,0 0.753197,0.0078 0.955079,0.353516 0.178252,0.305211 0.186654,0.396859 0.07031,0.677734 -0.0741,0.178902 -0.270949,0.396292 -0.4375,0.482422 -0.373881,0.193342 -0.963861,0.203053 -1.214844,0.01953 -0.152131,-0.11122 -0.180757,-0.271504 -0.154297,-0.835937 z m 8.47461,0.507813 c 0.160894,0.05363 0.517384,1.153095 0.521484,1.609374 0.002,0.223318 -0.05423,0.408561 -0.130859,0.431641 -0.205358,0.06185 -0.877862,-0.02108 -0.980469,-0.121094 -0.111025,-0.108221 0.109907,-1.23683 0.324219,-1.654297 0.08563,-0.166805 0.205205,-0.285766 0.265625,-0.265624 z m -47.050781,0.03906 c 0.224287,0.02043 0.588913,0.965309 0.558593,1.447266 -0.03042,0.483658 -0.03298,0.483695 -0.466796,0.515625 -0.51812,0.03813 -0.589938,-0.01643 -0.585938,-0.453125 0.0038,-0.418844 0.364978,-1.521526 0.494141,-1.509766 z m -12.13086,0.04492 c 0.170054,0 0.576356,1.52413 0.457031,1.714844 -0.23634,0.377743 -1.001953,0.219372 -1.001953,-0.207032 0,-0.283539 0.442339,-1.507812 0.544922,-1.507812 z"
           id="path234"
           inkscape:connector-curvature="0" />
        <path
           id="path1050"
           d="m 107.50977,64.384766 c -0.43981,0.0086 -0.82813,0.02827 -1.10157,0.06055 -1.4299,0.16878 -2.36425,0.318762 -2.74609,0.439454 -0.17927,0.05666 -0.69016,0.206609 -1.13477,0.333984 -0.44461,0.127375 -0.85385,0.274092 -0.91015,0.326172 -0.0563,0.05208 -0.16775,0.0957 -0.24805,0.0957 -0.16666,0 -2.180518,0.977143 -2.667968,1.294922 -0.177844,0.115942 -0.395455,0.244546 -0.484375,0.285156 -0.913592,0.41723 -3.410296,2.801459 -4.564453,4.359375 -0.887872,1.198476 -1.071544,1.505713 -1.833985,3.060547 -0.85778,1.749259 -1.326092,2.958035 -1.52539,3.933594 -0.04239,0.207485 -0.109025,0.425095 -0.146485,0.484375 -0.0839,0.132789 -0.285763,1.145023 -0.527343,2.640625 -0.253866,1.571937 -0.251234,6.4741 0.0039,8.03125 0.23006,1.404083 0.62843,3.165469 0.830078,3.664062 0.04795,0.118563 0.172212,0.457493 0.275391,0.753907 0.383795,1.102551 1.502546,3.428733 1.746093,3.630859 0.0754,0.06257 0.136719,0.177186 0.136719,0.253906 0,0.07673 0.03757,0.156021 0.08203,0.175781 0.04446,0.01976 0.264862,0.305703 0.490235,0.636719 0.225374,0.331015 0.557805,0.768184 0.740234,0.970703 1.782696,1.979013 2.598826,2.670113 4.476563,3.789063 1.021966,0.609 1.425098,0.81243 2.187496,1.10351 0.26677,0.10184 0.63075,0.24552 0.80859,0.32032 0.83628,0.35174 2.20499,0.66425 4.04102,0.92187 1.74955,0.24548 3.28804,0.25865 4.95898,0.043 1.56462,-0.20194 3.80021,-0.71873 4.27735,-0.98828 0.12949,-0.0731 0.29047,-0.13281 0.35937,-0.13281 0.17379,0 2.69465,-1.26199 2.91016,-1.45703 0.0966,-0.0874 0.22847,-0.16016 0.29297,-0.16016 0.0645,0 0.1345,-0.0356 0.15429,-0.0801 0.0198,-0.0445 0.24337,-0.22155 0.49805,-0.39453 0.42555,-0.28903 2.01013,-1.61907 2.39258,-2.00781 0.63401,-0.64444 2.32563,-2.815172 2.51563,-3.228517 0.0408,-0.08892 0.16755,-0.308484 0.28124,-0.486328 0.17559,-0.274489 0.49293,-0.839339 0.87305,-1.554688 0.67758,-1.275162 1.44919,-3.554767 1.86328,-5.503906 0.4137,-1.947108 0.50316,-2.876722 0.50391,-5.234375 6.9e-4,-2.278587 -0.0315,-2.639116 -0.43164,-4.84375 -0.0646,-0.355689 -0.14388,-0.792859 -0.17578,-0.970703 -0.095,-0.529048 -0.68521,-2.454049 -0.85352,-2.783203 -0.0858,-0.167828 -0.15625,-0.366456 -0.15625,-0.441407 0,-0.217674 -1.20039,-2.519789 -1.77539,-3.404296 -1.63251,-2.511268 -4.21317,-4.784265 -6.79297,-5.982422 -0.47426,-0.22026 -0.95382,-0.449003 -1.0664,-0.507813 -0.60034,-0.313602 -2.59627,-0.875158 -3.78321,-1.064453 -0.35569,-0.05673 -0.84566,-0.147985 -1.08789,-0.203125 -0.57843,-0.131653 -2.36612,-0.205456 -3.68554,-0.179687 z m -73.027348,0.224609 c -1.190422,-0.02067 -2.375556,0.03339 -3.039063,0.167969 -0.237126,0.0481 -0.697389,0.140168 -1.023437,0.205078 -0.326049,0.06491 -0.690031,0.159737 -0.808594,0.210937 -0.118563,0.0512 -0.505639,0.181363 -0.861328,0.289063 -0.355689,0.1077 -0.767813,0.256751 -0.916016,0.332031 -0.148204,0.07528 -0.632936,0.313531 -1.076172,0.529297 -0.691563,0.336652 -2.534873,1.469748 -2.697265,1.658203 -0.02964,0.0344 -0.368576,0.328439 -0.753906,0.652344 -0.900203,0.756704 -1.812404,1.693763 -2.574219,2.644531 -0.332501,0.414971 -0.632516,0.778954 -0.666016,0.808594 -0.0335,0.02964 -0.248631,0.368576 -0.478515,0.753906 -0.229884,0.38533 -0.445256,0.724266 -0.478516,0.753906 -0.142415,0.126911 -1.392744,2.575979 -1.623047,3.179688 -0.04523,0.118563 -0.144063,0.361217 -0.220703,0.539062 -0.226213,0.524931 -0.52745,1.39157 -0.53125,1.529297 -0.0019,0.07024 -0.05923,0.264758 -0.128906,0.431641 -0.198047,0.474345 -0.702635,2.662509 -0.802735,3.482422 -0.02533,0.207485 -0.100045,0.839168 -0.166015,1.402344 -0.276444,2.359977 0.04289,6.804225 0.61914,8.621093 0.08461,0.266767 0.152638,0.56514 0.152344,0.66211 -2.93e-4,0.09697 0.0716,0.314575 0.160156,0.484375 0.08856,0.169801 0.161743,0.415027 0.16211,0.544922 3.7e-4,0.129885 0.04495,0.264296 0.09766,0.296874 0.05271,0.03258 0.127889,0.191885 0.167969,0.355469 0.04008,0.163585 0.321211,0.806445 0.625,1.427735 1.679596,3.435014 4.363093,6.140744 7.572265,7.638674 0.414971,0.19369 0.890766,0.42271 1.058594,0.50781 0.167829,0.0851 0.353723,0.1543 0.414063,0.1543 0.06034,0 0.264367,0.0648 0.451172,0.14453 1.164924,0.49719 3.066359,0.84946 5.835937,1.07812 0.726562,0.06 4.139218,-0.0232 5.550781,-0.13476 2.285907,-0.18065 3.40065,-0.3718 5.125,-0.88086 0.180957,-0.0534 0.544939,-0.14272 0.808594,-0.19922 0.263656,-0.0565 0.698077,-0.15952 0.964844,-0.22852 1.172977,-0.30331 1.603572,-0.41864 2.234375,-0.59765 l 0.671875,-0.19141 0.0332,-6.150389 c 0.03802,-6.994543 0.03148,-6.928105 0.800781,-7.675782 0.265557,-0.258091 0.538762,-0.468427 0.607422,-0.46875 0.06866,-3.65e-4 0.253834,-0.06976 0.412109,-0.152343 0.158275,-0.08258 0.785297,-0.203462 1.392579,-0.269532 0.607277,-0.06606 1.165324,-0.17025 1.240234,-0.232422 0.0802,-0.06656 0.128447,-0.321609 0.117187,-0.61914 l -0.01953,-0.50586 -8.810547,-0.02734 -8.8125,-0.02734 v 0.59375 0.59375 h 0.621094 c 0.741909,1.06e-4 2.07054,0.254504 2.667969,0.511719 0.237126,0.102092 0.590169,0.35257 0.785156,0.55664 0.860963,0.901067 0.992188,1.783035 0.992188,6.634766 0,4.345123 -0.02749,4.535543 -0.785157,5.400393 -0.716153,0.81746 -1.644333,1.1421 -3.884765,1.36328 -1.493049,0.1474 -4.308339,-0.1324 -4.648438,-0.46289 -0.05632,-0.0547 -0.169023,-0.0996 -0.251953,-0.0996 -0.374453,0 -1.689425,-0.78969 -2.371094,-1.42383 -0.842545,-0.78381 -1.597534,-1.884068 -2.054687,-2.996093 -0.134038,-0.326048 -0.284718,-0.690031 -0.335938,-0.808594 -0.26567,-0.614984 -0.585589,-1.816739 -0.753906,-2.833984 -0.052,-0.314254 -0.144348,-0.799563 -0.205078,-1.078125 -0.560989,-2.572973 -0.669756,-11.173076 -0.181641,-14.302735 0.338547,-2.170664 0.755352,-3.864582 1.201172,-4.867187 0.08307,-0.186804 0.152344,-0.365314 0.152344,-0.396484 0,-0.261202 1.113294,-2.332725 1.634765,-3.041016 0.572315,-0.777352 2.344964,-2.419922 2.611329,-2.419922 0.02865,0 0.237674,-0.108804 0.46289,-0.242187 1.048303,-0.620857 2.448269,-0.94336 4.097657,-0.94336 2.023811,0 4.070047,0.54657 6.175781,1.652344 1.115934,0.586005 2.666295,1.733718 3.394531,2.511719 1.171726,1.251797 1.776588,2.103715 2.369141,3.330078 0.267583,0.553797 0.486328,1.078579 0.486328,1.167969 0,0.08939 0.04213,0.188793 0.09375,0.220703 0.05163,0.03191 0.125009,0.216258 0.162109,0.410156 0.0371,0.193899 0.149112,0.633871 0.25,0.976563 0.201781,0.685394 0.462587,0.858096 0.957031,0.632812 l 0.261719,-0.119141 v -6.296875 c 0,-6.96531 0.05857,-6.427734 -0.697266,-6.427734 -0.324739,0 -0.362517,0.03647 -0.429687,0.394531 -0.231885,1.236056 -1.592056,2.075202 -2.769531,1.708985 -0.257178,-0.07999 -0.661312,-0.239466 -0.898438,-0.355469 -1.528573,-0.747781 -2.85108,-1.316406 -3.064453,-1.316406 -0.09933,0 -0.226883,-0.04568 -0.283203,-0.101563 -0.05632,-0.05588 -0.296077,-0.150707 -0.533203,-0.210937 -0.237126,-0.06023 -0.69739,-0.188497 -1.023438,-0.285157 -0.560432,-0.166147 -0.818221,-0.230829 -1.916015,-0.482422 -0.689801,-0.158079 -1.88575,-0.252762 -3.076172,-0.273437 z m 35.404297,0.492187 c -12.326753,10e-7 -16.064623,0.02947 -16.164063,0.128907 -0.07114,0.07114 -0.128906,0.335022 -0.128906,0.585937 0,0.55289 -0.0238,0.542416 1.617188,0.634766 2.694881,0.15166 3.882816,0.812455 4.5,2.5 0.176369,0.482254 0.1875,1.515823 0.1875,15.896484 -10e-7,12.160974 -0.02824,15.409104 -0.134766,15.515624 -0.0741,0.0741 -0.134766,0.22543 -0.134766,0.33594 0,0.35634 -0.501178,1.30584 -0.912109,1.72656 -0.476266,0.48762 -1.109986,0.90313 -1.53125,1.00391 -0.167949,0.0402 -0.356062,0.11221 -0.419922,0.16211 -0.125714,0.0982 -1.295825,0.29407 -2.417969,0.40429 l -0.699218,0.0684 -0.03516,0.4043 -0.0332,0.4043 h 16.228516 16.228515 l -0.002,-5.146488 c -8.1e-4,-2.830691 -0.03187,-5.258315 -0.06836,-5.394531 -0.05982,-0.223369 -0.119473,-0.243795 -0.617188,-0.214843 -0.547523,0.03184 -0.552203,0.03398 -0.576171,0.408203 -0.219837,3.432271 -0.676397,4.85581 -1.96875,6.144529 -0.38641,0.38533 -0.920734,0.8066 -1.1875,0.93555 -0.871074,0.42107 -1.268651,0.57422 -1.492188,0.57422 -0.120926,0 -0.24673,0.0457 -0.28125,0.10156 -0.03452,0.0559 -0.29206,0.12876 -0.572266,0.16406 -0.280205,0.0353 -0.702754,0.11649 -0.9375,0.17969 -1.028923,0.27688 -7.616949,0.52051 -8.443359,0.3125 -0.739401,-0.18612 -1.372214,-0.5377 -1.570313,-0.87305 -0.288401,-0.48823 -0.472172,-1.59379 -0.382812,-2.312497 0.04412,-0.354813 0.08484,-3.513904 0.08984,-7.021484 0.005,-3.50758 0.03824,-6.455058 0.07422,-6.548828 0.05473,-0.14262 0.28017,-0.171022 1.375,-0.169922 2.819819,0.0027 4.650235,0.885289 5.675782,2.734375 0.234312,0.422473 0.428087,0.865812 0.429687,0.984375 0.0016,0.118563 0.0699,0.409358 0.152344,0.646484 0.08452,0.243105 0.178544,1.109915 0.214844,1.988281 0.03541,0.856764 0.104237,1.598378 0.154297,1.648438 0.05006,0.05002 0.451757,0.07619 0.890625,0.05859 l 0.796875,-0.03125 0.01953,-8.837891 c 0.01083,-5.002602 -0.02349,-8.944764 -0.07813,-9.082031 -0.08588,-0.215795 -0.170904,-0.241735 -0.773438,-0.240235 -0.372419,9.1e-4 -0.729725,0.03848 -0.794922,0.08203 -0.07426,0.04962 -0.146136,0.813808 -0.191406,2.046875 -0.07336,1.998387 -0.07891,2.025012 -0.615234,3.205078 -0.473729,1.042332 -1.569963,1.757305 -3.279297,2.138672 -1.062919,0.237144 -3.664361,0.357743 -3.878906,0.179687 -0.142651,-0.118393 -0.162649,-1.005187 -0.16211,-7.046875 3.84e-4,-4.422066 0.04011,-7.056052 0.111329,-7.3125 0.270373,-0.973525 0.934578,-1.325582 2.771484,-1.466797 1.472003,-0.113163 4.57213,0.02793 5.492187,0.25 0.367872,0.08879 0.77428,0.16211 0.902344,0.16211 0.763134,0 3.419331,1.143787 4.332031,1.865234 1.08348,0.856442 1.592568,1.484994 2.220704,2.738281 0.469841,0.937456 0.627299,1.484918 0.769531,2.671875 0.174597,1.457046 0.120735,1.364052 0.779297,1.326172 l 0.566406,-0.0332 0.02734,-5.443359 c 0.01438,-2.993716 -0.0013,-5.600304 -0.0332,-5.792969 l -0.05664,-0.34961 z m 38.736331,1.205079 c 0.46114,0.0086 0.92782,0.05266 1.39648,0.134765 2.09369,0.366814 3.54625,1.283831 4.90039,3.091797 0.89127,1.189961 1.9514,3.454677 2.26367,4.837891 0.12665,0.56102 0.29697,1.28557 0.43164,1.832031 0.0658,0.266767 0.16225,0.859933 0.21485,1.318359 0.0526,0.458426 0.12455,0.87998 0.16015,0.9375 0.26606,0.430469 0.43732,8.462366 0.24219,11.378907 -0.17172,2.566604 -0.62609,5.093568 -1.26758,7.064453 -1.34684,4.137966 -4.13271,6.800186 -7.48437,7.152346 -1.74734,0.18359 -3.03263,0.12318 -3.98828,-0.19141 -0.67515,-0.22226 -1.88672,-0.83187 -1.88672,-0.94922 0,-0.0484 -0.067,-0.0879 -0.14844,-0.0879 -0.41859,0 -2.35026,-2.43484 -2.86523,-3.611326 -0.12974,-0.296407 -0.29951,-0.685431 -0.37891,-0.863282 -0.0794,-0.177841 -0.226741,-0.589966 -0.326171,-0.916015 -0.09943,-0.326048 -0.224434,-0.688078 -0.277344,-0.806641 -0.31102,-0.696904 -0.884761,-3.895947 -1.074219,-5.982422 C 98.484016,90.0833 98.41169,88.167107 98.375,86.388662 c -0.08634,-4.185303 0.142761,-7.314231 0.744141,-10.132813 0.298376,-1.398447 0.412905,-1.830742 0.509765,-1.933593 0.05303,-0.05632 0.09729,-0.202692 0.09766,-0.324219 3.66e-4,-0.121527 0.07355,-0.359497 0.16211,-0.529297 0.08856,-0.169801 0.160154,-0.354396 0.160154,-0.410156 0,-0.0943 0.2725,-0.755638 0.57031,-1.382813 0.18683,-0.393462 0.85544,-1.554287 0.93164,-1.617187 0.0359,-0.02964 0.15552,-0.194456 0.26563,-0.367188 0.53086,-0.832855 1.85136,-1.98782 2.83398,-2.480468 1.24889,-0.626149 2.58922,-0.930112 3.97266,-0.904297 z m 18.57422,35.611329 c -0.0959,-0.0143 -0.21072,-0.0131 -0.33985,0.008 -0.32208,0.0523 -0.41895,0.12308 -0.47265,0.34766 -0.10288,0.43009 -0.359,0.88917 -0.46094,0.82617 -0.05,-0.0309 -0.1211,-0.21826 -0.15821,-0.41602 -0.10745,-0.57272 -0.39667,-0.81046 -0.88867,-0.73047 -0.42331,0.0688 -0.63512,0.38324 -0.33593,0.49805 0.1184,0.0454 0.12974,0.20291 0.0566,0.78125 -0.0504,0.39832 -0.1336,0.85604 -0.1836,1.01563 -0.05,0.15958 -0.0594,0.32147 -0.0215,0.35937 0.0259,0.0259 0.16291,0.0281 0.32422,0.0195 0.11071,0.0246 0.2283,0.0252 0.36523,-0.0273 0.003,-0.001 0.005,-0.003 0.008,-0.004 0.23609,-0.0285 0.50539,-0.0587 0.63868,-0.0644 0.24846,-0.0102 0.31345,-0.0792 0.40625,-0.42383 0.0609,-0.22611 0.15909,-0.43901 0.21679,-0.47461 0.0577,-0.0356 0.10456,-0.1709 0.10547,-0.30078 0.001,-0.19201 0.0225,-0.20761 0.10742,-0.0762 0.16115,0.24928 0.12689,0.77099 -0.0644,0.98242 -0.2416,0.26696 -0.10207,0.41992 0.38477,0.41992 0.66752,0 0.76508,-0.0687 0.58593,-0.41211 -0.18635,-0.35718 -0.19912,-1.56399 -0.0195,-1.85156 0.15419,-0.24689 0.0338,-0.43378 -0.2539,-0.47656 z m -4.29688,0.0449 c -0.90118,0 -1.14876,0.0866 -1.17578,0.40039 -0.001,0.0131 -0.0117,0.0213 -0.0117,0.0352 0,0.002 0.002,0.003 0.002,0.006 -7e-5,0.005 -0.002,0.007 -0.002,0.0117 0,0.0853 0.0562,0.13526 0.12695,0.16406 0.0344,0.0149 0.0691,0.0209 0.11133,0.0195 0.0381,-7.4e-4 0.0741,4e-5 0.11328,-0.0137 0.0548,-0.0192 0.11013,-0.0496 0.15625,-0.0957 0.0574,-0.0574 0.10723,-0.0813 0.15039,-0.0801 0.0324,0.008 0.0621,0.0345 0.0996,0.0937 0.13287,0.20947 0.13358,1.41552 0.002,1.76171 -0.0341,0.0895 -0.0446,0.15417 -0.043,0.20508 0.002,0.0578 0.0215,0.0974 0.0703,0.11719 0.0118,0.005 0.0695,0.005 0.0898,0.01 0.12533,0.0379 0.32028,0.0567 0.51368,0.0527 l 0.35156,0.008 -0.0156,-0.0586 c 0.007,-0.004 0.0269,-0.005 0.0312,-0.01 0.0375,-0.0374 -0.003,-0.16902 -0.0898,-0.29296 -0.01,-0.0138 -0.0145,-0.0616 -0.0234,-0.082 -0.0433,-0.22104 -0.0819,-0.63194 -0.082,-1.01172 -2.3e-4,-0.69704 0.0176,-0.75083 0.2168,-0.71093 0.0618,0.0124 0.10096,0.0119 0.15429,0.0195 0.034,0.0138 0.0657,0.0196 0.0996,0.0371 0.29963,0.15497 0.31811,0.15152 0.37891,-0.0762 0.003,-0.01 -2e-5,-0.0162 0.002,-0.0254 0.0229,-0.0345 0.0282,-0.0786 0.0117,-0.13477 -0.001,-0.0102 -0.009,-0.0177 -0.0117,-0.0273 -0.0133,-0.0351 -0.0141,-0.0628 -0.041,-0.10547 -0.0379,-0.0601 -0.13434,-0.10477 -0.30274,-0.13672 -0.0219,-0.005 -0.0365,-0.0128 -0.0605,-0.0176 -0.0106,-0.002 -0.0187,-0.0119 -0.0293,-0.0137 -0.009,-0.002 -0.018,0.003 -0.0273,0.002 -0.192,-0.0312 -0.42704,-0.0508 -0.76563,-0.0508 z m 2.36914,1.72461 c 0.0593,0 0.10857,0.0375 0.10938,0.082 8e-4,0.0445 0.0307,0.18889 0.0664,0.32227 0.0478,0.17832 0.0187,0.24218 -0.10937,0.24218 -0.12174,0 -0.17383,-0.0963 -0.17383,-0.32226 0,-0.17784 0.0481,-0.32422 0.10742,-0.32422 z"
           style="fill:#a0915f;fill-opacity:1;stroke:#a0915f;stroke-width:0.10778454;stroke-opacity:1"
           inkscape:connector-curvature="0" />
      </g>
    </g>
  </g>
</svg>
