<?xml version="1.0" encoding="UTF-8" standalone="no"?>
<!-- Created with Inkscape (http://www.inkscape.org/) -->

<svg
   xmlns:dc="http://purl.org/dc/elements/1.1/"
   xmlns:cc="http://creativecommons.org/ns#"
   xmlns:rdf="http://www.w3.org/1999/02/22-rdf-syntax-ns#"
   xmlns:svg="http://www.w3.org/2000/svg"
   xmlns="http://www.w3.org/2000/svg"
   xmlns:sodipodi="http://sodipodi.sourceforge.net/DTD/sodipodi-0.dtd"
   xmlns:inkscape="http://www.inkscape.org/namespaces/inkscape"
   version="1.1"
   id="svg2"
   width="502.77509"
   height="138.42021"
   viewBox="0 0 502.7751 138.42021"
   sodipodi:docname="logo1.svg"
   inkscape:version="0.92.4 (5da689c313, 2019-01-14)">
  <metadata
     id="metadata8">
    <rdf:RDF>
      <cc:Work
         rdf:about="">
        <dc:format>image/svg+xml</dc:format>
        <dc:type
           rdf:resource="http://purl.org/dc/dcmitype/StillImage" />
        <dc:title></dc:title>
      </cc:Work>
    </rdf:RDF>
  </metadata>
  <defs
     id="defs6" />
  <sodipodi:namedview
     pagecolor="#ffffff"
     bordercolor="#666666"
     borderopacity="1"
     objecttolerance="10"
     gridtolerance="10"
     guidetolerance="10"
     inkscape:pageopacity="0"
     inkscape:pageshadow="2"
     inkscape:window-width="1600"
     inkscape:window-height="837"
     id="namedview4"
     showgrid="false"
     inkscape:zoom="1.1447728"
     inkscape:cx="162.572"
     inkscape:cy="-86.575422"
     inkscape:window-x="-8"
     inkscape:window-y="-8"
     inkscape:window-maximized="1"
     inkscape:current-layer="g882" />
  <g
     id="g4304"
     transform="translate(342.69316,-3.077603)">
    <g
       id="g4343"
       transform="matrix(0.6887238,0,0,0.6887238,-2.750104e-7,157.74828)">
      <g
         id="g4404">
        <g
           id="g882"
           transform="matrix(0.77903561,0,0,0.77903561,-499.37329,-102.9728)">
          <g
             id="g918"
             transform="matrix(0.82157214,0,0,0.82157214,201.05036,-4.835563)">
            <g
               transform="matrix(0.60262324,0,0,-0.58094476,-260.53361,152.42894)"
               id="g3910">
              <path
                 transform="translate(30.908,309.0299)"
                 d="m 0,0 c 0,149.251 121.013,270.264 270.262,270.264 149.25,0 270.264,-121.013 270.264,-270.264 0,-149.25 -121.014,-270.262 -270.264,-270.262 C 121.013,-270.262 0,-149.25 0,0"
                 style="fill:#000000;fill-opacity:1;fill-rule:nonzero;stroke:none"
                 id="path22"
                 inkscape:connector-curvature="0" />
              <g
                 id="g24"
                 transform="translate(405.6829,391.9049)">
                <path
                   d="m 0,0 c -4.763,1.051 -9.038,5.4 -9.038,5.4 l 1.801,5.4 5.437,3.6 c 0,0 5.4,-0.449 7.2,-1.8 C 7.2,11.25 9,5.4 9,5.4 L 4.95,1.8 C 4.95,1.8 4.05,-0.899 0,0 m 30.601,30.637 7.236,10.802 h 9.002 c 0,0 7.649,-11.25 7.649,-13.052 0,-1.8 -5.85,-10.386 -5.85,-10.386 L 36.9,18.45 Z m 0,-90.075 c 6.112,-3.9 12.599,-3.825 18.9,-3.75 10.538,0.114 20.661,3.414 27.936,11.851 5.888,8.549 6.04,13.876 9.488,23.549 2.025,5.663 4.5,8.888 4.5,8.888 0,0 2.025,-7.65 1.801,-16.686 -0.151,-6.039 -1.238,-12.413 -4.951,-18.452 -7.2,-11.737 -13.987,-16.236 -18.936,-17.137 -4.951,-0.899 -18.9,-2.699 -27.902,1.35 -7.049,3.187 -10.836,10.387 -10.836,10.387 M -9.038,95.475 -52.274,32.438 -21.638,-34.237 32.4,-102.713 73.837,-117.112 126.112,-54.038 118.912,0 64.838,75.676 Z"
                   style="fill:#f7b210;fill-opacity:1;fill-rule:nonzero;stroke:none"
                   id="path26"
                   inkscape:connector-curvature="0" />
              </g>
              <g
                 id="g28"
                 transform="translate(84.9827,291.0299)">
                <path
                   d="m 0,0 5.4,144.114 18.001,21.637 70.274,-52.276 18.001,106.763 3.6,-31.088 9.036,16.238 1.8,-14.438 12.601,16.238 2.1,-189.489 L 39.637,95.476 C 39.637,95.476 0,0.9 0,0"
                   style="fill:#f7b210;fill-opacity:1;fill-rule:nonzero;stroke:none"
                   id="path30"
                   inkscape:connector-curvature="0" />
              </g>
              <g
                 id="g32"
                 transform="translate(241.6956,507.2174)">
                <path
                   d="m 0,0 121.95,34.237 c 0,0 -24.637,-14.436 -22.837,-14.436 1.799,0 16.2,-1.8 16.2,-1.8 L 86.512,0 l 32.4,1.8 -86.475,-50.436 v -3.602 l 93.713,5.402 -93.713,-66.677 v -19.798 l 70.577,8.699 c 0,0 -23.288,-13.237 -21.903,-12.338 1.353,0.937 17.101,0.638 17.101,0.638 l -9.899,-6.038 h 17.099 L 1.838,-216.187 Z"
                   style="fill:#f7b210;fill-opacity:1;fill-rule:nonzero;stroke:none"
                   id="path34"
                   inkscape:connector-curvature="0" />
              </g>
              <g
                 id="g36"
                 transform="translate(232.6956,235.1549)">
                <path
                   d="m 0,0 -29.774,65.176 c 0,0 -16.5,14.888 -45.788,13.837 -6.451,-0.225 -59.738,-0.638 -63.151,-82.613 -3.038,-73.312 45.826,-107.963 45.826,-107.963 0,0 23.662,-17.474 41.175,-28.087 17.512,-10.649 49.912,-26.1 49.912,-26.1 L -27.001,-5.398 -81.075,-21.6 l 10.838,-1.8 -18.038,-14.438 16.199,-1.799 -10.799,-10.801 28.837,-1.799 10.8,-41.437 c 0,0 -21.975,6.9 -40.463,25.274 -15.148,15.075 -27.336,39.639 -28.011,59.401 -0.638,19.761 8.624,44.7 36.037,45.037 C -48.224,36.375 0,0 0,0"
                   style="fill:#1082ce;fill-opacity:1;fill-rule:nonzero;stroke:none"
                   id="path38"
                   inkscape:connector-curvature="0" />
              </g>
              <g
                 id="g40"
                 transform="translate(218.2962,190.1178)">
                <path
                   d="m 0,0 102.675,140.549 64.874,-52.275 c 0,0 -8.101,2.065 -8.999,1.8 -0.901,-0.224 14.399,-21.599 14.399,-21.599 l -19.8,7.201 10.8,-14.4 -66.675,23.399 -5.399,-5.4 43.237,-72.076 -88.275,3.6 48.639,-93.674 -18.002,3.601 8.476,-21.189 -15.225,13.238 12.149,-22.687 z"
                   style="fill:#1082ce;fill-opacity:1;fill-rule:nonzero;stroke:none"
                   id="path42"
                   inkscape:connector-curvature="0" />
              </g>
              <g
                 id="g44"
                 transform="translate(371.4456,148.6803)">
                <path
                   d="M 0,0 5.4,9 21.6,16.199 34.237,0 h 10.8 l 14.401,5.4 10.799,-23.4 -27,-12.637 H 30.601 l -5.402,10.799 H 7.2 Z m 93.675,48.637 c 0,0 6.562,2.926 7.2,1.801 0.637,-1.087 9,-1.801 9,-1.801 v -9 l -7.2,-5.4 -9,5.4 z m -37.836,9.002 -7.202,10.836 7.202,14.4 18.036,1.801 5.401,-10.801 -5.401,-14.437 z m -81.077,-34.202 -1.799,-64.875 28.838,-23.437 50.773,10.687 84.338,73.987 5.4,91.914 H 45.037 Z"
                   style="fill:#1082ce;fill-opacity:1;fill-rule:nonzero;stroke:none"
                   id="path46"
                   inkscape:connector-curvature="0" />
              </g>
            </g>
            <g
               transform="matrix(2.2360166,0,0,2.3429807,77.196093,-984.00734)"
               id="g4366">
              <g
                 id="g4003"
                 transform="matrix(1.0498714,0,0,1.0253466,-750.42904,108.22252)"
                 style="fill:#000000">
                <g
                   id="g3995"
                   style="fill:#000000"
                   transform="matrix(0.84431293,0,0,0.84431293,111.28187,53.170033)">
                  <g
                     id="g80"
                     transform="matrix(0.31791248,0,0,-0.31791248,883.26269,226.40482)"
                     style="fill:#000000">
                    <path
                       d="m 0,0 h -0.394 v 11.022 c 32.483,0.787 59.257,-8.463 79.73,-27.364 20.868,-19.487 31.299,-43.704 31.299,-72.838 0,-25.001 -7.869,-46.853 -23.424,-65.949 C 66.54,-180.134 37.404,-192.73 -0.394,-192.73 v 15.158 c 10.434,0 19.49,2.756 26.38,7.478 8.859,5.906 14.568,15.555 19.49,28.745 4.921,12.993 8.268,29.727 8.268,50.791 0,25.199 -2.559,43.901 -7.678,56.304 C 41.145,-21.655 34.648,-12.993 26.97,-7.68 19.096,-2.562 10.04,0 0,0 m -0.394,0 c -18.702,-0.197 -32.679,-9.059 -42.326,-26.776 -8.071,-14.371 -12.008,-35.433 -12.008,-62.6 0,-32.483 5.709,-56.894 17.914,-72.25 8.662,-10.827 21.065,-15.946 36.42,-15.946 v -15.158 h -0.197 c -37.798,0 -67.13,12.006 -87.801,36.023 -16.34,18.902 -24.608,41.344 -24.608,67.331 0,29.135 10.63,53.547 31.892,72.837 21.261,19.492 47.444,28.745 78.549,27.561 h 2.165 z"
                       style="fill:#000000;fill-opacity:1;fill-rule:nonzero;stroke:none"
                       id="path82"
                       inkscape:connector-curvature="0" />
                  </g>
                </g>
                <path
                   inkscape:connector-curvature="0"
                   id="path86"
                   style="fill:#000000;fill-opacity:1;fill-rule:nonzero;stroke:none;stroke-width:0.26841742"
                   d="m 798.58916,245.22537 v 21.08365 h 1.16248 c 3.64616,0 5.07279,-1.05642 6.71102,-3.22346 1.6383,-2.11303 2.69482,-5.23134 3.1176,-9.40551 h 1.63814 v 28.00655 h -1.63814 c -0.31686,-3.06556 -1.05686,-5.54977 -2.11371,-7.50405 -1.10956,-1.95483 -2.37803,-3.27562 -3.80455,-3.91005 -1.42677,-0.68753 -2.32522,-1.00354 -5.07284,-1.00354 v 15.69349 c 0,2.95893 0.15857,4.75548 0.42258,5.38996 0.26421,0.68703 0.7399,1.21553 1.47969,1.63862 0.73976,0.42189 1.90237,0.63323 3.5934,0.63323 h 3.43457 c 5.33704,0 6.8692,-1.16257 10.09285,-3.48698 3.22326,-2.27221 5.44256,-4.91454 6.86961,-9.66999 h 1.58518 l -2.48355,16.11615 h -46.9767 v -1.47887 h 1.95514 c 1.63828,0 3.01228,-0.26444 4.01599,-0.7932 0.7398,-0.36934 1.32116,-1.00354 1.69109,-1.90168 0.31712,-0.63499 0.47564,-2.27241 0.47564,-4.96729 v -35.1936 c 0,-2.37697 -0.0554,-3.85777 -0.21144,-4.43777 -0.2642,-0.89832 -0.79272,-1.63856 -1.58523,-2.11497 -1.05687,-0.73987 -2.53644,-1.10897 -4.38605,-1.10897 h -1.95514 v -1.47906 h 48.19202 v 15.79839 h -1.58518 c -0.84558,-3.85676 -1.95522,-6.60461 -3.48762,-8.29459 -1.47954,-1.69141 -3.54056,-2.90688 -6.28831,-3.69912 -1.58526,-0.47592 -4.54424,-0.68734 -8.93015,-0.68734 z" />
                <g
                   transform="matrix(0.26841788,0,0,-0.26841788,736.12998,242.10803)"
                   id="g88"
                   style="fill:#000000">
                  <path
                     inkscape:connector-curvature="0"
                     id="path90"
                     style="fill:#000000;fill-opacity:1;fill-rule:nonzero;stroke:none"
                     d="m 0,0 110.441,-123.631 v 85.639 c 0,12.006 -1.772,20.077 -5.709,24.214 -5.315,5.707 -11.615,8.465 -24.214,8.266 V 0 h 66.737 v -5.512 c -9.45,-0.985 -11.025,-2.559 -14.175,-4.132 -3.346,-1.774 -5.906,-4.53 -7.677,-8.468 -1.772,-3.74 -2.756,-10.431 -2.756,-19.88 v -165.76 h -5.513 l -151.585,165.76 v -126.584 c 0,-11.418 2.953,-19.099 8.859,-23.23 5.906,-3.94 12.599,-5.909 20.277,-5.909 H 0 v -5.509 h -79.533 v 5.509 c 12.402,0 20.867,2.363 25.789,6.694 4.725,4.331 7.284,11.812 7.284,22.445 v 140.561 l -4.922,5.313 c -4.724,5.318 -8.859,8.662 -12.402,10.436 -3.741,1.575 -0.394,2.557 -7.087,2.754 V 0 Z" />
                </g>
              </g>
              <g
                 transform="matrix(0.30059162,0,0,-0.28551607,-209.47438,490.45923)"
                 id="g4011"
                 style="fill:#000000">
                <g
                   transform="translate(1496.2117,471.5432)"
                   id="g76"
                   style="fill:#000000">
                  <path
                     inkscape:connector-curvature="0"
                     id="path78"
                     style="fill:#000000;fill-opacity:1;fill-rule:nonzero;stroke:none"
                     d="m 0,0 v -70.281 h -5.512 c -6.497,19.293 -16.34,33.861 -29.527,43.702 -12.996,10.042 -20.871,15.161 -36.423,15.161 -14.765,0 -27.167,-4.331 -37.01,-12.599 -10.043,-8.468 -16.931,-20.081 -21.065,-35.042 -4.134,-14.962 -6.1,-30.317 -6.1,-46.067 0,-19.095 2.166,-35.829 6.691,-50.203 4.528,-14.565 11.812,-22.24 21.852,-28.939 10.04,-6.691 18.111,-10.037 31.892,-10.037 4.921,0 9.843,0.393 14.764,1.375 5.122,1.184 9.056,2.562 14.369,4.531 v 50.791 c 0,7.874 -0.588,12.993 -1.572,15.355 -1.182,2.166 -3.347,4.331 -6.694,6.103 -3.349,1.969 -7.481,2.953 -12.402,2.953 h -5.119 v 5.315 h 96.858 v -5.315 c -7.284,-0.591 -12.403,-1.578 -15.358,-3.15 -2.953,-1.381 -5.119,-3.937 -6.691,-7.481 -0.788,-1.968 -1.184,-6.496 -1.378,-13.78 l -0.394,-49.216 c -12.602,-5.513 -24.214,-10.237 -37.995,-13.19 -13.78,-2.756 -28.154,-5.116 -42.916,-5.116 -18.899,0 -30.908,1.375 -43.31,6.494 -12.597,5.118 -23.427,9.843 -33.076,18.114 -9.45,8.462 -16.928,17.909 -22.44,28.346 -6.694,13.583 -10.237,28.545 -10.237,45.478 0,29.921 10.631,55.12 31.695,75.788 20.868,20.673 47.444,30.91 79.336,30.91 14.568,0 27.561,-3.74 41.145,-8.859 9.647,-3.74 15.356,-5.512 17.127,-5.512 2.756,0 5.119,0.984 7.481,2.953 2.363,1.969 4.528,5.709 6.497,11.418 z" />
                </g>
                <g
                   transform="translate(1808.2435,458.7479)"
                   id="g92"
                   style="fill:#000000">
                  <path
                     inkscape:connector-curvature="0"
                     id="path94"
                     style="fill:#000000;fill-opacity:1;fill-rule:nonzero;stroke:none"
                     d="m 0,0 h -0.394 v 11.022 c 32.483,0.787 59.254,-8.463 79.728,-27.364 21.064,-19.487 31.498,-43.704 31.498,-72.838 0,-25.001 -7.872,-46.853 -23.427,-65.949 -20.868,-25.005 -50.004,-37.601 -87.799,-37.601 v 15.158 c 10.431,0 19.49,2.756 26.377,7.478 8.862,5.906 14.571,15.555 19.49,28.745 4.922,12.993 8.271,29.727 8.271,50.791 0,25.199 -2.562,43.901 -7.68,56.304 C 41.142,-21.655 34.645,-12.993 26.97,-7.68 19.096,-2.562 10.037,0 0,0 m -0.394,0 c -18.705,-0.197 -32.679,-9.059 -42.326,-26.776 -8.074,-14.371 -12.008,-35.433 -12.008,-62.6 0,-32.483 5.709,-56.894 17.912,-72.25 8.662,-10.827 21.064,-15.946 36.422,-15.946 v -15.158 h -0.199 c -37.798,0 -67.131,12.006 -87.802,36.023 -16.337,18.902 -24.608,41.344 -24.608,67.331 0,29.135 10.631,53.547 31.892,72.837 21.261,19.492 47.444,28.745 78.552,27.561 h 2.165 z" />
                </g>
                <g
                   transform="translate(1590.5078,455.3996)"
                   id="g96"
                   style="fill:#000000">
                  <path
                     inkscape:connector-curvature="0"
                     id="path98"
                     style="fill:#000000;fill-opacity:1;fill-rule:nonzero;stroke:none"
                     d="m 0,0 v -78.549 h 4.334 c 13.583,0 18.899,3.937 25.002,12.009 6.1,7.874 10.037,19.492 11.615,35.042 h 6.102 v -104.339 h -6.102 c -1.184,11.419 -3.938,20.674 -7.875,27.955 -4.134,7.284 -8.859,12.206 -14.174,14.568 -5.316,2.562 -8.665,3.741 -18.902,3.741 v -58.469 c 0,-11.025 0.593,-17.718 1.578,-20.08 0.984,-2.56 2.756,-4.528 5.512,-6.103 2.756,-1.575 7.087,-2.362 13.387,-2.362 H 33.27 c 19.886,0 25.595,4.331 37.601,12.993 12.012,8.465 20.277,18.308 25.595,36.026 h 5.906 L 93.12,-187.609 H -81.893 v 5.509 h 7.284 c 6.1,0 11.221,0.985 14.962,2.953 2.753,1.378 4.919,3.741 6.299,7.087 1.179,2.363 1.772,8.466 1.772,18.506 V -22.44 c 0,8.856 -0.197,14.371 -0.787,16.534 -0.985,3.347 -2.953,6.103 -5.906,7.877 -3.94,2.756 -9.45,4.132 -16.34,4.132 h -7.284 v 5.512 H 97.648 v -58.86 H 91.742 C 88.589,-32.874 84.458,-22.637 78.749,-16.343 73.236,-10.04 65.559,-5.512 55.322,-2.559 49.413,-0.787 38.389,0 22.052,0 Z" />
                </g>
              </g>
              <g
                 aria-label="mini"
                 transform="scale(1.1909974,0.8396324)"
                 style="font-style:normal;font-variant:normal;font-weight:normal;font-stretch:normal;font-size:60.1692543px;line-height:1.25;font-family:Cambria;-inkscape-font-specification:'Cambria, Normal';font-variant-ligatures:normal;font-variant-caps:normal;font-variant-numeric:normal;font-feature-settings:normal;text-align:start;letter-spacing:0px;word-spacing:0px;writing-mode:lr-tb;text-anchor:start;fill:#000000;fill-opacity:1;stroke:none;stroke-width:0.42879978"
                 id="text4189">
                <path
                   d="m 107.18234,522.38959 0.41131,0.11752 q 1.76277,-1.76277 2.87919,-2.64416 1.14581,-0.91076 2.20347,-1.43959 1.05766,-0.55821 1.96843,-0.79325 0.94014,-0.23504 1.90966,-0.23504 2.93796,0 4.78887,1.35146 1.85091,1.35146 2.55601,4.14251 2.20347,-2.23284 3.55493,-3.2905 1.38083,-1.05767 2.79105,-1.61588 1.4396,-0.58759 3.08485,-0.58759 1.96843,0 3.37864,0.58759 1.4396,0.55821 2.40913,1.76277 0.9989,1.17519 1.43959,2.96734 0.47007,1.79215 0.47007,4.81824 v 11.07608 q 0,2.23284 0.1469,3.08485 0.1469,0.852 0.41131,1.32207 0.2938,0.47008 0.85201,0.82263 0.55821,0.32317 1.88029,0.67573 v 1.4396 H 132.7719 v -1.4396 q 1.1458,-0.35256 1.64525,-0.61697 0.49945,-0.26442 0.82263,-0.73449 0.35255,-0.47007 0.52883,-1.4396 0.20566,-0.9989 0.20566,-2.99671 v -7.69743 q 0,-2.49726 -0.1469,-4.11313 -0.11752,-1.64526 -0.41131,-2.61478 -0.26442,-0.96952 -0.67573,-1.52773 -0.38194,-0.55822 -0.88139,-0.96953 -0.49945,-0.41131 -1.17518,-0.64635 -0.67573,-0.23503 -1.79215,-0.23503 -1.17518,0 -2.20346,0.47007 -0.99891,0.47007 -2.20347,1.58649 -1.17518,1.11642 -1.70401,2.26222 -0.52883,1.11643 -0.52883,2.64416 v 10.72353 q 0,2.23284 0.1469,3.08485 0.14689,0.852 0.41131,1.32207 0.29379,0.47008 0.85201,0.82263 0.55821,0.32317 1.88028,0.67573 v 1.4396 h -11.54615 v -1.4396 q 1.14581,-0.35256 1.64526,-0.61697 0.49945,-0.26442 0.82262,-0.73449 0.35256,-0.47007 0.52883,-1.4396 0.20566,-0.9989 0.20566,-2.99671 v -7.69743 q 0,-2.61478 -0.1469,-4.26003 -0.14689,-1.64525 -0.47007,-2.64416 -0.29379,-0.9989 -0.79325,-1.61587 -0.47007,-0.61697 -0.96952,-0.94015 -0.49945,-0.32317 -1.17518,-0.47007 -0.67573,-0.17627 -1.52774,-0.17627 -1.20456,0 -2.26222,0.55821 -1.05766,0.52883 -2.17408,1.55711 -1.08704,1.02828 -1.64526,2.14471 -0.55821,1.11642 -0.55821,2.40912 v 11.01732 q 0,1.67463 0.0881,2.55601 0.0881,0.88139 0.26442,1.38084 0.20565,0.49945 0.49945,0.82263 0.29379,0.29379 0.82263,0.58759 0.55821,0.26441 1.64525,0.55821 v 1.4396 H 99.279248 v -1.4396 q 1.116422,-0.35256 1.586492,-0.61697 0.49945,-0.26442 0.85201,-0.73449 0.35255,-0.47007 0.52883,-1.4396 0.17628,-0.96952 0.17628,-3.02609 v -12.80947 q 0,-1.88029 -0.0588,-3.02609 -0.0588,-1.1458 -0.41132,-1.82153 -0.35255,-0.7051 -1.08704,-1.02828 -0.70511,-0.35255 -2.027185,-0.58759 v -1.55711 l 6.874805,-0.26442 h 1.79215 z"
                   style="stroke-width:0.42879978"
                   id="path6202"
                   inkscape:connector-curvature="0" />
                <path
                   d="m 157.71511,506.34837 v 5.69963 h -5.40583 v -5.69963 z m -8.40254,38.164 q 1.1458,-0.35256 1.61587,-0.61697 0.49945,-0.26442 0.82263,-0.73449 0.35255,-0.47007 0.52883,-1.4396 0.20565,-0.96952 0.20565,-3.02609 v -12.80947 q 0,-1.88029 -0.0588,-3.02609 -0.0588,-1.1458 -0.41132,-1.82153 -0.35255,-0.7051 -1.08704,-1.02828 -0.70511,-0.35255 -2.02719,-0.58759 v -1.55711 l 6.84543,-0.26442 h 1.79215 v 21.00636 q 0,2.52663 0.23504,3.52554 0.23503,0.96952 0.88138,1.49835 0.67573,0.49946 2.17409,0.88139 v 1.4396 h -11.51677 z"
                   style="stroke-width:0.42879978"
                   id="path6204"
                   inkscape:connector-curvature="0" />
                <path
                   d="m 194.61579,545.95197 h -11.57553 v -1.4396 q 1.1458,-0.35256 1.64525,-0.61697 0.49945,-0.26442 0.82263,-0.73449 0.35255,-0.47007 0.52883,-1.4396 0.20565,-0.9989 0.20565,-2.99671 v -7.69743 q 0,-2.05657 -0.11751,-3.7312 -0.11752,-1.67463 -0.41132,-2.73229 -0.26441,-1.08705 -0.67573,-1.67464 -0.38193,-0.61697 -0.94014,-1.02828 -0.52883,-0.44069 -1.23394,-0.67573 -0.70511,-0.26441 -1.85091,-0.26441 -1.1458,0 -2.17409,0.47007 -1.02828,0.44069 -2.26222,1.55711 -1.23394,1.11642 -1.79215,2.20347 -0.55821,1.08704 -0.55821,2.49726 v 10.95856 q 0,2.52663 0.23504,3.52554 0.23503,0.96952 0.88138,1.49835 0.67573,0.49946 2.17409,0.88139 v 1.4396 h -11.51677 v -1.4396 q 1.1458,-0.35256 1.61587,-0.61697 0.49945,-0.26442 0.82263,-0.73449 0.35255,-0.47007 0.52883,-1.4396 0.20565,-0.96952 0.20565,-3.02609 v -12.80947 q 0,-1.88029 -0.0588,-3.02609 -0.0588,-1.1458 -0.41131,-1.82153 -0.35255,-0.7051 -1.08704,-1.02828 -0.70511,-0.35255 -2.02719,-0.58759 v -1.55711 l 6.87481,-0.26442 h 1.79215 l -0.32317,4.78886 0.41131,0.11752 q 2.17408,-2.20346 3.49616,-3.14361 1.35146,-0.94014 2.70292,-1.4396 1.38083,-0.52883 2.90857,-0.52883 1.58649,0 2.82043,0.38194 1.26332,0.35255 2.20347,1.11642 0.96952,0.76387 1.58649,1.90967 0.61697,1.11642 0.91077,2.70291 0.32317,1.5865 0.32317,4.025 v 11.07608 q 0,2.02718 0.11752,2.93795 0.11752,0.91076 0.41131,1.41021 0.2938,0.49946 0.85201,0.85201 0.55821,0.32318 1.93905,0.70511 z"
                   style="stroke-width:0.42879978"
                   id="path6206"
                   inkscape:connector-curvature="0" />
                <path
                   d="m 208.01285,506.34837 v 5.69963 h -5.40584 v -5.69963 z m -8.40255,38.164 q 1.1458,-0.35256 1.61588,-0.61697 0.49945,-0.26442 0.82262,-0.73449 0.35256,-0.47007 0.52884,-1.4396 0.20565,-0.96952 0.20565,-3.02609 v -12.80947 q 0,-1.88029 -0.0588,-3.02609 -0.0588,-1.1458 -0.41131,-1.82153 -0.35255,-0.7051 -1.08704,-1.02828 -0.70511,-0.35255 -2.02719,-0.58759 v -1.55711 l 6.84543,-0.26442 h 1.79215 v 21.00636 q 0,2.52663 0.23504,3.52554 0.23503,0.96952 0.88138,1.49835 0.67573,0.49946 2.17409,0.88139 v 1.4396 H 199.6103 Z"
                   style="stroke-width:0.42879978"
                   id="path6208"
                   inkscape:connector-curvature="0" />
              </g>
            </g>
          </g>
        </g>
      </g>
    </g>
  </g>
</svg>
