<?xml version="1.0" encoding="UTF-8" standalone="no"?>
<!-- By Caetano Ramos) -->

<svg
   xmlns:dc="http://purl.org/dc/elements/1.1/"
   xmlns:cc="http://creativecommons.org/ns#"
   xmlns:rdf="http://www.w3.org/1999/02/22-rdf-syntax-ns#"
   xmlns:svg="http://www.w3.org/2000/svg"
   xmlns="http://www.w3.org/2000/svg"
   xmlns:sodipodi="http://sodipodi.sourceforge.net/DTD/sodipodi-0.dtd"
   xmlns:inkscape="http://www.inkscape.org/namespaces/inkscape"
   width="159.27916mm"
   height="45.53841mm"
   viewBox="0 0 159.27916 45.53841"
   version="1.1"
   id="svg8"
   inkscape:version="0.92.4 (5da689c313, 2019-01-14)"
   sodipodi:docname="logo.svg">
  <defs
     id="defs2" />
  <sodipodi:namedview
     id="base"
     pagecolor="#ffffff"
     bordercolor="#666666"
     borderopacity="1.0"
     inkscape:pageopacity="0.0"
     inkscape:pageshadow="2"
     inkscape:zoom="0.96523437"
     inkscape:cx="203.88546"
     inkscape:cy="-1.5081529"
     inkscape:document-units="mm"
     inkscape:current-layer="g359"
     showgrid="false"
     inkscape:window-width="1600"
     inkscape:window-height="837"
     inkscape:window-x="-8"
     inkscape:window-y="-8"
     inkscape:window-maximized="1" />
  <metadata
     id="metadata5">
    <rdf:RDF>
      <cc:Work
         rdf:about="">
        <dc:format>image/svg+xml</dc:format>
        <dc:type
           rdf:resource="http://purl.org/dc/dcmitype/StillImage" />
        <dc:title></dc:title>
      </cc:Work>
    </rdf:RDF>
  </metadata>
  <g
     inkscape:label="Camada 1"
     inkscape:groupmode="layer"
     id="layer1"
     transform="translate(-31.301187,-135.93247)">
    <g
       id="g359">
      <g
         id="g458">
        <path
           inkscape:connector-curvature="0"
           style="fill:#8d734a;fill-opacity:1;stroke:#8d734a;stroke-width:0.14516465;stroke-opacity:1"
           d="m 82.225726,150.89492 c -1.500421,0 -3.482187,0.80143 -4.826061,1.95132 -0.631775,0.54058 -1.601563,2.02218 -2.117701,3.2354 -0.631656,1.48474 -0.940726,3.08617 -0.942578,4.88468 -0.0046,4.36101 2.204291,7.61384 5.480804,8.07138 0.972759,0.13583 2.112473,0.0318 2.827215,-0.25856 0.493866,-0.2006 0.576387,-0.30215 0.644922,-0.79305 0.215652,-1.54468 0.499592,-3.41702 0.630455,-4.1583 0.227354,-1.28784 0.235609,-1.27648 -0.64234,-0.82551 -2.438902,1.25276 -4.337767,-0.13044 -4.100007,-2.9867 0.183245,-2.20139 1.214893,-3.33854 3.038057,-3.34901 0.783958,-0.005 1.104998,0.0745 1.755966,0.43305 0.438155,0.24135 0.814281,0.41429 0.835607,0.38435 0.02131,-0.0299 0.112016,-0.60756 0.201538,-1.28407 0.08952,-0.67651 0.251735,-1.85287 0.360701,-2.61394 0.108969,-0.76108 0.199435,-1.45962 0.201023,-1.55248 0.0066,-0.37857 -2.227379,-1.13856 -3.347601,-1.13856 z m -16.426902,0.10667 c -1.163839,-0.0296 -2.339854,0.26946 -3.392043,0.91189 -0.77488,0.47312 -1.506398,1.40001 -2.026232,2.56698 -0.313643,0.7041 -0.354981,0.98403 -0.356569,2.41104 -0.0027,2.62836 0.536125,3.50598 3.168282,5.16004 0.875232,0.55 1.501609,1.04273 1.529107,1.20292 0.08447,0.49207 -0.372851,0.86381 -1.060918,0.86203 -0.882685,-0.002 -1.856103,-0.56622 -2.772955,-1.60697 l -0.772565,-0.87711 -0.933792,1.74263 c -1.18873,2.218 -1.314505,2.36915 -1.201478,1.44407 l 0.08578,-0.70146 h -2.436026 -2.435511 l 0.08682,-0.71305 c 0.04794,-0.39234 0.08733,-0.8421 0.08733,-0.99943 0,-0.2666 0.144477,-0.2858 2.128552,-0.2858 1.715827,0 2.143596,-0.0425 2.204,-0.21913 0.121646,-0.35562 0.552168,-3.93655 0.482657,-4.01453 -0.03503,-0.0393 -0.980023,-0.0719 -2.099613,-0.0719 h -2.035534 l 0.06305,-0.34551 c 0.03478,-0.19026 0.100795,-0.60579 0.146244,-0.9229 l 0.08268,-0.57624 h 2.246891 2.246373 l 0.0894,-0.73044 c 0.0492,-0.40168 0.141325,-0.97245 0.20464,-1.26842 0.06331,-0.29597 0.157638,-1.00544 0.20929,-1.57625 l 0.09405,-1.03769 h -4.593003 c -4.997198,0 -4.758882,-0.0428 -4.758882,0.85508 0,0.20278 -0.08977,0.90641 -0.199471,1.5635 -0.109704,0.65708 -0.328495,2.09432 -0.486275,3.19365 -0.157781,1.09933 -0.370889,2.55192 -0.473356,3.22844 -0.102468,0.6765 -0.289919,1.95674 -0.416512,2.84466 -0.126593,0.88792 -0.313666,2.13333 -0.415479,2.76756 -0.101811,0.63423 -0.226831,1.55153 -0.278019,2.03886 l -0.09302,0.88639 4.847249,-0.0406 4.84725,-0.0406 0.162781,-1.15306 c 0.08949,-0.63423 0.16632,-1.17018 0.171048,-1.19131 0.03622,-0.16188 0.401185,0.0532 0.943613,0.55652 0.831254,0.77131 1.791636,1.38458 2.826699,1.80524 1.558108,0.63322 3.845907,0.45029 5.285468,-0.4232 1.352396,-0.82061 2.332532,-2.35362 2.661335,-4.16177 0.272598,-1.49905 0.27092,-2.03324 -0.0098,-2.97684 -0.435681,-1.4644 -1.150887,-2.27018 -2.995165,-3.37337 -1.220203,-0.72988 -1.43919,-0.95097 -1.43919,-1.45218 0,-0.55843 0.23668,-0.77566 0.845428,-0.77566 0.565266,0 1.299168,0.40226 2.011246,1.10262 0.252074,0.24792 0.527603,0.42474 0.612365,0.39304 0.08476,-0.0317 0.549815,-0.91107 1.033529,-1.9548 l 0.879533,-1.89799 -0.464056,-0.43536 c -1.165066,-1.09392 -2.640851,-1.67566 -4.137212,-1.71364 z m -30.368173,0.35478 -0.0863,0.73045 c -0.04735,0.40167 -0.144414,1.07632 -0.216007,1.49914 -0.07159,0.42282 -0.222983,1.42565 -0.336414,2.22901 -0.25216,1.78587 -0.569296,3.97143 -0.813904,5.61222 -0.435073,2.91835 -1.025853,7.04602 -1.028878,7.18789 -0.0035,0.16276 4.762048,0.14455 4.851901,-0.0186 0.0406,-0.0737 0.169964,-0.81741 0.287321,-1.65277 0.117356,-0.83536 0.306767,-2.17638 0.420646,-2.97973 0.113876,-0.80336 0.256529,-1.95256 0.317293,-2.55365 0.152626,-1.5098 0.274311,-1.65015 0.567407,-0.65508 0.368638,1.25156 1.008261,3.53655 1.565279,5.59194 0.275006,1.01476 0.54968,1.94911 0.610299,2.07596 0.09166,0.19179 0.522844,0.23015 2.561084,0.23015 h 2.451013 l 0.153996,-1.15306 c 0.290362,-2.17369 0.477173,-3.46022 0.669726,-4.61222 0.106009,-0.63423 0.262523,-1.67246 0.347783,-2.30668 0.08526,-0.63424 0.244793,-1.77576 0.3545,-2.53684 0.54303,-3.76718 0.62949,-4.36064 0.73794,-5.07367 0.06431,-0.42282 0.121617,-0.95934 0.127123,-1.19189 l 0.0098,-0.42262 h -2.398303 c -1.319169,0 -2.399538,0.0519 -2.400887,0.11537 -0.0014,0.0634 -0.09699,0.77289 -0.21239,1.57624 -0.115397,0.80336 -0.299472,2.1359 -0.408761,2.96177 -0.109289,0.82587 -0.258635,1.79446 -0.332279,2.15248 -0.07364,0.35803 -0.135608,0.86771 -0.13746,1.13219 -0.0018,0.26448 -0.08614,0.55763 -0.187068,0.6516 -0.147726,0.13754 -0.228652,-0.04 -0.415996,-0.91073 -0.128001,-0.59493 -0.478593,-1.92632 -0.77928,-2.95829 -0.300687,-1.03198 -0.672545,-2.32573 -0.826306,-2.87539 -0.153762,-0.54967 -0.34469,-1.19007 -0.424264,-1.42262 l -0.144694,-0.42262 h -2.442228 z m 104.073229,0 c -3.55881,0 -4.60689,0.0436 -4.64519,0.19247 -0.0272,0.1057 -0.39855,2.64789 -0.82527,5.64991 -0.42672,3.00201 -0.83275,5.76966 -0.90227,6.1502 -0.0695,0.38054 -0.19459,1.21101 -0.27802,1.84523 -0.0834,0.63423 -0.204,1.49894 -0.26769,1.92176 -0.0637,0.42282 -0.12007,0.95815 -0.12557,1.18957 l -0.0103,0.42088 4.62608,0.0423 c 2.54411,0.0234 4.66403,0.0594 4.71134,0.0794 0.19801,0.0836 0.36394,-0.40988 0.4532,-1.34784 0.0523,-0.54967 0.1489,-1.27625 0.21498,-1.61451 0.0661,-0.33825 0.15115,-0.87419 0.18861,-1.19131 l 0.0682,-0.57682 h -2.40916 -2.40864 l 0.0909,-0.86609 c 0.0499,-0.47655 0.12353,-0.92632 0.16382,-0.99943 0.0403,-0.0731 0.98623,-0.13276 2.1022,-0.13276 h 2.02933 l 0.15709,-0.88406 c 0.0864,-0.48625 0.21586,-1.29959 0.28784,-1.80698 0.072,-0.50738 0.17102,-1.07815 0.22014,-1.26841 l 0.0894,-0.3461 h -2.15129 -2.15129 l 0.0796,-0.46087 0.15865,-0.92291 0.0796,-0.46087 h 2.21951 2.22002 l 0.30799,-2.19132 c 0.16954,-1.20504 0.30674,-2.24269 0.30489,-2.30611 -0.002,-0.0634 -2.07105,-0.11537 -4.59869,-0.11537 z m -22.09684,5.22788 -0.16898,1.19131 c -0.093,0.65537 -0.25168,1.77978 -0.35243,2.49858 -0.10076,0.71879 -0.27944,1.9642 -0.39739,2.76756 -0.27923,1.90173 -0.60618,4.21072 -0.71314,5.04005 l -0.0847,0.65855 1.69602,-0.0435 1.6955,-0.0435 0.16744,-1.22958 c 0.0919,-0.67651 0.26567,-1.88771 0.38602,-2.69104 0.12035,-0.80336 0.30667,-2.08301 0.41444,-2.84409 0.10777,-0.76107 0.28537,-2.01269 0.3943,-2.78089 0.10892,-0.7682 0.24013,-1.65003 0.29197,-1.96002 l 0.0946,-0.56348 h -1.71205 z m 38.49739,0 c -1.60912,0 -1.6596,0.01 -1.72031,0.34551 -0.0344,0.19027 -0.10281,0.55385 -0.15244,0.80754 -0.0496,0.25369 -0.17379,1.08358 -0.27595,1.84466 -0.10217,0.76107 -0.2847,2.04131 -0.40515,2.84466 -0.12045,0.80336 -0.30432,2.08359 -0.40876,2.84467 -0.10443,0.76107 -0.25556,1.75611 -0.33589,2.21161 -0.0803,0.4555 -0.14573,0.92239 -0.14573,1.03769 0,0.1654 0.3477,0.20986 1.64796,0.20986 1.88193,0 1.79557,0.0674 1.96577,-1.53741 0.0493,-0.4651 0.18146,-1.43369 0.29352,-2.15248 0.24593,-1.57738 0.97963,-6.70824 1.10485,-7.72645 l 0.0899,-0.72986 z m 12.18014,0 c -0.90458,0 -1.64537,0.0171 -1.6459,0.0383 -4.3e-4,0.0211 -0.065,0.45378 -0.14366,0.96117 -0.28564,1.84132 -0.89437,6.01172 -1.16685,7.99485 -0.11619,0.84564 -0.26806,1.81423 -0.33745,2.15249 -0.0694,0.33825 -0.12734,0.70184 -0.12919,0.80754 -0.005,0.26797 3.22441,0.27464 3.37189,0.007 0.0561,-0.10183 0.18266,-0.77648 0.28164,-1.49914 0.099,-0.72267 0.21383,-1.55622 0.25528,-1.8522 0.0414,-0.29597 0.14968,-0.84962 0.24029,-1.23015 l 0.16485,-0.6916 0.0837,0.92233 c 0.14277,1.57037 0.51544,2.65928 1.13946,3.32988 0.67295,0.72317 1.58883,1.36141 2.18023,1.51944 0.65168,0.17411 2.14384,0.16158 2.76417,-0.0232 0.30152,-0.0898 0.65135,-0.17175 0.77773,-0.18261 0.12639,-0.0109 0.1999,-0.0744 0.1633,-0.14088 -0.0366,-0.0664 0.0274,-0.12058 0.14211,-0.12058 0.36743,0 1.9142,-1.77399 2.33164,-2.67422 0.21984,-0.4741 0.42309,-0.86204 0.45165,-0.86204 0.0594,0 -0.0217,0.60982 -0.32297,2.43249 -0.11634,0.70383 -0.18721,1.3071 -0.15762,1.3403 0.11979,0.13438 3.15973,0.0925 3.28249,-0.0452 0.1361,-0.15268 0.3872,-1.74812 0.68936,-4.38091 0.0946,-0.8245 0.2159,-1.49915 0.26975,-1.49915 0.0539,0 0.32296,0.81277 0.5979,1.8064 0.27494,0.99363 0.58707,2.06728 0.69401,2.38611 0.10694,0.31882 0.19482,0.75147 0.19482,0.96116 0,0.2097 0.0616,0.38146 0.13695,0.38146 0.0754,0 0.13694,0.0895 0.13694,0.19942 0,0.31897 0.30074,0.58195 0.47749,0.41739 0.0853,-0.0794 0.79833,-0.16412 1.5844,-0.1884 l 1.42937,-0.0441 0.23874,-1.69161 c 0.13149,-0.9302 0.33925,-2.3828 0.46148,-3.22844 0.12222,-0.84563 0.30541,-2.12587 0.4072,-2.84466 0.1018,-0.71879 0.27369,-1.92938 0.38189,-2.69046 0.1082,-0.76107 0.16903,-1.43572 0.1354,-1.49914 -0.0728,-0.1372 -2.80472,-0.15652 -3.11713,-0.022 -0.12668,0.0545 -0.21704,0.2733 -0.21704,0.52638 0,0.7313 -0.30754,2.06019 -0.52245,2.25799 -0.16552,0.15235 -0.17108,0.23141 -0.0305,0.42145 0.17373,0.23483 0.1563,0.47203 -0.15451,2.1206 -0.13533,0.71782 -0.38912,1.0067 -0.38912,0.44291 0,-0.15811 -0.11549,-0.69464 -0.25683,-1.1919 -0.95479,-3.35908 -1.13365,-4.0989 -1.06505,-4.40468 l 0.077,-0.34319 -1.81022,0.0516 c -0.99562,0.0282 -1.82236,0.0647 -1.8371,0.0812 -0.0611,0.0683 -0.44386,2.39335 -0.5302,3.22032 -0.0513,0.49107 -0.17164,1.18283 -0.26717,1.5374 -0.15718,0.58342 -0.18034,0.60816 -0.24804,0.26029 -0.0411,-0.21141 -0.10743,-0.69541 -0.14676,-1.07595 -0.151,-1.46099 -1.20412,-3.02468 -2.5027,-3.71482 -0.55938,-0.29728 -0.89076,-0.35306 -2.10322,-0.35594 -1.2656,-0.003 -1.52971,0.0441 -2.19264,0.39363 -0.97616,0.51468 -2.03652,1.6787 -2.54403,2.79249 -0.40107,0.88019 -0.72334,1.19674 -0.54828,0.53855 0.10586,-0.39803 0.48127,-3.13421 0.48524,-3.53626 0.002,-0.24148 -0.16576,-0.26899 -1.64176,-0.26899 z m -41.87083,0.0835 c -1.37038,0.006 -1.5739,0.0446 -2.23242,0.42783 -2.05083,1.1935 -3.21421,3.53269 -3.19412,6.42093 0.0198,2.85408 1.24261,4.90312 3.30212,5.53396 0.53056,0.16251 1.79739,0.15577 2.33629,-0.0122 l 0.48628,-0.15131 0.22634,-1.42378 c 0.45134,-2.83972 0.45075,-2.70139 0.01,-2.62147 -0.21232,0.0385 -0.58616,0.18352 -0.83044,0.32232 -0.3991,0.22678 -0.50266,0.2295 -1.0232,0.0261 -1.55925,-0.60933 -1.63182,-3.26901 -0.1204,-4.41163 0.57416,-0.43406 1.22343,-0.44753 2.16834,-0.0446 l 0.71727,0.30609 0.0687,-0.34493 c 0.0687,-0.34183 0.48369,-3.27045 0.48369,-3.41336 0,-0.041 -0.20046,-0.19738 -0.44545,-0.34725 -0.35206,-0.21538 -0.76127,-0.27148 -1.95285,-0.26667 z m -13.43174,0.002 c -1.27191,-0.009 -1.42328,0.0237 -2.10633,0.44812 -0.86337,0.53643 -1.30326,1.13068 -1.67018,2.25683 -0.68099,2.09005 0.002,3.72908 2.03346,4.87947 0.9165,0.519 1.1669,0.79525 1.0449,1.15189 -0.2469,0.72178 -1.49785,0.40777 -2.53266,-0.63595 -0.39679,-0.40021 -0.74319,-0.65858 -0.76998,-0.5745 -0.0268,0.0841 -0.26161,0.53317 -0.52193,0.99827 l -0.47336,0.84581 -0.014,-1.07653 c -0.0235,-1.86867 -0.49696,-2.67918 -2.11253,-3.61511 -1.06418,-0.6165 -1.39183,-1.1247 -0.95808,-1.48523 0.36474,-0.30317 0.95296,-0.15567 1.69085,0.42319 0.39709,0.31152 0.6464,0.41921 0.73639,0.31826 0.0748,-0.0839 0.37483,-0.69455 0.66663,-1.35653 l 0.53071,-1.20349 -0.3762,-0.35768 c -0.80622,-0.76745 -1.51339,-1.0073 -2.97967,-1.01103 -1.15908,-0.003 -1.4564,0.0487 -1.92598,0.33624 -1.13806,0.69675 -1.74115,1.70942 -1.92029,3.22438 -0.21357,1.80604 0.42225,2.97839 2.19779,4.05279 0.60225,0.36441 1.03147,0.7232 1.03147,0.86261 0,0.30405 -0.39841,0.64721 -0.75396,0.64928 -0.47461,0.003 -1.38961,-0.55463 -1.85622,-1.12986 -0.247,-0.3045 -0.49361,-0.55363 -0.54829,-0.55363 -0.0547,0 -0.35624,0.48459 -0.66972,1.07653 -0.31348,0.59195 -0.61544,1.07595 -0.67128,1.07595 -0.05584,0 -0.181885,-0.84701 -0.280085,-1.88291 -0.0982,-1.03591 -0.267671,-2.71397 -0.376722,-3.72873 -0.109048,-1.01476 -0.23454,-2.24104 -0.278535,-2.72524 -0.04399,-0.4842 -0.158353,-0.95363 -0.254248,-1.04291 -0.107366,-0.1 -0.815311,-0.14551 -1.842781,-0.11884 -1.618483,0.042 -1.674762,0.0544 -1.862936,0.42725 -0.186624,0.36976 -0.396677,0.87597 -1.980759,4.76642 -0.39597,0.97248 -0.897011,2.20078 -1.113626,2.7293 -0.216614,0.52852 -0.581824,1.41915 -0.81132,1.97915 -0.229497,0.55999 -0.450827,0.98062 -0.491959,0.9345 -0.04113,-0.0461 -0.0098,-0.55321 0.06976,-1.12639 0.07955,-0.57318 0.125603,-1.06316 0.10232,-1.08928 -0.02328,-0.0261 -0.643652,-0.0587 -1.378728,-0.0719 -0.881304,-0.0158 -1.357527,-0.0852 -1.398366,-0.20464 -0.03406,-0.0996 0.0053,-0.62465 0.08785,-1.16639 0.591651,-3.88253 0.954323,-6.4828 0.957048,-6.86557 0.0024,-0.33864 -0.03053,-0.34609 -1.557009,-0.34609 -1.735188,0 -1.795219,0.0316 -1.907379,0.99943 -0.148024,1.27737 -1.120431,8.03364 -1.402498,9.74444 -0.116808,0.70845 -0.189595,1.31428 -0.161229,1.3461 0.133697,0.14998 9.604023,0.0609 9.739974,-0.0916 0.08025,-0.09 0.242004,-0.45683 0.359667,-0.81509 l 0.213939,-0.6516 0.883669,-0.0464 c 1.354846,-0.0716 1.466313,-0.008 1.576646,0.8916 l 0.09457,0.76928 h 1.563214 1.563211 v -0.61508 c 0,-0.33825 0.03508,-0.61507 0.07803,-0.61507 0.043,0 0.33602,0.19705 0.65112,0.43768 0.52281,0.39924 1.38129,0.8152 2.0805,1.00813 0.15076,0.0416 0.70585,0.0504 1.23351,0.0191 1.19118,-0.0707 2.06429,-0.49057 2.72387,-1.30958 0.27294,-0.33891 0.52655,-0.61624 0.56379,-0.61624 0.0617,0 1.05977,0.81205 1.59008,1.29393 0.11981,0.10887 0.36658,0.23805 0.54829,0.28696 0.18171,0.0489 0.60801,0.16954 0.94723,0.26782 0.8092,0.23447 2.25687,0.092 2.94659,-0.28985 2.22105,-1.22955 2.94892,-4.61347 1.37097,-6.3734 -0.3174,-0.35401 -0.98673,-0.87774 -1.48776,-1.16348 -0.7965,-0.45427 -0.91106,-0.57328 -0.91106,-0.95016 0,-0.78122 0.89294,-0.76564 1.80144,0.0319 0.27469,0.24112 0.55734,0.43884 0.62839,0.43884 0.0711,0 0.39124,-0.59363 0.71158,-1.31885 0.56921,-1.28865 0.57719,-1.32541 0.33125,-1.63074 -0.13841,-0.17184 -0.56051,-0.49134 -0.93741,-0.70957 -0.59764,-0.34604 -0.86041,-0.39817 -2.05569,-0.40638 z m 32.58561,0.0539 c -1.07696,0.001 -0.96605,0.31239 -1.20458,2.05741 -0.11799,0.86323 -0.30508,2.192 -0.41599,2.95307 -0.11092,0.76108 -0.28939,2.00649 -0.39636,2.76756 -0.1989,1.41512 -0.42564,2.99118 -0.55914,3.88236 l -0.0749,0.49971 h 2.1053 c 2.15174,0 3.33725,-0.15131 4.2416,-0.54203 0.28044,-0.12116 0.60715,-0.17851 0.72553,-0.12754 0.1184,0.051 0.19712,0.0228 0.17519,-0.062 -0.0219,-0.0849 0.24078,-0.4331 0.58394,-0.77392 1.33613,-1.32701 2.04897,-3.09559 2.04897,-5.08526 0,-2.4097 -0.86379,-4.07159 -2.60397,-5.0099 -0.69497,-0.37473 -0.93707,-0.41386 -3.09594,-0.49914 -0.68001,-0.0269 -1.17064,-0.0607 -1.52962,-0.0603 z m 15.23834,0.0435 c -1.291,0.004 -2.22915,0.0363 -2.27376,0.0864 -0.098,0.1099 -0.27209,1.15933 -0.48421,2.9206 l -0.0786,0.65334 h 0.99581 0.99581 l -0.0842,0.65334 c -0.0465,0.3594 -0.17942,1.31087 -0.29559,2.11422 -0.4298,2.97245 -0.6307,4.39862 -0.709,5.03541 l -0.0806,0.65334 h 1.65364 c 1.89129,0 1.71905,0.14993 1.942,-1.69103 0.0768,-0.63423 0.19724,-1.4647 0.26769,-1.84523 0.0704,-0.38054 0.26646,-1.64307 0.43511,-2.80582 l 0.30644,-2.11423 h 0.98031 0.9803 l 0.18345,-1.19131 c 0.101,-0.65537 0.1891,-1.46872 0.19585,-1.80698 l 0.0124,-0.61507 -3.55431,-0.0406 c -0.48871,-0.006 -0.95821,-0.008 -1.38855,-0.006 z m 13.72061,3.66032 c 0.93145,0 1.56993,0.90403 1.56993,2.22263 0,1.23223 -0.35529,1.95759 -1.19889,2.44698 -0.57087,0.33117 -0.96618,0.31531 -1.51619,-0.0609 -1.60192,-1.09564 -0.72905,-4.60874 1.14515,-4.60874 z m -26.53998,0.002 c 0.2448,0.0161 0.54112,0.16151 0.83044,0.43247 0.41664,0.3902 0.47059,0.53127 0.52555,1.38378 0.0933,1.44739 -0.35808,2.42968 -1.32498,2.88408 -0.53147,0.24978 -1.06164,0.28279 -1.17719,0.073 -0.0437,-0.0794 0.01,-0.65018 0.11937,-1.26842 0.10938,-0.61824 0.24168,-1.50477 0.29404,-1.96987 0.0524,-0.4651 0.14773,-1.00105 0.21187,-1.19132 0.0831,-0.24652 0.2761,-0.35983 0.5209,-0.34377 z m -51.329163,0.56119 c 0.0729,0.0568 0.07869,0.48404 0.05374,1.66669 l -0.03876,1.84465 -0.582396,0.0475 c -0.529367,0.043 -0.582668,0.0152 -0.581874,-0.30725 4.66e-4,-0.19513 0.08436,-0.53392 0.186034,-0.75247 0.101671,-0.21857 0.295537,-0.80646 0.430982,-1.30668 0.135449,-0.50022 0.331447,-1.01361 0.435632,-1.1403 0.04048,-0.0492 0.07233,-0.0711 0.09664,-0.0522 z"
           id="path185" />
        <path
           inkscape:connector-curvature="0"
           style="fill:#f5f5f5;stroke:none;stroke-width:0.19584472"
           d="m 76.949644,172.8057 c -0.387906,-3e-4 -0.80469,0.20998 -1.267821,0.62848 -0.707258,0.63911 -1.365565,2.24429 -1.365565,3.32855 0,0.83439 0.444736,1.92369 0.964365,2.36135 0.645737,0.54392 1.286983,0.51657 2.098068,-0.0892 0.842943,-0.6296 1.324086,-1.71034 1.42353,-3.19999 0.06887,-1.0316 0.03061,-1.19394 -0.46087,-1.9766 -0.441748,-0.70343 -0.892964,-1.05218 -1.391707,-1.05258 z m -6.412981,0.1285 c -0.31559,0 -0.61023,0.0994 -0.654653,0.22069 -0.04442,0.12132 -0.184749,1.35231 -0.311984,2.73557 -0.127235,1.38326 -0.265385,2.7728 -0.307437,3.0877 -0.06923,0.51847 -0.02083,0.57188 0.514857,0.57188 h 0.591576 l 0.100579,-1.33564 c 0.212164,-2.82316 0.373915,-2.89189 1.017211,-0.43274 l 0.469398,1.79333 0.605211,-0.0759 0.60578,-0.0759 0.176166,-1.78181 c 0.09697,-0.97977 0.224956,-2.43931 0.28414,-3.24412 l 0.107403,-1.46325 h -0.531339 c -0.571855,0 -0.627532,0.18987 -0.732504,2.52447 -0.06543,1.45538 -0.37314,1.20342 -0.883667,-0.72444 -0.469878,-1.77433 -0.485162,-1.80003 -1.050742,-1.80003 z m 8.873043,0 0.107974,1.84418 c 0.05933,1.01475 0.160106,2.01709 0.223901,2.22703 0.06379,0.20994 0.163835,0.86842 0.222194,1.46327 0.103761,1.05757 0.119017,1.08136 0.695567,1.08136 0.371454,0 0.589578,-0.11728 0.589305,-0.31759 -7.45e-4,-0.54818 0.790194,-3.49144 0.905829,-3.37078 0.06051,0.0632 0.156881,0.91889 0.214238,1.90176 l 0.104564,1.78661 0.555774,-0.009 c 0.539911,-0.0103 0.571317,-0.0637 1.075176,-1.84514 0.285413,-1.00908 0.708953,-2.38411 0.941632,-3.0551 0.23268,-0.671 0.423365,-1.32945 0.423365,-1.46325 -3e-6,-0.13378 -0.254578,-0.24044 -0.565433,-0.237 -0.507918,0.006 -0.58908,0.10304 -0.802975,0.95471 -0.59505,2.36941 -0.746746,2.85647 -0.889917,2.85647 -0.08424,0 -0.154268,-0.42984 -0.155141,-0.95471 -9.14e-4,-0.52488 -0.04353,-1.38362 -0.0949,-1.90847 -0.08229,-0.84064 -0.143904,-0.95375 -0.519404,-0.95375 -0.378125,0 -0.47826,0.18841 -0.884802,1.67146 -0.252071,0.91955 -0.458031,1.77828 -0.458031,1.90847 0,0.13027 -0.101827,0.237 -0.226172,0.237 -0.180862,0 -0.226175,-0.38158 -0.226175,-1.90847 V 172.9348 H 80.02799 Z m -2.754426,1.76646 c 0.480911,-0.0181 0.976294,0.48765 0.976297,1.31646 0,0.27629 -0.166477,0.78388 -0.369949,1.12742 -0.92443,1.56087 -2.060353,0.0397 -1.345675,-1.80196 0.167422,-0.43143 0.450779,-0.63109 0.739327,-0.64192 z"
           id="path217" />
        <path
           style="fill:#000000;stroke:none;stroke-width:0.19584472"
           d="m 89.14952,178.99416 c 0.295888,-1.68648 0.262111,-2.37755 -0.200961,-4.11172 -0.255763,-0.95782 -0.465025,-1.78807 -0.465025,-1.84501 0,-0.0568 0.296726,-0.10361 0.659393,-0.10361 0.612083,0 0.665881,0.0548 0.749822,0.76344 0.115175,0.97236 0.403489,0.97172 0.731508,-0.001 0.226958,-0.67344 0.337453,-0.76184 0.952253,-0.76184 h 0.695505 l -0.332132,0.78757 c -0.182672,0.43316 -0.500015,1.09164 -0.705204,1.46327 -0.44869,0.81268 -0.63703,1.56959 -0.769689,3.09328 -0.09932,1.1409 -0.10217,1.14548 -0.759243,1.22511 -0.626933,0.076 -0.654433,0.0508 -0.556227,-0.50897 z"
           id="path225"
           inkscape:connector-curvature="0" />
        <path
           inkscape:connector-curvature="0"
           style="fill:#f5f5f5;stroke:#ffffff;stroke-width:0.19584472"
           d="m 94.70426,172.79514 c -0.28022,0.0158 -0.576263,0.14695 -0.90242,0.39052 -1.085534,0.81077 -1.550255,1.84194 -1.550255,3.43795 0,1.19221 0.206049,1.81822 0.800701,2.43044 0.614905,0.63312 1.245748,0.62715 2.111138,-0.0191 0.924068,-0.69018 1.359509,-1.75774 1.372954,-3.36885 0.0094,-1.12792 -0.04211,-1.33497 -0.494398,-1.97276 -0.44697,-0.63033 -0.870685,-0.92461 -1.33772,-0.8981 z m 76.86316,0.0634 c -0.70941,-0.0158 -1.68272,0.7445 -2.08726,1.63118 -0.7046,1.54431 -0.57565,3.61556 0.28072,4.50969 0.8719,0.91036 2.11819,0.53593 3.00845,-0.90384 1.30533,-2.11107 0.59732,-5.19572 -1.20191,-5.23703 z m -30.8829,0.007 c -0.43628,-0.025 -0.8905,0.11868 -1.25816,0.43659 -1.48994,1.2883 -1.80489,4.46638 -0.56884,5.73884 0.62002,0.63825 1.26051,0.64594 2.11853,0.0249 0.66686,-0.48265 1.17877,-1.41218 1.37977,-2.50531 0.10231,-0.55656 0.0756,-0.57281 -0.95981,-0.57281 -0.96471,0 -1.06552,0.0485 -1.06552,0.50949 0,0.28276 0.10055,0.50854 0.22618,0.50854 0.30011,0 0.29042,0.66729 -0.0125,0.86357 -0.74905,0.48532 -1.36611,-0.35909 -1.21213,-1.659 0.15449,-1.30427 0.33502,-1.4937 1.43148,-1.5026 0.60399,-0.006 1.10609,-0.1459 1.2701,-0.35597 0.2542,-0.32548 0.24204,-0.38209 -0.19833,-0.91154 -0.29593,-0.3558 -0.71447,-0.54983 -1.15076,-0.57475 z m 37.01061,0.0393 -0.5552,0.0786 c -0.53761,0.0759 -0.56856,0.13501 -0.96038,1.85953 -0.53564,2.35743 -0.79363,2.33747 -0.85128,-0.0643 l -0.0443,-1.84417 h -0.61261 c -0.70214,0 -0.68014,-0.48511 -0.19036,4.13453 l 0.26311,2.4813 h 0.4853 c 0.54582,0 0.75228,-0.41054 1.18201,-2.35368 0.3938,-1.78064 0.67076,-1.58561 0.72512,0.50951 l 0.0449,1.71752 0.47224,0.0778 c 0.54162,0.0888 0.58738,-0.0123 1.84122,-4.0856 l 0.76376,-2.4813 H 179.604 c -0.48917,0 -0.67655,0.11232 -0.74273,0.44522 -0.0488,0.24493 -0.15179,0.61714 -0.22902,0.82708 -0.0773,0.20996 -0.19797,0.83912 -0.26822,1.39897 -0.0803,0.63933 -0.21205,1.01806 -0.35404,1.01806 -0.17628,0 -0.23584,-0.40953 -0.2705,-1.85956 z m -53.75766,0.006 -0.65182,1.98428 c -0.62198,1.89288 -1.34284,4.33747 -1.34284,4.5548 0,0.056 0.25494,0.10167 0.56657,0.10167 0.40339,0 0.62123,-0.14625 0.75525,-0.50854 0.13706,-0.37057 0.3511,-0.5095 0.78819,-0.5095 0.43709,0 0.6517,0.13887 0.78877,0.5095 0.13466,0.36408 0.35127,0.50854 0.76149,0.50854 h 0.57338 l -0.0943,-0.95376 c -0.0522,-0.52486 -0.1579,-1.30349 -0.2347,-1.72999 -0.0767,-0.42652 -0.18989,-1.45717 -0.25117,-2.29036 l -0.11138,-1.51507 -0.77343,-0.0759 z m 57.84413,0.0182 c -0.90398,-0.0103 -0.82676,0.15169 -1.12234,3.44178 -0.11318,1.25969 -0.2541,2.49062 -0.31313,2.73557 -0.0975,0.40481 0.0174,0.44521 1.26498,0.44521 h 1.37295 v -0.74649 c 0,-0.65712 -0.0592,-0.75699 -0.48984,-0.82711 -0.37066,-0.0604 -0.50154,-0.21521 -0.53702,-0.63616 -0.0402,-0.47773 0.0341,-0.56753 0.52736,-0.63616 0.45815,-0.0637 0.57453,-0.18319 0.57453,-0.58915 0,-0.39017 -0.11643,-0.52806 -0.49895,-0.59009 -0.41546,-0.0674 -0.49133,-0.17381 -0.45235,-0.63616 0.0385,-0.45602 0.16156,-0.56901 0.68761,-0.63329 0.56611,-0.0691 0.64044,-0.15115 0.64044,-0.70042 0,-0.60718 -0.0275,-0.62081 -1.20246,-0.62081 -0.17313,0 -0.32264,-0.006 -0.45178,-0.007 z m -61.82775,0.002 c -0.44,-0.001 -0.42101,0.19657 -0.7291,3.43985 -0.0798,0.83978 -0.18202,1.89879 -0.22731,2.35368 l -0.0823,0.82709 h 1.28771 1.28827 v -0.89041 c 0,-0.81159 -0.039,-0.89044 -0.43415,-0.89044 -0.77077,0 -0.82176,-0.52945 -0.38587,-4.0079 0.10325,-0.82411 0.10159,-0.82708 -0.49837,-0.82708 -0.0839,0 -0.15593,-0.006 -0.21878,-0.006 z m -22.237734,0.006 -0.10399,1.55056 c -0.05719,0.85286 -0.164578,1.82153 -0.239246,2.15315 -0.189523,0.84164 0.09649,2.07908 0.584187,2.52641 0.649153,0.59543 1.523597,0.46323 2.207173,-0.33391 0.50272,-0.58625 0.6448,-0.95489 0.85469,-2.2184 0.13843,-0.83339 0.25705,-2.0016 0.26368,-2.59646 l 0.012,-1.08135 h -0.58475 -0.58475 l -0.154008,1.71752 c -0.220935,2.45714 -0.400622,3.11746 -0.847868,3.11746 -0.482495,0 -0.582658,-0.58229 -0.392106,-2.27884 0.266978,-2.37694 0.236626,-2.55614 -0.431326,-2.55614 z m 5.810614,0 c -0.52117,0 -0.5224,0.002 -1.17122,2.22607 -0.15315,0.52492 -0.13253,0.57163 0.25232,0.56322 0.3318,-0.007 0.51492,-0.25711 0.8723,-1.19459 0.61734,-1.61935 0.61632,-1.5947 0.0466,-1.5947 z m 1.73494,0 -0.1756,1.71752 c -0.0964,0.94477 -0.23184,2.43362 -0.30119,3.30841 l -0.12614,1.58991 h 0.57679 c 0.5564,0 0.58042,-0.0362 0.67341,-1.01805 0.0565,-0.59666 0.17952,-1.01708 0.29721,-1.01708 0.11041,0 0.28197,0.45723 0.38131,1.01708 0.17826,1.00463 0.18996,1.01805 0.90697,1.01805 h 0.72681 l -0.17672,-0.69949 c -0.0971,-0.38489 -0.26504,-0.88055 -0.37336,-1.10152 -0.27748,-0.5661 -0.25431,-0.70384 0.25516,-1.50739 0.59033,-0.93111 0.61237,-2.04054 0.0551,-2.78068 -0.3237,-0.42992 -0.61219,-0.52676 -1.55877,-0.52676 z m 5.46339,0 c -1.07169,0 -1.29168,0.0676 -1.29168,0.3982 0,0.21914 -0.0706,0.62124 -0.15684,0.8933 -0.0862,0.27205 -0.18341,1.38062 -0.21595,2.46402 -0.0325,1.08342 -0.10493,2.17016 -0.16082,2.4151 -0.0919,0.40296 0.0219,0.44522 1.19565,0.44522 0.71347,0 1.29791,-0.0861 1.29907,-0.19095 10e-4,-0.10499 0.0418,-0.44085 0.0904,-0.74651 0.0782,-0.49239 0.0225,-0.56483 -0.49156,-0.63614 -0.46379,-0.0644 -0.58021,-0.18227 -0.58021,-0.58915 0,-0.40293 0.12567,-0.53542 0.60295,-0.63616 0.47727,-0.10075 0.60293,-0.23322 0.60293,-0.63615 0,-0.37737 -0.11709,-0.53034 -0.45234,-0.59202 -0.24869,-0.0458 -0.5135,-0.18474 -0.58874,-0.30801 -0.23554,-0.3859 0.20444,-0.97621 0.78877,-1.05834 0.44232,-0.0621 0.56333,-0.19316 0.60181,-0.65055 0.0467,-0.55559 0.009,-0.57186 -1.2434,-0.57186 z m 4.75533,0 -0.0989,1.20801 c -0.0544,0.66485 -0.19376,1.93175 -0.31027,2.81521 -0.11652,0.88349 -0.21197,1.82818 -0.21197,2.09943 0,0.40571 0.10698,0.49319 0.60294,0.49319 0.5467,0 0.60294,-0.0604 0.60294,-0.65248 0,-1.13326 0.25904,-1.63788 0.84161,-1.63788 0.69886,0 1.39722,-0.63206 1.57639,-1.42775 0.45086,-2.00222 -0.11378,-2.89773 -1.82643,-2.89773 z m 14.30859,0 c -0.5018,0 -0.63668,0.11974 -0.86434,0.77049 -0.31465,0.89938 -0.67648,0.89546 -0.80183,-0.009 -0.0763,-0.55036 -0.18244,-0.64571 -0.79729,-0.71292 -0.69656,-0.0762 -0.70657,-0.0657 -0.56884,0.54595 0.0772,0.34255 0.10304,0.86415 0.0574,1.15911 -0.0626,0.40438 -0.0139,0.53637 0.1989,0.53637 0.16995,0 0.36336,0.30959 0.48645,0.77912 0.1914,0.73011 0.1804,1.23476 -0.0643,2.88045 -0.0947,0.63727 -0.0726,0.6659 0.51997,0.6659 0.54099,0 0.61965,-0.0716 0.62169,-0.57187 0.004,-1.16787 0.39449,-2.66446 1.09053,-4.18636 0.39374,-0.86088 0.71602,-1.63113 0.71602,-1.71176 0,-0.0806 -0.26752,-0.1459 -0.59442,-0.1459 z m 2.20037,0 c -0.61173,0 -0.64795,0.11301 -0.93311,2.9265 -0.11349,1.11974 -0.25176,2.41478 -0.30744,2.87855 l -0.10117,0.84341 0.6592,-0.0798 0.65862,-0.0796 0.17334,-1.78182 c 0.0951,-0.97976 0.21705,-2.43931 0.27106,-3.24411 l 0.0983,-1.46325 z m 1.57753,0 -0.0949,1.20801 c -0.0521,0.66485 -0.15246,1.78149 -0.22334,2.48132 -0.0709,0.69982 -0.16668,1.64452 -0.21253,2.09941 -0.0822,0.81585 -0.0751,0.8271 0.5052,0.8271 h 0.58816 l 0.0954,-1.46326 c 0.0525,-0.80481 0.10825,-1.62693 0.12388,-1.82692 0.0617,-0.78869 0.35269,-0.31945 0.85696,1.3817 0.51398,1.73389 0.54448,1.7834 1.14451,1.85763 l 0.61657,0.0767 0.18584,-1.98524 c 0.10221,-1.09167 0.23626,-2.52973 0.29833,-3.19614 0.0621,-0.6664 0.0798,-1.26818 0.0392,-1.3366 -0.0405,-0.0684 -0.29229,-0.12377 -0.55974,-0.12377 -0.56581,0 -0.66842,0.30392 -0.6717,1.9929 -0.003,1.59223 -0.1825,2.06423 -0.49668,1.30687 -0.12986,-0.31307 -0.38378,-1.18346 -0.5643,-1.93438 -0.32565,-1.3548 -0.33326,-1.36539 -0.9797,-1.36539 z m 12.15597,0 0.0989,0.95376 c 0.0543,0.52486 0.20265,1.75581 0.3296,2.73557 0.12694,0.97976 0.26099,2.03972 0.29778,2.35463 0.0531,0.45479 0.16888,0.57188 0.56259,0.57188 0.52582,0 0.51578,0.0241 1.21667,-2.88046 0.29851,-1.23703 0.54179,-0.99483 0.54441,0.54213 0.003,1.94141 0.11516,2.33864 0.65636,2.33833 0.4066,-2.2e-4 0.528,-0.16837 0.87287,-1.20898 0.51013,-1.53914 1.63379,-5.21195 1.63379,-5.33971 0,-0.0534 -0.28168,-0.0613 -0.62623,-0.0182 -0.61664,0.0771 -0.63195,0.10235 -0.96324,1.60526 -0.44124,2.00183 -0.70835,1.98189 -0.88083,-0.0643 -0.13223,-1.56871 -0.14053,-1.58991 -0.61146,-1.58991 -0.41982,0 -0.50936,0.13044 -0.7416,1.08135 -0.83081,3.40207 -0.93248,3.48005 -1.07972,0.82711 l -0.10569,-1.90846 h -0.60238 z m 7.01705,0 -0.26822,2.60795 c -0.14758,1.43464 -0.30228,2.92351 -0.3438,3.3084 -0.0725,0.67139 -0.0504,0.69949 0.54895,0.69949 0.37103,0 0.64648,-0.12869 0.67795,-0.31761 0.084,-0.50418 0.36997,-3.49842 0.47394,-4.96259 l 0.0949,-1.33564 h -0.59156 z m 1.90884,0 v 0.63614 c 0,0.34993 -0.003,0.72214 -0.008,0.82711 -0.004,0.10498 0.11423,0.23065 0.26368,0.27922 0.48178,0.15661 0.51876,0.44382 0.28016,2.18098 -0.12894,0.9387 -0.23413,1.92795 -0.23413,2.1992 0,0.40405 0.10632,0.49319 0.59043,0.49319 0.6564,0 0.56971,0.29418 0.92344,-3.11747 0.16952,-1.63492 0.19819,-1.71752 0.59557,-1.71752 0.30556,0 0.44151,-0.1538 0.50803,-0.57284 0.18951,-1.19402 0.17229,-1.20801 -1.41217,-1.20801 z m 4.30242,0 c -0.48579,0 -0.52656,0.0634 -0.60749,0.95376 -0.0477,0.52486 -0.18618,1.78783 -0.30801,2.80657 -0.12181,1.01872 -0.22162,2.07773 -0.22162,2.35368 0,0.41571 0.10346,0.50183 0.60293,0.50183 0.55671,0 0.60261,-0.0532 0.60465,-0.69949 0.004,-1.52093 0.14073,-1.84514 0.77456,-1.84514 h 0.59044 l -0.10003,1.27231 -0.10003,1.27232 h 0.62227 c 0.34223,0 0.62253,-0.0861 0.62282,-0.19095 3.1e-4,-0.10499 0.10076,-1.22063 0.22334,-2.48034 0.12257,-1.25968 0.22415,-2.66258 0.2256,-3.11747 0.002,-0.7736 -0.0307,-0.82708 -0.51543,-0.82708 -0.49871,0 -0.52211,0.0429 -0.61999,1.14469 -0.10044,1.13137 -0.10892,1.14567 -0.6876,1.14567 h -0.58589 v -1.14567 c 0,-1.13623 -0.004,-1.14469 -0.52055,-1.14469 z m 6.4573,0 -0.17901,1.84418 c -0.0985,1.01474 -0.22268,2.50359 -0.27618,3.3084 l -0.0972,1.46326 h 0.52679 c 0.49823,0 0.53415,-0.0587 0.66148,-1.08137 0.1344,-1.07961 0.13606,-1.08204 0.9172,-1.21476 1.05841,-0.17981 1.55309,-0.95259 1.55309,-2.42659 0,-1.51174 -0.3876,-1.89312 -1.92418,-1.89312 z m 20.41755,0.0384 c -0.13398,-0.002 -0.27824,0.002 -0.43416,0.0123 l -1.12689,0.0759 -0.16479,2.03609 c -0.0906,1.11973 -0.21769,2.58803 -0.28244,3.26234 l -0.11763,1.22531 0.58248,-0.0806 c 0.44718,-0.062 0.59298,-0.19942 0.62738,-0.59008 0.16972,-1.92826 0.34253,-2.01269 0.73421,-0.35983 0.2244,0.94694 0.26877,0.99597 0.89787,0.99597 0.75154,0 0.81398,-0.2423 0.36028,-1.39897 -0.35894,-0.91514 -0.38914,-1.6542 -0.0676,-1.6542 0.33521,0 0.70236,-1.6086 0.53589,-2.34793 -0.18576,-0.82493 -0.60668,-1.1613 -1.54457,-1.17636 z m -79.26072,1.23392 c 0.0538,0 0.22893,0.16486 0.38984,0.36655 0.23368,0.29298 0.25941,0.45947 0.12673,0.8271 -0.18683,0.51781 -0.7373,0.74781 -0.87685,0.36654 -0.0988,-0.26975 0.19934,-1.56019 0.36028,-1.56019 z m 10.22952,0 c 0.0641,0 0.24825,0.16486 0.40916,0.36655 0.23368,0.29298 0.25941,0.45947 0.12673,0.8271 -0.21231,0.58823 -0.78761,0.74388 -0.90128,0.24371 -0.092,-0.40472 0.17048,-1.43736 0.36539,-1.43736 z m 68.88799,0.009 c 0.0669,-0.002 0.14582,0.11301 0.29722,0.34446 0.24051,0.36753 0.27575,0.58109 0.15855,0.95088 -0.0832,0.26232 -0.27318,0.4769 -0.42223,0.4769 -0.50774,0 -0.61555,-0.58846 -0.25914,-1.41145 0.10367,-0.23945 0.15871,-0.35866 0.2256,-0.36079 z m -18.86957,0.0393 c 0.32437,0.10797 0.5645,0.81052 0.44952,1.31644 -0.11671,0.51352 -0.83589,0.55499 -0.94959,0.0548 -0.1195,-0.52578 0.22248,-1.46348 0.50007,-1.37115 z m 4.61724,0.44233 c 0.20612,0.009 0.39567,0.11255 0.52054,0.32336 0.27904,0.47115 0.21438,1.6741 -0.12048,2.23949 -0.4096,0.69162 -1.12437,0.66317 -1.42295,-0.0565 -0.30803,-0.74256 -0.29629,-1.01423 0.0779,-1.81731 0.21252,-0.45619 0.60151,-0.7042 0.94504,-0.68893 z m -76.903513,0.0422 c 0.108541,-0.001 0.221979,0.0216 0.338694,0.071 0.547365,0.23195 0.686619,1.25802 0.292091,2.1541 -0.209733,0.47638 -0.461714,0.70064 -0.847865,0.75611 -0.467586,0.067 -0.575963,-0.0191 -0.727959,-0.58245 -0.331179,-1.22727 0.185263,-2.39181 0.945039,-2.39876 z m 29.907173,0.23027 c 0.24615,0 0.4065,1.78721 0.19833,2.21072 -0.20047,0.40786 -0.52544,0.43374 -0.66488,0.0528 -0.14291,-0.39042 0.24317,-2.26349 0.46655,-2.26349 z m 64.43783,2.79986 c -0.54461,0 -0.89657,0.82251 -0.60521,1.41529 0.25102,0.51066 0.6508,0.4559 0.96663,-0.13343 0.36497,-0.68093 0.19567,-1.28191 -0.36142,-1.28191 z"
           id="path227" />
        <path
           sodipodi:nodetypes="csccccccccscccccccsccccccc"
           style="fill:#f5f5f5;stroke:none;stroke-width:0.19584472"
           d="m 89.22674,179.51865 c -0.10191,-0.93649 -0.08971,-1.49508 0.03264,-1.49508 0.08758,0 0.11418,-0.29771 0.06253,-0.69982 -0.04943,-0.38492 -0.121745,-0.98613 -0.160696,-1.33604 -0.09486,-0.85222 -0.389928,-2.03582 -0.507573,-2.03605 -0.05212,-9e-5 -0.104751,-0.29217 -0.116965,-0.64908 -0.02115,-0.61789 0.01126,-0.64524 0.678232,-0.5724 0.578568,0.0633 0.703114,0.16503 0.715806,0.58546 0.03501,1.15988 0.0435,1.17515 0.421046,0.75745 0.198582,-0.21968 0.395702,-0.62313 0.438045,-0.89655 0.06367,-0.41108 0.209849,-0.49711 0.844694,-0.49711 0.826273,0 0.915059,0.12166 0.503946,0.69065 -0.168901,0.23375 -0.18245,0.30332 -0.03768,0.19348 0.124343,-0.0943 -0.04521,0.25391 -0.376795,0.7739 -0.33158,0.51999 -0.497935,0.84635 -0.369678,0.72525 0.128257,-0.12114 0.211148,-0.33025 0,0 -0.211151,0.33027 -0.76607,1.78842 -0.656333,1.68844 0.165241,-0.15063 0.163985,-0.4435 0,0 -0.10896,0.29458 0.06854,0 0,0 -0.06854,0 -0.183897,0.67726 -0.130637,0.96071 0.06651,0.35378 0.137127,0.0481 0,0 -0.209477,-0.0734 -0.220649,0.0951 -0.06422,0.96911 0.06068,0.339 0.02618,0.53655 -0.09568,0.54785 -0.104821,0.0103 -0.411009,0.10041 -0.680418,0.20146 -0.269408,0.10109 -0.494506,0.14081 -0.500219,0.0884 z"
           id="path303"
           inkscape:connector-curvature="0" />
        <g
           id="g337"
           transform="matrix(0.08295663,0,0,0.08295663,31.771711,135.988)">
          <path
             style="fill:#ed1c24;fill-opacity:1;fill-rule:nonzero;stroke:none"
             id="path452"
             d="M 53.126562,99.999974 C 21.30485,99.985561 0.0303,77.442175 0.0303,50.083 0.0303,22.73825 21.348112,-0.0862875 53.0833,2.25e-4 h 299.84787 c 31.72078,-0.0865 53.03859,22.738025 53.03859,50.082775 0,27.359175 -21.26735,49.902555 -53.08905,49.916974 z"
             inkscape:connector-curvature="0" />
          <path
             style="fill:#ffffff;fill-opacity:1;fill-rule:nonzero;stroke:none"
             id="path454"
             d="m 53.220275,12.292025 c -25.2036,0.04325 -40.660262,16.898525 -40.660262,37.7261 0,20.834779 15.377362,37.805396 40.660262,37.718885 H 352.77258 c 25.30452,0.08651 40.66747,-16.884106 40.66747,-37.718885 0,-20.827575 -15.46388,-37.68285 -40.66747,-37.7261 z"
             inkscape:connector-curvature="0" />
          <path
             style="fill:#ed1c24;fill-opacity:1;fill-rule:nonzero;stroke:none"
             id="path456"
             d="m 40.294063,26.371725 h 14.678075 l 20.294087,32.831 -0.0075,-32.831 h 14.5483 V 73.45545 H 75.273138 l -20.395013,-32.831 v 32.831 H 40.293775 V 26.371725 Z"
             inkscape:connector-curvature="0" />
          <path
             style="fill:#ed1c24;fill-opacity:1;fill-rule:nonzero;stroke:none"
             id="path458"
             d="m 168.92903,31.21635 h 14.17342 v 6.33695 h 7.66345 v 4.657187 h -7.66345 l 0.0144,31.244963 h -14.18784 l 0.007,-31.244963 h -7.69229 v -4.642775 l 7.69229,-0.01438 -0.007,-6.336949 z"
             inkscape:connector-curvature="0" />
          <path
             style="fill:#ed1c24;fill-opacity:1;fill-rule:nonzero;stroke:none"
             id="path460"
             d="M 97.910538,42.1456 H 112.06954 V 73.462659 H 97.910538 Z"
             inkscape:connector-curvature="0" />
          <path
             style="fill:#ed1c24;fill-opacity:1;fill-rule:nonzero;stroke:none"
             id="path462"
             d="m 97.874487,26.3573 h 14.195053 v 9.631587 H 97.874487 Z"
             inkscape:connector-curvature="0" />
          <path
             style="fill:#ed1c24;fill-opacity:1;fill-rule:nonzero;stroke:none"
             id="path464"
             d="m 346.00306,40.018862 c -11.42668,0 -20.6906,7.8581 -20.6906,17.568988 0,9.703676 9.26392,17.576196 20.6906,17.576196 11.4339,0 20.6834,-7.87252 20.6834,-17.576196 0,-9.710888 -9.2495,-17.568988 -20.6834,-17.568988 m 5.68812,17.525738 c 0,0 -0.0144,4.729275 -0.0144,6.632525 0,4.98881 -2.94139,7.043451 -5.78905,7.043451 -2.84045,0 -5.80345,-2.054641 -5.80345,-7.043451 0,-1.90325 0.007,-6.755087 0.007,-6.755087 0,0 0.008,-4.621138 0.008,-6.517176 0,-4.974399 2.97742,-7.014625 5.78904,-7.014625 2.82604,0 5.78905,2.040226 5.78905,7.014625 0,1.896038 -0.007,5.40695 0.0144,6.65415 v -0.01438 z"
             inkscape:connector-curvature="0" />
          <path
             style="fill:#ed1c24;fill-opacity:1;fill-rule:nonzero;stroke:none"
             id="path466"
             d="m 306.8279,57.645525 v -5.6016 c 0,-4.844625 -3.3451,-6.0702 -5.54393,-6.0702 -2.2565,0 -5.55113,1.225575 -5.55113,6.0702 v 5.572762 5.572763 c 0,4.85184 3.29464,6.099042 5.55113,6.099042 2.19883,0 5.54393,-1.247202 5.54393,-6.099042 z m -0.0937,-31.2738 h 13.96435 V 73.44824 h -13.99319 c 0,0 -0.007,-1.521155 -0.007,-1.802316 -5.41416,3.388356 -11.52761,3.388356 -16.30015,1.18232 -1.27605,-0.605579 -9.67484,-4.63556 -9.67484,-15.535969 0,-8.261825 7.786,-17.287825 17.99433,-16.386675 3.35953,0.295588 5.74579,1.521163 8.01671,2.804413 V 26.371725 Z"
             inkscape:connector-curvature="0" />
          <path
             style="fill:#ed1c24;fill-opacity:1;fill-rule:nonzero;stroke:none"
             id="path468"
             d="m 145.21054,40.70375 c 5.29881,-0.1514 16.0262,3.30905 15.95411,15.701788 -0.0144,2.213237 -0.007,17.042702 -0.007,17.042702 H 147.09957 V 52.887413 c 0,-2.732313 -2.60975,-5.760213 -6.47392,-5.760213 -3.85695,0 -6.71904,3.0279 -6.71904,5.760213 0,1.333712 0.0144,20.560827 0.0144,20.560827 h -14.05086 l -0.0144,-31.30264 14.06529,-0.01438 c 0,0 -0.0144,2.516037 0,3.294638 2.71069,-2.580913 6.61811,-4.5923 11.28971,-4.722063"
             inkscape:connector-curvature="0" />
          <path
             style="fill:#ed1c24;fill-opacity:1;fill-rule:nonzero;stroke:none"
             id="path470"
             d="m 260.25604,40.70375 c 5.2916,-0.1514 16.03341,3.30905 15.96131,15.701788 -0.0144,2.213237 0,17.042702 0,17.042702 H 262.14486 V 52.887413 c 0,-2.732313 -2.60975,-5.760213 -6.47392,-5.760213 -3.85695,0 -6.71183,3.0279 -6.71183,5.760213 0,1.333712 0.0144,20.560827 0.0144,20.560827 H 234.92264 V 42.1456 l 14.05087,-0.01438 c 0,0 -0.0144,2.516037 0,3.294638 2.70347,-2.580913 6.6037,-4.5923 11.28251,-4.722063"
             inkscape:connector-curvature="0" />
          <path
             style="fill:#ed1c24;fill-opacity:1;fill-rule:nonzero;stroke:none"
             id="path472"
             d="m 215.71717,62.497362 c 0,0 0.007,0.144188 0.007,1.90325 0,5.724155 -3.76323,7.000197 -5.85392,7.000197 -2.08348,0 -5.92603,-1.276042 -5.92603,-7.000197 0,-1.715812 0.0144,-6.459512 0.0144,-6.459512 0,0 26.66709,0.01438 26.66709,-0.01438 0,-9.703675 -9.37205,-17.742012 -20.88525,-17.742012 -11.5132,0 -20.842,7.8581 -20.842,17.5762 0,9.718091 9.3288,17.568985 20.842,17.568985 9.55227,0 17.62665,-5.450208 20.08501,-12.846911 l -14.10854,0.01438 z m -11.75831,-9.444137 c -0.0289,-2.739525 0.0289,-4.570675 0.93,-6.135088 1.10301,-1.932087 3.13603,-2.847662 4.9816,-2.862087 1.83836,0.01438 3.87138,0.93 4.96719,2.862087 0.90115,1.564413 0.95162,3.395563 0.92999,6.135088 z"
             inkscape:connector-curvature="0" />
          <path
             style="fill:#ed1c24;fill-opacity:1;fill-rule:nonzero;stroke:none"
             id="path474"
             d="m 369.60621,31.540762 c 1.37697,0 2.60975,-0.0865 2.60975,-1.744637 0,-1.326513 -1.20395,-1.564413 -2.3358,-1.564413 h -2.20604 v 3.30905 z m -1.93208,6.02695 h -1.62209 V 26.854737 h 4.06602 c 2.53767,0 3.79208,0.93 3.79208,3.049525 0,1.917663 -1.20394,2.746725 -2.77556,2.948588 l 3.04231,4.714862 h -1.81674 l -2.83324,-4.649975 h -1.85279 v 4.649975 z"
             inkscape:connector-curvature="0" />
          <path
             style="fill:#ed1c24;fill-opacity:1;fill-rule:nonzero;stroke:none"
             id="path476"
             d="m 369.62784,39.961188 c 4.21021,0 7.52647,-3.294638 7.52647,-7.771588 0,-4.404863 -3.31626,-7.713912 -7.52647,-7.713912 -4.24627,0 -7.56973,3.30905 -7.56973,7.713912 0,4.47695 3.32346,7.771588 7.56973,7.771588 M 360.19811,32.1896 c 0,-5.334862 4.31835,-9.263912 9.42973,-9.263912 5.06811,0 9.39367,3.929049 9.39367,9.263912 0,5.378113 -4.32556,9.321588 -9.39367,9.321588 -5.11138,0 -9.42973,-3.943476 -9.42973,-9.321588"
             inkscape:connector-curvature="0" />
        </g>
        <g
           id="text425"
           style="font-style:normal;font-variant:normal;font-weight:normal;font-stretch:normal;font-size:7.05555534px;line-height:1.25;font-family:sans-serif;-inkscape-font-specification:'sans-serif, Normal';font-variant-ligatures:normal;font-variant-caps:normal;font-variant-numeric:normal;font-feature-settings:normal;text-align:start;letter-spacing:0px;word-spacing:0px;writing-mode:lr-tb;text-anchor:start;fill:#000000;fill-opacity:1;stroke:none;stroke-width:0.26458332" />
        <g
           style="font-style:normal;font-variant:normal;font-weight:normal;font-stretch:normal;font-size:7.05555534px;line-height:1.25;font-family:sans-serif;-inkscape-font-specification:'sans-serif, Normal';font-variant-ligatures:normal;font-variant-caps:normal;font-variant-numeric:normal;font-feature-settings:normal;text-align:start;letter-spacing:0px;word-spacing:0px;writing-mode:lr-tb;text-anchor:start;fill:#000000;fill-opacity:1;stroke:none;stroke-width:0.26458332"
           id="text434" />
      </g>
    </g>
  </g>
</svg>
