<?xml version="1.0" encoding="UTF-8" standalone="no"?>
<!-- by Caetano Ramos) -->

<svg
   xmlns:dc="http://purl.org/dc/elements/1.1/"
   xmlns:cc="http://creativecommons.org/ns#"
   xmlns:rdf="http://www.w3.org/1999/02/22-rdf-syntax-ns#"
   xmlns:svg="http://www.w3.org/2000/svg"
   xmlns="http://www.w3.org/2000/svg"
   xmlns:sodipodi="http://sodipodi.sourceforge.net/DTD/sodipodi-0.dtd"
   xmlns:inkscape="http://www.inkscape.org/namespaces/inkscape"
   width="159.27916mm"
   height="45.53841mm"
   viewBox="0 0 159.27916 45.53841"
   version="1.1"
   id="svg8"
   inkscape:version="0.92.4 (5da689c313, 2019-01-14)"
   sodipodi:docname="logo.svg">
  <defs
     id="defs2" />
  <sodipodi:namedview
     id="base"
     pagecolor="#ffffff"
     bordercolor="#666666"
     borderopacity="1.0"
     inkscape:pageopacity="0.0"
     inkscape:pageshadow="2"
     inkscape:zoom="1.9304687"
     inkscape:cx="281.6963"
     inkscape:cy="71.634704"
     inkscape:document-units="mm"
     inkscape:current-layer="layer1"
     showgrid="false"
     inkscape:window-width="1600"
     inkscape:window-height="837"
     inkscape:window-x="-8"
     inkscape:window-y="-8"
     inkscape:window-maximized="1" />
  <metadata
     id="metadata5">
    <rdf:RDF>
      <cc:Work
         rdf:about="">
        <dc:format>image/svg+xml</dc:format>
        <dc:type
           rdf:resource="http://purl.org/dc/dcmitype/StillImage" />
        <dc:title></dc:title>
      </cc:Work>
    </rdf:RDF>
  </metadata>
  <g
     inkscape:label="Camada 1"
     inkscape:groupmode="layer"
     id="layer1"
     transform="translate(-31.301187,-135.93247)">
    <g
       id="g170"
       transform="matrix(1.139224,0,0,1.2006552,18.282145,-30.159887)">
      <g
         id="g3"
         transform="matrix(0.25841947,0,0,0.27597647,-7.9374473,148.54421)">
	<path
   id="polyline2177"
   d="M 94.393,2 C 90.635,2 86.981,5.09 86.31,8.918 V 8.987 9.055 9.123 L 86.242,9.191 V 9.33 9.398 L 86.173,9.535 V 9.673 L 86.104,9.81 v 0.206 l -0.068,0.137 v 0.206 l -0.069,0.205 -0.069,0.206 -0.068,0.41 -0.137,0.479 -0.067,0.479 -0.138,0.479 -0.069,0.547 -0.138,0.548 -0.136,0.616 -0.138,0.548 -0.205,1.165 -0.138,0.617 -0.137,0.547 -0.067,0.548 -0.138,0.547 -0.136,0.549 -0.069,0.548 -0.069,0.479 -0.138,0.411 -0.069,0.479 v 0.206 l -0.067,0.137 v 0.206 0.137 l -0.068,0.206 v 0.137 0.138 l -0.069,0.137 v 0.069 0.067 c -0.07,1.675 0.163,3.96 0.685,4.385 0.665,3.688 12.958,20.759 12.604,23.358 -0.332,2.606 -1.781,10.276 -1.781,10.276 -0.446,2.585 -2.21,4.656 -4.794,4.656 -2.586,0 -4.351,-2.064 -3.905,-4.656 l 2.329,-12.741 h -9.179 l -3.083,17.674 c -0.628,3.588 1.801,6.438 5.411,6.438 h 13.085 c 3.624,0 7.076,-2.851 7.739,-6.438 0,0 3.372,-16.508 3.356,-17.674 -0.013,-1.174 -0.341,-1.302 -0.341,-1.302 0,-1.343 -10.939,-19.4 -12.056,-20.072 -0.481,-0.281 -0.877,-2.069 -0.892,-3.15 -0.021,-1.074 1.439,-8.289 1.439,-8.289 0.444,-2.585 2.894,-4.657 5.48,-4.657 2.585,0 3.664,2.072 3.219,4.657 l -1.986,11.439 h 9.247 l 3.22,-17.194 C 114.163,5.09 111.713,2 107.955,2 Z M 119.6,2 108.641,65.16 c -0.628,3.588 1.802,6.438 5.412,6.438 h 13.084 c 3.624,0 7.138,-2.851 7.809,-6.438 L 146.658,2 h -8.219 l -11.167,61.377 c -0.163,0.893 -1.028,1.646 -1.917,1.646 h -6.509 c -0.911,0 -1.519,-0.747 -1.371,-1.646 L 128.369,2 Z m 31.511,0 -13.221,69.597 h 8.768 l 6.029,-31.511 h 11.166 c 3.632,0 7.074,-2.871 7.739,-6.438 l 4.795,-24.73 C 177.111,5.083 174.667,2 170.91,2 h -11.03 z m 31.306,0 -13.699,69.598 h 19.727 l 1.37,-8.632 h -9.727 l 3.974,-23.495 h 9.727 l 1.369,-7.262 h -9.725 l 4.315,-21.578 h 9.728 L 200.843,2 Z m 23.564,0 -13.151,69.597 h 8.769 l 5.96,-31.511 h 6.234 c 0.818,0.764 0.916,2.171 1.025,2.877 0.162,1.025 0.334,2.333 0.207,3.357 -0.113,1.017 -4.797,25.276 -4.797,25.276 h 8.77 c 0,0 4.932,-26.429 4.932,-26.853 0.016,-0.431 0,-1.785 -0.477,-2.534 -0.322,-0.479 -0.873,-1.583 -1.51,-1.985 -1.223,-0.785 -2.604,-1.304 -2.604,-1.304 h -0.619 c 2.512,-0.988 7.24,-2.617 7.744,-5.273 l 4.793,-24.73 C 231.986,5.083 229.537,2 225.779,2 Z m 46.925,0 -13.223,69.598 h 10.07 l 8.15,-40.347 3.221,40.347 h 8.77 L 283.115,2 h -10.07 L 266.195,38.375 261.673,2 Z m 34.797,0 -13.219,69.598 h 8.768 L 296.47,2 Z m 13.355,0 -13.219,69.598 h 10.139 l 8.152,-40.347 3.219,40.347 h 8.77 L 331.339,2 H 321.2 L 314.419,38.375 309.898,2 Z m 33.981,0 -1.646,8.632 h 5.48 l -10.824,60.966 h 10.004 L 349.08,10.632 h 5.273 L 355.724,2 Z m 24.111,0 -13.699,69.598 h 19.727 l 1.371,-8.632 h -9.727 l 4.043,-23.495 h 9.725 l 1.371,-7.262 h -9.727 l 4.244,-21.578 h 9.729 L 377.578,2 Z m 22.264,0 -13.221,69.598 h 10.137 l 8.154,-40.347 3.219,40.347 h 8.768 L 411.693,2 H 401.554 L 394.771,38.375 390.25,2 Z m 34.869,0 -13.225,69.598 h 20.004 c 3.633,0 7.137,-2.851 7.811,-6.438 L 441.488,8.919 C 442.208,5.083 439.767,2 436.009,2 Z m 37.605,0 c -3.76,0 -7.344,3.09 -8.016,6.918 l -9.797,56.241 c -0.635,3.588 1.74,6.438 5.346,6.438 h 14.453 c 3.623,0 7.137,-2.851 7.811,-6.438 L 474.3,8.918 C 475.029,5.09 472.572,2 468.822,2 Z m -30.14,8.015 h 4.043 c 2.584,0 4.348,2.072 3.902,4.657 l -8.631,45.555 c -0.451,2.585 -2.963,4.727 -5.549,4.727 h -3.973 z m 35.277,0 h 0.275 c 2.584,0 4.281,2.072 3.834,4.657 l -8.217,45.555 c -0.449,2.577 -2.83,4.727 -5.412,4.727 -2.588,0 -3.666,-2.142 -3.223,-4.727 l 8.152,-45.555 0.066,-0.206 0.07,-0.206 0.066,-0.273 0.068,-0.206 0.07,-0.274 0.066,-0.206 0.07,-0.206 0.135,-0.204 0.068,-0.206 0.139,-0.206 0.068,-0.205 0.137,-0.206 0.139,-0.137 0.135,-0.205 0.139,-0.206 0.205,-0.138 0.137,-0.138 0.139,-0.137 0.203,-0.138 0.207,-0.137 0.139,-0.137 0.203,-0.138 0.207,-0.068 0.205,-0.137 0.139,-0.069 0.271,-0.069 0.205,-0.067 h 0.205 l 0.205,-0.069 h 0.275 z m -299.489,0.274 h 4.248 c 0.933,0 2.911,2.136 2.741,3.083 l -3.632,17.194 c -0.169,0.89 -1.37,2.944 -2.258,2.944 h -5.14 -0.068 -0.068 l -0.069,-0.067 h -0.067 -0.069 -0.069 -0.069 v -0.069 h -0.069 -0.068 l -0.07,-0.067 h -0.068 l -0.068,-0.069 -0.068,-0.068 h -0.068 V 33.1 l -0.069,-0.068 -0.069,-0.069 v -0.068 l -0.068,-0.068 -0.07,-0.069 V 32.691 32.62 l -0.068,-0.068 v -0.068 -0.068 l -0.07,-0.068 V 32.28 c 0,-0.114 -0.012,-0.285 0,-0.412 l 4.111,-21.03 c 0.377,-0.311 0.837,-0.549 1.302,-0.549 z m 54.594,0 h 0.07 0.068 0.068 0.068 3.975 c 0.934,0 2.922,2.136 2.738,3.083 l -3.633,17.125 c -0.158,0.897 -2.389,3.014 -3.285,3.014 h -3.769 c -0.777,0 -1.313,-0.511 -1.369,-1.23 0,-0.114 -0.017,-0.278 0,-0.412 l 4.042,-21.03 0.066,-0.068 0.07,-0.068 0.135,-0.069 h 0.067 l 0.069,-0.068 0.068,-0.068 h 0.068 l 0.068,-0.069 h 0.07 l 0.135,-0.067 h 0.068 0.067 0.067 v -0.069 h 0.009 z M 74.938,77.626 v 22.812 H 465.943 V 77.626 Z m 287.435,2.397 h 0.066 0.066 0.07 0.066 0.068 3.016 c 0.813,0 1.396,0.65 1.232,1.507 l -0.754,3.838 h -1.848 l 0.408,-2.535 c 0.094,-0.573 -0.244,-1.028 -0.822,-1.028 -0.572,0 -1.137,0.453 -1.232,1.028 l -0.34,1.851 c -0.059,0.109 0.113,0.629 0.203,0.686 0.254,0.146 2.672,4.153 2.672,4.451 0.057,0.148 0.09,0.22 0.066,0.275 -0.068,0.501 -0.754,3.902 -0.754,3.902 -0.146,0.781 -0.906,1.438 -1.711,1.438 h -2.877 c -0.799,0 -1.313,-0.657 -1.166,-1.438 l 0.688,-3.902 h 1.986 L 361,92.904 c -0.092,0.571 0.24,1.095 0.818,1.095 0.555,0 1.145,-0.52 1.236,-1.095 l 0.41,-2.261 c -0.367,-0.945 -2.791,-4.389 -2.947,-5.207 -0.105,-0.093 -0.15,-0.587 -0.135,-0.959 0.021,-0.407 0.547,-2.946 0.547,-2.946 H 361 v -0.068 -0.066 -0.068 l 0.066,-0.138 v -0.067 l 0.066,-0.07 V 80.987 L 361.2,80.92 v -0.07 l 0.068,-0.067 0.07,-0.07 v -0.066 h 0.066 l 0.07,-0.068 0.066,-0.07 0.068,-0.066 v -0.07 h 0.068 l 0.066,-0.066 0.066,-0.068 h 0.07 l 0.068,-0.067 h 0.068 l 0.068,-0.067 h 0.068 0.137 z m 15.752,0 h 2.467 l 0.342,5.824 3.15,-5.824 h 2.469 l -5.07,8.906 -1.232,6.507 h -2.191 l 1.098,-6.988 z m 22.402,0 h 0.066 0.07 0.066 0.07 0.066 3.014 c 0.813,0 1.381,0.65 1.232,1.507 l -0.754,3.838 h -1.85 l 0.412,-2.535 c 0.092,-0.573 -0.242,-1.028 -0.822,-1.028 -0.572,0 -1.143,0.453 -1.232,1.028 l -0.342,1.851 c -0.072,0.109 0.092,0.629 0.203,0.686 0.242,0.146 2.672,4.153 2.672,4.451 0.072,0.148 0.07,0.22 0.07,0.275 -0.094,0.501 -0.686,3.902 -0.686,3.902 -0.148,0.781 -0.916,1.438 -1.715,1.438 h -2.943 c -0.799,0 -1.314,-0.657 -1.168,-1.438 l 0.686,-3.902 h 1.988 l -0.479,2.809 c -0.094,0.571 0.264,1.095 0.822,1.095 0.57,0 1.119,-0.52 1.232,-1.095 l 0.41,-2.261 c -0.375,-0.945 -2.787,-4.389 -2.945,-5.207 -0.105,-0.093 -0.148,-0.587 -0.137,-0.959 0.021,-0.407 0.549,-2.946 0.549,-2.946 l 0.066,-0.068 V 81.398 81.33 l 0.068,-0.138 v -0.067 l 0.068,-0.07 v -0.067 l 0.068,-0.067 V 80.85 l 0.068,-0.067 0.068,-0.07 v -0.066 h 0.07 l 0.064,-0.068 0.068,-0.07 0.068,-0.066 0.068,-0.07 0.068,-0.066 0.068,-0.068 h 0.068 l 0.07,-0.067 h 0.066 l 0.068,-0.067 h 0.066 0.137 z m 15.959,0 h 4.592 l -0.344,1.851 h -1.166 l -2.396,13.563 h -2.26 l 2.396,-13.563 h -1.164 z m 17.947,0 h 4.109 l -0.344,1.851 h -2.123 l -0.957,4.864 h 2.191 l -0.344,1.574 h -2.125 l -0.889,5.206 h 2.121 l -0.271,1.918 h -4.385 z m 16.92,0 h 2.535 l 0.408,8.906 3.906,-8.837 2.465,-0.069 -2.6,15.413 h -1.918 l 1.23,-8.15 -3.426,8.15 h -1.371 l -0.408,-8.358 -1.508,8.358 h -2.262 z m -367.921,0.55 h 4.042 l -0.275,1.916 h -2.191 l -0.89,4.797 h 2.124 l -0.275,1.645 h -2.192 l -0.821,5.207 h 2.123 l -0.343,1.917 H 80.35 Z m 18.906,0 h 1.918 l 1.027,8.083 1.506,-8.083 h 2.262 l -2.947,15.479 h -1.917 l -0.754,-8.976 -1.78,8.976 h -2.262 z m 20.551,0 h 4.521 l -0.273,1.916 h -1.165 l -2.466,13.564 h -2.19 l 2.396,-13.564 h -1.233 z m 19.934,0 h 4.11 l -0.343,1.916 h -2.124 l -0.959,4.797 h 2.124 l -0.274,1.645 h -2.123 l -0.89,5.207 h 2.123 l -0.273,1.917 h -4.384 z m 19.318,0 h 4.383 c 0.813,0 1.327,0.719 1.165,1.574 l -1.027,5.479 c -0.114,0.594 -1.157,1.078 -1.714,1.303 h 0.138 0.068 0.07 v 0.067 h 0.068 0.07 0.066 0.07 l 0.068,0.067 h 0.068 0.068 0.07 v 0.067 h 0.068 0.07 v 0.07 h 0.068 c 0.092,0.165 0.136,0.659 0.136,0.753 0,0.092 -1.097,6.097 -1.097,6.097 h -1.986 c 0,0 1.061,-5.394 1.097,-5.616 0.022,-0.24 -0.026,-0.529 -0.068,-0.753 -0.016,-0.166 -0.024,-0.45 -0.206,-0.618 h -1.371 l -1.301,6.987 h -1.987 z m 19.59,0 h 4.589 l -0.273,1.916 h -1.163 l -2.467,13.564 h -2.192 l 2.397,-13.564 h -1.232 z m 22.811,0 h 2.604 l -0.822,15.479 h -2.604 l 0.342,-3.563 h -1.574 l -1.303,3.563 h -2.327 z m 18.223,0 h 1.986 l -2.947,15.479 h -1.918 z m 17.672,0 h 1.92 l 1.025,8.083 1.51,-8.083 h 2.191 l -2.877,15.479 h -1.986 l -0.686,-8.976 -1.783,8.976 h -2.258 z m 22.676,0 h 2.535 l 0.408,8.974 3.908,-8.904 h 2.463 l -2.602,15.412 h -1.918 l 1.232,-8.152 -3.428,8.152 h -1.369 l -0.41,-8.356 -1.506,8.356 h -2.193 z m 24.865,0 h 4.041 l -0.275,1.916 h -2.191 l -0.889,4.797 h 2.123 l -0.275,1.645 h -2.189 l -0.891,5.207 h 2.189 l -0.342,1.917 h -4.314 z m 19.863,0 h 1.918 l 1.029,8.083 1.506,-8.083 h 2.191 l -2.875,15.479 h -1.918 l -0.754,-8.976 -1.783,8.976 h -2.26 z m 20.346,0 h 4.59 l -0.342,1.916 h -1.164 l -2.398,13.564 h -2.193 l 2.4,-13.564 h -1.232 z M 163.991,82.42 c -0.108,0 -0.198,0.064 -0.276,0.139 l -0.89,4.656 c 0,0.038 0,0.032 0,0.07 0,0.149 0.104,0.273 0.274,0.273 h 0.821 c 0.204,0 0.717,-0.411 0.755,-0.617 l 0.751,-3.836 c 0.036,-0.221 -0.342,-0.687 -0.547,-0.687 z m 40.551,4.658 -1.438,3.905 h 1.096 z"
   inkscape:connector-curvature="0"
   style="fill:#c40000" />

</g>
      <path
         id="path29"
         transform="scale(0.26458333)"
         d="m 488.82031,565.11719 -2.1582,0.11133 c -2.14712,0.11082 -2.16037,0.11953 -2.4082,1.39453 -0.7298,3.75466 -1.17702,6.23283 -1.42188,7.875 -0.1502,1.00729 -0.5535,3.31382 -0.89453,5.12695 -0.34103,1.81312 -0.75599,4.17034 -0.92188,5.23828 -0.16579,1.06794 -0.46762,2.71742 -0.67187,3.66406 -0.55421,2.56847 -1.23517,6.24821 -1.53711,8.31446 -0.1472,1.00729 -0.46763,2.85998 -0.71289,4.11914 -0.24522,1.25917 -0.35031,2.5377 -0.23437,2.83984 0.17178,0.44792 1.06044,0.54883 4.8125,0.54883 5.08982,0 5.01449,0.037 5.08789,-2.50781 l 0.0391,-1.33789 -2.43945,-0.10743 c -2.89197,-0.12751 -3.047,-0.34345 -2.30469,-3.19336 0.29306,-1.12504 0.53125,-2.50777 0.53125,-3.07226 0,-0.56448 0.16489,-1.50382 0.36523,-2.08789 0.20035,-0.58407 0.52328,-2.05102 0.7168,-3.25977 0.19353,-1.20875 0.59757,-3.51723 0.89844,-5.1289 0.30087,-1.61167 0.64193,-3.50778 0.75781,-4.21289 0.326,-1.98363 1.28307,-6.97108 1.66797,-8.6875 0.19052,-0.84962 0.45561,-2.46433 0.58789,-3.58985 z m 64.0586,0.0391 c -2.42543,0 -2.99414,0.58761 -2.99414,3.08594 0,1.06356 -0.16215,2.41202 -0.36133,2.99609 -0.19918,0.58408 -0.52803,2.13194 -0.73047,3.44141 -0.20245,1.30948 -0.63285,3.78174 -0.95508,5.49414 -0.32223,1.71239 -0.70865,3.93802 -0.85937,4.94531 -0.31534,2.10758 -1.00423,5.81765 -1.54297,8.31445 -0.20426,0.94664 -0.50847,2.59613 -0.67774,3.66407 -0.16927,1.06794 -0.47812,3 -0.68554,4.29492 -0.20739,1.29492 -0.29379,2.49059 -0.19141,2.65625 0.10238,0.16565 0.90338,0.30078 1.7793,0.30078 h 1.59179 l 0.55274,-1.92383 c 0.56151,-1.95687 1.21042,-5.21501 1.69531,-8.51562 0.34416,-2.34263 1.053,-6.12734 1.54297,-8.24024 0.21023,-0.90656 0.52245,-2.55604 0.69531,-3.66406 0.61216,-3.92393 1.02304,-6.28403 1.38867,-7.98438 0.71416,-3.32127 1.24791,-6.12943 1.42188,-7.49023 l 0.17383,-1.375 z m -47.88086,0.0137 c -0.68706,0.0487 -1.47274,0.32746 -2.03321,0.8125 -0.56037,0.48496 -1.22881,1.7254 -1.63086,3.02149 -0.37496,1.20874 -0.81257,2.35354 -0.97265,2.54492 -0.16008,0.19139 -0.29197,0.68662 -0.29297,1.09961 -10e-4,0.41299 -0.24984,1.22179 -0.55078,1.79883 -0.30095,0.57704 -0.54688,1.2726 -0.54688,1.54492 0,0.27233 -0.23306,1.03569 -0.51758,1.69726 -0.28443,0.66157 -1.20571,3.42876 -2.04687,6.14844 -0.84116,2.71969 -1.76244,5.48686 -2.04687,6.14844 -0.28452,0.66157 -0.51563,1.5162 -0.51563,1.90039 0,0.38419 -0.14755,0.78804 -0.32617,0.89844 -0.17862,0.11039 -0.43687,0.80107 -0.57422,1.5332 -0.13735,0.73213 -0.38035,1.59803 -0.54102,1.92578 -0.40834,0.83296 -1.1358,2.95126 -1.46484,4.26758 -0.15226,0.60911 -0.48005,1.48884 -0.72852,1.95312 -0.24893,0.46428 -0.36187,1.07694 -0.25195,1.36328 0.28157,0.73375 3.29526,0.69303 4.04297,-0.0547 0.31657,-0.31657 0.57617,-0.96875 0.57617,-1.45117 0,-0.48242 0.23202,-1.4185 0.51758,-2.08008 0.28556,-0.66157 0.79721,-2.15217 1.13477,-3.31055 l 0.61328,-2.10547 h 2.35742 c 1.55256,0 2.4164,0.1556 2.52734,0.45703 0.0927,0.25182 -0.0487,2.22524 -0.31445,4.38477 -0.26581,2.15953 -0.37376,4.10695 -0.23828,4.32617 0.14347,0.23208 1.07347,0.35076 2.22656,0.28516 l 1.98047,-0.11328 0.0898,-3.11329 c 0.0498,-1.71239 0.33938,-7.3988 0.64258,-12.63671 0.55968,-9.66846 0.73299,-21.62464 0.32813,-22.67969 -0.16634,-0.43347 -0.75631,-0.61516 -1.44336,-0.56641 z m 34.39062,0.35352 c -4.44068,0 -5.8097,0.32182 -6.69726,1.57422 -0.8395,1.1846 -1.49532,4.36116 -1.72852,8.36132 l -0.20703,3.52344 1.74414,3.25196 c 0.95881,1.78828 1.90841,3.58146 2.11133,3.98437 0.20292,0.40292 0.50643,0.97906 0.67383,1.28125 1.73132,3.1254 2.48214,5.16028 2.18945,5.93359 -0.17554,0.46379 -0.43686,1.85768 -0.58008,3.09766 -0.35124,3.04113 -1.06986,3.78906 -3.64453,3.78906 -2.74578,0 -3.0565,-0.45679 -2.43359,-3.59961 0.26631,-1.34361 0.50374,-3.18523 0.52734,-4.09179 l 0.043,-1.64844 h -1.63086 c -1.61787,0 -1.63681,0.0146 -2.12109,1.64844 -0.26871,0.90656 -0.65383,2.71981 -0.85547,4.02929 -0.20164,1.30948 -0.4569,2.89336 -0.56836,3.52149 -0.28938,1.63088 0.68808,3.33707 2.1582,3.76172 1.71804,0.49624 7.27855,0.48134 8.72656,-0.0234 2.2007,-0.76716 2.87898,-1.98044 3.65821,-6.53711 0.92907,-5.43284 0.87319,-6.82072 -0.37305,-9.27539 -0.62935,-1.23961 -1.34299,-2.57738 -1.58789,-2.97266 -0.87965,-1.41983 -2.00017,-3.34758 -3.18164,-5.47851 -1.09727,-1.97906 -1.18187,-2.35596 -0.97656,-4.32032 0.12373,-1.18378 0.39213,-2.46336 0.5957,-2.84375 0.20358,-0.38038 0.36914,-1.10133 0.36914,-1.60156 0,-0.7373 0.304,-1.02491 1.60937,-1.52344 1.5116,-0.57732 1.69255,-0.57825 2.93164,0.01 0.72602,0.34452 1.3165,0.8141 1.3125,1.04297 -0.01,0.65615 -1.04173,6.55096 -1.31054,7.48633 -0.23583,0.82057 -0.1842,0.84258 1.90039,0.73437 l 2.14453,-0.11133 0.45898,-2.74804 c 1.14069,-6.80748 1.19561,-7.3154 0.86329,-8.18946 -0.65588,-1.72509 -1.66619,-2.0664 -6.1211,-2.0664 z m -16.45703,0.0371 c -0.58744,-0.004 -1.23254,0.004 -1.92383,0.0234 -3.9857,0.11143 -4.48091,0.20067 -5.28711,0.95899 -1.17783,1.10787 -2.24348,4.97053 -2.69922,9.78515 -0.18485,1.95285 0.27299,3.02617 5.14258,12.01954 1.63096,3.01213 1.73639,3.36608 1.57422,5.31054 -0.26301,3.15352 -0.92156,5.69449 -1.60937,6.20508 -0.33923,0.25182 -1.47273,0.45703 -2.51758,0.45703 -2.58103,0 -2.94586,-0.48311 -2.4043,-3.17969 0.22865,-1.13848 0.41888,-2.66094 0.42188,-3.38281 0.003,-0.72187 0.15796,-1.55469 0.3457,-1.85156 0.44106,-0.69746 -0.1703,-1.09652 -1.69531,-1.10352 -1.91611,-0.009 -2.32032,0.30466 -2.32032,1.80665 0,0.75217 -0.24491,2.17706 -0.54492,3.16601 -0.6892,2.27172 -0.70459,6.32939 -0.0273,7.22266 0.27661,0.36485 0.97175,0.80471 1.54492,0.97656 1.48338,0.44451 7.01819,0.44095 8.62695,-0.006 2.38404,-0.66212 3.1882,-2.64569 4.03125,-9.9375 L 524,590.48828 l -1.35547,-2.68359 c -0.74556,-1.47664 -1.67008,-3.17884 -2.05469,-3.78321 -2.16456,-3.40147 -3.43768,-6.10772 -3.42968,-7.29101 0.04,-6.15849 1.98115,-8.82837 5.38476,-7.40625 1.55795,0.65095 1.68065,1.41968 0.7832,4.86523 -0.3021,1.16017 -0.54882,2.65168 -0.54882,3.31446 0,1.19905 0.01,1.20507 1.80273,1.20507 h 1.80078 l 0.42774,-1.74023 c 0.23535,-0.95693 0.5644,-2.64589 0.73047,-3.75391 0.16607,-1.10802 0.4218,-2.72436 0.56836,-3.59179 0.32219,-1.90733 -0.2319,-3.13893 -1.6836,-3.74024 -0.48017,-0.19887 -1.73183,-0.31123 -3.49414,-0.32226 z m -50.63086,0.002 c -0.71579,0.0222 -1.24983,0.0754 -1.42969,0.15234 -0.35971,0.15396 -1.10453,0.24312 -1.65625,0.19922 -1.4072,-0.11185 -3.05864,1.7607 -3.32031,3.76367 -0.23456,1.79552 -0.87927,5.24878 -1.41211,7.56641 -0.20843,0.90656 -0.52837,2.63695 -0.71094,3.8457 -0.18258,1.20875 -0.58521,3.6001 -0.89453,5.3125 -0.30932,1.71239 -0.71771,4.17427 -0.9082,5.47071 -0.1905,1.29644 -0.50222,2.8611 -0.69141,3.47851 -0.51662,1.68581 -0.84605,5.80785 -0.55664,6.96094 0.16463,0.65594 0.65986,1.19109 1.39649,1.51172 1.56705,0.68157 7.92161,0.68576 9.54883,0.006 2.18831,-0.91433 2.67971,-2.20875 3.83593,-10.10352 0.19173,-1.30948 0.21658,-2.51371 0.0547,-2.67773 -0.16188,-0.16404 -1.00959,-0.2469 -1.88281,-0.1836 l -1.58789,0.11524 -0.63477,3.11328 c -0.3499,1.71239 -0.73871,3.73933 -0.86328,4.50391 -0.1689,1.03673 -0.46047,1.47941 -1.14648,1.74023 -1.45724,0.55405 -3.28183,0.40888 -4.19922,-0.33398 l -0.84375,-0.6836 0.61133,-2.88867 c 0.33651,-1.58822 0.69281,-3.38195 0.79101,-3.98633 0.0982,-0.60437 0.43028,-2.41763 0.74024,-4.02929 0.30996,-1.61167 0.72045,-3.8373 0.91015,-4.94532 0.6314,-3.68795 1.15707,-6.38738 1.68945,-8.66797 0.28995,-1.24182 0.53021,-2.72361 0.53321,-3.29492 0.009,-1.75747 0.39038,-2.00391 2.91992,-1.88281 2.9568,0.14155 3.23052,0.51835 2.6543,3.6543 -0.2341,1.27403 -0.52858,3.01685 -0.6543,3.87304 l -0.22852,1.55664 h 2 1.99805 l 0.25391,-2.23046 c 0.13888,-1.22753 0.41135,-2.64959 0.60547,-3.16016 0.19412,-0.51058 0.37263,-2.07402 0.39843,-3.47266 0.0665,-3.6009 -0.43408,-4.04512 -4.80078,-4.2539 -0.90618,-0.0433 -1.80374,-0.0515 -2.51953,-0.0293 z m 95.21484,0.33984 c -0.59775,-9.4e-4 -1.28161,0.008 -2.0625,0.0176 -2.61959,0.033 -5.03174,0.19966 -5.36132,0.3711 -0.93174,0.48467 -2.14844,2.81186 -2.14844,4.10937 0,0.64455 -0.17011,1.7474 -0.37891,2.45117 -0.20879,0.70378 -0.53548,2.26787 -0.72461,3.47656 -0.18913,1.20875 -0.60338,3.68103 -0.91992,5.49415 -0.31653,1.81313 -0.70513,4.12161 -0.86523,5.1289 -0.46226,2.90832 -1.13878,6.40705 -1.71094,8.85156 -0.55191,2.35802 -0.69909,5.84674 -0.29102,6.91016 0.13088,0.34107 0.74846,0.84138 1.37305,1.11328 1.34571,0.58583 7.13141,0.68618 9.03906,0.15625 2.49987,-0.69445 2.85317,-1.4545 3.99805,-8.60742 0.16123,-1.00729 0.412,-2.45836 0.55859,-3.22461 l 0.26758,-1.39258 -2.15234,0.11133 -2.15039,0.11133 -0.23242,1.83203 c -0.48701,3.84286 -1.10593,6.61149 -1.58985,7.10156 -0.27643,0.27995 -1.29921,0.58434 -2.27148,0.67774 -1.46401,0.14067 -1.88824,0.0377 -2.4668,-0.60157 -0.62138,-0.68661 -0.65312,-0.98432 -0.30078,-2.69335 0.62845,-3.04832 1.27759,-6.52814 1.58789,-8.51368 0.15741,-1.00729 0.53998,-3.15006 0.85156,-4.76172 0.31157,-1.61167 0.735,-4.00302 0.94141,-5.3125 0.2064,-1.30948 0.47359,-2.6275 0.5918,-2.92968 0.11822,-0.30219 0.34671,-1.58518 0.50976,-2.85157 0.16305,-1.2664 0.49744,-2.54493 0.74219,-2.83984 0.45508,-0.54834 3.74469,-0.75749 4.9043,-0.3125 0.6578,0.25242 0.78074,2.12738 0.23437,3.56445 -0.18933,0.49798 -0.45682,1.91115 -0.5957,3.13868 l -0.25391,2.23046 h 1.84375 1.8418 l 0.59766,-2.6914 c 0.32945,-1.48107 0.63443,-4.13265 0.67773,-5.89063 0.0922,-3.74743 0.10063,-4.21802 -4.08399,-4.22461 z m -65.21679,10.3086 c 0.20009,0.0926 0.39618,0.64681 0.54492,1.63867 0.30245,2.0169 -0.5012,11.46365 -1.03125,12.12305 -0.38539,0.47943 -2.5416,0.63613 -2.96289,0.21484 -0.43583,-0.43582 -0.25855,-2.57613 0.30273,-3.65234 0.30095,-0.57704 0.54783,-1.42289 0.54883,-1.87891 0.001,-0.45601 0.14588,-1.11502 0.32227,-1.46484 0.39697,-0.78728 1.41168,-4.25381 1.71289,-5.85547 0.1597,-0.84918 0.36241,-1.21756 0.5625,-1.125 z m 0.93164,38.73437 c -2.66375,0.0104 -5.39068,0.17542 -5.64453,0.48438 -0.20691,0.25182 -0.43431,1.03512 -0.50391,1.74023 -0.12313,1.24773 -0.0861,1.2866 1.33985,1.46485 1.45547,0.18193 1.46439,0.19276 1.43359,1.73046 -0.0303,1.51309 -0.35553,3.34482 -1.44922,8.16016 -0.29741,1.30948 -0.53816,2.79324 -0.53516,3.29688 0.003,0.50365 -0.23578,1.98544 -0.5332,3.29492 -0.29741,1.30948 -0.70357,3.28846 -0.90234,4.39648 -0.19876,1.10802 -0.5531,3.00414 -0.78711,4.21289 -0.234,1.20875 -0.55978,3.10292 -0.72461,4.21094 -0.16483,1.10802 -0.48758,2.6481 -0.7168,3.42188 -0.2292,0.77377 -0.32768,1.63995 -0.21875,1.92382 0.13381,0.34869 0.79102,0.51563 2.02734,0.51563 2.07458,0 2.58985,-0.52925 2.58985,-2.66797 0,-0.68829 0.16216,-1.73038 0.36133,-2.31445 0.19918,-0.58407 0.52909,-2.13388 0.73242,-3.44336 0.20333,-1.30948 0.61654,-3.69888 0.91797,-5.31055 0.30143,-1.61166 0.70948,-4.05301 0.9082,-5.42578 0.19873,-1.37277 0.46673,-2.66633 0.5957,-2.875 0.12896,-0.20867 0.36436,-1.31098 0.52344,-2.44922 0.40164,-2.87383 1.36541,-8.07701 1.74024,-9.39648 0.27252,-0.95928 0.50103,-1.11094 1.79296,-1.20704 1.36448,-0.10149 1.51237,-0.21923 1.89844,-1.50781 0.23029,-0.76866 0.41797,-1.586 0.41797,-1.81445 0,-0.30797 -2.59993,-0.45178 -5.26367,-0.44141 z m 24.30273,0.0274 c -6.45316,0 -7.14765,0.60351 -8.23047,7.14257 -0.3336,2.01458 -0.75903,4.16844 -0.94531,4.78711 -0.18627,0.61868 -0.33984,1.58329 -0.33984,2.14454 0,0.56121 -0.23451,2.11676 -0.52149,3.45507 -0.70591,3.29191 -1.36872,6.81287 -1.69921,9.02539 -0.15048,1.00729 -0.54588,3.38973 -0.87891,5.29297 -0.65978,3.77058 -0.54531,4.89842 0.62695,6.1543 0.71484,0.76585 1.0784,0.82422 5.14844,0.82422 6.13186,0 7.25143,-0.77105 7.97461,-5.49414 0.16966,-1.10802 0.56779,-3.49937 0.88476,-5.3125 0.31697,-1.81312 0.71024,-4.11967 0.87305,-5.12696 0.39277,-2.42992 1.08093,-6.03473 1.72266,-9.02734 0.28698,-1.3383 0.52148,-2.93407 0.52148,-3.54687 0,-0.6128 0.15312,-1.51666 0.33985,-2.00782 0.18674,-0.49115 0.45322,-2.06013 0.59375,-3.48632 0.25102,-2.54745 0.2353,-2.61236 -0.86133,-3.70899 -1.11103,-1.1113 -1.13478,-1.11523 -5.20899,-1.11523 z m 13.41407,0 c -1.9206,0 -1.93878,0.01 -2.34961,1.38086 -0.22766,0.75983 -0.58232,2.44879 -0.78907,3.7539 -0.20675,1.30512 -0.62951,3.69302 -0.93945,5.30469 -0.30993,1.61166 -0.71992,4.00107 -0.91211,5.31055 -0.19219,1.30948 -0.51731,2.85928 -0.7207,3.44336 -0.20339,0.58407 -0.36914,1.70707 -0.36914,2.49609 0,0.78901 -0.15109,1.71711 -0.33594,2.0625 -0.18484,0.34538 -0.51339,1.77556 -0.73047,3.17969 -0.21707,1.40413 -0.64636,3.87271 -0.95312,5.48437 -0.30675,1.61167 -0.65846,3.71299 -0.78125,4.66992 l -0.22266,1.74024 h 1.83398 c 2.15023,0 2.54449,-0.36046 2.83399,-2.58203 0.11683,-0.89657 0.35993,-2.4556 0.53906,-3.46289 0.17913,-1.00729 0.58819,-3.47956 0.91016,-5.49414 0.32198,-2.01458 0.8295,-5.00242 1.12695,-6.64063 0.29746,-1.63822 0.54388,-3.69811 0.54688,-4.57812 0.006,-1.79219 0.53958,-3.08326 0.88476,-2.14063 0.28212,0.77042 0.92536,7.39693 1.2793,13.17773 0.16651,2.71969 0.50877,6.46855 0.76172,8.33204 l 0.46093,3.38867 h 1.95313 c 2.29044,0 2.71289,-0.4776 2.71289,-3.06836 0,-0.90792 0.1404,-1.73739 0.3125,-1.84375 0.17211,-0.10637 0.41455,-1.16809 0.53906,-2.35938 0.12452,-1.1913 0.39203,-2.88572 0.59375,-3.76562 0.49707,-2.1681 1.14877,-5.60534 1.48438,-7.82617 0.15223,-1.0073 0.46985,-2.82055 0.70508,-4.0293 0.23524,-1.20875 0.57386,-3.02201 0.7539,-4.0293 0.18004,-1.00729 0.5731,-3.15006 0.87305,-4.76172 0.99763,-5.36035 1.20617,-6.78017 1.02344,-6.96289 -0.0996,-0.0996 -1.06032,-0.17968 -2.13477,-0.17968 -1.88803,0 -1.95312,0.0339 -1.95312,1.00976 0,0.55534 -0.17012,1.58528 -0.37891,2.28906 -0.2088,0.70377 -0.53219,2.26782 -0.71875,3.47657 -0.18657,1.20875 -0.58996,3.76388 -0.89649,5.67773 -0.30648,1.91385 -0.73008,4.91076 -0.93945,6.66016 -0.43517,3.63608 -1.32599,6.23185 -1.85351,5.39844 -0.18124,-0.28636 -0.34163,-1.83952 -0.35743,-3.45118 -0.0158,-1.61167 -0.18852,-4.74294 -0.38281,-6.95898 -0.19428,-2.21604 -0.48831,-6.10704 -0.6543,-8.64649 -0.16594,-2.53945 -0.41998,-4.8065 -0.5625,-5.03711 -0.14247,-0.23055 -1.1291,-0.41796 -2.19335,-0.41796 z m -25.29297,0.0332 c -0.33805,-0.005 -0.79318,0.0126 -1.39063,0.041 l -2.28906,0.10742 -0.23438,1.64843 c -0.12836,0.90656 -0.51519,3.1322 -0.85937,4.94532 -0.34419,1.81312 -0.74824,4.12161 -0.89844,5.1289 -0.31329,2.10105 -0.99995,5.80689 -1.54101,8.31446 -0.20426,0.94665 -0.51434,2.59417 -0.68946,3.66211 -0.17513,1.06794 -0.58791,3.42515 -0.91601,5.23828 -0.32811,1.81312 -0.71578,4.12161 -0.86133,5.1289 -0.14556,1.00729 -0.47511,2.21457 -0.73242,2.6836 -0.25692,0.46902 -0.37357,1.09601 -0.25977,1.39258 0.15633,0.4074 0.72181,0.51083 2.31641,0.42773 2.05323,-0.10699 2.11367,-0.13999 2.20117,-1.20899 0.0495,-0.60434 0.27381,-1.99112 0.49805,-3.08203 0.22423,-1.09091 0.54679,-2.8213 0.71679,-3.8457 0.17001,-1.0244 0.56246,-3.18131 0.87305,-4.79297 0.31058,-1.61167 0.72706,-4.05301 0.92578,-5.42578 0.19873,-1.37277 0.44472,-2.63157 0.54688,-2.79687 0.10216,-0.16529 0.35592,-1.34851 0.5625,-2.63086 0.20658,-1.28235 0.62134,-3.65201 0.92187,-5.26368 0.30054,-1.61166 0.72434,-4.07829 0.94141,-5.48242 0.21708,-1.40413 0.54563,-2.83625 0.73047,-3.18164 0.41195,-0.76975 0.45164,-0.99202 -0.5625,-1.00781 z m -23.38868,0.0137 c -0.20389,-10e-4 -0.42113,0.006 -0.63867,0.0215 -1.98231,0.14417 -1.95779,0.0738 -3.62109,10.33203 -0.1925,1.18723 -0.51214,2.91762 -0.71094,3.8457 -0.4244,1.98128 -1.04592,5.26779 -1.53125,8.09766 -0.19003,1.10802 -0.59531,3.41456 -0.90234,5.12695 -0.30704,1.7124 -0.69907,4.02089 -0.8711,5.12891 -0.17202,1.10802 -0.51039,2.73206 -0.75,3.60937 -0.2395,0.87732 -0.34416,1.8338 -0.23242,2.125 0.15193,0.39586 0.73624,0.50027 2.31446,0.41797 l 2.11132,-0.10938 0.21875,-2.92968 c 0.12056,-1.61166 0.32492,-3.17828 0.45508,-3.48047 0.13015,-0.30219 0.39633,-1.53735 0.58985,-2.7461 0.19352,-1.20875 0.61054,-3.6001 0.92773,-5.3125 0.3172,-1.71239 0.70955,-3.93607 0.87305,-4.94336 0.37948,-2.33783 1.08969,-6.10513 1.5664,-8.31445 0.39867,-1.84763 0.87743,-4.64529 1.40039,-8.16992 0.17939,-1.20875 0.19523,-2.33207 0.0352,-2.49609 -0.12005,-0.12303 -0.6227,-0.19897 -1.23438,-0.20313 z m 34.57032,3.61524 c 1.68682,0 3.07151,1.21008 2.72265,2.3789 -0.12057,0.40393 -0.39078,1.88298 -0.59961,3.28711 -0.20882,1.40413 -0.53,2.83625 -0.71484,3.18164 -0.18485,0.34538 -0.33594,1.17642 -0.33594,1.8457 0,0.66931 -0.17206,1.79233 -0.38086,2.4961 -0.2088,0.70377 -0.52917,2.26781 -0.71289,3.47656 -0.18373,1.20875 -0.58791,3.51724 -0.89843,5.12891 -0.31052,1.61166 -0.74289,4.06597 -0.96094,5.45508 -0.21805,1.38911 -0.65207,2.91429 -0.96289,3.38867 -0.47502,0.72497 -0.87198,0.86133 -2.49219,0.86133 -3.10142,0 -3.18514,-0.35226 -1.83203,-7.69141 0.31572,-1.71239 0.70643,-4.01893 0.86914,-5.12695 0.16271,-1.10802 0.40327,-2.26227 0.5332,-2.56446 0.12993,-0.30219 0.40212,-1.6202 0.60547,-2.92968 0.20334,-1.30948 0.62345,-3.70083 0.9336,-5.3125 0.31011,-1.61167 0.69739,-3.73886 0.85937,-4.72852 0.35953,-2.19659 1.37531,-3.14648 3.36719,-3.14648 z"
         style="fill:#a0a0a0;stroke:none;stroke-width:0.36628762"
         inkscape:connector-curvature="0" />
      <path
         id="path70"
         transform="scale(0.26458333)"
         d="m 553.01953,565.16797 c -0.86046,0.0319 -1.81494,0.19685 -2.18945,0.4707 -0.45092,0.32972 -0.74818,1.22955 -0.93946,2.83985 -0.28667,2.41394 -3.5849,21.19124 -4.53124,25.79882 -0.85831,4.17866 -1.45823,8.85719 -1.2168,9.48633 0.15344,0.39987 0.68149,0.58594 1.66015,0.58594 h 1.43555 l 0.76953,-3.20508 c 0.42286,-1.76276 1.02585,-4.77169 1.33985,-6.68555 0.314,-1.91385 1.04997,-6.03364 1.63672,-9.15625 0.58669,-3.1226 1.65172,-8.77902 2.36523,-12.57031 0.71352,-3.7913 1.29687,-7.04687 1.29687,-7.23437 0,-0.25997 -0.76648,-0.36199 -1.62695,-0.33008 z m -64.94336,0.006 c -0.29346,-0.0172 -0.70368,0.0401 -1.25586,0.10547 -1.04223,0.12344 -2.01413,0.35332 -2.16015,0.50976 -0.14603,0.15645 -0.7028,2.75548 -1.23633,5.77735 -0.53353,3.02187 -1.63543,9.12065 -2.44922,13.55273 -3.05299,16.62703 -3.2807,18.26066 -2.60938,18.77344 0.74082,0.56587 7.51607,0.62769 8.54297,0.0781 0.51163,-0.27382 0.70703,-0.76949 0.70703,-1.78515 0,-1.28222 -0.10101,-1.42802 -1.14453,-1.63672 -0.62956,-0.12592 -1.59781,-0.22852 -2.15234,-0.22852 -1.48804,0 -1.95,-0.75146 -1.50195,-2.44336 0.20414,-0.77084 0.53656,-2.39086 0.74023,-3.59961 0.20366,-1.20875 1.21423,-6.73138 2.24414,-12.27148 1.02992,-5.5401 2.10131,-11.30937 2.38086,-12.82031 0.59829,-3.23366 0.77492,-3.96024 -0.10547,-4.01172 z m 17.23242,0.0508 c -0.90252,-0.0207 -2.20597,0.64562 -2.85156,1.60351 -0.40698,0.60391 -2.5268,6.53175 -4.70898,13.17383 -2.18217,6.64209 -4.83592,14.66295 -5.89844,17.82422 -1.35862,4.04222 -1.81748,5.86416 -1.54492,6.13672 1.01446,1.01446 3.7889,0.10974 4.10937,-1.33984 0.12406,-0.56113 0.71899,-2.54472 1.32227,-4.40821 l 1.09765,-3.38867 h 2.32813 c 1.28098,0 2.42707,0.15772 2.54687,0.35156 0.1198,0.19384 0.0262,2.19175 -0.20898,4.4375 -0.35755,3.41466 -0.34497,4.13854 0.0781,4.42383 0.49116,0.33111 3.12439,0.19593 3.5,-0.17968 0.33423,-0.33423 1.23772,-20.35318 1.32032,-29.24805 0.0592,-6.37865 -0.0363,-8.79475 -0.36133,-9.12305 -0.17255,-0.17429 -0.42768,-0.25678 -0.72852,-0.26367 z m 34.01172,0.32227 c -1.62445,-0.005 -3.28319,0.10545 -4.26953,0.33398 -2.59744,0.60182 -3.23755,2.04973 -3.88867,8.79883 l -0.4082,4.21289 3.17773,5.95117 c 1.74779,3.27289 3.26836,6.50818 3.37891,7.18945 0.29475,1.81634 -0.55631,6.28773 -1.40235,7.36328 -0.61473,0.78151 -1.03023,0.92383 -2.67187,0.92383 -2.69815,0 -2.98378,-0.42531 -2.45117,-3.65039 0.23018,-1.39377 0.41992,-3.20214 0.41992,-4.01953 v -1.48633 h -1.47461 c -1.24684,0 -1.53076,0.14384 -1.83399,0.94141 -0.60166,1.58246 -1.73504,8.49897 -1.55078,9.46289 0.24514,1.28232 1.33883,2.14258 3.13086,2.46094 2.03045,0.36071 7.11678,0.0436 8.30078,-0.51758 1.4178,-0.67206 2.48235,-3.27993 3.09571,-7.58594 0.78951,-5.54274 0.65187,-6.01442 -4.14453,-14.2793 -2.49915,-4.30638 -2.62816,-5.06691 -1.55664,-9.16406 0.55607,-2.12654 0.76617,-2.45121 1.95898,-3.03711 1.40008,-0.68771 2.53507,-0.59589 3.74609,0.30274 0.6785,0.50347 0.68082,0.62506 0.0859,4.20703 -0.33691,2.0286 -0.65192,3.88808 -0.69922,4.13086 -0.1103,0.56556 1.86793,0.76863 3.0625,0.31445 0.82967,-0.31544 0.96618,-0.69554 1.54102,-4.32227 1.0267,-6.47747 0.8353,-7.52462 -1.48828,-8.16992 -0.84459,-0.23455 -2.43415,-0.35605 -4.0586,-0.36132 z m -65.66601,0.0742 c -2.32575,-0.0365 -4.73846,0.24839 -5.74024,0.87696 -0.46124,0.2894 -1.07259,1.05434 -1.35742,1.69922 -0.54626,1.23674 -2.09102,9.07808 -3.6582,18.57031 -0.51554,3.12261 -1.1791,6.77211 -1.47461,8.10937 -0.29551,1.33726 -0.56872,3.60883 -0.60742,5.04883 -0.081,3.01698 0.29177,3.6265 2.50781,4.09375 2.10122,0.44305 7.57215,0.10558 8.83008,-0.54492 0.68701,-0.35527 1.31269,-1.12775 1.70312,-2.10352 0.74758,-1.86841 1.88386,-9.12817 1.56055,-9.9707 -0.27703,-0.72192 -2.05546,-0.81035 -2.88281,-0.14453 -0.33895,0.27277 -0.88454,2.08595 -1.35157,4.48633 -0.51678,2.65615 -0.9965,4.1845 -1.40429,4.48633 -0.94694,0.70089 -3.5578,0.56896 -4.54492,-0.23047 l -0.85157,-0.68946 1.375,-7.27734 c 0.75643,-4.00254 1.9583,-10.41058 2.66992,-14.23828 0.71161,-3.82771 1.42294,-7.20562 1.58008,-7.50781 0.399,-0.76729 3.99866,-0.94049 4.95899,-0.23828 0.68538,0.50104 0.69693,0.68238 0.2539,3.77148 -0.25587,1.78406 -0.55637,3.61313 -0.66797,4.06641 -0.19224,0.78085 -0.0947,0.82421 1.85157,0.82421 h 2.05468 l 0.0117,-1.18945 c 0.007,-0.65474 0.24907,-2.26278 0.53711,-3.57226 0.7672,-3.4879 0.71308,-6.42952 -0.13476,-7.27735 -0.65454,-0.65454 -2.893,-1.01236 -5.21875,-1.04883 z m 48.42773,0.0937 c -5.47461,0.0113 -6.06444,0.18443 -7.01758,2.05274 -0.94181,1.84609 -1.79417,5.80198 -1.85937,8.63086 -0.046,1.99346 0.15145,2.51031 3.35351,8.75195 l 3.40235,6.63477 -0.24024,2.34375 c -0.30711,2.97703 -0.84508,4.91345 -1.56054,5.6289 -0.75293,0.75296 -4.27653,0.76849 -4.89649,0.0215 -0.35541,-0.42824 -0.32899,-1.35815 0.12695,-4.47266 0.61854,-4.22451 0.54862,-4.49261 -1.16601,-4.50391 -1.35857,-0.009 -2.26563,0.66427 -2.26563,1.68165 0,0.51065 -0.26886,2.29733 -0.59765,3.9707 -0.65561,3.33674 -0.47007,6.06199 0.46484,6.83789 0.30975,0.25707 1.24913,0.5902 2.08789,0.74023 v -0.002 c 2.33372,0.41744 7.57965,0.029 8.59571,-0.63672 1.36449,-0.89405 2.18834,-3.27172 2.84961,-8.23047 l 0.60937,-4.57031 -1.51172,-2.91992 c -0.8308,-1.60586 -2.25217,-4.23989 -3.1582,-5.85156 -2.11706,-3.76586 -2.3329,-4.60599 -1.97071,-7.61524 0.50608,-4.20377 2.1736,-5.92081 4.88086,-5.02734 1.72602,0.56964 1.90638,1.45149 1.12305,5.48437 -0.34771,1.78991 -0.52119,3.4328 -0.38672,3.65039 0.13448,0.21759 0.96187,0.39453 1.83985,0.39453 h 1.5957 l 0.40234,-1.875 c 0.94491,-4.40597 1.44646,-8.44734 1.14649,-9.23632 -0.63419,-1.66806 -1.33032,-1.89182 -5.84766,-1.88282 z m 46.41406,0.23243 c -0.3979,-0.0123 -0.8529,-0.009 -1.37109,0.004 -0.59222,0.0144 -1.26765,0.0405 -2.03906,0.0723 -2.4175,0.0995 -4.652,0.28136 -4.96485,0.40234 -0.88203,0.34108 -1.81527,2.19505 -2.17382,4.31445 -1.4909,8.81274 -4.1235,23.41567 -4.40821,24.45313 -0.1935,0.7051 -0.45592,2.51837 -0.58203,4.0293 -0.19869,2.38057 -0.13439,2.86275 0.47852,3.61718 0.39247,0.48309 1.34998,1.00429 2.15039,1.17188 1.96487,0.4114 7.45512,0.13558 8.71289,-0.4375 0.56328,-0.25664 1.25059,-0.90428 1.52734,-1.43945 0.36772,-0.71109 2.37305,-10.18753 2.37305,-11.21485 0,-0.26167 -2.55895,-0.10592 -3.37695,0.20508 -0.75296,0.28627 -0.91703,0.71577 -1.31055,3.4375 -0.59279,4.09994 -1.06669,5.37017 -2.1582,5.78516 -1.51195,0.57485 -3.24137,0.401 -3.96485,-0.39844 -0.61199,-0.67624 -0.62914,-0.94682 -0.20312,-3.20508 0.25592,-1.35653 1.19744,-6.50568 2.09179,-11.44141 0.89434,-4.93572 1.86544,-10.29263 2.15821,-11.90429 0.63687,-3.5058 1.05171,-3.91818 3.79492,-3.76953 2.57002,0.13927 2.90022,0.62968 2.33398,3.47461 -0.23271,1.16917 -0.53308,2.9083 -0.66797,3.86523 l -0.24609,1.74023 h 1.83203 1.83203 l 0.48243,-2.47265 c 0.26601,-1.35985 0.491,-4.03165 0.5,-5.9375 0.0154,-3.43597 -0.0154,-4.26558 -2.80079,-4.35156 z m -66.1914,10.19921 c 0.91625,0 0.53887,11.79062 -0.43555,13.61133 -0.24397,0.45586 -0.77286,0.67383 -1.64062,0.67383 -1.98704,0 -2.05698,-0.79419 -0.5293,-6.04492 0.4103,-1.41021 1.1005,-3.84114 1.5332,-5.40234 0.43271,-1.5613 0.91562,-2.8379 1.07227,-2.8379 z m 28.80273,38.72852 -4.1543,0.18164 c -4.55131,0.20085 -5.73757,0.646 -6.41992,2.40625 -0.53602,1.38275 -2.18253,9.90763 -4.7539,24.61523 -1.48571,8.49788 -1.39106,10.54582 0.52343,11.37696 0.44011,0.19107 2.66858,0.28488 4.95313,0.20898 4.47703,-0.14876 5.61748,-0.57893 6.53125,-2.46289 0.40139,-0.82756 2.26068,-10.88814 4.96094,-26.83984 l 1.16992,-6.91211 -1.4043,-1.28711 z m 9.47852,0.0918 c -0.75989,0.0507 -1.45324,0.29706 -1.67578,0.71289 -0.20848,0.38954 -1.0317,4.38699 -1.82813,8.88281 -1.88519,10.64185 -2.1476,12.07446 -2.7832,15.13477 -0.56821,2.73587 -2.36133,13.18288 -2.36133,13.75781 0,0.18911 0.64031,0.34375 1.42383,0.34375 2.66455,0 2.71399,-0.12573 4.58398,-11.72852 0.92603,-5.74573 1.68646,-10.93886 1.68946,-11.53906 0.006,-1.18486 0.51623,-2.27694 0.82812,-1.77148 0.26795,0.43428 0.90923,6.27214 1.36133,12.40234 0.208,2.82042 0.56249,6.81786 0.78906,8.88281 l 0.41211,3.75391 h 1.5293 c 2.17162,0 2.85099,-0.63971 3.16406,-2.97461 0.2939,-2.19184 0.39606,-2.76401 3.79297,-21.31445 1.32116,-7.21483 2.40234,-13.44691 2.40234,-13.84766 0,-0.64792 -0.20975,-0.71559 -1.90039,-0.61719 l -1.90234,0.10938 -0.8125,4.39648 c -0.44755,2.41749 -1.24241,7.27917 -1.76563,10.80469 -0.52321,3.52552 -1.12533,7.03869 -1.33789,7.80664 -0.69274,2.50277 -1.23711,1.39328 -1.50976,-3.07422 -0.80949,-13.26401 -1.42133,-19.20219 -2.02539,-19.6582 -0.48799,-0.36838 -1.31434,-0.51363 -2.07422,-0.46289 z m -68.69141,0.006 -0.42187,1.55664 c -0.42342,1.56243 -0.83786,3.8105 -1.40821,7.64843 -0.16856,1.13423 -0.48173,2.86463 -0.69726,3.84571 -0.98778,4.49626 -1.28277,5.93773 -1.5625,7.64453 -0.16509,1.00729 -0.5617,3.23097 -0.88086,4.94336 -0.31917,1.7124 -0.72813,4.10455 -0.90821,5.31445 -0.17992,1.20991 -0.48951,2.62573 -0.6875,3.14649 -0.30172,0.79398 -0.57559,3.47649 -0.45507,4.45117 0.0187,0.1511 2.74943,0.27539 6.07031,0.27539 h 6.03906 l 1.17578,-1.05078 c 1.20037,-1.07253 1.87051,-3.08416 2.33594,-7.00782 0.10753,-0.90656 0.34416,-2.22458 0.52539,-2.92968 0.18122,-0.7051 0.59745,-2.93074 0.92578,-4.94532 0.32833,-2.01459 0.82155,-4.73348 1.09571,-6.04296 1.04958,-5.01325 1.89995,-9.88003 2.24414,-12.8418 0.17222,-1.482 0.0726,-1.79838 -0.89844,-2.83789 l -1.09375,-1.16992 h -5.69922 z m 20.27149,0.01 c -1.0604,-0.0385 -2.05065,0.47755 -2.35547,1.2793 -0.14054,0.36962 -0.92041,4.40187 -1.82227,9.24023 -0.006,0.034 -0.0114,0.0578 -0.0176,0.0918 -0.004,0.0231 -0.009,0.0587 -0.0137,0.082 -0.30131,1.61834 -0.56242,2.96346 -0.88867,4.76953 -1.31938,7.30388 -2.72466,15.02629 -3.12305,17.16016 -0.76387,4.09149 -0.88173,5.54797 -0.48047,5.94922 0.0653,0.0653 0.20205,0.11037 0.36328,0.14843 0.0484,0.0145 0.10573,0.0281 0.16407,0.0371 0.0974,0.0155 0.22261,0.0131 0.33593,0.0215 0.0507,3.6e-4 0.0883,0.008 0.14454,0.006 0.83627,0.039 1.92729,-0.0756 2.43554,-0.34766 0.50489,-0.27021 0.70822,-0.77057 0.70899,-1.74023 9.5e-4,-1.18789 0.86662,-6.22736 4.98437,-29.01563 0.43659,-2.41625 0.67498,-4.0939 0.74024,-5.27539 0.11949,-1.37414 0.0481,-2.06182 -0.20899,-2.2207 -0.0865,-0.0534 -0.25248,-0.0826 -0.44336,-0.10156 -0.0241,-0.007 -0.041,-0.0264 -0.0664,-0.0312 -0.15253,-0.0289 -0.30555,-0.0472 -0.45703,-0.0527 z m 22.875,0.0254 c -3.11,0.0919 -2.85397,-0.4293 -4.56836,9.31641 -2.71212,15.4174 -4.16983,23.36421 -4.75977,25.92773 -0.31599,1.37297 -0.48397,2.73243 -0.37305,3.02149 0.40007,1.04256 3.81586,0.44262 4.06055,-0.71289 0.0905,-0.42758 0.75425,-4.15527 1.47461,-8.28516 0.72035,-4.12989 1.55811,-8.74493 1.86133,-10.25586 0.30322,-1.51094 1.11177,-5.87932 1.79687,-9.70703 0.6851,-3.8277 1.35889,-7.49566 1.4961,-8.15039 0.24345,-1.16193 0.21817,-1.1899 -0.98828,-1.1543 z m -13.27149,0.008 c -0.89486,0.0146 -1.68942,0.0545 -2.22265,0.1211 -1.01262,0.12651 -1.51495,0.20381 -1.80079,0.41992 -0.5518,0.29239 -0.59489,0.80633 -0.52539,1.67969 -0.0241,0.44718 0.0604,0.7707 0.26758,0.99219 0.0328,0.0406 0.0797,0.0743 0.1211,0.10742 0.039,0.0289 0.0817,0.0558 0.12695,0.0801 0.16938,0.0931 0.37701,0.16641 0.68555,0.21875 0.97544,0.16546 1.11254,0.34727 1.21679,1.62109 0.0646,0.78923 -0.31529,3.75568 -0.84375,6.5918 -0.52846,2.83611 -1.83692,9.85414 -2.90625,15.5957 -0.46879,2.5171 -0.79957,4.42719 -1.0664,6.05859 -0.0515,0.26851 -0.17714,0.95249 -0.2168,1.15625 -0.45945,2.36064 -0.5401,3.48334 -0.26953,3.75391 0.0319,0.0319 0.0837,0.0543 0.125,0.082 0.45148,0.39942 1.16916,0.43868 1.88672,0.25195 0.51811,-0.0644 1.01145,-0.21075 1.32422,-0.43945 0.14395,-0.10529 0.2776,-0.30673 0.40429,-0.54687 0,0 0.002,-0.002 0.002,-0.002 0.32244,-0.3508 0.52735,-0.76042 0.52735,-1.19531 0,-0.42404 0.31929,-2.44252 0.71094,-4.48633 0.39165,-2.04382 1.6276,-8.77348 2.74609,-14.95312 1.11849,-6.17964 2.19354,-11.65475 2.38867,-12.16797 0.22163,-0.58293 0.73765,-1.01831 1.375,-1.1582 0.37356,-0.082 0.66237,-0.1582 0.96875,-0.23633 0.0191,-0.003 0.0314,-0.005 0.0508,-0.008 0.011,-0.002 0.0203,-0.0115 0.0312,-0.0137 0.11963,-0.031 0.33786,-0.0774 0.4043,-0.0976 0.38288,-0.11645 0.98493,-1.79696 1.04687,-2.63672 0.0225,-0.20328 0.0243,-0.36241 -0.0195,-0.40625 -0.004,-0.004 -0.0239,-0.008 -0.0293,-0.0117 -0.005,-0.006 -0.005,-0.0222 -0.01,-0.0273 -0.007,-0.007 -0.0926,-0.013 -0.11523,-0.0195 -0.69772,-0.22208 -3.91253,-0.36435 -6.38477,-0.32422 z m -39.24805,0.0371 -4.70703,0.10157 -0.32617,1.09961 c -0.17944,0.60437 -0.47202,2.08812 -0.65039,3.29687 -0.17837,1.20874 -0.57927,3.51529 -0.89258,5.12695 -0.31332,1.61167 -0.71873,3.92016 -0.89843,5.12891 -0.17985,1.20875 -0.49902,2.93914 -0.71094,3.8457 -0.39031,1.66967 -0.98716,4.90401 -1.52149,8.24219 -0.16124,1.00729 -0.56427,3.23292 -0.89453,4.94531 -0.33025,1.7124 -0.69565,3.9832 -0.8125,5.04688 l -0.21289,1.93359 4.85938,-0.10156 4.85937,-0.10352 0.49219,-1.64843 c 0.27071,-0.90656 0.49505,-1.68984 0.49805,-1.74024 0.003,-0.0504 -1.03371,-0.0918 -2.30469,-0.0918 -1.40872,0 -2.58571,-0.20127 -3.01563,-0.51563 -0.62841,-0.45951 -0.65673,-0.6516 -0.2539,-1.76562 0.24864,-0.6876 0.45312,-1.78759 0.45312,-2.44532 0,-0.65774 0.24082,-2.2113 0.53516,-3.45312 0.29434,-1.24181 0.66528,-3.08256 0.82422,-4.08985 l 0.28711,-1.83203 2.74804,-0.18359 c 1.51094,-0.10072 2.95325,-0.31554 3.20508,-0.47852 0.25189,-0.16303 0.45703,-1.02053 0.45703,-1.90625 v -1.60937 l -2.4707,-0.10938 -2.47266,-0.10742 -0.11523,-1.40039 c -0.0634,-0.77008 0.13437,-2.74905 0.43945,-4.39648 0.30508,-1.64742 0.65836,-3.65101 0.78711,-4.45313 0.42236,-2.63143 0.59193,-2.7539 3.80664,-2.7539 h 2.87891 l 0.16797,-1.55665 c 0.0918,-0.85603 0.0533,-1.68442 -0.084,-1.84179 -0.13732,-0.15734 -2.36667,-0.2402 -4.95508,-0.1836 z m 64.32422,3.58204 c 0.81426,0.0333 1.60268,0.32222 2.10547,0.85742 l 0.80469,0.85742 -0.77734,3.8125 c -0.42763,2.09716 -0.91198,4.63724 -1.07618,5.64453 -0.81049,4.97196 -2.976,16.66766 -3.34375,18.05469 -0.22917,0.86434 -0.71304,1.73052 -1.07421,1.92383 -1.04172,0.55751 -3.84981,0.42539 -4.37305,-0.20508 -0.55481,-0.66851 -0.35832,-2.66581 0.94922,-9.70117 0.50545,-2.71969 1.54102,-8.30685 2.30273,-12.41602 1.1874,-6.40567 1.50407,-7.56657 2.22266,-8.14844 0.60499,-0.48989 1.4455,-0.71298 2.25976,-0.67968 z m -49.32422,0.006 c 3.4497,0.0116 4.00067,0.87895 3.00977,4.7461 -0.33696,1.31505 -0.61333,2.88648 -0.61133,3.49219 0.002,0.6057 -0.17178,1.67708 -0.38672,2.38086 -0.21494,0.70377 -0.54587,2.26781 -0.73437,3.47656 -0.1885,1.20875 -0.59498,3.60011 -0.9043,5.3125 -0.30932,1.71239 -0.7142,4.14372 -0.90039,5.40429 -0.4462,3.02122 -1.10011,5.25079 -1.76953,6.04102 -0.41229,0.48669 -1.10362,0.64063 -2.87695,0.64063 -2.55864,0 -2.92607,-0.3022 -2.55469,-2.10938 0.11334,-0.55154 0.37514,-1.99242 0.58203,-3.20117 0.20689,-1.20875 0.53747,-3.02201 0.73438,-4.0293 0.19676,-1.00729 0.62193,-3.39684 0.94531,-5.31054 0.32337,-1.91386 0.75582,-4.25454 0.96093,-5.20118 0.35768,-1.6496 0.4837,-2.39159 1.39063,-8.16797 0.46132,-2.93818 0.9493,-3.48146 3.11523,-3.47461 z"
         style="fill:#c40000;fill-opacity:1;stroke:#c40000;stroke-width:0.36628762;stroke-opacity:1"
         inkscape:connector-curvature="0" />
      <g
         transform="matrix(0.07133362,0,0,0.07133362,11.722274,138.33477)"
         id="g150">
        <path
           inkscape:connector-curvature="0"
           d="M 53.126562,99.999974 C 21.30485,99.985561 0.0303,77.442175 0.0303,50.083 0.0303,22.73825 21.348112,-0.0862875 53.0833,2.25e-4 h 299.84787 c 31.72078,-0.0865 53.03859,22.738025 53.03859,50.082775 0,27.359175 -21.26735,49.902555 -53.08905,49.916974 z"
           id="path452"
           style="fill:#ed1c24;fill-opacity:1;fill-rule:nonzero;stroke:none" />
        <path
           inkscape:connector-curvature="0"
           d="m 53.220275,12.292025 c -25.2036,0.04325 -40.660262,16.898525 -40.660262,37.7261 0,20.834779 15.377362,37.805396 40.660262,37.718885 H 352.77258 c 25.30452,0.08651 40.66747,-16.884106 40.66747,-37.718885 0,-20.827575 -15.46388,-37.68285 -40.66747,-37.7261 z"
           id="path454"
           style="fill:#ffffff;fill-opacity:1;fill-rule:nonzero;stroke:none" />
        <path
           inkscape:connector-curvature="0"
           d="m 40.294063,26.371725 h 14.678075 l 20.294087,32.831 -0.0075,-32.831 h 14.5483 V 73.45545 H 75.273138 l -20.395013,-32.831 v 32.831 H 40.293775 V 26.371725 Z"
           id="path456"
           style="fill:#ed1c24;fill-opacity:1;fill-rule:nonzero;stroke:none" />
        <path
           inkscape:connector-curvature="0"
           d="m 168.92903,31.21635 h 14.17342 v 6.33695 h 7.66345 v 4.657187 h -7.66345 l 0.0144,31.244963 h -14.18784 l 0.007,-31.244963 h -7.69229 v -4.642775 l 7.69229,-0.01438 -0.007,-6.336949 z"
           id="path458"
           style="fill:#ed1c24;fill-opacity:1;fill-rule:nonzero;stroke:none" />
        <path
           inkscape:connector-curvature="0"
           d="M 97.910538,42.1456 H 112.06954 V 73.462659 H 97.910538 Z"
           id="path460"
           style="fill:#ed1c24;fill-opacity:1;fill-rule:nonzero;stroke:none" />
        <path
           inkscape:connector-curvature="0"
           d="m 97.874487,26.3573 h 14.195053 v 9.631587 H 97.874487 Z"
           id="path462"
           style="fill:#ed1c24;fill-opacity:1;fill-rule:nonzero;stroke:none" />
        <path
           inkscape:connector-curvature="0"
           d="m 346.00306,40.018862 c -11.42668,0 -20.6906,7.8581 -20.6906,17.568988 0,9.703676 9.26392,17.576196 20.6906,17.576196 11.4339,0 20.6834,-7.87252 20.6834,-17.576196 0,-9.710888 -9.2495,-17.568988 -20.6834,-17.568988 m 5.68812,17.525738 c 0,0 -0.0144,4.729275 -0.0144,6.632525 0,4.98881 -2.94139,7.043451 -5.78905,7.043451 -2.84045,0 -5.80345,-2.054641 -5.80345,-7.043451 0,-1.90325 0.007,-6.755087 0.007,-6.755087 0,0 0.008,-4.621138 0.008,-6.517176 0,-4.974399 2.97742,-7.014625 5.78904,-7.014625 2.82604,0 5.78905,2.040226 5.78905,7.014625 0,1.896038 -0.007,5.40695 0.0144,6.65415 v -0.01438 z"
           id="path464"
           style="fill:#ed1c24;fill-opacity:1;fill-rule:nonzero;stroke:none" />
        <path
           inkscape:connector-curvature="0"
           d="m 306.8279,57.645525 v -5.6016 c 0,-4.844625 -3.3451,-6.0702 -5.54393,-6.0702 -2.2565,0 -5.55113,1.225575 -5.55113,6.0702 v 5.572762 5.572763 c 0,4.85184 3.29464,6.099042 5.55113,6.099042 2.19883,0 5.54393,-1.247202 5.54393,-6.099042 z m -0.0937,-31.2738 h 13.96435 V 73.44824 h -13.99319 c 0,0 -0.007,-1.521155 -0.007,-1.802316 -5.41416,3.388356 -11.52761,3.388356 -16.30015,1.18232 -1.27605,-0.605579 -9.67484,-4.63556 -9.67484,-15.535969 0,-8.261825 7.786,-17.287825 17.99433,-16.386675 3.35953,0.295588 5.74579,1.521163 8.01671,2.804413 V 26.371725 Z"
           id="path466"
           style="fill:#ed1c24;fill-opacity:1;fill-rule:nonzero;stroke:none" />
        <path
           inkscape:connector-curvature="0"
           d="m 145.21054,40.70375 c 5.29881,-0.1514 16.0262,3.30905 15.95411,15.701788 -0.0144,2.213237 -0.007,17.042702 -0.007,17.042702 H 147.09957 V 52.887413 c 0,-2.732313 -2.60975,-5.760213 -6.47392,-5.760213 -3.85695,0 -6.71904,3.0279 -6.71904,5.760213 0,1.333712 0.0144,20.560827 0.0144,20.560827 h -14.05086 l -0.0144,-31.30264 14.06529,-0.01438 c 0,0 -0.0144,2.516037 0,3.294638 2.71069,-2.580913 6.61811,-4.5923 11.28971,-4.722063"
           id="path468"
           style="fill:#ed1c24;fill-opacity:1;fill-rule:nonzero;stroke:none" />
        <path
           inkscape:connector-curvature="0"
           d="m 260.25604,40.70375 c 5.2916,-0.1514 16.03341,3.30905 15.96131,15.701788 -0.0144,2.213237 0,17.042702 0,17.042702 H 262.14486 V 52.887413 c 0,-2.732313 -2.60975,-5.760213 -6.47392,-5.760213 -3.85695,0 -6.71183,3.0279 -6.71183,5.760213 0,1.333712 0.0144,20.560827 0.0144,20.560827 H 234.92264 V 42.1456 l 14.05087,-0.01438 c 0,0 -0.0144,2.516037 0,3.294638 2.70347,-2.580913 6.6037,-4.5923 11.28251,-4.722063"
           id="path470"
           style="fill:#ed1c24;fill-opacity:1;fill-rule:nonzero;stroke:none" />
        <path
           inkscape:connector-curvature="0"
           d="m 215.71717,62.497362 c 0,0 0.007,0.144188 0.007,1.90325 0,5.724155 -3.76323,7.000197 -5.85392,7.000197 -2.08348,0 -5.92603,-1.276042 -5.92603,-7.000197 0,-1.715812 0.0144,-6.459512 0.0144,-6.459512 0,0 26.66709,0.01438 26.66709,-0.01438 0,-9.703675 -9.37205,-17.742012 -20.88525,-17.742012 -11.5132,0 -20.842,7.8581 -20.842,17.5762 0,9.718091 9.3288,17.568985 20.842,17.568985 9.55227,0 17.62665,-5.450208 20.08501,-12.846911 l -14.10854,0.01438 z m -11.75831,-9.444137 c -0.0289,-2.739525 0.0289,-4.570675 0.93,-6.135088 1.10301,-1.932087 3.13603,-2.847662 4.9816,-2.862087 1.83836,0.01438 3.87138,0.93 4.96719,2.862087 0.90115,1.564413 0.95162,3.395563 0.92999,6.135088 z"
           id="path472"
           style="fill:#ed1c24;fill-opacity:1;fill-rule:nonzero;stroke:none" />
        <path
           inkscape:connector-curvature="0"
           d="m 369.60621,31.540762 c 1.37697,0 2.60975,-0.0865 2.60975,-1.744637 0,-1.326513 -1.20395,-1.564413 -2.3358,-1.564413 h -2.20604 v 3.30905 z m -1.93208,6.02695 h -1.62209 V 26.854737 h 4.06602 c 2.53767,0 3.79208,0.93 3.79208,3.049525 0,1.917663 -1.20394,2.746725 -2.77556,2.948588 l 3.04231,4.714862 h -1.81674 l -2.83324,-4.649975 h -1.85279 v 4.649975 z"
           id="path474"
           style="fill:#ed1c24;fill-opacity:1;fill-rule:nonzero;stroke:none" />
        <path
           inkscape:connector-curvature="0"
           d="m 369.62784,39.961188 c 4.21021,0 7.52647,-3.294638 7.52647,-7.771588 0,-4.404863 -3.31626,-7.713912 -7.52647,-7.713912 -4.24627,0 -7.56973,3.30905 -7.56973,7.713912 0,4.47695 3.32346,7.771588 7.56973,7.771588 M 360.19811,32.1896 c 0,-5.334862 4.31835,-9.263912 9.42973,-9.263912 5.06811,0 9.39367,3.929049 9.39367,9.263912 0,5.378113 -4.32556,9.321588 -9.39367,9.321588 -5.11138,0 -9.42973,-3.943476 -9.42973,-9.321588"
           id="path476"
           style="fill:#ed1c24;fill-opacity:1;fill-rule:nonzero;stroke:none" />
      </g>
    </g>
  </g>
</svg>
