<?xml version="1.0" encoding="UTF-8" standalone="no"?>
<!-- by Caetano Ramos -->

<svg
   xmlns:dc="http://purl.org/dc/elements/1.1/"
   xmlns:cc="http://creativecommons.org/ns#"
   xmlns:rdf="http://www.w3.org/1999/02/22-rdf-syntax-ns#"
   xmlns:svg="http://www.w3.org/2000/svg"
   xmlns="http://www.w3.org/2000/svg"
   xmlns:sodipodi="http://sodipodi.sourceforge.net/DTD/sodipodi-0.dtd"
   xmlns:inkscape="http://www.inkscape.org/namespaces/inkscape"
   width="159.28407mm"
   height="41.020447mm"
   viewBox="0 0 159.28408 41.020447"
   version="1.1"
   id="svg8"
   inkscape:version="0.92.4 (5da689c313, 2019-01-14)"
   sodipodi:docname="logo1.svg">
  <defs
     id="defs2" />
  <sodipodi:namedview
     id="base"
     pagecolor="#ffffff"
     bordercolor="#666666"
     borderopacity="1.0"
     inkscape:pageopacity="0.0"
     inkscape:pageshadow="2"
     inkscape:zoom="0.7"
     inkscape:cx="283.51551"
     inkscape:cy="154.54174"
     inkscape:document-units="mm"
     inkscape:current-layer="g5559"
     showgrid="false"
     inkscape:window-width="1600"
     inkscape:window-height="838"
     inkscape:window-x="-8"
     inkscape:window-y="-8"
     inkscape:window-maximized="1" />
  <metadata
     id="metadata5">
    <rdf:RDF>
      <cc:Work
         rdf:about="">
        <dc:format>image/svg+xml</dc:format>
        <dc:type
           rdf:resource="http://purl.org/dc/dcmitype/StillImage" />
        <dc:title></dc:title>
      </cc:Work>
    </rdf:RDF>
  </metadata>
  <g
     inkscape:label="Camada 1"
     inkscape:groupmode="layer"
     id="layer1"
     transform="translate(108.10947,-109.519)">
    <g
       id="g5477">
      <g
         id="g5402">
        <g
           id="g2403"
           transform="matrix(0.26458333,0,0,0.4824846,-108.84265,99.901153)">
          <g
             id="g5320"
             transform="matrix(0.98857954,0,0,1.0031025,20.048792,-1.0556491)">
            <g
               id="g5559">
              <g
                 id="g5786">
                <g
                   id="g5712">
                  <g
                     style="stroke:#f3fbfa;stroke-width:0;stroke-miterlimit:4;stroke-dasharray:none;stroke-opacity:0.04020099"
                     transform="matrix(0.99259348,0,0,0.49362846,-13.350947,-208.4414)"
                     id="g5173">
                    <g
                       style="stroke:#f3fbfa;stroke-width:0;stroke-miterlimit:4;stroke-dasharray:none;stroke-opacity:0.04020099"
                       id="g5171">
                      <g
                         style="stroke:#f3fbfa;stroke-width:0;stroke-miterlimit:4;stroke-dasharray:none;stroke-opacity:0.04020099"
                         id="g5143"
                         transform="matrix(0.12890385,0,0,0.17975932,4.716488,474.11287)">
                        <g
                           style="fill:#9f9fa0;stroke:#f3fbfa;stroke-width:0;stroke-miterlimit:4;stroke-dasharray:none;stroke-opacity:0.04020099"
                           id="g5129">
                          <path
                             inkscape:connector-curvature="0"
                             style="fill:#9f9fa0;stroke:#f3fbfa;stroke-width:0;stroke-miterlimit:4;stroke-dasharray:none;stroke-opacity:0.04020099"
                             id="path5119"
                             d="m 1214.7,96 c 0,52.7 44.7,95.6 99.4,95.6 57,0 101.8,-42.1 101.8,-95.6 0,-53.8 -44.8,-96 -101.8,-96 -54.7,0 -99.4,43.1 -99.4,96"
                             class="A" />
                          <path
                             inkscape:connector-curvature="0"
                             style="fill:#9f9fa0;stroke:#f3fbfa;stroke-width:0;stroke-miterlimit:4;stroke-dasharray:none;stroke-opacity:0.04020099"
                             d="m 1231.4,287.79999 h 169.5 v 548.59997 h -169.5 z"
                             id="rect5121" />
                          <path
                             inkscape:connector-curvature="0"
                             style="fill:#9f9fa0;stroke:#f3fbfa;stroke-width:0;stroke-miterlimit:4;stroke-dasharray:none;stroke-opacity:0.04020099"
                             id="path5123"
                             d="m 1559.5,96 c 0,52.7 44.5,95.6 99.2,95.6 57.2,0 101.9,-42.1 101.9,-95.6 0,-53.8 -44.7,-96 -101.9,-96 -54.7,0 -99.2,43.1 -99.2,96"
                             class="A" />
                          <path
                             inkscape:connector-curvature="0"
                             style="fill:#9f9fa0;stroke:#f3fbfa;stroke-width:0;stroke-miterlimit:4;stroke-dasharray:none;stroke-opacity:0.04020099"
                             d="m 1575.9,287.79999 h 169.5 v 548.59997 h -169.5 z"
                             id="rect5125" />
                          <path
                             inkscape:connector-curvature="0"
                             style="fill:#9f9fa0;stroke:#f3fbfa;stroke-width:0;stroke-miterlimit:4;stroke-dasharray:none;stroke-opacity:0.04020099"
                             id="path5127"
                             d="M 961.9,46.2 813.2,629.1 c 0,0 -113.6,-437.5 -132,-499.5 C 662.7,67.4 624.4,40 570.6,40 516.7,40 478.4,67.4 459.9,129.5 441.4,191.6 327.8,629 327.8,629 L 179.1,46.2 H 0 c 0,0 172,622 195.4,693.9 18.1,56.3 61.3,102 125,102 73.2,0 107.3,-53.1 123.2,-102 15.6,-48.7 127,-459.4 127,-459.4 0,0 111.4,410.7 126.8,459.4 16,48.9 50,102 123,102 63.9,0 107,-45.8 125.4,-102 23.4,-71.9 195,-693.9 195,-693.9 z"
                             class="A" />
                        </g>
                        <g
                           style="fill:#22b2e9;stroke:#f3fbfa;stroke-width:0;stroke-miterlimit:4;stroke-dasharray:none;stroke-opacity:0.04020099"
                           id="g5141">
                          <path
                             inkscape:connector-curvature="0"
                             style="fill:#22b2e9;stroke:#f3fbfa;stroke-width:0;stroke-miterlimit:4;stroke-dasharray:none;stroke-opacity:0.04020099"
                             id="path5131"
                             d="m 2479.8,577.3 c -23.1,110.3 -123.8,274 -305.4,272.6 -90.2,-0.5 -138.8,-40.1 -163.6,-73.2 -56.8,-75.6 -40.2,-180.2 -36.6,-200.5 l 94,-532.2 168.8,1.1 -93.7,532.6 -0.5,2 c -2.4,12.9 -5.5,54.4 11.1,76.2 3.6,4.4 14.1,18.2 51.3,18.5 74,0.5 99.1,-72 106.7,-104.6 L 2361,290.6 2404.3,45.1 h 169.4 l -93.9,532.2 0.3,-1.7 50.7,-287.4 0.2,-2.5"
                             class="B" />
                          <path
                             inkscape:connector-curvature="0"
                             style="fill:#22b2e9;stroke:#f3fbfa;stroke-width:0;stroke-miterlimit:4;stroke-dasharray:none;stroke-opacity:0.04020099"
                             id="path5133"
                             d="m 2310.6,577.3 c -15.4,110.3 27.2,274 209.4,272.6 90.4,-0.5 152.9,-40.1 189.4,-73.2 83.4,-75.6 104,-180.2 107.2,-200.5 l 93.8,-532.2 -169.5,1.1 -93.8,532.6 -0.3,2 c -2.2,12.9 -13.7,54.4 -38.1,76.2 -5.1,4.4 -20.5,18.2 -57.7,18.5 -74.2,0.5 -73.6,-72 -69.8,-104.6 l 49.1,-279.2 43.4,-245.5 h -169.3 l -93.8,532.2 0.3,-1.7 50.6,-287.4 0.5,-2.5"
                             class="B" />
                          <path
                             inkscape:connector-curvature="0"
                             style="fill:#22b2e9;stroke:#f3fbfa;stroke-width:0;stroke-miterlimit:4;stroke-dasharray:none;stroke-opacity:0.04020099"
                             id="path5135"
                             d="m 3214.5,819.7 c -35.6,22.4 -72.7,30.2 -119.5,30.2 -111.5,0 -236.7,-105.7 -199.7,-308.6 32,-177.3 179,-311.1 348.4,-311.1 164.9,0 283.6,99.6 249.7,286.7 l -58,318.3 H 3260.7 L 3310,563 c 19,-104.5 4.4,-167.6 -89.9,-167.6 -82,0 -136.3,71.1 -149,141 -16.5,91.9 25.5,136.1 91.3,136.1 31.8,0 60.6,-7.1 81.6,-14.8 z"
                             class="B" />
                          <path
                             inkscape:connector-curvature="0"
                             style="fill:#22b2e9;stroke:#f3fbfa;stroke-width:0;stroke-miterlimit:4;stroke-dasharray:none;stroke-opacity:0.04020099"
                             id="path5137"
                             d="m 3920.1,279.5 c -47.8,0 -91.1,12.9 -130.9,37.9 l 15.3,-83.7 h -175 l -110.1,602.6 h 175 l 58.4,-320.2 c 12.9,-32.7 47.1,-81.7 139.2,-81.7 h 123.9 l 28.3,-155 h -123.4"
                             class="B" />
                          <path
                             inkscape:connector-curvature="0"
                             style="fill:#22b2e9;stroke:#f3fbfa;stroke-width:0;stroke-miterlimit:4;stroke-dasharray:none;stroke-opacity:0.04020099"
                             id="path5139"
                             d="m 4205.3,535.3 c -23.1,131.8 41.6,176.2 112,176.2 59.6,0 105,-30.3 142.6,-71.6 l 111.1,93.5 c -71.5,74.1 -174.9,116.7 -269.7,116.7 -182.3,0 -306.6,-121.5 -273.3,-309.9 33.3,-188.4 179.9,-309.7 362.2,-309.7 145.6,0 275.7,121.3 242.7,309.7 l -10,56.9 h -373.5 l 21.7,-123.8 h 191.5 c 12,-60.6 -26.3,-111.7 -92.1,-111.7 -80,0 -141.9,42.1 -165.2,173.7"
                             class="B" />
                        </g>
                      </g>
                      <g
                         transform="matrix(0.12890385,0,0,0.17975932,4.716488,474.11287)"
                         id="g5169"
                         style="stroke:#f3fbfa;stroke-width:0;stroke-miterlimit:4;stroke-dasharray:none;stroke-opacity:0.04020099">
                        <g
                           id="g5155"
                           style="fill:#9f9fa0;stroke:#f3fbfa;stroke-width:0;stroke-miterlimit:4;stroke-dasharray:none;stroke-opacity:0.04020099">
                          <path
                             class="A"
                             d="m 1214.7,96 c 0,52.7 44.7,95.6 99.4,95.6 57,0 101.8,-42.1 101.8,-95.6 0,-53.8 -44.8,-96 -101.8,-96 -54.7,0 -99.4,43.1 -99.4,96"
                             id="path5145"
                             style="fill:#9f9fa0;stroke:#f3fbfa;stroke-width:0;stroke-miterlimit:4;stroke-dasharray:none;stroke-opacity:0.04020099"
                             inkscape:connector-curvature="0" />
                          <path
                             inkscape:connector-curvature="0"
                             style="fill:#9f9fa0;stroke:#f3fbfa;stroke-width:0;stroke-miterlimit:4;stroke-dasharray:none;stroke-opacity:0.04020099"
                             d="m 1231.4,287.79999 h 169.5 v 548.59997 h -169.5 z"
                             id="rect5147" />
                          <path
                             class="A"
                             d="m 1559.5,96 c 0,52.7 44.5,95.6 99.2,95.6 57.2,0 101.9,-42.1 101.9,-95.6 0,-53.8 -44.7,-96 -101.9,-96 -54.7,0 -99.2,43.1 -99.2,96"
                             id="path5149"
                             style="fill:#9f9fa0;stroke:#f3fbfa;stroke-width:0;stroke-miterlimit:4;stroke-dasharray:none;stroke-opacity:0.04020099"
                             inkscape:connector-curvature="0" />
                          <path
                             inkscape:connector-curvature="0"
                             style="fill:#9f9fa0;stroke:#f3fbfa;stroke-width:0;stroke-miterlimit:4;stroke-dasharray:none;stroke-opacity:0.04020099"
                             d="m 1575.9,287.79999 h 169.5 v 548.59997 h -169.5 z"
                             id="rect5151" />
                          <path
                             class="A"
                             d="M 961.9,46.2 813.2,629.1 c 0,0 -113.6,-437.5 -132,-499.5 C 662.7,67.4 624.4,40 570.6,40 516.7,40 478.4,67.4 459.9,129.5 441.4,191.6 327.8,629 327.8,629 L 179.1,46.2 H 0 c 0,0 172,622 195.4,693.9 18.1,56.3 61.3,102 125,102 73.2,0 107.3,-53.1 123.2,-102 15.6,-48.7 127,-459.4 127,-459.4 0,0 111.4,410.7 126.8,459.4 16,48.9 50,102 123,102 63.9,0 107,-45.8 125.4,-102 23.4,-71.9 195,-693.9 195,-693.9 z"
                             id="path5153"
                             style="fill:#9f9fa0;stroke:#f3fbfa;stroke-width:0;stroke-miterlimit:4;stroke-dasharray:none;stroke-opacity:0.04020099"
                             inkscape:connector-curvature="0" />
                        </g>
                        <g
                           id="g5167"
                           style="fill:#22b2e9;stroke:#f3fbfa;stroke-width:0;stroke-miterlimit:4;stroke-dasharray:none;stroke-opacity:0.04020099">
                          <path
                             class="B"
                             d="m 2479.8,577.3 c -23.1,110.3 -123.8,274 -305.4,272.6 -90.2,-0.5 -138.8,-40.1 -163.6,-73.2 -56.8,-75.6 -40.2,-180.2 -36.6,-200.5 l 94,-532.2 168.8,1.1 -93.7,532.6 -0.5,2 c -2.4,12.9 -5.5,54.4 11.1,76.2 3.6,4.4 14.1,18.2 51.3,18.5 74,0.5 99.1,-72 106.7,-104.6 L 2361,290.6 2404.3,45.1 h 169.4 l -93.9,532.2 0.3,-1.7 50.7,-287.4 0.2,-2.5"
                             id="path5157"
                             style="fill:#22b2e9;stroke:#f3fbfa;stroke-width:0;stroke-miterlimit:4;stroke-dasharray:none;stroke-opacity:0.04020099"
                             inkscape:connector-curvature="0" />
                          <path
                             class="B"
                             d="m 2310.6,577.3 c -15.4,110.3 27.2,274 209.4,272.6 90.4,-0.5 152.9,-40.1 189.4,-73.2 83.4,-75.6 104,-180.2 107.2,-200.5 l 93.8,-532.2 -169.5,1.1 -93.8,532.6 -0.3,2 c -2.2,12.9 -13.7,54.4 -38.1,76.2 -5.1,4.4 -20.5,18.2 -57.7,18.5 -74.2,0.5 -73.6,-72 -69.8,-104.6 l 49.1,-279.2 43.4,-245.5 h -169.3 l -93.8,532.2 0.3,-1.7 50.6,-287.4 0.5,-2.5"
                             id="path5159"
                             style="fill:#22b2e9;stroke:#f3fbfa;stroke-width:0;stroke-miterlimit:4;stroke-dasharray:none;stroke-opacity:0.04020099"
                             inkscape:connector-curvature="0" />
                          <path
                             class="B"
                             d="m 3214.5,819.7 c -35.6,22.4 -72.7,30.2 -119.5,30.2 -111.5,0 -236.7,-105.7 -199.7,-308.6 32,-177.3 179,-311.1 348.4,-311.1 164.9,0 283.6,99.6 249.7,286.7 l -58,318.3 H 3260.7 L 3310,563 c 19,-104.5 4.4,-167.6 -89.9,-167.6 -82,0 -136.3,71.1 -149,141 -16.5,91.9 25.5,136.1 91.3,136.1 31.8,0 60.6,-7.1 81.6,-14.8 z"
                             id="path5161"
                             style="fill:#22b2e9;stroke:#f3fbfa;stroke-width:0;stroke-miterlimit:4;stroke-dasharray:none;stroke-opacity:0.04020099"
                             inkscape:connector-curvature="0" />
                          <path
                             class="B"
                             d="m 3920.1,279.5 c -47.8,0 -91.1,12.9 -130.9,37.9 l 15.3,-83.7 h -175 l -110.1,602.6 h 175 l 58.4,-320.2 c 12.9,-32.7 47.1,-81.7 139.2,-81.7 h 123.9 l 28.3,-155 h -123.4"
                             id="path5163"
                             style="fill:#22b2e9;stroke:#f3fbfa;stroke-width:0;stroke-miterlimit:4;stroke-dasharray:none;stroke-opacity:0.04020099"
                             inkscape:connector-curvature="0" />
                          <path
                             class="B"
                             d="m 4205.3,535.3 c -23.1,131.8 41.6,176.2 112,176.2 59.6,0 105,-30.3 142.6,-71.6 l 111.1,93.5 c -71.5,74.1 -174.9,116.7 -269.7,116.7 -182.3,0 -306.6,-121.5 -273.3,-309.9 33.3,-188.4 179.9,-309.7 362.2,-309.7 145.6,0 275.7,121.3 242.7,309.7 l -10,56.9 h -373.5 l 21.7,-123.8 h 191.5 c 12,-60.6 -26.3,-111.7 -92.1,-111.7 -80,0 -141.9,42.1 -165.2,173.7"
                             id="path5165"
                             style="fill:#22b2e9;stroke:#f3fbfa;stroke-width:0;stroke-miterlimit:4;stroke-dasharray:none;stroke-opacity:0.04020099"
                             inkscape:connector-curvature="0" />
                        </g>
                      </g>
                    </g>
                  </g>
                  <path
                     style="fill:#a0a0a0;stroke:#f3fbfa;stroke-width:0;stroke-miterlimit:4;stroke-dasharray:none;stroke-opacity:0.04020099"
                     d="m 261.39696,100.2148 c -8.59455,-1.68426 -13.62812,-5.077861 -16.49889,-11.123462 -0.86227,-1.815856 -1.58703,-4.682518 -1.61059,-6.370355 -0.0236,-1.687838 2.80343,-14.348486 6.28219,-28.134771 l 6.32502,-25.065977 h 10.93618 10.93617 l -0.57685,1.800321 c -2.23076,6.962092 -11.62479,46.133652 -11.63002,48.495291 -0.005,2.378699 0.46235,3.1905 2.47296,4.293066 4.917,2.696368 12.27129,1.174535 16.16227,-3.344489 1.93864,-2.251548 3.46845,-7.104232 8.12169,-25.762756 3.15322,-12.643774 5.97107,-23.549551 6.26188,-24.235055 0.50851,-1.198664 0.95065,-1.246378 11.55016,-1.246378 10.90791,0 11.01614,0.01283 10.50934,1.246378 -0.28164,0.685504 -3.05935,11.342005 -6.17267,23.681112 -6.28439,24.907041 -6.47175,27.638945 -2.03895,29.729872 1.50532,0.710049 4.04043,1.291 5.63357,1.291 3.84246,0 8.67282,-2.29987 10.21812,-4.865138 0.68224,-1.132541 4.03842,-13.02726 7.45818,-26.432708 l 6.21775,-24.373542 10.792,-0.157225 c 5.93559,-0.08647 10.79199,0.0346 10.79199,0.269088 0,2.815932 -12.71589,49.646263 -14.25886,52.512831 -5.79936,10.774183 -17.83382,17.555545 -32.64206,18.393647 -7.87314,0.44561 -14.12914,-0.65284 -19.34446,-3.396532 l -4.28905,-2.256398 -3.77236,1.791029 c -7.39645,3.511661 -19.38747,4.916541 -27.83471,3.261151 z"
                     id="path5185"
                     inkscape:connector-curvature="0" />
                  <path
                     style="fill:#a0a0a0;stroke:#f3fbfa;stroke-width:0;stroke-miterlimit:4;stroke-dasharray:none;stroke-opacity:0.04020099"
                     d="m 379.19583,99.945562 c -5.1282,-1.280766 -11.17624,-4.943485 -14.1909,-8.594073 -7.51947,-9.105669 -3.87346,-24.420247 8.12644,-34.134045 8.90532,-7.208768 20.71926,-11.082962 33.77446,-11.075795 7.41702,0.0038 12.01164,0.75251 17.92597,2.92004 6.68174,2.448771 10.92656,6.127792 13.01796,11.28277 1.99434,4.915758 1.93511,5.373302 -3.27019,25.262625 l -3.7331,14.264062 H 419.9209 c -10.02261,0 -10.92557,-0.08613 -10.92557,-1.042203 0,-0.573212 1.40067,-6.244215 3.11261,-12.602232 3.56393,-13.236169 4.11472,-19.613763 1.90734,-22.084963 -0.82285,-0.921196 -3.19224,-2.119333 -5.31642,-2.688367 -11.13691,-2.9834 -23.35694,3.727426 -24.5916,13.504885 -0.4535,3.591335 -0.21118,4.470317 1.82858,6.63272 2.96133,3.139402 7.55628,4.173712 14.66225,3.300433 2.54359,-0.312591 4.84649,-0.446724 5.11757,-0.298075 0.56389,0.309224 -2.66719,13.06662 -3.49557,13.801628 -1.23239,1.093495 -9.21327,2.559728 -13.93289,2.559728 -2.77792,0 -6.86904,-0.45411 -9.09137,-1.009138 z"
                     id="path5187"
                     inkscape:connector-curvature="0" />
                  <path
                     style="fill:#a0a0a0;stroke:#f3fbfa;stroke-width:0;stroke-miterlimit:4;stroke-dasharray:none;stroke-opacity:0.04020099"
                     d="m 441.80516,98.643056 c 0.5694,-1.333062 13.65718,-51.182851 13.65718,-52.018567 0,-0.267256 5.05322,-0.485927 11.22936,-0.485927 h 11.22936 l -0.70607,3.615563 -0.70607,3.615557 4.37646,-1.261299 c 3.67689,-1.059678 6.26578,-1.290747 16.19579,-1.445549 l 11.81933,-0.184249 -0.53111,1.846083 c -0.29211,1.015347 -1.0725,3.964923 -1.73419,6.55461 l -1.20308,4.708527 -10.82765,0.396948 c -11.80537,0.43279 -15.20918,1.09869 -19.32412,3.780427 -3.38665,2.207113 -3.37882,2.188375 -7.63608,18.25736 l -3.59563,13.571634 -11.39183,0.15677 -11.39183,0.15677 z"
                     id="path5189"
                     inkscape:connector-curvature="0" />
                  <path
                     style="fill:#a0a0a0;stroke:#f3fbfa;stroke-width:0;stroke-miterlimit:4;stroke-dasharray:none;stroke-opacity:0.04020099"
                     d="m 441.7289,98.499656 c 0.34524,-0.754319 3.57098,-12.64061 7.1683,-26.41398 4.20282,-16.091704 6.99629,-25.201124 7.81555,-25.486319 0.70124,-0.244104 5.7432,-0.447645 11.20437,-0.452312 l 9.92938,-0.0085 -0.70262,3.597906 -0.70262,3.597905 4.87895,-1.183501 c 3.70602,-0.898982 7.64722,-1.250497 16.39397,-1.462165 10.94672,-0.264904 11.48741,-0.226863 10.95532,0.770777 -0.30785,0.577188 -1.12125,3.486135 -1.80756,6.464331 -1.42563,6.186446 -0.27008,5.670253 -13.88262,6.201455 -19.04252,0.743089 -20.15339,1.776061 -26.02399,24.199032 l -2.85057,10.887894 -3.56359,0.323379 c -1.95998,0.177858 -7.13578,0.326122 -11.50179,0.329475 l -7.93819,0.0061 z"
                     id="path5193"
                     inkscape:connector-curvature="0" />
                  <path
                     style="fill:#a0a0a0;stroke:#f3fbfa;stroke-width:0;stroke-miterlimit:4;stroke-dasharray:none;stroke-opacity:0.04020099"
                     d="m 441.32223,99.781671 c 0.0149,-1.381156 14.11679,-52.620321 14.60006,-53.049118 0.40816,-0.362165 4.84283,-0.593991 11.3625,-0.593991 h 10.69306 l -0.61326,3.601294 -0.61325,3.601294 4.25525,-1.192143 c 3.41201,-0.955903 6.635,-1.246159 16.26406,-1.464709 l 12.0088,-0.27256 -0.59738,1.879507 c -0.32856,1.033728 -1.12334,3.927956 -1.76617,6.431614 -1.33948,5.216939 -0.57428,4.904616 -13.35447,5.45081 -11.58782,0.495234 -16.57275,1.823984 -19.62291,5.230549 -1.60025,1.787242 -3.27563,6.333823 -5.91958,16.064379 -2.02819,7.4644 -3.90158,13.69627 -4.16308,13.848605 -0.52875,0.308026 -22.53683,0.761658 -22.53363,0.464469 z"
                     id="path5195"
                     inkscape:connector-curvature="0" />
                  <path
                     style="fill:#a0a0a0;stroke:#f3fbfa;stroke-width:0;stroke-miterlimit:4;stroke-dasharray:none;stroke-opacity:0.04020099"
                     d="m 381.81432,100.33664 c -8.0501,-1.268584 -16.10522,-6.664684 -18.87117,-12.641727 -2.03102,-4.388928 -1.502,-14.063812 1.04558,-19.121612 2.83121,-5.620927 8.26844,-11.096858 14.8485,-14.954195 24.22644,-14.201943 60.09193,-6.899556 59.84374,12.184476 -0.0277,2.132681 -1.78418,10.670348 -3.90322,18.972585 l -3.8528,15.094979 h -10.40012 c -5.72006,0 -10.65466,-0.225855 -10.96577,-0.501901 -0.31111,-0.276046 0.59791,-5.074585 2.02006,-10.663427 3.28461,-12.908114 4.22334,-21.961841 2.512,-24.227482 -2.19429,-2.90502 -8.19338,-4.296614 -14.44305,-3.350324 -4.70353,0.712183 -11.24079,4.732119 -13.30524,8.181748 -3.93933,6.582484 -2.99379,11.623361 2.6705,14.237029 2.74949,1.268691 3.90181,1.423569 9.78155,1.314689 l 6.66491,-0.123423 -0.27698,2.442563 c -0.41637,3.671733 -2.36501,10.071527 -3.39455,11.148548 -0.99242,1.038182 -9.79198,2.679724 -13.93694,2.599904 -1.42702,-0.0275 -4.14367,-0.29407 -6.037,-0.59243 z"
                     id="path5197"
                     inkscape:connector-curvature="0" />
                  <g
                     id="g5639"
                     transform="translate(-0.024794,0.00789)">
                    <g
                       style="stroke:#fffbee;stroke-width:15.99378395;stroke-miterlimit:4;stroke-dasharray:none;stroke-opacity:0.94472363"
                       transform="matrix(0.99259348,0,0,0.49362846,-13.326153,-208.44929)"
                       id="g4851">
                      <g
                         style="stroke:#fffbee;stroke-width:15.99378395;stroke-miterlimit:4;stroke-dasharray:none;stroke-opacity:0.94472363"
                         id="g4849">
                        <g
                           style="stroke:#fffbee;stroke-width:105.06851196;stroke-miterlimit:4;stroke-dasharray:none;stroke-opacity:0.94472363"
                           id="g4821"
                           transform="matrix(0.12890385,0,0,0.17975932,4.716488,474.11287)">
                          <g
                             style="fill:#9f9fa0;stroke:#fffbee;stroke-width:105.06851196;stroke-miterlimit:4;stroke-dasharray:none;stroke-opacity:0.94472363"
                             id="g4807">
                            <path
                               inkscape:connector-curvature="0"
                               style="fill:#9f9fa0;stroke:#fffbee;stroke-width:105.06851196;stroke-miterlimit:4;stroke-dasharray:none;stroke-opacity:0.94472363"
                               id="path4797"
                               d="m 1214.7,96 c 0,52.7 44.7,95.6 99.4,95.6 57,0 101.8,-42.1 101.8,-95.6 0,-53.8 -44.8,-96 -101.8,-96 -54.7,0 -99.4,43.1 -99.4,96"
                               class="A" />
                            <path
                               style="fill:#9f9fa0;stroke:#fffbee;stroke-width:105.06851196;stroke-miterlimit:4;stroke-dasharray:none;stroke-opacity:0.94472363"
                               d="m 1231.4,287.79999 h 169.5 v 548.59997 h -169.5 z"
                               id="rect4799"
                               inkscape:connector-curvature="0" />
                            <path
                               inkscape:connector-curvature="0"
                               style="fill:#9f9fa0;stroke:#fffbee;stroke-width:105.06851196;stroke-miterlimit:4;stroke-dasharray:none;stroke-opacity:0.94472363"
                               id="path4801"
                               d="m 1559.5,96 c 0,52.7 44.5,95.6 99.2,95.6 57.2,0 101.9,-42.1 101.9,-95.6 0,-53.8 -44.7,-96 -101.9,-96 -54.7,0 -99.2,43.1 -99.2,96"
                               class="A" />
                            <path
                               style="fill:#9f9fa0;stroke:#fffbee;stroke-width:105.06851196;stroke-miterlimit:4;stroke-dasharray:none;stroke-opacity:0.94472363"
                               d="m 1575.9,287.79999 h 169.5 v 548.59997 h -169.5 z"
                               id="rect4803"
                               inkscape:connector-curvature="0" />
                            <path
                               inkscape:connector-curvature="0"
                               style="fill:#9f9fa0;stroke:#fffbee;stroke-width:105.06851196;stroke-miterlimit:4;stroke-dasharray:none;stroke-opacity:0.94472363"
                               id="path4805"
                               d="M 961.9,46.2 813.2,629.1 c 0,0 -113.6,-437.5 -132,-499.5 C 662.7,67.4 624.4,40 570.6,40 516.7,40 478.4,67.4 459.9,129.5 441.4,191.6 327.8,629 327.8,629 L 179.1,46.2 H 0 c 0,0 172,622 195.4,693.9 18.1,56.3 61.3,102 125,102 73.2,0 107.3,-53.1 123.2,-102 15.6,-48.7 127,-459.4 127,-459.4 0,0 111.4,410.7 126.8,459.4 16,48.9 50,102 123,102 63.9,0 107,-45.8 125.4,-102 23.4,-71.9 195,-693.9 195,-693.9 z"
                               class="A" />
                          </g>
                          <g
                             style="fill:#22b2e9;stroke:#fffbee;stroke-width:105.06851196;stroke-miterlimit:4;stroke-dasharray:none;stroke-opacity:0.94472363"
                             id="g4819">
                            <path
                               inkscape:connector-curvature="0"
                               style="fill:#22b2e9;stroke:#fffbee;stroke-width:105.06851196;stroke-miterlimit:4;stroke-dasharray:none;stroke-opacity:0.94472363"
                               id="path4809"
                               d="m 2479.8,577.3 c -23.1,110.3 -123.8,274 -305.4,272.6 -90.2,-0.5 -138.8,-40.1 -163.6,-73.2 -56.8,-75.6 -40.2,-180.2 -36.6,-200.5 l 94,-532.2 168.8,1.1 -93.7,532.6 -0.5,2 c -2.4,12.9 -5.5,54.4 11.1,76.2 3.6,4.4 14.1,18.2 51.3,18.5 74,0.5 99.1,-72 106.7,-104.6 L 2361,290.6 2404.3,45.1 h 169.4 l -93.9,532.2 0.3,-1.7 50.7,-287.4 0.2,-2.5"
                               class="B" />
                            <path
                               inkscape:connector-curvature="0"
                               style="fill:#22b2e9;stroke:#fffbee;stroke-width:105.06851196;stroke-miterlimit:4;stroke-dasharray:none;stroke-opacity:0.94472363"
                               id="path4811"
                               d="m 2310.6,577.3 c -15.4,110.3 27.2,274 209.4,272.6 90.4,-0.5 152.9,-40.1 189.4,-73.2 83.4,-75.6 104,-180.2 107.2,-200.5 l 93.8,-532.2 -169.5,1.1 -93.8,532.6 -0.3,2 c -2.2,12.9 -13.7,54.4 -38.1,76.2 -5.1,4.4 -20.5,18.2 -57.7,18.5 -74.2,0.5 -73.6,-72 -69.8,-104.6 l 49.1,-279.2 43.4,-245.5 h -169.3 l -93.8,532.2 0.3,-1.7 50.6,-287.4 0.5,-2.5"
                               class="B" />
                            <path
                               inkscape:connector-curvature="0"
                               style="fill:#22b2e9;stroke:#fffbee;stroke-width:105.06851196;stroke-miterlimit:4;stroke-dasharray:none;stroke-opacity:0.94472363"
                               id="path4813"
                               d="m 3214.5,819.7 c -35.6,22.4 -72.7,30.2 -119.5,30.2 -111.5,0 -236.7,-105.7 -199.7,-308.6 32,-177.3 179,-311.1 348.4,-311.1 164.9,0 283.6,99.6 249.7,286.7 l -58,318.3 H 3260.7 L 3310,563 c 19,-104.5 4.4,-167.6 -89.9,-167.6 -82,0 -136.3,71.1 -149,141 -16.5,91.9 25.5,136.1 91.3,136.1 31.8,0 60.6,-7.1 81.6,-14.8 z"
                               class="B" />
                            <path
                               inkscape:connector-curvature="0"
                               style="fill:#22b2e9;stroke:#fffbee;stroke-width:105.06851196;stroke-miterlimit:4;stroke-dasharray:none;stroke-opacity:0.94472363"
                               id="path4815"
                               d="m 3920.1,279.5 c -47.8,0 -91.1,12.9 -130.9,37.9 l 15.3,-83.7 h -175 l -110.1,602.6 h 175 l 58.4,-320.2 c 12.9,-32.7 47.1,-81.7 139.2,-81.7 h 123.9 l 28.3,-155 h -123.4"
                               class="B" />
                            <path
                               inkscape:connector-curvature="0"
                               style="fill:#22b2e9;stroke:#fffbee;stroke-width:105.06851196;stroke-miterlimit:4;stroke-dasharray:none;stroke-opacity:0.94472363"
                               id="path4817"
                               d="m 4205.3,535.3 c -23.1,131.8 41.6,176.2 112,176.2 59.6,0 105,-30.3 142.6,-71.6 l 111.1,93.5 c -71.5,74.1 -174.9,116.7 -269.7,116.7 -182.3,0 -306.6,-121.5 -273.3,-309.9 33.3,-188.4 179.9,-309.7 362.2,-309.7 145.6,0 275.7,121.3 242.7,309.7 l -10,56.9 h -373.5 l 21.7,-123.8 h 191.5 c 12,-60.6 -26.3,-111.7 -92.1,-111.7 -80,0 -141.9,42.1 -165.2,173.7"
                               class="B" />
                          </g>
                        </g>
                        <g
                           transform="matrix(0.12890385,0,0,0.17975932,4.716488,474.11287)"
                           id="g4847"
                           style="stroke:#fffbee;stroke-width:105.06851196;stroke-miterlimit:4;stroke-dasharray:none;stroke-opacity:0.94472363">
                          <g
                             id="g4833"
                             style="fill:#9f9fa0;stroke:#fffbee;stroke-width:105.06851196;stroke-miterlimit:4;stroke-dasharray:none;stroke-opacity:0.94472363">
                            <path
                               class="A"
                               d="m 1214.7,96 c 0,52.7 44.7,95.6 99.4,95.6 57,0 101.8,-42.1 101.8,-95.6 0,-53.8 -44.8,-96 -101.8,-96 -54.7,0 -99.4,43.1 -99.4,96"
                               id="path4823"
                               style="fill:#9f9fa0;stroke:#fffbee;stroke-width:105.06851196;stroke-miterlimit:4;stroke-dasharray:none;stroke-opacity:0.94472363"
                               inkscape:connector-curvature="0" />
                            <path
                               style="fill:#9f9fa0;stroke:#fffbee;stroke-width:105.06851196;stroke-miterlimit:4;stroke-dasharray:none;stroke-opacity:0.94472363"
                               d="m 1231.4,287.79999 h 169.5 v 548.59997 h -169.5 z"
                               id="rect4825"
                               inkscape:connector-curvature="0" />
                            <path
                               class="A"
                               d="m 1559.5,96 c 0,52.7 44.5,95.6 99.2,95.6 57.2,0 101.9,-42.1 101.9,-95.6 0,-53.8 -44.7,-96 -101.9,-96 -54.7,0 -99.2,43.1 -99.2,96"
                               id="path4827"
                               style="fill:#9f9fa0;stroke:#fffbee;stroke-width:105.06851196;stroke-miterlimit:4;stroke-dasharray:none;stroke-opacity:0.94472363"
                               inkscape:connector-curvature="0" />
                            <path
                               style="fill:#9f9fa0;stroke:#fffbee;stroke-width:105.06851196;stroke-miterlimit:4;stroke-dasharray:none;stroke-opacity:0.94472363"
                               d="m 1575.9,287.79999 h 169.5 v 548.59997 h -169.5 z"
                               id="rect4829"
                               inkscape:connector-curvature="0" />
                            <path
                               class="A"
                               d="M 961.9,46.2 813.2,629.1 c 0,0 -113.6,-437.5 -132,-499.5 C 662.7,67.4 624.4,40 570.6,40 516.7,40 478.4,67.4 459.9,129.5 441.4,191.6 327.8,629 327.8,629 L 179.1,46.2 H 0 c 0,0 172,622 195.4,693.9 18.1,56.3 61.3,102 125,102 73.2,0 107.3,-53.1 123.2,-102 15.6,-48.7 127,-459.4 127,-459.4 0,0 111.4,410.7 126.8,459.4 16,48.9 50,102 123,102 63.9,0 107,-45.8 125.4,-102 23.4,-71.9 195,-693.9 195,-693.9 z"
                               id="path4831"
                               style="fill:#9f9fa0;stroke:#fffbee;stroke-width:105.06851196;stroke-miterlimit:4;stroke-dasharray:none;stroke-opacity:0.94472363"
                               inkscape:connector-curvature="0" />
                          </g>
                          <g
                             id="g4845"
                             style="fill:#22b2e9;stroke:#fffbee;stroke-width:105.06851196;stroke-miterlimit:4;stroke-dasharray:none;stroke-opacity:0.94472363">
                            <path
                               class="B"
                               d="m 2479.8,577.3 c -23.1,110.3 -123.8,274 -305.4,272.6 -90.2,-0.5 -138.8,-40.1 -163.6,-73.2 -56.8,-75.6 -40.2,-180.2 -36.6,-200.5 l 94,-532.2 168.8,1.1 -93.7,532.6 -0.5,2 c -2.4,12.9 -5.5,54.4 11.1,76.2 3.6,4.4 14.1,18.2 51.3,18.5 74,0.5 99.1,-72 106.7,-104.6 L 2361,290.6 2404.3,45.1 h 169.4 l -93.9,532.2 0.3,-1.7 50.7,-287.4 0.2,-2.5"
                               id="path4835"
                               style="fill:#22b2e9;stroke:#fffbee;stroke-width:105.06851196;stroke-miterlimit:4;stroke-dasharray:none;stroke-opacity:0.94472363"
                               inkscape:connector-curvature="0" />
                            <path
                               class="B"
                               d="m 2310.6,577.3 c -15.4,110.3 27.2,274 209.4,272.6 90.4,-0.5 152.9,-40.1 189.4,-73.2 83.4,-75.6 104,-180.2 107.2,-200.5 l 93.8,-532.2 -169.5,1.1 -93.8,532.6 -0.3,2 c -2.2,12.9 -13.7,54.4 -38.1,76.2 -5.1,4.4 -20.5,18.2 -57.7,18.5 -74.2,0.5 -73.6,-72 -69.8,-104.6 l 49.1,-279.2 43.4,-245.5 h -169.3 l -93.8,532.2 0.3,-1.7 50.6,-287.4 0.5,-2.5"
                               id="path4837"
                               style="fill:#22b2e9;stroke:#fffbee;stroke-width:105.06851196;stroke-miterlimit:4;stroke-dasharray:none;stroke-opacity:0.94472363"
                               inkscape:connector-curvature="0" />
                            <path
                               class="B"
                               d="m 3214.5,819.7 c -35.6,22.4 -72.7,30.2 -119.5,30.2 -111.5,0 -236.7,-105.7 -199.7,-308.6 32,-177.3 179,-311.1 348.4,-311.1 164.9,0 283.6,99.6 249.7,286.7 l -58,318.3 H 3260.7 L 3310,563 c 19,-104.5 4.4,-167.6 -89.9,-167.6 -82,0 -136.3,71.1 -149,141 -16.5,91.9 25.5,136.1 91.3,136.1 31.8,0 60.6,-7.1 81.6,-14.8 z"
                               id="path4839"
                               style="fill:#22b2e9;stroke:#fffbee;stroke-width:105.06851196;stroke-miterlimit:4;stroke-dasharray:none;stroke-opacity:0.94472363"
                               inkscape:connector-curvature="0" />
                            <path
                               class="B"
                               d="m 3920.1,279.5 c -47.8,0 -91.1,12.9 -130.9,37.9 l 15.3,-83.7 h -175 l -110.1,602.6 h 175 l 58.4,-320.2 c 12.9,-32.7 47.1,-81.7 139.2,-81.7 h 123.9 l 28.3,-155 h -123.4"
                               id="path4841"
                               style="fill:#22b2e9;stroke:#fffbee;stroke-width:105.06851196;stroke-miterlimit:4;stroke-dasharray:none;stroke-opacity:0.94472363"
                               inkscape:connector-curvature="0" />
                            <path
                               class="B"
                               d="m 4205.3,535.3 c -23.1,131.8 41.6,176.2 112,176.2 59.6,0 105,-30.3 142.6,-71.6 l 111.1,93.5 c -71.5,74.1 -174.9,116.7 -269.7,116.7 -182.3,0 -306.6,-121.5 -273.3,-309.9 33.3,-188.4 179.9,-309.7 362.2,-309.7 145.6,0 275.7,121.3 242.7,309.7 l -10,56.9 h -373.5 l 21.7,-123.8 h 191.5 c 12,-60.6 -26.3,-111.7 -92.1,-111.7 -80,0 -141.9,42.1 -165.2,173.7"
                               id="path4843"
                               style="fill:#22b2e9;stroke:#fffbee;stroke-width:105.06851196;stroke-miterlimit:4;stroke-dasharray:none;stroke-opacity:0.94472363"
                               inkscape:connector-curvature="0" />
                          </g>
                        </g>
                      </g>
                    </g>
                    <g
                       transform="translate(74.726495,152.89648)"
                       id="g5486"
                       style="stroke:#f3fbfa;stroke-width:0;stroke-miterlimit:4;stroke-dasharray:none;stroke-opacity:0.04020099">
                      <path
                         style="fill:#a0a0a0;stroke:#f3fbfa;stroke-width:0;stroke-miterlimit:4;stroke-dasharray:none;stroke-opacity:0.04020099"
                         d="m -47.698598,-93.018809 c -3.468937,-1.450831 -8.431007,-7.424281 -10.103426,-12.162731 -1.657773,-4.69695 -25.75699,-112.0304 -25.75699,-114.71687 0,-1.271 1.811781,-1.46738 11.324753,-1.22745 l 11.324752,0.28562 9.116823,45.7094 c 5.014252,25.14018 9.36836,45.70941 9.675795,45.70941 0.307434,0 3.198563,-12.84157 6.424729,-28.53681 11.868979,-57.74237 12.4271,-59.54895 19.422424,-62.86845 6.247641,-2.9647 13.6344648,-0.0688 17.1460258,6.72177 1.3369369,2.58535 5.6982038,22.23606 16.6580172,75.05659 1.8088,8.71745 2.465459,10.54902 3.07838,8.58629 0.428527,-1.37221 4.733787,-22.38231 9.567245,-46.6891 l 8.788115,-44.19418 h 11.467454 c 6.3071,0 11.467454,0.23017 11.467454,0.51148 0,1.80604 -23.659965,107.36667 -25.296149,112.86056 -4.675512,15.699237 -17.124652,20.578203 -26.182918,10.261414 -3.8462265,-4.380614 -4.4367748,-6.496144 -13.2224665,-47.366934 -4.0606112,-18.88985 -7.6694545,-34.6908 -8.0196515,-35.11321 -0.350197,-0.42242 -3.499838,12.53279 -6.999203,28.78934 -8.523012,39.5943 -10.702496,47.90918 -13.774767,52.551685 -3.732989,5.640934 -10.6098,8.131041 -16.106396,5.832176 z"
                         id="path5175"
                         inkscape:connector-curvature="0"
                         transform="matrix(1,0,0,0.54837674,0.63484725,-1.9956243)" />
                      <path
                         style="fill:#a0a0a0;stroke:#f3fbfa;stroke-width:0;stroke-miterlimit:4;stroke-dasharray:none;stroke-opacity:0.04020099"
                         d="m 79.334377,-198.72239 c -8.684317,-4.38886 -10.498455,-17.91426 -3.459468,-25.79226 2.113445,-2.36535 3.876264,-3.2159 7.515293,-3.62607 4.483478,-0.50536 4.979576,-0.31049 8.712285,3.42222 3.082932,3.08294 4.120109,5.03849 4.690843,8.84442 1.797663,11.98768 -8.214495,21.82364 -17.458953,17.15169 z"
                         id="path5177"
                         inkscape:connector-curvature="0"
                         transform="matrix(1,0,0,0.54837674,0.63484725,-1.9956243)" />
                      <path
                         style="fill:#a0a0a0;stroke:#f3fbfa;stroke-width:0;stroke-miterlimit:4;stroke-dasharray:none;stroke-opacity:0.04020099"
                         d="m 73.688066,-93.729377 c -0.37039,-0.370389 -0.673435,-20.371413 -0.673435,-44.446713 v -43.77328 h 11.111678 11.111678 v 44.44672 44.446708 H 84.799744 c -5.741034,0 -10.741289,-0.303046 -11.111678,-0.673435 z"
                         id="path5179"
                         inkscape:connector-curvature="0"
                         transform="matrix(1,0,0,0.54837674,0.63484725,-1.9956243)" />
                      <path
                         style="fill:#a0a0a0;stroke:#f3fbfa;stroke-width:0;stroke-miterlimit:4;stroke-dasharray:none;stroke-opacity:0.04020099"
                         d="m 117.46134,-137.50265 v -44.44672 h 11.11168 11.11168 v 44.44672 44.446708 h -11.11168 -11.11168 z"
                         id="path5181"
                         inkscape:connector-curvature="0"
                         transform="matrix(1,0,0,0.54837674,0.63484725,-1.9956243)" />
                      <path
                         style="fill:#a0a0a0;stroke:#f3fbfa;stroke-width:0;stroke-miterlimit:4;stroke-dasharray:none;stroke-opacity:0.04020099"
                         d="m 123.79469,-198.58719 c -5.74726,-2.51981 -9.30074,-10.82701 -7.87721,-18.41507 1.00263,-5.34446 7.26971,-11.41535 11.77908,-11.41035 4.02291,0.004 9.3406,2.99766 11.07149,6.23186 6.81703,12.73773 -3.31611,28.70454 -14.97336,23.59356 z"
                         id="path5183"
                         inkscape:connector-curvature="0"
                         transform="matrix(1,0,0,0.54837674,0.63484725,-1.9956243)" />
                      <path
                         style="fill:#22b2e9;fill-opacity:1;stroke:#f3fbfa;stroke-width:0;stroke-miterlimit:4;stroke-dasharray:none;stroke-opacity:0.04020099"
                         d="m 455.41039,-92.644181 c -10.2187,-3.270236 -17.6368,-10.560249 -21.95574,-21.576629 -2.89762,-7.391 -3.17696,-25.53004 -0.54521,-35.40367 4.65526,-17.46533 14.82887,-31.2588 27.69569,-37.55008 6.24341,-3.05274 7.70815,-3.36044 15.96544,-3.35386 7.38667,0.006 9.84902,0.41643 13.13199,2.18949 9.25257,4.9971 16.48949,15.85234 18.81004,28.21473 1.06162,5.6556 0.61188,21.2776 -0.7603,26.40962 l -0.60771,2.27284 h -23.62076 c -16.96707,0 -23.62077,-0.32343 -23.62077,-1.1482 0,-0.63151 0.53642,-5.1772 1.19205,-10.10153 l 1.19205,-8.95332 h 12.44501 12.445 v -3.56798 c 0,-4.89537 -2.2223,-9.79031 -5.68596,-12.52415 -3.76114,-2.96863 -11.61727,-2.56359 -16.40533,0.84581 -9.06178,6.45255 -14.61319,33.48632 -9.28589,45.21961 4.72749,10.41224 17.36651,11.03447 26.85059,1.32188 l 3.94829,-4.04341 6.85514,6.80262 c 3.77033,3.74144 6.85515,7.33741 6.85515,7.99104 0,2.18283 -11.08523,11.353046 -17.60217,14.561328 -8.01013,3.943372 -19.34782,4.937665 -27.2966,2.393861 z"
                         id="path5191"
                         inkscape:connector-curvature="0"
                         transform="matrix(1,0,0,0.54837674,0.63484725,-1.9956243)" />
                      <path
                         inkscape:connector-curvature="0"
                         style="fill:#22b2e9;fill-opacity:1;stroke:#f3fbfa;stroke-width:0;stroke-miterlimit:4;stroke-dasharray:none;stroke-opacity:0.04020099"
                         d="m 180.48438,-221.3457 -2.79297,20.45508 c -10.6095,77.71586 -10.82884,80.79995 -6.58594,92.32031 2.68077,7.27887 9.86949,14.752763 15.66211,16.285154 2.16176,0.571878 5.08496,1.087151 6.49609,1.144531 4.93062,0.200637 14.4978,-3.021465 19.375,-6.525391 l 4.91797,-3.533204 4.24805,3.433595 c 6.5631,5.303372 8.74388,6.119171 16.40625,6.144531 5.72457,0.01894 8.20454,-0.51345 12.75195,-2.738281 9.97045,-4.878087 18.55414,-16.377825 22.44141,-30.064455 0.85964,-3.02667 4.0584,-21.86812 7.10742,-41.86914 6.9864,-45.82951 7.91147,-52.82518 7.15039,-54.05664 -0.6861,-1.1101 -14.75583,-1.18408 -18.65625,-0.0977 -2.42342,0.67502 -2.58979,1.32214 -5.27148,20.35547 -4.33757,30.78579 -8.91019,61.52757 -10.10352,67.93555 -2.48367,13.3368 -15.02755,17.35449 -18.93945,6.06641 -1.33388,-3.84902 -1.21736,-6.17214 1.32617,-26.25196 1.53485,-12.11685 4.11442,-31.37263 5.73242,-42.78906 1.61801,-11.41644 3.06657,-21.87043 3.21875,-23.23242 0.27591,-2.46934 0.24831,-2.47845 -10.08789,-2.76563 -10.00062,-0.27787 -10.39579,-0.20554 -11.20703,2.02149 -0.46247,1.26957 -2.53112,14.58126 -4.59571,29.58203 -7.87189,57.19535 -9.25398,63.29003 -15.47265,68.18164 -2.12002,1.66759 -3.65271,2.0695 -6.27149,1.64453 -4.52644,-0.73453 -6.17632,-2.5122 -6.78515,-7.31055 -0.54413,-4.28848 8.61784,-78.13391 11.35937,-91.55859 l 0.56641,-2.77734 h -10.99609 z m 211.6289,30.30468 c -7.00841,0 -11.13497,0.40657 -11.58984,1.14258 -0.55011,0.89008 -14.48333,92.908383 -14.54883,96.083987 -0.0216,1.044551 21.96234,0.962925 22.60937,-0.08398 0.28655,-0.463653 2.11456,-11.260737 4.0625,-23.992177 4.1789,-27.31273 4.78977,-29.68957 8.81446,-34.27344 3.4994,-3.9856 6.88678,-5.08594 18.62695,-6.05664 4.49239,-0.37145 8.64184,-0.97682 9.2207,-1.34375 0.85967,-0.54493 4.33008,-18.61847 4.33008,-22.55078 0,-1.78367 -22.92022,-0.51903 -27.68164,1.52734 -2.16874,0.93209 -4.07498,1.56369 -4.23633,1.40234 -0.16136,-0.16136 0.0588,-2.89478 0.49024,-6.07422 l 0.78515,-5.78125 z m -59.65039,0.0957 c -0.51124,-0.006 -1.02448,2.7e-4 -1.53906,0.0176 -4.94001,0.16609 -10.01371,1.4131 -14.83203,3.78515 -12.9269,6.36389 -24.46404,22.75341 -28.32813,40.24219 -2.22958,10.09105 -2.1079,25.79111 0.25977,33.39844 3.17757,10.20958 10.79174,19.270551 18.01758,21.43945 4.56297,1.369614 10.57926,1.050156 15.4707,-0.822266 3.65895,-1.400634 4.77088,-2.427343 5.70117,-5.255859 1.37596,-4.183525 3.55774,-21.102155 2.86523,-22.222655 -0.26659,-0.43138 -3.19817,-0.53892 -6.51367,-0.23828 -4.5922,0.4164 -6.63202,0.15094 -8.56445,-1.11524 -7.79565,-5.10791 -8.09354,-21.42105 -0.60547,-33.22851 5.76025,-9.08298 15.04369,-11.64048 21.45703,-5.91016 2.96897,2.65278 3.29307,3.53051 3.63867,9.84961 0.22479,4.10998 -0.90386,16.94049 -2.76757,31.48438 -1.73009,13.50105 -2.87872,24.978409 -2.55274,25.505855 0.32598,0.527446 5.28834,0.958984 11.02735,0.958984 h 10.43554 l 0.59571,-3.283203 c 0.87714,-4.836696 6.48124,-47.655406 7.25,-55.394536 1.14041,-11.4806 -3.10312,-23.78265 -10.76954,-31.22265 -5.3339,-5.17639 -12.57741,-7.89667 -20.24609,-7.98828 z"
                         transform="matrix(1,0,0,0.54837674,0.63484725,-1.9956243)"
                         id="path5199" />
                    </g>
                  </g>
                </g>
              </g>
            </g>
          </g>
        </g>
      </g>
    </g>
  </g>
  <style
     type="text/css"
     id="style30">.A{fill:#9F9FA0;}
	.B{fill:#22B2E9;}</style>
  <style
     type="text/css"
     id="style30-8">.A{fill:#9F9FA0;}
	.B{fill:#22B2E9;}</style>
</svg>
