<?xml version="1.0" encoding="UTF-8" standalone="no"?>
<svg
   xmlns:dc="http://purl.org/dc/elements/1.1/"
   xmlns:cc="http://creativecommons.org/ns#"
   xmlns:rdf="http://www.w3.org/1999/02/22-rdf-syntax-ns#"
   xmlns:svg="http://www.w3.org/2000/svg"
   xmlns="http://www.w3.org/2000/svg"
   xmlns:sodipodi="http://sodipodi.sourceforge.net/DTD/sodipodi-0.dtd"
   xmlns:inkscape="http://www.inkscape.org/namespaces/inkscape"
   version="1.1"
   id="svg2"
   width="291.00763"
   height="163.38696"
   viewBox="0 0 291.00763 163.38696"
   sodipodi:docname="tic2.svg"
   inkscape:version="1.0.1 (3bc2e813f5, 2020-09-07)">
  <metadata
     id="metadata8">
    <rdf:RDF>
      <cc:Work
         rdf:about="">
        <dc:format>image/svg+xml</dc:format>
        <dc:type
           rdf:resource="http://purl.org/dc/dcmitype/StillImage" />
        <dc:title></dc:title>
      </cc:Work>
    </rdf:RDF>
  </metadata>
  <defs
     id="defs6" />
  <sodipodi:namedview
     pagecolor="#ffffff"
     bordercolor="#666666"
     borderopacity="1"
     objecttolerance="10"
     gridtolerance="10"
     guidetolerance="10"
     inkscape:pageopacity="0"
     inkscape:pageshadow="2"
     inkscape:window-width="1600"
     inkscape:window-height="837"
     id="namedview4"
     showgrid="false"
     inkscape:zoom="2.0503472"
     inkscape:cx="145.50381"
     inkscape:cy="81.693481"
     inkscape:window-x="-8"
     inkscape:window-y="-8"
     inkscape:window-maximized="1"
     inkscape:current-layer="g10" />
  <g
     inkscape:groupmode="layer"
     inkscape:label="Image"
     id="g10">
    <g
       id="g99"
       transform="translate(0.48772228,0.48772228)">
      <g
         id="g87"
         transform="translate(1.4631672,-0.4877219)">
        <g
           id="g74">
          <path
             id="path29"
             style="fill:#deeed6;fill-opacity:1;stroke:#deeed6;stroke-width:0.487722;stroke-opacity:1"
             d="M 10.892578,1.21875 V 6.0957031 10.974609 H 5.5273438 0.16210938 v 70.703125 70.703126 l 5.24414062,0.13867 5.242188,0.13672 0.138671,5.24414 0.138672,5.24219 h 24.369141 24.36914 v -4.66797 c 10e-7,-6.16748 -0.03655,-6.13424 6.689454,-5.95703 l 5.259765,0.13867 0.138672,5.24414 0.138672,5.24219 h 24.857422 24.857423 v -5.36524 -5.36328 h 4.85937 4.85938 l 0.14062,-4.75586 0.13868,-4.75586 5.23828,-0.13867 5.23828,-0.13867 0.12695,-20.58984 0.12695,-20.58985 4.99805,-0.13867 5,-0.13867 0.0586,-4.250001 c 0.0318,-2.33778 0.0221,-4.526019 -0.0215,-4.861328 -0.0588,-0.452509 1.1824,-0.609375 4.81836,-0.609375 h 4.89844 V 66.574219 41.701172 h -9.99805 -9.99805 V 26.353516 11.005859 L 136.84766,10.869141 131.60352,10.730469 131.46484,5.9746094 131.32422,1.21875 H 71.109375 Z m 25.064453,8.3847656 c 9.392465,-0.023784 22.195676,-0.019245 36.144531,0.017578 l 50.722658,0.1328124 0.13867,5 0.14063,4.998047 h 4.87109 c 4.78126,0 4.88089,0.02426 5.34766,1.251953 0.29,0.762771 0.47656,12.755322 0.47656,30.726563 v 29.474609 h 4.14453 4.14648 V 65.894531 c 0,-13.511775 0.0907,-15.346169 0.77149,-15.607422 0.42431,-0.162826 2.7448,-0.294921 5.15625,-0.294921 3.14956,0 4.57957,0.194806 5.08008,0.695312 0.93835,0.938348 1.04312,30.952958 0.11132,31.884766 -0.3713,0.371298 -2.24353,0.583984 -5.12109,0.583984 h -4.53516 v 4.826172 c 0,3.949887 -0.13993,4.878749 -0.77148,5.121094 -0.42431,0.162826 -2.61879,0.294918 -4.87695,0.294922 h -4.10547 v 19.400392 c 0,16.76949 -0.10349,19.5474 -0.75977,20.48437 -0.69343,0.98997 -1.15872,1.08399 -5.36523,1.08399 h -4.60547 v 4.87695 4.87695 h -4.87695 -4.87696 v 4.66993 c 0,3.39548 -0.19047,4.85649 -0.69726,5.36328 -0.57408,0.57408 -3.37553,0.69726 -15.917971,0.69726 -13.925544,0 -15.278384,-0.0727 -15.871094,-0.85351 -0.427425,-0.56306 -0.653823,-2.38905 -0.664063,-5.36524 l -0.01562,-4.51172 H 66.037109 c -16.3175,0 -14.817515,-0.58893 -14.601562,5.7461 0.0711,2.08551 -0.0355,4.06056 -0.238281,4.38867 -0.278734,0.45099 -4.081467,0.58574 -15.582032,0.55664 -8.366896,-0.0212 -15.486956,-0.1479 -15.822265,-0.2832 -0.432961,-0.1747 -0.609375,-1.71816 -0.609375,-5.32618 v -5.08203 h -4.824219 c -3.949888,0 -4.878747,-0.13993 -5.1210938,-0.77148 C 8.6956692,141.93558 8.9005065,21.716943 9.4472656,20.695312 9.8918333,19.86463 10.503618,19.751953 14.568359,19.751953 h 4.615235 v -4.867187 c 0,-4.644521 0.05064,-4.879855 1.097656,-5.1328129 0.301778,-0.07291 6.283317,-0.1246534 15.675781,-0.1484375 z M 20.646484,42.1875 V 66.818359 91.447266 H 65.761719 110.875 V 66.818359 42.1875 H 65.761719 Z m 63.660157,7.783203 c 0.649842,0.0011 1.400552,0.02148 2.267578,0.02148 3.877012,0 4.774963,0.14558 5.449219,0.890624 0.714515,0.789525 0.80664,2.62677 0.80664,15.998047 0,11.098327 -0.155927,15.261395 -0.585937,15.691407 -0.381306,0.381306 -2.379055,0.583984 -5.734375,0.583984 -4.610151,0 -5.214249,-0.101495 -5.75586,-0.96875 -0.447017,-0.715782 -0.605468,-4.836114 -0.605468,-15.775391 -10e-7,-15.511189 -0.390691,-16.449052 4.158203,-16.441406 z m -37.001953,0.02734 c 1.651496,0.01779 3.053842,0.138478 3.441406,0.384765 0.441883,0.280806 0.604924,4.351065 0.646484,16.072266 0.03061,8.633236 -0.08318,15.922982 -0.253906,16.199219 -0.45052,0.728954 -10.146744,0.65599 -10.884766,-0.08203 -0.430386,-0.430387 -0.585937,-4.643875 -0.585937,-15.919922 0,-14.031715 0.07248,-15.389533 0.853515,-15.982422 0.586461,-0.445187 4.030707,-0.701524 6.783204,-0.671876 z m -5.685547,53.642577 v 4.14649 4.14453 h 4.144531 4.146484 v -4.14453 -4.14649 h -4.146484 z m 40.480468,0 v 4.14649 4.14453 h 4.390625 4.388672 v -4.14453 -4.14649 h -4.388672 z m 109.269531,0.48829 -0.13086,9.87695 -0.13281,9.875 -9.75391,0.24414 -9.7539,0.24414 -0.13282,8.90039 -0.13281,8.90235 h 9.23633 c 5.08081,0 9.58546,0.13209 10.00976,0.29492 0.66771,0.25622 0.77149,1.60077 0.77149,9.99804 v 9.70313 h 9.02344 9.02148 v -9.75391 c 0,-5.36494 0.0559,-9.79856 0.12305,-9.85156 0.0671,-0.053 4.62007,-0.21704 10.11914,-0.36523 l 10,-0.26954 v -8.77929 -8.7793 l -10,-0.26953 c -5.49907,-0.14818 -10.05204,-0.31224 -10.11914,-0.36523 -0.067,-0.053 -0.12305,-4.48662 -0.12305,-9.85157 v -9.7539 h -9.01172 z m -139.996093,9.26562 v 4.06445 c 0,2.2354 0.149225,4.21563 0.332031,4.39844 0.182805,0.18282 6.712216,0.27413 14.509766,0.20313 l 14.177734,-0.13086 0.140625,-4.26758 0.140625,-4.26758 h -14.65039 z" />
          <path
             id="path46"
             style="fill:#140c1c;fill-opacity:1;stroke:#140c1c;stroke-width:0.487722;stroke-opacity:1"
             d="m 123.06836,21.703125 v 55.357422 55.355473 h 4.14648 4.14454 v -19.89844 c -10e-6,-14.826766 0.14984,-20.048295 0.58593,-20.484377 0.37557,-0.375581 2.29801,-0.585937 5.36524,-0.585937 h 4.77929 V 87.302734 83.15625 h -4.66796 c -3.39548,0 -4.85845,-0.190479 -5.36524,-0.697266 -0.58875,-0.588759 -0.69729,-5.349116 -0.69726,-30.724609 v -30.03125 h -4.14454 z M 41.619141,52.429688 V 66.574219 80.71875 h 4.144531 4.146484 V 66.574219 52.429688 h -4.146484 z m 40.96875,0 V 66.574219 80.71875 h 4.144531 4.146484 V 66.574219 52.429688 h -4.146484 z m 60.964839,0 V 66.574219 80.71875 h 4.14649 4.14453 V 66.574219 52.429688 h -4.14453 z M 20.646484,144.12109 v 4.14649 4.14648 h 14.632813 14.630859 v -4.14648 -4.14649 H 35.279297 Z m 61.941407,0 v 4.14649 4.14648 H 96.732422 110.875 v -4.14648 -4.14649 H 96.732422 Z" />
          <path
             style="fill:#597dce;fill-opacity:1;stroke:#597dce;stroke-width:0.487722;stroke-opacity:1"
             d="M 10.892466,77.06012 V 21.703641 H 66.248945 121.60542 V 77.06012 132.4166 H 66.248945 10.892466 Z m 70.622186,45.99221 c 0.371298,-0.3713 0.585267,-2.24352 0.585267,-5.12108 v -4.53582 h 5.064201 c 4.839477,0 5.077247,-0.0487 5.358282,-1.09738 0.545484,-2.03546 0.331964,-8.92629 -0.302246,-9.75427 -0.853031,-1.11364 -10.448489,-1.40448 -11.123804,-0.33716 -0.244563,0.38653 -0.451387,2.45858 -0.4596,4.60456 -0.0082,2.14598 -0.191256,4.17955 -0.406756,4.51905 -0.304441,0.47963 -3.538498,0.58839 -14.50227,0.48773 l -14.11045,-0.12956 -0.138649,-4.9681 -0.13865,-4.96811 -5.098378,-0.15298 c -3.27124,-0.0982 -5.368821,0.0456 -5.853014,0.40099 -0.61676,0.45276 -0.72924,1.52207 -0.615639,5.85267 l 0.138996,5.2987 4.999153,0.13899 4.999153,0.139 v 4.59206 c 0,3.85887 0.136278,4.67143 0.853514,5.08919 1.291447,0.7522 29.994798,0.69761 30.75089,-0.0585 z M 112.53385,92.130567 c 0.16474,-0.429288 0.293,-14.360884 0.28502,-30.959101 -0.014,-29.206656 -0.0445,-30.19465 -0.94685,-30.677563 -1.0089,-0.539949 -89.599503,-0.725252 -91.5909,-0.191578 l -1.097375,0.294085 v 31.157342 31.157342 h 46.525296 c 42.202449,0 46.553129,-0.07252 46.824809,-0.780527 z"
             id="path63" />
          <path
             id="path65"
             style="fill:#30346d;fill-opacity:1;stroke:#30346d;stroke-width:0.487722;stroke-opacity:1"
             d="m 20.646484,11.460938 v 4.146484 4.144531 H 70.882812 121.11719 V 15.607422 11.460938 H 70.882812 Z m 0,20.484374 v 4.146485 4.144531 H 65.761719 110.875 V 36.091797 31.945312 H 65.761719 Z" />
        </g>
        <path
           id="path76"
           style="fill:#d14644;fill-opacity:1;stroke:#d14644;stroke-width:0.487722;stroke-opacity:1"
           d="m 288.89453,103.61914 -9.14453,0.13281 -9.14453,0.13282 -0.13477,8.27343 c -0.0738,4.55036 -0.027,8.55523 0.10547,8.90039 0.18433,0.48036 2.36113,0.62891 9.2793,0.62891 h 9.03906 v -9.03516 z m -38.04297,40.01563 v 9.02148 9.02344 h 9.02344 9.02344 v -9.02344 -9.02148 H 259.875 Z" />
      </g>
      <path
         style="fill:#30346d;fill-opacity:1;stroke:#30346d;stroke-width:0.487722;stroke-opacity:1"
         d="m 21.744287,153.55337 c -0.432776,-0.17463 -0.609653,-1.71503 -0.609653,-5.30938 v -5.06338 l -4.999153,-0.13899 -4.999154,-0.13899 -0.120033,-54.624898 c -0.06602,-30.043692 0.04372,-57.697545 0.243861,-61.453007 l 0.363895,-6.828112 4.738423,-0.139388 4.738422,-0.139389 0.1388,-4.981695 0.1388,-4.9816954 51.33277,-0.1241673 51.332765,-0.1241672 v 5.1062589 5.106258 l 4.99916,0.138993 4.99915,0.138992 0.32964,2.194751 c 0.1813,1.207112 0.34591,14.97917 0.36579,30.604573 l 0.0361,28.409822 h 4.63337 4.63336 V 66.370121 c 0,-8.159604 0.13321,-15.182804 0.29604,-15.607115 0.23868,-0.621993 1.11281,-0.770025 4.51143,-0.764004 2.31846,0.0041 4.5446,0.215381 4.94697,0.469496 0.61703,0.389679 0.75632,2.698738 0.88957,14.74613 0.10151,9.178041 -0.0249,14.763549 -0.35372,15.625339 -0.50856,1.332994 -0.54014,1.341237 -5.14008,1.341237 h -4.62836 l -0.139,4.999153 -0.13899,4.999153 -4.73456,0.139343 -4.73457,0.139342 -0.14266,19.661005 c -0.11455,15.78731 -0.27454,19.8198 -0.81203,20.46693 -0.53532,0.64452 -1.58527,0.80591 -5.24301,0.80591 h -4.57365 v 4.87723 4.87722 h -4.87722 -4.87722 l -0.007,4.51143 c -0.004,2.48129 -0.21537,4.84064 -0.46947,5.24301 -0.39112,0.61934 -2.72846,0.75091 -15.233859,0.85749 -8.947592,0.0763 -15.060298,-0.0607 -15.503433,-0.34737 -0.550175,-0.35591 -0.773362,-1.69398 -0.900067,-5.3961 l -0.168484,-4.92283 -14.023381,0.14911 c -10.998542,0.11695 -14.197153,0.2935 -14.828979,0.81849 -0.636742,0.52907 -0.805597,1.56499 -0.805597,4.94227 0,4.01887 -0.06524,4.29038 -1.097375,4.56698 -1.31321,0.35193 -28.632164,0.33748 -29.507198,-0.0156 z m 30.116851,-5.77352 v -4.63336 H 36.741747 21.622356 v 4.63336 4.63336 h 15.119391 15.119391 z m 60.965282,0 v -4.63336 H 98.194754 83.563086 v 4.63336 4.63336 H 98.194754 112.82642 Z M 123.55631,76.572398 V 20.728197 H 67.712112 11.867911 V 76.572398 132.4166 h 55.844201 55.844198 z m 9.85581,35.829452 c 0.12213,-17.154157 0.24706,-20.080798 0.87408,-20.476867 0.40237,-0.254167 2.76173,-0.465482 5.24302,-0.469589 l 4.51143,-0.0075 v -4.633362 -4.633361 l -4.51143,-0.0075 c -2.48129,-0.0039 -4.84065,-0.215486 -5.24302,-0.469721 -0.63497,-0.401215 -0.75001,-4.457777 -0.87114,-30.719037 l -0.13955,-30.256787 h -4.61574 -4.61574 V 76.572398 132.4166 h 4.6128 4.61279 z M 153.79509,66.086369 V 51.4547 h -4.63336 -4.63336 v 14.631669 14.631668 h 4.63336 4.63336 z M 123.06859,15.119391 V 10.486029 H 72.345473 21.622356 v 4.633362 4.633361 h 50.723117 50.723117 z"
         id="path89" />
    </g>
  </g>
</svg>
